<svg xmlns:svg="http://www.w3.org/2000/svg" xmlns="http://www.w3.org/2000/svg" width="800px" viewBox="221 23 900 775">
<g stroke-linecap="square">
<path d="M 300,320 L 500,320 L 500,620 L 580,620" stroke="#0000b2" stroke-width="4.0" fill="none" class="A5"/>
<path d="M 680,640 L 920,640 L 920,620 L 980,620" stroke="#0000b2" stroke-width="4.0" fill="none" class="adder1_SUM2"/>
<path d="M 300,580 L 440,580 L 440,260 L 580,260" stroke="#0000b2" stroke-width="4.0" fill="none" class="B3"/>
<path d="M 300,200 L 340,200 L 340,160 L 580,160" stroke="#0000b2" stroke-width="4.0" fill="none" class="A2"/>
<path d="M 680,200 L 720,200 L 720,400 L 560,400 L 560,760 L 580,760" stroke="#0000b2" stroke-width="4.0" fill="none" class="adder0_CO"/>
<path d="M 680,140 L 920,140 L 920,420 L 980,420" stroke="#0000b2" stroke-width="4.0" fill="none" class="adder0_SUM1"/>
<path d="M 300,460 L 380,460 L 380,200 L 580,200" stroke="#0000b2" stroke-width="4.0" fill="none" class="B0"/>
<path d="M 300,400 L 460,400 L 460,660 L 580,660" stroke="#0000b2" stroke-width="4.0" fill="none" class="A7"/>
<path d="M 300,660 L 340,660 L 340,700 L 580,700" stroke="#0000b2" stroke-width="4.0" fill="none" class="B5"/>
<path d="M 680,660 L 980,660" stroke="#0000b2" stroke-width="4.0" fill="none" class="adder1_SUM3"/>
<path d="M 300,280 L 520,280 L 520,600 L 580,600" stroke="#0000b2" stroke-width="4.0" fill="none" class="A4"/>
<path d="M 680,600 L 880,600 L 880,540 L 980,540" stroke="#0000b2" stroke-width="4.0" fill="none" class="adder1_SUM0"/>
<path d="M 300,540 L 420,540 L 420,240 L 580,240" stroke="#0000b2" stroke-width="4.0" fill="none" class="B2"/>
<path d="M 300,160 L 320,160 L 320,140 L 580,140" stroke="#0000b2" stroke-width="4.0" fill="none" class="A1"/>
<path d="M 680,160 L 900,160 L 900,460 L 980,460" stroke="#0000b2" stroke-width="4.0" fill="none" class="adder0_SUM2"/>
<path d="M 300,740 L 580,740" stroke="#0000b2" stroke-width="4.0" fill="none" class="B7"/>
<path d="M 680,680 L 920,680 L 920,740 L 980,740" stroke="#0000b2" stroke-width="4.0" fill="none" class="adder1_CO"/>
<path d="M 300,360 L 480,360 L 480,640 L 580,640" stroke="#0000b2" stroke-width="4.0" fill="none" class="A6"/>
<path d="M 300,40 L 560,40 L 560,280 L 580,280" stroke="#0000b2" stroke-width="4.0" fill="none" class="CI"/>
<path d="M 300,620 L 360,620 L 360,680 L 580,680" stroke="#0000b2" stroke-width="4.0" fill="none" class="B4"/>
<path d="M 680,620 L 900,620 L 900,580 L 980,580" stroke="#0000b2" stroke-width="4.0" fill="none" class="adder1_SUM1"/>
<path d="M 300,240 L 360,240 L 360,180 L 580,180" stroke="#0000b2" stroke-width="4.0" fill="none" class="A3"/>
<path d="M 680,180 L 880,180 L 880,500 L 980,500" stroke="#0000b2" stroke-width="4.0" fill="none" class="adder0_SUM3"/>
<path d="M 300,500 L 400,500 L 400,220 L 580,220" stroke="#0000b2" stroke-width="4.0" fill="none" class="B1"/>
<path d="M 300,120 L 580,120" stroke="#0000b2" stroke-width="4.0" fill="none" class="A0"/>
<path d="M 680,120 L 940,120 L 940,380 L 980,380" stroke="#0000b2" stroke-width="4.0" fill="none" class="adder0_SUM0"/>
<path d="M 300,700 L 320,700 L 320,720 L 580,720" stroke="#0000b2" stroke-width="4.0" fill="none" class="B6"/>
<g>
</g>
<g class="Input" id="A0" pointer-events="visible">
<path d="M 269,105 L 299,105 L 299,135 L 269,135 Z" stroke="#000000" stroke-width="4.0" fill="none"/>
<circle cx="284.0" cy="120.0" r="9.0" stroke="#000000" stroke-width="4.0" fill="none" class="A0"/>
<text text-anchor="end" x="255.0" y="129.0" fill="#000000" style="font-size:24px"><tspan style="font-style:italic;">A0</tspan></text>
<circle cx="300.0" cy="120.0" r="2.0" stroke="#b20000" stroke-width="4.0" fill="#b20000"/>
</g>
<g class="Input" id="A1" pointer-events="visible">
<path d="M 269,145 L 299,145 L 299,175 L 269,175 Z" stroke="#000000" stroke-width="4.0" fill="none"/>
<circle cx="284.0" cy="160.0" r="9.0" stroke="#000000" stroke-width="4.0" fill="none" class="A1"/>
<text text-anchor="end" x="255.0" y="169.0" fill="#000000" style="font-size:24px"><tspan style="font-style:italic;">A1</tspan></text>
<circle cx="300.0" cy="160.0" r="2.0" stroke="#b20000" stroke-width="4.0" fill="#b20000"/>
</g>
<g class="Input" id="A2" pointer-events="visible">
<path d="M 269,185 L 299,185 L 299,215 L 269,215 Z" stroke="#000000" stroke-width="4.0" fill="none"/>
<circle cx="284.0" cy="200.0" r="9.0" stroke="#000000" stroke-width="4.0" fill="none" class="A2"/>
<text text-anchor="end" x="255.0" y="209.0" fill="#000000" style="font-size:24px"><tspan style="font-style:italic;">A2</tspan></text>
<circle cx="300.0" cy="200.0" r="2.0" stroke="#b20000" stroke-width="4.0" fill="#b20000"/>
</g>
<g class="Input" id="A3" pointer-events="visible">
<path d="M 269,225 L 299,225 L 299,255 L 269,255 Z" stroke="#000000" stroke-width="4.0" fill="none"/>
<circle cx="284.0" cy="240.0" r="9.0" stroke="#000000" stroke-width="4.0" fill="none" class="A3"/>
<text text-anchor="end" x="255.0" y="249.0" fill="#000000" style="font-size:24px"><tspan style="font-style:italic;">A3</tspan></text>
<circle cx="300.0" cy="240.0" r="2.0" stroke="#b20000" stroke-width="4.0" fill="#b20000"/>
</g>
<g class="Input" id="A4" pointer-events="visible">
<path d="M 269,265 L 299,265 L 299,295 L 269,295 Z" stroke="#000000" stroke-width="4.0" fill="none"/>
<circle cx="284.0" cy="280.0" r="9.0" stroke="#000000" stroke-width="4.0" fill="none" class="A4"/>
<text text-anchor="end" x="255.0" y="289.0" fill="#000000" style="font-size:24px"><tspan style="font-style:italic;">A4</tspan></text>
<circle cx="300.0" cy="280.0" r="2.0" stroke="#b20000" stroke-width="4.0" fill="#b20000"/>
</g>
<g class="Input" id="A5" pointer-events="visible">
<path d="M 269,305 L 299,305 L 299,335 L 269,335 Z" stroke="#000000" stroke-width="4.0" fill="none"/>
<circle cx="284.0" cy="320.0" r="9.0" stroke="#000000" stroke-width="4.0" fill="none" class="A5"/>
<text text-anchor="end" x="255.0" y="329.0" fill="#000000" style="font-size:24px"><tspan style="font-style:italic;">A5</tspan></text>
<circle cx="300.0" cy="320.0" r="2.0" stroke="#b20000" stroke-width="4.0" fill="#b20000"/>
</g>
<g class="Input" id="A6" pointer-events="visible">
<path d="M 269,345 L 299,345 L 299,375 L 269,375 Z" stroke="#000000" stroke-width="4.0" fill="none"/>
<circle cx="284.0" cy="360.0" r="9.0" stroke="#000000" stroke-width="4.0" fill="none" class="A6"/>
<text text-anchor="end" x="255.0" y="369.0" fill="#000000" style="font-size:24px"><tspan style="font-style:italic;">A6</tspan></text>
<circle cx="300.0" cy="360.0" r="2.0" stroke="#b20000" stroke-width="4.0" fill="#b20000"/>
</g>
<g class="Input" id="A7" pointer-events="visible">
<path d="M 269,385 L 299,385 L 299,415 L 269,415 Z" stroke="#000000" stroke-width="4.0" fill="none"/>
<circle cx="284.0" cy="400.0" r="9.0" stroke="#000000" stroke-width="4.0" fill="none" class="A7"/>
<text text-anchor="end" x="255.0" y="409.0" fill="#000000" style="font-size:24px"><tspan style="font-style:italic;">A7</tspan></text>
<circle cx="300.0" cy="400.0" r="2.0" stroke="#b20000" stroke-width="4.0" fill="#b20000"/>
</g>
<g class="Input" id="B0" pointer-events="visible">
<path d="M 269,445 L 299,445 L 299,475 L 269,475 Z" stroke="#000000" stroke-width="4.0" fill="none"/>
<circle cx="284.0" cy="460.0" r="9.0" stroke="#000000" stroke-width="4.0" fill="none" class="B0"/>
<text text-anchor="end" x="255.0" y="469.0" fill="#000000" style="font-size:24px"><tspan style="font-style:italic;">B0</tspan></text>
<circle cx="300.0" cy="460.0" r="2.0" stroke="#b20000" stroke-width="4.0" fill="#b20000"/>
</g>
<g class="Input" id="B1" pointer-events="visible">
<path d="M 269,485 L 299,485 L 299,515 L 269,515 Z" stroke="#000000" stroke-width="4.0" fill="none"/>
<circle cx="284.0" cy="500.0" r="9.0" stroke="#000000" stroke-width="4.0" fill="none" class="B1"/>
<text text-anchor="end" x="255.0" y="509.0" fill="#000000" style="font-size:24px"><tspan style="font-style:italic;">B1</tspan></text>
<circle cx="300.0" cy="500.0" r="2.0" stroke="#b20000" stroke-width="4.0" fill="#b20000"/>
</g>
<g class="Input" id="B2" pointer-events="visible">
<path d="M 269,525 L 299,525 L 299,555 L 269,555 Z" stroke="#000000" stroke-width="4.0" fill="none"/>
<circle cx="284.0" cy="540.0" r="9.0" stroke="#000000" stroke-width="4.0" fill="none" class="B2"/>
<text text-anchor="end" x="255.0" y="549.0" fill="#000000" style="font-size:24px"><tspan style="font-style:italic;">B2</tspan></text>
<circle cx="300.0" cy="540.0" r="2.0" stroke="#b20000" stroke-width="4.0" fill="#b20000"/>
</g>
<g class="Input" id="B3" pointer-events="visible">
<path d="M 269,565 L 299,565 L 299,595 L 269,595 Z" stroke="#000000" stroke-width="4.0" fill="none"/>
<circle cx="284.0" cy="580.0" r="9.0" stroke="#000000" stroke-width="4.0" fill="none" class="B3"/>
<text text-anchor="end" x="255.0" y="589.0" fill="#000000" style="font-size:24px"><tspan style="font-style:italic;">B3</tspan></text>
<circle cx="300.0" cy="580.0" r="2.0" stroke="#b20000" stroke-width="4.0" fill="#b20000"/>
</g>
<g class="Input" id="B4" pointer-events="visible">
<path d="M 269,605 L 299,605 L 299,635 L 269,635 Z" stroke="#000000" stroke-width="4.0" fill="none"/>
<circle cx="284.0" cy="620.0" r="9.0" stroke="#000000" stroke-width="4.0" fill="none" class="B4"/>
<text text-anchor="end" x="255.0" y="629.0" fill="#000000" style="font-size:24px"><tspan style="font-style:italic;">B4</tspan></text>
<circle cx="300.0" cy="620.0" r="2.0" stroke="#b20000" stroke-width="4.0" fill="#b20000"/>
</g>
<g class="Input" id="B5" pointer-events="visible">
<path d="M 269,645 L 299,645 L 299,675 L 269,675 Z" stroke="#000000" stroke-width="4.0" fill="none"/>
<circle cx="284.0" cy="660.0" r="9.0" stroke="#000000" stroke-width="4.0" fill="none" class="B5"/>
<text text-anchor="end" x="255.0" y="669.0" fill="#000000" style="font-size:24px"><tspan style="font-style:italic;">B5</tspan></text>
<circle cx="300.0" cy="660.0" r="2.0" stroke="#b20000" stroke-width="4.0" fill="#b20000"/>
</g>
<g class="Input" id="B6" pointer-events="visible">
<path d="M 269,685 L 299,685 L 299,715 L 269,715 Z" stroke="#000000" stroke-width="4.0" fill="none"/>
<circle cx="284.0" cy="700.0" r="9.0" stroke="#000000" stroke-width="4.0" fill="none" class="B6"/>
<text text-anchor="end" x="255.0" y="709.0" fill="#000000" style="font-size:24px"><tspan style="font-style:italic;">B6</tspan></text>
<circle cx="300.0" cy="700.0" r="2.0" stroke="#b20000" stroke-width="4.0" fill="#b20000"/>
</g>
<g class="Input" id="B7" pointer-events="visible">
<path d="M 269,725 L 299,725 L 299,755 L 269,755 Z" stroke="#000000" stroke-width="4.0" fill="none"/>
<circle cx="284.0" cy="740.0" r="9.0" stroke="#000000" stroke-width="4.0" fill="none" class="B7"/>
<text text-anchor="end" x="255.0" y="749.0" fill="#000000" style="font-size:24px"><tspan style="font-style:italic;">B7</tspan></text>
<circle cx="300.0" cy="740.0" r="2.0" stroke="#b20000" stroke-width="4.0" fill="#b20000"/>
</g>
<g class="Input" id="CI" pointer-events="visible">
<path d="M 269,25 L 299,25 L 299,55 L 269,55 Z" stroke="#000000" stroke-width="4.0" fill="none"/>
<circle cx="284.0" cy="40.0" r="9.0" stroke="#000000" stroke-width="4.0" fill="none" class="CI"/>
<text text-anchor="end" x="255.0" y="49.0" fill="#000000" style="font-size:24px"><tspan style="font-style:italic;">CI</tspan></text>
<circle cx="300.0" cy="40.0" r="2.0" stroke="#b20000" stroke-width="4.0" fill="#b20000"/>
</g>
<g class="Output" id="SUM0">
<circle cx="996.0" cy="380.0" r="9.0" stroke="#000000" stroke-width="4.0" fill="none" class="adder0_SUM0"/>
<circle cx="996.0" cy="380.0" r="15.0" stroke="#000000" stroke-width="4.0" fill="none" class="SUM0"/>
<text text-anchor="start" x="1025.0" y="389.0" fill="#000000" style="font-size:24px"><tspan style="font-style:italic;">SUM0</tspan></text>
<circle cx="980.0" cy="380.0" r="2.0" stroke="#0000b2" stroke-width="4.0" fill="#0000b2"/>
</g>
<g class="Output" id="SUM1">
<circle cx="996.0" cy="420.0" r="9.0" stroke="#000000" stroke-width="4.0" fill="none" class="adder0_SUM1"/>
<circle cx="996.0" cy="420.0" r="15.0" stroke="#000000" stroke-width="4.0" fill="none" class="SUM1"/>
<text text-anchor="start" x="1025.0" y="429.0" fill="#000000" style="font-size:24px"><tspan style="font-style:italic;">SUM1</tspan></text>
<circle cx="980.0" cy="420.0" r="2.0" stroke="#0000b2" stroke-width="4.0" fill="#0000b2"/>
</g>
<g class="Output" id="SUM2">
<circle cx="996.0" cy="460.0" r="9.0" stroke="#000000" stroke-width="4.0" fill="none" class="adder0_SUM2"/>
<circle cx="996.0" cy="460.0" r="15.0" stroke="#000000" stroke-width="4.0" fill="none" class="SUM2"/>
<text text-anchor="start" x="1025.0" y="469.0" fill="#000000" style="font-size:24px"><tspan style="font-style:italic;">SUM2</tspan></text>
<circle cx="980.0" cy="460.0" r="2.0" stroke="#0000b2" stroke-width="4.0" fill="#0000b2"/>
</g>
<g class="Output" id="SUM3">
<circle cx="996.0" cy="500.0" r="9.0" stroke="#000000" stroke-width="4.0" fill="none" class="adder0_SUM3"/>
<circle cx="996.0" cy="500.0" r="15.0" stroke="#000000" stroke-width="4.0" fill="none" class="SUM3"/>
<text text-anchor="start" x="1025.0" y="509.0" fill="#000000" style="font-size:24px"><tspan style="font-style:italic;">SUM3</tspan></text>
<circle cx="980.0" cy="500.0" r="2.0" stroke="#0000b2" stroke-width="4.0" fill="#0000b2"/>
</g>
<g class="Output" id="SUM4">
<circle cx="996.0" cy="540.0" r="9.0" stroke="#000000" stroke-width="4.0" fill="none" class="adder1_SUM0"/>
<circle cx="996.0" cy="540.0" r="15.0" stroke="#000000" stroke-width="4.0" fill="none" class="SUM4"/>
<text text-anchor="start" x="1025.0" y="549.0" fill="#000000" style="font-size:24px"><tspan style="font-style:italic;">SUM4</tspan></text>
<circle cx="980.0" cy="540.0" r="2.0" stroke="#0000b2" stroke-width="4.0" fill="#0000b2"/>
</g>
<g class="Output" id="SUM5">
<circle cx="996.0" cy="580.0" r="9.0" stroke="#000000" stroke-width="4.0" fill="none" class="adder1_SUM1"/>
<circle cx="996.0" cy="580.0" r="15.0" stroke="#000000" stroke-width="4.0" fill="none" class="SUM5"/>
<text text-anchor="start" x="1025.0" y="589.0" fill="#000000" style="font-size:24px"><tspan style="font-style:italic;">SUM5</tspan></text>
<circle cx="980.0" cy="580.0" r="2.0" stroke="#0000b2" stroke-width="4.0" fill="#0000b2"/>
</g>
<g class="Output" id="SUM6">
<circle cx="996.0" cy="620.0" r="9.0" stroke="#000000" stroke-width="4.0" fill="none" class="adder1_SUM2"/>
<circle cx="996.0" cy="620.0" r="15.0" stroke="#000000" stroke-width="4.0" fill="none" class="SUM6"/>
<text text-anchor="start" x="1025.0" y="629.0" fill="#000000" style="font-size:24px"><tspan style="font-style:italic;">SUM6</tspan></text>
<circle cx="980.0" cy="620.0" r="2.0" stroke="#0000b2" stroke-width="4.0" fill="#0000b2"/>
</g>
<g class="Output" id="SUM7">
<circle cx="996.0" cy="660.0" r="9.0" stroke="#000000" stroke-width="4.0" fill="none" class="adder1_SUM3"/>
<circle cx="996.0" cy="660.0" r="15.0" stroke="#000000" stroke-width="4.0" fill="none" class="SUM7"/>
<text text-anchor="start" x="1025.0" y="669.0" fill="#000000" style="font-size:24px"><tspan style="font-style:italic;">SUM7</tspan></text>
<circle cx="980.0" cy="660.0" r="2.0" stroke="#0000b2" stroke-width="4.0" fill="#0000b2"/>
</g>
<g class="Output" id="CO">
<circle cx="996.0" cy="740.0" r="9.0" stroke="#000000" stroke-width="4.0" fill="none" class="adder1_CO"/>
<circle cx="996.0" cy="740.0" r="15.0" stroke="#000000" stroke-width="4.0" fill="none" class="CO"/>
<text text-anchor="start" x="1025.0" y="749.0" fill="#000000" style="font-size:24px"><tspan style="font-style:italic;">CO</tspan></text>
<circle cx="980.0" cy="740.0" r="2.0" stroke="#0000b2" stroke-width="4.0" fill="#0000b2"/>
</g>
<g class="ADDER4" pointer-events="visible">
<path d="M 581,106 L 679,106 L 679,294 L 581,294 Z" stroke="#ffffb4" stroke-width="0.0" fill="#ffffb4" fill-opacity="0.7843137254901961"/>
<path d="M 581,106 L 679,106 L 679,294 L 581,294 Z" stroke="#000000" stroke-width="4.0" fill="none"/>
<text text-anchor="start" x="584.0" y="126.75" fill="#808080" style="font-size:18px">A0</text>
<text text-anchor="start" x="584.0" y="146.75" fill="#808080" style="font-size:18px">A1</text>
<text text-anchor="start" x="584.0" y="166.75" fill="#808080" style="font-size:18px">A2</text>
<text text-anchor="start" x="584.0" y="186.75" fill="#808080" style="font-size:18px">A3</text>
<text text-anchor="start" x="584.0" y="206.75" fill="#808080" style="font-size:18px">B0</text>
<text text-anchor="start" x="584.0" y="226.75" fill="#808080" style="font-size:18px">B1</text>
<text text-anchor="start" x="584.0" y="246.75" fill="#808080" style="font-size:18px">B2</text>
<text text-anchor="start" x="584.0" y="266.75" fill="#808080" style="font-size:18px">B3</text>
<text text-anchor="start" x="584.0" y="286.75" fill="#808080" style="font-size:18px">CI</text>
<text text-anchor="end" x="676.0" y="126.75" fill="#808080" style="font-size:18px">SUM0</text>
<text text-anchor="end" x="676.0" y="146.75" fill="#808080" style="font-size:18px">SUM1</text>
<text text-anchor="end" x="676.0" y="166.75" fill="#808080" style="font-size:18px">SUM2</text>
<text text-anchor="end" x="676.0" y="186.75" fill="#808080" style="font-size:18px">SUM3</text>
<text text-anchor="end" x="676.0" y="206.75" fill="#808080" style="font-size:18px">C0</text>
<text text-anchor="middle" x="630.0" y="311.5" fill="#808080" style="font-size:18px">ADDER4</text>
<circle cx="580.0" cy="120.0" r="2.0" stroke="#0000b2" stroke-width="4.0" fill="#0000b2"/>
<circle cx="580.0" cy="140.0" r="2.0" stroke="#0000b2" stroke-width="4.0" fill="#0000b2"/>
<circle cx="580.0" cy="160.0" r="2.0" stroke="#0000b2" stroke-width="4.0" fill="#0000b2"/>
<circle cx="580.0" cy="180.0" r="2.0" stroke="#0000b2" stroke-width="4.0" fill="#0000b2"/>
<circle cx="580.0" cy="200.0" r="2.0" stroke="#0000b2" stroke-width="4.0" fill="#0000b2"/>
<circle cx="580.0" cy="220.0" r="2.0" stroke="#0000b2" stroke-width="4.0" fill="#0000b2"/>
<circle cx="580.0" cy="240.0" r="2.0" stroke="#0000b2" stroke-width="4.0" fill="#0000b2"/>
<circle cx="580.0" cy="260.0" r="2.0" stroke="#0000b2" stroke-width="4.0" fill="#0000b2"/>
<circle cx="580.0" cy="280.0" r="2.0" stroke="#0000b2" stroke-width="4.0" fill="#0000b2"/>
<circle cx="680.0" cy="120.0" r="2.0" stroke="#b20000" stroke-width="4.0" fill="#b20000"/>
<circle cx="680.0" cy="140.0" r="2.0" stroke="#b20000" stroke-width="4.0" fill="#b20000"/>
<circle cx="680.0" cy="160.0" r="2.0" stroke="#b20000" stroke-width="4.0" fill="#b20000"/>
<circle cx="680.0" cy="180.0" r="2.0" stroke="#b20000" stroke-width="4.0" fill="#b20000"/>
<circle cx="680.0" cy="200.0" r="2.0" stroke="#b20000" stroke-width="4.0" fill="#b20000"/>
</g>
<g class="ADDER4" pointer-events="visible">
<path d="M 581,586 L 679,586 L 679,774 L 581,774 Z" stroke="#ffffb4" stroke-width="0.0" fill="#ffffb4" fill-opacity="0.7843137254901961"/>
<path d="M 581,586 L 679,586 L 679,774 L 581,774 Z" stroke="#000000" stroke-width="4.0" fill="none"/>
<text text-anchor="start" x="584.0" y="606.75" fill="#808080" style="font-size:18px">A0</text>
<text text-anchor="start" x="584.0" y="626.75" fill="#808080" style="font-size:18px">A1</text>
<text text-anchor="start" x="584.0" y="646.75" fill="#808080" style="font-size:18px">A2</text>
<text text-anchor="start" x="584.0" y="666.75" fill="#808080" style="font-size:18px">A3</text>
<text text-anchor="start" x="584.0" y="686.75" fill="#808080" style="font-size:18px">B0</text>
<text text-anchor="start" x="584.0" y="706.75" fill="#808080" style="font-size:18px">B1</text>
<text text-anchor="start" x="584.0" y="726.75" fill="#808080" style="font-size:18px">B2</text>
<text text-anchor="start" x="584.0" y="746.75" fill="#808080" style="font-size:18px">B3</text>
<text text-anchor="start" x="584.0" y="766.75" fill="#808080" style="font-size:18px">CI</text>
<text text-anchor="end" x="676.0" y="606.75" fill="#808080" style="font-size:18px">SUM0</text>
<text text-anchor="end" x="676.0" y="626.75" fill="#808080" style="font-size:18px">SUM1</text>
<text text-anchor="end" x="676.0" y="646.75" fill="#808080" style="font-size:18px">SUM2</text>
<text text-anchor="end" x="676.0" y="666.75" fill="#808080" style="font-size:18px">SUM3</text>
<text text-anchor="end" x="676.0" y="686.75" fill="#808080" style="font-size:18px">C0</text>
<text text-anchor="middle" x="630.0" y="791.5" fill="#808080" style="font-size:18px">ADDER4</text>
<circle cx="580.0" cy="600.0" r="2.0" stroke="#0000b2" stroke-width="4.0" fill="#0000b2"/>
<circle cx="580.0" cy="620.0" r="2.0" stroke="#0000b2" stroke-width="4.0" fill="#0000b2"/>
<circle cx="580.0" cy="640.0" r="2.0" stroke="#0000b2" stroke-width="4.0" fill="#0000b2"/>
<circle cx="580.0" cy="660.0" r="2.0" stroke="#0000b2" stroke-width="4.0" fill="#0000b2"/>
<circle cx="580.0" cy="680.0" r="2.0" stroke="#0000b2" stroke-width="4.0" fill="#0000b2"/>
<circle cx="580.0" cy="700.0" r="2.0" stroke="#0000b2" stroke-width="4.0" fill="#0000b2"/>
<circle cx="580.0" cy="720.0" r="2.0" stroke="#0000b2" stroke-width="4.0" fill="#0000b2"/>
<circle cx="580.0" cy="740.0" r="2.0" stroke="#0000b2" stroke-width="4.0" fill="#0000b2"/>
<circle cx="580.0" cy="760.0" r="2.0" stroke="#0000b2" stroke-width="4.0" fill="#0000b2"/>
<circle cx="680.0" cy="600.0" r="2.0" stroke="#b20000" stroke-width="4.0" fill="#b20000"/>
<circle cx="680.0" cy="620.0" r="2.0" stroke="#b20000" stroke-width="4.0" fill="#b20000"/>
<circle cx="680.0" cy="640.0" r="2.0" stroke="#b20000" stroke-width="4.0" fill="#b20000"/>
<circle cx="680.0" cy="660.0" r="2.0" stroke="#b20000" stroke-width="4.0" fill="#b20000"/>
<circle cx="680.0" cy="680.0" r="2.0" stroke="#b20000" stroke-width="4.0" fill="#b20000"/>
</g>
</g>
</svg>