<svg xmlns:svg="http://www.w3.org/2000/svg" xmlns="http://www.w3.org/2000/svg" width="1000px" viewBox="81 23 800 494">
<g stroke-linecap="square">
<path d="M 580,320 L 600,320 L 600,440 L 620,440" stroke="#0000b2" stroke-width="4.0" fill="none" class="fullAdder2_CO"/>
<path d="M 160,100 L 320,100" stroke="#0000b2" stroke-width="4.0" fill="none" class="A0"/>
<path d="M 380,100 L 740,100" stroke="#0000b2" stroke-width="4.0" fill="none" class="fullAdder0_S"/>
<path d="M 160,420 L 620,420" stroke="#0000b2" stroke-width="4.0" fill="none" class="B3"/>
<path d="M 680,420 L 700,420 L 700,500 L 740,500" stroke="#0000b2" stroke-width="4.0" fill="none" class="fullAdder3_CO"/>
<path d="M 480,200 L 740,200" stroke="#0000b2" stroke-width="4.0" fill="none" class="fullAdder1_S"/>
<path d="M 160,40 L 300,40 L 300,140 L 320,140" stroke="#0000b2" stroke-width="4.0" fill="none" class="CI"/>
<path d="M 160,140 L 280,140 L 280,200 L 420,200" stroke="#0000b2" stroke-width="4.0" fill="none" class="A1"/>
<path d="M 160,300 L 220,300 L 220,120 L 320,120" stroke="#0000b2" stroke-width="4.0" fill="none" class="B0"/>
<path d="M 580,300 L 740,300" stroke="#0000b2" stroke-width="4.0" fill="none" class="fullAdder2_S"/>
<path d="M 680,400 L 740,400" stroke="#0000b2" stroke-width="4.0" fill="none" class="fullAdder3_S"/>
<path d="M 160,180 L 260,180 L 260,300 L 520,300" stroke="#0000b2" stroke-width="4.0" fill="none" class="A2"/>
<path d="M 160,340 L 280,340 L 280,220 L 420,220" stroke="#0000b2" stroke-width="4.0" fill="none" class="B1"/>
<path d="M 380,120 L 400,120 L 400,240 L 420,240" stroke="#0000b2" stroke-width="4.0" fill="none" class="fullAdder0_CO"/>
<path d="M 160,220 L 240,220 L 240,400 L 620,400" stroke="#0000b2" stroke-width="4.0" fill="none" class="A3"/>
<path d="M 480,220 L 500,220 L 500,340 L 520,340" stroke="#0000b2" stroke-width="4.0" fill="none" class="fullAdder1_CO"/>
<path d="M 160,380 L 300,380 L 300,320 L 520,320" stroke="#0000b2" stroke-width="4.0" fill="none" class="B2"/>
<g>
</g>
<g class="Input" id="A0" pointer-events="visible">
<path d="M 129,85 L 159,85 L 159,115 L 129,115 Z" stroke="#000000" stroke-width="4.0" fill="none"/>
<circle cx="144.0" cy="100.0" r="9.0" stroke="#000000" stroke-width="4.0" fill="none" class="A0"/>
<text text-anchor="end" x="115.0" y="109.0" fill="#000000" style="font-size:24px"><tspan style="font-style:italic;">A0</tspan></text>
<circle cx="160.0" cy="100.0" r="2.0" stroke="#b20000" stroke-width="4.0" fill="#b20000"/>
</g>
<g class="Input" id="A1" pointer-events="visible">
<path d="M 129,125 L 159,125 L 159,155 L 129,155 Z" stroke="#000000" stroke-width="4.0" fill="none"/>
<circle cx="144.0" cy="140.0" r="9.0" stroke="#000000" stroke-width="4.0" fill="none" class="A1"/>
<text text-anchor="end" x="115.0" y="149.0" fill="#000000" style="font-size:24px"><tspan style="font-style:italic;">A1</tspan></text>
<circle cx="160.0" cy="140.0" r="2.0" stroke="#b20000" stroke-width="4.0" fill="#b20000"/>
</g>
<g class="Input" id="A2" pointer-events="visible">
<path d="M 129,165 L 159,165 L 159,195 L 129,195 Z" stroke="#000000" stroke-width="4.0" fill="none"/>
<circle cx="144.0" cy="180.0" r="9.0" stroke="#000000" stroke-width="4.0" fill="none" class="A2"/>
<text text-anchor="end" x="115.0" y="189.0" fill="#000000" style="font-size:24px"><tspan style="font-style:italic;">A2</tspan></text>
<circle cx="160.0" cy="180.0" r="2.0" stroke="#b20000" stroke-width="4.0" fill="#b20000"/>
</g>
<g class="Input" id="A3" pointer-events="visible">
<path d="M 129,205 L 159,205 L 159,235 L 129,235 Z" stroke="#000000" stroke-width="4.0" fill="none"/>
<circle cx="144.0" cy="220.0" r="9.0" stroke="#000000" stroke-width="4.0" fill="none" class="A3"/>
<text text-anchor="end" x="115.0" y="229.0" fill="#000000" style="font-size:24px"><tspan style="font-style:italic;">A3</tspan></text>
<circle cx="160.0" cy="220.0" r="2.0" stroke="#b20000" stroke-width="4.0" fill="#b20000"/>
</g>
<g class="Input" id="B0" pointer-events="visible">
<path d="M 129,285 L 159,285 L 159,315 L 129,315 Z" stroke="#000000" stroke-width="4.0" fill="none"/>
<circle cx="144.0" cy="300.0" r="9.0" stroke="#000000" stroke-width="4.0" fill="none" class="B0"/>
<text text-anchor="end" x="115.0" y="309.0" fill="#000000" style="font-size:24px"><tspan style="font-style:italic;">B0</tspan></text>
<circle cx="160.0" cy="300.0" r="2.0" stroke="#b20000" stroke-width="4.0" fill="#b20000"/>
</g>
<g class="Input" id="B1" pointer-events="visible">
<path d="M 129,325 L 159,325 L 159,355 L 129,355 Z" stroke="#000000" stroke-width="4.0" fill="none"/>
<circle cx="144.0" cy="340.0" r="9.0" stroke="#000000" stroke-width="4.0" fill="none" class="B1"/>
<text text-anchor="end" x="115.0" y="349.0" fill="#000000" style="font-size:24px"><tspan style="font-style:italic;">B1</tspan></text>
<circle cx="160.0" cy="340.0" r="2.0" stroke="#b20000" stroke-width="4.0" fill="#b20000"/>
</g>
<g class="Input" id="B2" pointer-events="visible">
<path d="M 129,365 L 159,365 L 159,395 L 129,395 Z" stroke="#000000" stroke-width="4.0" fill="none"/>
<circle cx="144.0" cy="380.0" r="9.0" stroke="#000000" stroke-width="4.0" fill="none" class="B2"/>
<text text-anchor="end" x="115.0" y="389.0" fill="#000000" style="font-size:24px"><tspan style="font-style:italic;">B2</tspan></text>
<circle cx="160.0" cy="380.0" r="2.0" stroke="#b20000" stroke-width="4.0" fill="#b20000"/>
</g>
<g class="Input" id="B3" pointer-events="visible">
<path d="M 129,405 L 159,405 L 159,435 L 129,435 Z" stroke="#000000" stroke-width="4.0" fill="none"/>
<circle cx="144.0" cy="420.0" r="9.0" stroke="#000000" stroke-width="4.0" fill="none" class="B3"/>
<text text-anchor="end" x="115.0" y="429.0" fill="#000000" style="font-size:24px"><tspan style="font-style:italic;">B3</tspan></text>
<circle cx="160.0" cy="420.0" r="2.0" stroke="#b20000" stroke-width="4.0" fill="#b20000"/>
</g>
<g class="Input" id="CI" pointer-events="visible">
<path d="M 129,25 L 159,25 L 159,55 L 129,55 Z" stroke="#000000" stroke-width="4.0" fill="none"/>
<circle cx="144.0" cy="40.0" r="9.0" stroke="#000000" stroke-width="4.0" fill="none" class="CI"/>
<text text-anchor="end" x="115.0" y="49.0" fill="#000000" style="font-size:24px"><tspan style="font-style:italic;">CI</tspan></text>
<circle cx="160.0" cy="40.0" r="2.0" stroke="#b20000" stroke-width="4.0" fill="#b20000"/>
</g>
<g class="Output" id="SUM0">
<circle cx="756.0" cy="100.0" r="9.0" stroke="#000000" stroke-width="4.0" fill="none" class="fullAdder0_S"/>
<circle cx="756.0" cy="100.0" r="15.0" stroke="#000000" stroke-width="4.0" fill="none" class="SUM0"/>
<text text-anchor="start" x="785.0" y="109.0" fill="#000000" style="font-size:24px"><tspan style="font-style:italic;">SUM0</tspan></text>
<circle cx="740.0" cy="100.0" r="2.0" stroke="#0000b2" stroke-width="4.0" fill="#0000b2"/>
</g>
<g class="Output" id="SUM1">
<circle cx="756.0" cy="200.0" r="9.0" stroke="#000000" stroke-width="4.0" fill="none" class="fullAdder1_S"/>
<circle cx="756.0" cy="200.0" r="15.0" stroke="#000000" stroke-width="4.0" fill="none" class="SUM1"/>
<text text-anchor="start" x="785.0" y="209.0" fill="#000000" style="font-size:24px"><tspan style="font-style:italic;">SUM1</tspan></text>
<circle cx="740.0" cy="200.0" r="2.0" stroke="#0000b2" stroke-width="4.0" fill="#0000b2"/>
</g>
<g class="Output" id="SUM2">
<circle cx="756.0" cy="300.0" r="9.0" stroke="#000000" stroke-width="4.0" fill="none" class="fullAdder2_S"/>
<circle cx="756.0" cy="300.0" r="15.0" stroke="#000000" stroke-width="4.0" fill="none" class="SUM2"/>
<text text-anchor="start" x="785.0" y="309.0" fill="#000000" style="font-size:24px"><tspan style="font-style:italic;">SUM2</tspan></text>
<circle cx="740.0" cy="300.0" r="2.0" stroke="#0000b2" stroke-width="4.0" fill="#0000b2"/>
</g>
<g class="Output" id="SUM3">
<circle cx="756.0" cy="400.0" r="9.0" stroke="#000000" stroke-width="4.0" fill="none" class="fullAdder3_S"/>
<circle cx="756.0" cy="400.0" r="15.0" stroke="#000000" stroke-width="4.0" fill="none" class="SUM3"/>
<text text-anchor="start" x="785.0" y="409.0" fill="#000000" style="font-size:24px"><tspan style="font-style:italic;">SUM3</tspan></text>
<circle cx="740.0" cy="400.0" r="2.0" stroke="#0000b2" stroke-width="4.0" fill="#0000b2"/>
</g>
<g class="Output" id="C0">
<circle cx="756.0" cy="500.0" r="9.0" stroke="#000000" stroke-width="4.0" fill="none" class="fullAdder3_CO"/>
<circle cx="756.0" cy="500.0" r="15.0" stroke="#000000" stroke-width="4.0" fill="none"/>
<text text-anchor="start" x="785.0" y="509.0" fill="#000000" style="font-size:24px"><tspan style="font-style:italic;">CO</tspan></text>
<circle cx="740.0" cy="500.0" r="2.0" stroke="#0000b2" stroke-width="4.0" fill="#0000b2"/>
</g>
<g class="FULLADDER" pointer-events="visible">
<path d="M 321,86 L 379,86 L 379,154 L 321,154 Z" stroke="#ffffb4" stroke-width="0.0" fill="#ffffb4" fill-opacity="0.7843137254901961"/>
<path d="M 321,86 L 379,86 L 379,154 L 321,154 Z" stroke="#000000" stroke-width="4.0" fill="none"/>
<text text-anchor="start" x="324.0" y="106.75" fill="#808080" style="font-size:18px">A</text>
<text text-anchor="start" x="324.0" y="126.75" fill="#808080" style="font-size:18px">B</text>
<text text-anchor="start" x="324.0" y="146.75" fill="#808080" style="font-size:18px">CI</text>
<text text-anchor="end" x="376.0" y="106.75" fill="#808080" style="font-size:18px">S</text>
<text text-anchor="end" x="376.0" y="126.75" fill="#808080" style="font-size:18px">CO</text>
<text text-anchor="middle" x="350.0" y="171.5" fill="#808080" style="font-size:18px">FULLADDER</text>
<circle cx="320.0" cy="100.0" r="2.0" stroke="#0000b2" stroke-width="4.0" fill="#0000b2"/>
<circle cx="320.0" cy="120.0" r="2.0" stroke="#0000b2" stroke-width="4.0" fill="#0000b2"/>
<circle cx="320.0" cy="140.0" r="2.0" stroke="#0000b2" stroke-width="4.0" fill="#0000b2"/>
<circle cx="380.0" cy="100.0" r="2.0" stroke="#b20000" stroke-width="4.0" fill="#b20000"/>
<circle cx="380.0" cy="120.0" r="2.0" stroke="#b20000" stroke-width="4.0" fill="#b20000"/>
</g>
<g class="FULLADDER" pointer-events="visible">
<path d="M 421,186 L 479,186 L 479,254 L 421,254 Z" stroke="#ffffb4" stroke-width="0.0" fill="#ffffb4" fill-opacity="0.7843137254901961"/>
<path d="M 421,186 L 479,186 L 479,254 L 421,254 Z" stroke="#000000" stroke-width="4.0" fill="none"/>
<text text-anchor="start" x="424.0" y="206.75" fill="#808080" style="font-size:18px">A</text>
<text text-anchor="start" x="424.0" y="226.75" fill="#808080" style="font-size:18px">B</text>
<text text-anchor="start" x="424.0" y="246.75" fill="#808080" style="font-size:18px">CI</text>
<text text-anchor="end" x="476.0" y="206.75" fill="#808080" style="font-size:18px">S</text>
<text text-anchor="end" x="476.0" y="226.75" fill="#808080" style="font-size:18px">CO</text>
<text text-anchor="middle" x="450.0" y="271.5" fill="#808080" style="font-size:18px">FULLADDER</text>
<circle cx="420.0" cy="200.0" r="2.0" stroke="#0000b2" stroke-width="4.0" fill="#0000b2"/>
<circle cx="420.0" cy="220.0" r="2.0" stroke="#0000b2" stroke-width="4.0" fill="#0000b2"/>
<circle cx="420.0" cy="240.0" r="2.0" stroke="#0000b2" stroke-width="4.0" fill="#0000b2"/>
<circle cx="480.0" cy="200.0" r="2.0" stroke="#b20000" stroke-width="4.0" fill="#b20000"/>
<circle cx="480.0" cy="220.0" r="2.0" stroke="#b20000" stroke-width="4.0" fill="#b20000"/>
</g>
<g class="FULLADDER" pointer-events="visible">
<path d="M 521,286 L 579,286 L 579,354 L 521,354 Z" stroke="#ffffb4" stroke-width="0.0" fill="#ffffb4" fill-opacity="0.7843137254901961"/>
<path d="M 521,286 L 579,286 L 579,354 L 521,354 Z" stroke="#000000" stroke-width="4.0" fill="none"/>
<text text-anchor="start" x="524.0" y="306.75" fill="#808080" style="font-size:18px">A</text>
<text text-anchor="start" x="524.0" y="326.75" fill="#808080" style="font-size:18px">B</text>
<text text-anchor="start" x="524.0" y="346.75" fill="#808080" style="font-size:18px">CI</text>
<text text-anchor="end" x="576.0" y="306.75" fill="#808080" style="font-size:18px">S</text>
<text text-anchor="end" x="576.0" y="326.75" fill="#808080" style="font-size:18px">CO</text>
<text text-anchor="middle" x="550.0" y="371.5" fill="#808080" style="font-size:18px">FULLADDER</text>
<circle cx="520.0" cy="300.0" r="2.0" stroke="#0000b2" stroke-width="4.0" fill="#0000b2"/>
<circle cx="520.0" cy="320.0" r="2.0" stroke="#0000b2" stroke-width="4.0" fill="#0000b2"/>
<circle cx="520.0" cy="340.0" r="2.0" stroke="#0000b2" stroke-width="4.0" fill="#0000b2"/>
<circle cx="580.0" cy="300.0" r="2.0" stroke="#b20000" stroke-width="4.0" fill="#b20000"/>
<circle cx="580.0" cy="320.0" r="2.0" stroke="#b20000" stroke-width="4.0" fill="#b20000"/>
</g>
<g class="FULLADDER" pointer-events="visible">
<path d="M 621,386 L 679,386 L 679,454 L 621,454 Z" stroke="#ffffb4" stroke-width="0.0" fill="#ffffb4" fill-opacity="0.7843137254901961"/>
<path d="M 621,386 L 679,386 L 679,454 L 621,454 Z" stroke="#000000" stroke-width="4.0" fill="none"/>
<text text-anchor="start" x="624.0" y="406.75" fill="#808080" style="font-size:18px">A</text>
<text text-anchor="start" x="624.0" y="426.75" fill="#808080" style="font-size:18px">B</text>
<text text-anchor="start" x="624.0" y="446.75" fill="#808080" style="font-size:18px">CI</text>
<text text-anchor="end" x="676.0" y="406.75" fill="#808080" style="font-size:18px">S</text>
<text text-anchor="end" x="676.0" y="426.75" fill="#808080" style="font-size:18px">CO</text>
<text text-anchor="middle" x="650.0" y="471.5" fill="#808080" style="font-size:18px">FULLADDER</text>
<circle cx="620.0" cy="400.0" r="2.0" stroke="#0000b2" stroke-width="4.0" fill="#0000b2"/>
<circle cx="620.0" cy="420.0" r="2.0" stroke="#0000b2" stroke-width="4.0" fill="#0000b2"/>
<circle cx="620.0" cy="440.0" r="2.0" stroke="#0000b2" stroke-width="4.0" fill="#0000b2"/>
<circle cx="680.0" cy="400.0" r="2.0" stroke="#b20000" stroke-width="4.0" fill="#b20000"/>
<circle cx="680.0" cy="420.0" r="2.0" stroke="#b20000" stroke-width="4.0" fill="#b20000"/>
</g>
</g>
</svg>