<svg xmlns:svg="http://www.w3.org/2000/svg" xmlns="http://www.w3.org/2000/svg" width="600px" viewBox="301 103 930 1054">
<g stroke-linecap="square">
<path d="M 380,320 L 480,320 L 480,220 L 780,220" stroke="#0000b2" stroke-width="4.0" fill="none" class="A5"/>
<path d="M 520,640 L 580,640 L 580,320 L 780,320" stroke="#0000b2" stroke-width="4.0" fill="none" class="xor2_OUT"/>
<path d="M 520,960 L 660,960 L 660,400 L 780,400" stroke="#0000b2" stroke-width="4.0" fill="none" class="xor6_OUT"/>
<path d="M 920,260 L 980,260 L 980,400 L 1120,400" stroke="#0000b2" stroke-width="4.0" fill="none" class="adder_SUM7"/>
<path d="M 380,200 L 420,200 L 420,160 L 780,160" stroke="#0000b2" stroke-width="4.0" fill="none" class="A2"/>
<path d="M 920,200 L 1040,200 L 1040,280 L 1120,280" stroke="#0000b2" stroke-width="4.0" fill="none" class="adder_SUM4"/>
<path d="M 920,140 L 1100,140 L 1100,160 L 1120,160" stroke="#0000b2" stroke-width="4.0" fill="none" class="adder_SUM1"/>
<path d="M 380,460 L 440,460 L 454,460" stroke="#0000b2" stroke-width="4.0" fill="none" class="B0"/>
<path d="M 380,780 L 440,780 L 454,780" stroke="#0000b2" stroke-width="4.0" fill="none" class="B4"/>
<path d="M 380,400 L 520,400 L 520,260 L 780,260" stroke="#0000b2" stroke-width="4.0" fill="none" class="A7"/>
<path d="M 520,720 L 600,720 L 600,340 L 780,340" stroke="#0000b2" stroke-width="4.0" fill="none" class="xor3_OUT"/>
<path d="M 520,1040 L 680,1040 L 680,420 L 780,420" stroke="#0000b2" stroke-width="4.0" fill="none" class="xor7_OUT"/>
<path d="M 420,900 L 420,980 L 440,980 L 454,980" stroke="#0000b2" stroke-width="4.0" fill="none" class="SU"/>
<path d="M 420,580 L 420,660 L 440,660 L 454,660" stroke="#0000b2" stroke-width="4.0" fill="none" class="SU"/>
<path d="M 380,280 L 460,280 L 460,200 L 780,200" stroke="#0000b2" stroke-width="4.0" fill="none" class="A4"/>
<path d="M 920,280 L 960,280 L 960,480 L 1120,480" stroke="#0000b2" stroke-width="4.0" fill="none" class="adder_CO"/>
<path d="M 920,220 L 1020,220 L 1020,320 L 1120,320" stroke="#0000b2" stroke-width="4.0" fill="none" class="adder_SUM5"/>
<path d="M 380,540 L 440,540 L 454,540" stroke="#0000b2" stroke-width="4.0" fill="none" class="B1"/>
<path d="M 380,860 L 440,860 L 454,860" stroke="#0000b2" stroke-width="4.0" fill="none" class="B5"/>
<path d="M 380,160 L 400,160 L 400,140 L 780,140" stroke="#0000b2" stroke-width="4.0" fill="none" class="A1"/>
<path d="M 920,160 L 1080,160 L 1080,200 L 1120,200" stroke="#0000b2" stroke-width="4.0" fill="none" class="adder_SUM2"/>
<path d="M 520,480 L 540,480 L 540,280 L 780,280" stroke="#0000b2" stroke-width="4.0" fill="none" class="xor0_OUT"/>
<path d="M 520,800 L 620,800 L 620,360 L 780,360" stroke="#0000b2" stroke-width="4.0" fill="none" class="xor4_OUT"/>
<path d="M 400,1140 L 400,1060 L 420,1060 L 440,1060 L 454,1060" stroke="#0000b2" stroke-width="4.0" fill="none" class="SU"/>
<path d="M 420,660 L 420,740 L 440,740 L 454,740" stroke="#0000b2" stroke-width="4.0" fill="none" class="SU"/>
<path d="M 380,360 L 500,360 L 500,240 L 780,240" stroke="#0000b2" stroke-width="4.0" fill="none" class="A6"/>
<path d="M 380,620 L 440,620 L 454,620" stroke="#0000b2" stroke-width="4.0" fill="none" class="B2"/>
<path d="M 380,940 L 440,940 L 454,940" stroke="#0000b2" stroke-width="4.0" fill="none" class="B6"/>
<path d="M 380,240 L 440,240 L 440,180 L 780,180" stroke="#0000b2" stroke-width="4.0" fill="none" class="A3"/>
<path d="M 920,240 L 1000,240 L 1000,360 L 1120,360" stroke="#0000b2" stroke-width="4.0" fill="none" class="adder_SUM6"/>
<path d="M 520,560 L 560,560 L 560,300 L 780,300" stroke="#0000b2" stroke-width="4.0" fill="none" class="xor1_OUT"/>
<path d="M 520,880 L 640,880 L 640,380 L 780,380" stroke="#0000b2" stroke-width="4.0" fill="none" class="xor5_OUT"/>
<path d="M 920,180 L 1060,180 L 1060,240 L 1120,240" stroke="#0000b2" stroke-width="4.0" fill="none" class="adder_SUM3"/>
<path d="M 380,1140 L 400,1140 L 700,1140 L 700,440 L 780,440" stroke="#0000b2" stroke-width="4.0" fill="none" class="SU"/>
<path d="M 380,120 L 780,120" stroke="#0000b2" stroke-width="4.0" fill="none" class="A0"/>
<path d="M 920,120 L 1120,120" stroke="#0000b2" stroke-width="4.0" fill="none" class="adder_SUM0"/>
<path d="M 380,700 L 440,700 L 454,700" stroke="#0000b2" stroke-width="4.0" fill="none" class="B3"/>
<path d="M 380,1020 L 440,1020 L 454,1020" stroke="#0000b2" stroke-width="4.0" fill="none" class="B7"/>
<path d="M 454,580 L 440,580 L 420,580 L 420,500 L 440,500 L 454,500" stroke="#0000b2" stroke-width="4.0" fill="none" class="SU"/>
<path d="M 454,900 L 440,900 L 420,900 L 420,820 L 440,820 L 454,820" stroke="#0000b2" stroke-width="4.0" fill="none" class="SU"/>
<path d="M 420,980 L 420,1060" stroke="#0000b2" stroke-width="4.0" fill="none" class="SU"/>
<path d="M 420,740 L 420,820" stroke="#0000b2" stroke-width="4.0" fill="none" class="SU"/>
<g>
<circle cx="420.0" cy="900.0" r="4.0" stroke="#0000b2" stroke-width="4.0" fill="#0000b2" class="SU"/>
<circle cx="420.0" cy="580.0" r="4.0" stroke="#0000b2" stroke-width="4.0" fill="#0000b2"/>
<circle cx="420.0" cy="980.0" r="4.0" stroke="#0000b2" stroke-width="4.0" fill="#0000b2" class="SU"/>
<circle cx="420.0" cy="660.0" r="4.0" stroke="#0000b2" stroke-width="4.0" fill="#0000b2" class="SU"/>
<circle cx="420.0" cy="1060.0" r="4.0" stroke="#0000b2" stroke-width="4.0" fill="#0000b2" class="SU"/>
<circle cx="420.0" cy="740.0" r="4.0" stroke="#0000b2" stroke-width="4.0" fill="#0000b2" class="SU"/>
<circle cx="420.0" cy="820.0" r="4.0" stroke="#0000b2" stroke-width="4.0" fill="#0000b2" class="SU"/>
<circle cx="400.0" cy="1140.0" r="4.0" stroke="#0000b2" stroke-width="4.0" fill="#0000b2" class="SU"/>
</g>
<g class="Input" id="A0" pointer-events="visible">
<path d="M 349,105 L 379,105 L 379,135 L 349,135 Z" stroke="#000000" stroke-width="4.0" fill="none"/>
<circle cx="364.0" cy="120.0" r="9.0" stroke="#000000" stroke-width="4.0" fill="none" class="A0"/>
<text text-anchor="end" x="335.0" y="129.0" fill="#000000" style="font-size:24px"><tspan style="font-style:italic;">A0</tspan></text>
<circle cx="380.0" cy="120.0" r="2.0" stroke="#b20000" stroke-width="4.0" fill="#b20000"/>
</g>
<g class="Input" id="A1" pointer-events="visible">
<path d="M 349,145 L 379,145 L 379,175 L 349,175 Z" stroke="#000000" stroke-width="4.0" fill="none"/>
<circle cx="364.0" cy="160.0" r="9.0" stroke="#000000" stroke-width="4.0" fill="none" class="A1"/>
<text text-anchor="end" x="335.0" y="169.0" fill="#000000" style="font-size:24px"><tspan style="font-style:italic;">A1</tspan></text>
<circle cx="380.0" cy="160.0" r="2.0" stroke="#b20000" stroke-width="4.0" fill="#b20000"/>
</g>
<g class="Input" id="A2" pointer-events="visible">
<path d="M 349,185 L 379,185 L 379,215 L 349,215 Z" stroke="#000000" stroke-width="4.0" fill="none"/>
<circle cx="364.0" cy="200.0" r="9.0" stroke="#000000" stroke-width="4.0" fill="none" class="A2"/>
<text text-anchor="end" x="335.0" y="209.0" fill="#000000" style="font-size:24px"><tspan style="font-style:italic;">A2</tspan></text>
<circle cx="380.0" cy="200.0" r="2.0" stroke="#b20000" stroke-width="4.0" fill="#b20000"/>
</g>
<g class="Input" id="A3" pointer-events="visible">
<path d="M 349,225 L 379,225 L 379,255 L 349,255 Z" stroke="#000000" stroke-width="4.0" fill="none"/>
<circle cx="364.0" cy="240.0" r="9.0" stroke="#000000" stroke-width="4.0" fill="none" class="A3"/>
<text text-anchor="end" x="335.0" y="249.0" fill="#000000" style="font-size:24px"><tspan style="font-style:italic;">A3</tspan></text>
<circle cx="380.0" cy="240.0" r="2.0" stroke="#b20000" stroke-width="4.0" fill="#b20000"/>
</g>
<g class="Input" id="A4" pointer-events="visible">
<path d="M 349,265 L 379,265 L 379,295 L 349,295 Z" stroke="#000000" stroke-width="4.0" fill="none"/>
<circle cx="364.0" cy="280.0" r="9.0" stroke="#000000" stroke-width="4.0" fill="none" class="A4"/>
<text text-anchor="end" x="335.0" y="289.0" fill="#000000" style="font-size:24px"><tspan style="font-style:italic;">A4</tspan></text>
<circle cx="380.0" cy="280.0" r="2.0" stroke="#b20000" stroke-width="4.0" fill="#b20000"/>
</g>
<g class="Input" id="A5" pointer-events="visible">
<path d="M 349,305 L 379,305 L 379,335 L 349,335 Z" stroke="#000000" stroke-width="4.0" fill="none"/>
<circle cx="364.0" cy="320.0" r="9.0" stroke="#000000" stroke-width="4.0" fill="none" class="A5"/>
<text text-anchor="end" x="335.0" y="329.0" fill="#000000" style="font-size:24px"><tspan style="font-style:italic;">A5</tspan></text>
<circle cx="380.0" cy="320.0" r="2.0" stroke="#b20000" stroke-width="4.0" fill="#b20000"/>
</g>
<g class="Input" id="A6" pointer-events="visible">
<path d="M 349,345 L 379,345 L 379,375 L 349,375 Z" stroke="#000000" stroke-width="4.0" fill="none"/>
<circle cx="364.0" cy="360.0" r="9.0" stroke="#000000" stroke-width="4.0" fill="none" class="A6"/>
<text text-anchor="end" x="335.0" y="369.0" fill="#000000" style="font-size:24px"><tspan style="font-style:italic;">A6</tspan></text>
<circle cx="380.0" cy="360.0" r="2.0" stroke="#b20000" stroke-width="4.0" fill="#b20000"/>
</g>
<g class="Input" id="A7" pointer-events="visible">
<path d="M 349,385 L 379,385 L 379,415 L 349,415 Z" stroke="#000000" stroke-width="4.0" fill="none"/>
<circle cx="364.0" cy="400.0" r="9.0" stroke="#000000" stroke-width="4.0" fill="none" class="A7"/>
<text text-anchor="end" x="335.0" y="409.0" fill="#000000" style="font-size:24px"><tspan style="font-style:italic;">A7</tspan></text>
<circle cx="380.0" cy="400.0" r="2.0" stroke="#b20000" stroke-width="4.0" fill="#b20000"/>
</g>
<g class="Input" id="B0" pointer-events="visible">
<path d="M 349,445 L 379,445 L 379,475 L 349,475 Z" stroke="#000000" stroke-width="4.0" fill="none"/>
<circle cx="364.0" cy="460.0" r="9.0" stroke="#000000" stroke-width="4.0" fill="none" class="B0"/>
<text text-anchor="end" x="335.0" y="469.0" fill="#000000" style="font-size:24px"><tspan style="font-style:italic;">B0</tspan></text>
<circle cx="380.0" cy="460.0" r="2.0" stroke="#b20000" stroke-width="4.0" fill="#b20000"/>
</g>
<g class="Input" id="B1" pointer-events="visible">
<path d="M 349,525 L 379,525 L 379,555 L 349,555 Z" stroke="#000000" stroke-width="4.0" fill="none"/>
<circle cx="364.0" cy="540.0" r="9.0" stroke="#000000" stroke-width="4.0" fill="none" class="B1"/>
<text text-anchor="end" x="335.0" y="549.0" fill="#000000" style="font-size:24px"><tspan style="font-style:italic;">B1</tspan></text>
<circle cx="380.0" cy="540.0" r="2.0" stroke="#b20000" stroke-width="4.0" fill="#b20000"/>
</g>
<g class="Input" id="B2" pointer-events="visible">
<path d="M 349,605 L 379,605 L 379,635 L 349,635 Z" stroke="#000000" stroke-width="4.0" fill="none"/>
<circle cx="364.0" cy="620.0" r="9.0" stroke="#000000" stroke-width="4.0" fill="none" class="B2"/>
<text text-anchor="end" x="335.0" y="629.0" fill="#000000" style="font-size:24px"><tspan style="font-style:italic;">B2</tspan></text>
<circle cx="380.0" cy="620.0" r="2.0" stroke="#b20000" stroke-width="4.0" fill="#b20000"/>
</g>
<g class="Input" id="B3" pointer-events="visible">
<path d="M 349,685 L 379,685 L 379,715 L 349,715 Z" stroke="#000000" stroke-width="4.0" fill="none"/>
<circle cx="364.0" cy="700.0" r="9.0" stroke="#000000" stroke-width="4.0" fill="none" class="B3"/>
<text text-anchor="end" x="335.0" y="709.0" fill="#000000" style="font-size:24px"><tspan style="font-style:italic;">B3</tspan></text>
<circle cx="380.0" cy="700.0" r="2.0" stroke="#b20000" stroke-width="4.0" fill="#b20000"/>
</g>
<g class="Input" id="B4" pointer-events="visible">
<path d="M 349,765 L 379,765 L 379,795 L 349,795 Z" stroke="#000000" stroke-width="4.0" fill="none"/>
<circle cx="364.0" cy="780.0" r="9.0" stroke="#000000" stroke-width="4.0" fill="none" class="B4"/>
<text text-anchor="end" x="335.0" y="789.0" fill="#000000" style="font-size:24px"><tspan style="font-style:italic;">B4</tspan></text>
<circle cx="380.0" cy="780.0" r="2.0" stroke="#b20000" stroke-width="4.0" fill="#b20000"/>
</g>
<g class="Input" id="B5" pointer-events="visible">
<path d="M 349,845 L 379,845 L 379,875 L 349,875 Z" stroke="#000000" stroke-width="4.0" fill="none"/>
<circle cx="364.0" cy="860.0" r="9.0" stroke="#000000" stroke-width="4.0" fill="none" class="B5"/>
<text text-anchor="end" x="335.0" y="869.0" fill="#000000" style="font-size:24px"><tspan style="font-style:italic;">B5</tspan></text>
<circle cx="380.0" cy="860.0" r="2.0" stroke="#b20000" stroke-width="4.0" fill="#b20000"/>
</g>
<g class="Input" id="B6" pointer-events="visible">
<path d="M 349,925 L 379,925 L 379,955 L 349,955 Z" stroke="#000000" stroke-width="4.0" fill="none"/>
<circle cx="364.0" cy="940.0" r="9.0" stroke="#000000" stroke-width="4.0" fill="none" class="B6"/>
<text text-anchor="end" x="335.0" y="949.0" fill="#000000" style="font-size:24px"><tspan style="font-style:italic;">B6</tspan></text>
<circle cx="380.0" cy="940.0" r="2.0" stroke="#b20000" stroke-width="4.0" fill="#b20000"/>
</g>
<g class="XOR" pointer-events="visible">
<path d="M 470,510 L 450,510 C 460,494 460,466 450,450 L 470,450 C 490,450 510,460 520,480 C 510,500 490,510 470,510 Z" stroke="#000000" stroke-width="4.0" fill="none"/>
<path d="M 440,510 C 450,500 450,460 440,450" stroke="#000000" stroke-width="4.0" fill="none"/>
<circle cx="440.0" cy="460.0" r="2.0" stroke="#0000b2" stroke-width="4.0" fill="#0000b2"/>
<circle cx="440.0" cy="500.0" r="2.0" stroke="#0000b2" stroke-width="4.0" fill="#0000b2"/>
<circle cx="520.0" cy="480.0" r="2.0" stroke="#b20000" stroke-width="4.0" fill="#b20000"/>
</g>
<g class="XOR" pointer-events="visible">
<path d="M 470,590 L 450,590 C 460,574 460,546 450,530 L 470,530 C 490,530 510,540 520,560 C 510,580 490,590 470,590 Z" stroke="#000000" stroke-width="4.0" fill="none"/>
<path d="M 440,590 C 450,580 450,540 440,530" stroke="#000000" stroke-width="4.0" fill="none"/>
<circle cx="440.0" cy="540.0" r="2.0" stroke="#0000b2" stroke-width="4.0" fill="#0000b2"/>
<circle cx="440.0" cy="580.0" r="2.0" stroke="#0000b2" stroke-width="4.0" fill="#0000b2"/>
<circle cx="520.0" cy="560.0" r="2.0" stroke="#b20000" stroke-width="4.0" fill="#b20000"/>
</g>
<g class="XOR" pointer-events="visible">
<path d="M 470,670 L 450,670 C 460,654 460,626 450,610 L 470,610 C 490,610 510,620 520,640 C 510,660 490,670 470,670 Z" stroke="#000000" stroke-width="4.0" fill="none"/>
<path d="M 440,670 C 450,660 450,620 440,610" stroke="#000000" stroke-width="4.0" fill="none"/>
<circle cx="440.0" cy="620.0" r="2.0" stroke="#0000b2" stroke-width="4.0" fill="#0000b2"/>
<circle cx="440.0" cy="660.0" r="2.0" stroke="#0000b2" stroke-width="4.0" fill="#0000b2"/>
<circle cx="520.0" cy="640.0" r="2.0" stroke="#b20000" stroke-width="4.0" fill="#b20000"/>
</g>
<g class="XOR" pointer-events="visible">
<path d="M 470,750 L 450,750 C 460,734 460,706 450,690 L 470,690 C 490,690 510,700 520,720 C 510,740 490,750 470,750 Z" stroke="#000000" stroke-width="4.0" fill="none"/>
<path d="M 440,750 C 450,740 450,700 440,690" stroke="#000000" stroke-width="4.0" fill="none"/>
<circle cx="440.0" cy="700.0" r="2.0" stroke="#0000b2" stroke-width="4.0" fill="#0000b2"/>
<circle cx="440.0" cy="740.0" r="2.0" stroke="#0000b2" stroke-width="4.0" fill="#0000b2"/>
<circle cx="520.0" cy="720.0" r="2.0" stroke="#b20000" stroke-width="4.0" fill="#b20000"/>
</g>
<g class="XOR" pointer-events="visible">
<path d="M 470,830 L 450,830 C 460,814 460,786 450,770 L 470,770 C 490,770 510,780 520,800 C 510,820 490,830 470,830 Z" stroke="#000000" stroke-width="4.0" fill="none"/>
<path d="M 440,830 C 450,820 450,780 440,770" stroke="#000000" stroke-width="4.0" fill="none"/>
<circle cx="440.0" cy="780.0" r="2.0" stroke="#0000b2" stroke-width="4.0" fill="#0000b2"/>
<circle cx="440.0" cy="820.0" r="2.0" stroke="#0000b2" stroke-width="4.0" fill="#0000b2"/>
<circle cx="520.0" cy="800.0" r="2.0" stroke="#b20000" stroke-width="4.0" fill="#b20000"/>
</g>
<g class="XOR" pointer-events="visible">
<path d="M 470,910 L 450,910 C 460,894 460,866 450,850 L 470,850 C 490,850 510,860 520,880 C 510,900 490,910 470,910 Z" stroke="#000000" stroke-width="4.0" fill="none"/>
<path d="M 440,910 C 450,900 450,860 440,850" stroke="#000000" stroke-width="4.0" fill="none"/>
<circle cx="440.0" cy="860.0" r="2.0" stroke="#0000b2" stroke-width="4.0" fill="#0000b2"/>
<circle cx="440.0" cy="900.0" r="2.0" stroke="#0000b2" stroke-width="4.0" fill="#0000b2"/>
<circle cx="520.0" cy="880.0" r="2.0" stroke="#b20000" stroke-width="4.0" fill="#b20000"/>
</g>
<g class="XOR" pointer-events="visible">
<path d="M 470,990 L 450,990 C 460,974 460,946 450,930 L 470,930 C 490,930 510,940 520,960 C 510,980 490,990 470,990 Z" stroke="#000000" stroke-width="4.0" fill="none"/>
<path d="M 440,990 C 450,980 450,940 440,930" stroke="#000000" stroke-width="4.0" fill="none"/>
<circle cx="440.0" cy="940.0" r="2.0" stroke="#0000b2" stroke-width="4.0" fill="#0000b2"/>
<circle cx="440.0" cy="980.0" r="2.0" stroke="#0000b2" stroke-width="4.0" fill="#0000b2"/>
<circle cx="520.0" cy="960.0" r="2.0" stroke="#b20000" stroke-width="4.0" fill="#b20000"/>
</g>
<g class="XOR" pointer-events="visible">
<path d="M 470,1070 L 450,1070 C 460,1054 460,1026 450,1010 L 470,1010 C 490,1010 510,1020 520,1040 C 510,1060 490,1070 470,1070 Z" stroke="#000000" stroke-width="4.0" fill="none"/>
<path d="M 440,1070 C 450,1060 450,1020 440,1010" stroke="#000000" stroke-width="4.0" fill="none"/>
<circle cx="440.0" cy="1020.0" r="2.0" stroke="#0000b2" stroke-width="4.0" fill="#0000b2"/>
<circle cx="440.0" cy="1060.0" r="2.0" stroke="#0000b2" stroke-width="4.0" fill="#0000b2"/>
<circle cx="520.0" cy="1040.0" r="2.0" stroke="#b20000" stroke-width="4.0" fill="#b20000"/>
</g>
<g class="Input" id="B7" pointer-events="visible">
<path d="M 349,1005 L 379,1005 L 379,1035 L 349,1035 Z" stroke="#000000" stroke-width="4.0" fill="none"/>
<circle cx="364.0" cy="1020.0" r="9.0" stroke="#000000" stroke-width="4.0" fill="none" class="B7"/>
<text text-anchor="end" x="335.0" y="1029.0" fill="#000000" style="font-size:24px"><tspan style="font-style:italic;">B7</tspan></text>
<circle cx="380.0" cy="1020.0" r="2.0" stroke="#b20000" stroke-width="4.0" fill="#b20000"/>
</g>
<g class="Input" id="SU" pointer-events="visible">
<path d="M 349,1125 L 379,1125 L 379,1155 L 349,1155 Z" stroke="#000000" stroke-width="4.0" fill="none"/>
<circle cx="364.0" cy="1140.0" r="9.0" stroke="#000000" stroke-width="4.0" fill="none" class="SU"/>
<text text-anchor="end" x="335.0" y="1149.0" fill="#000000" style="font-size:24px"><tspan style="font-style:italic;">SU</tspan></text>
<circle cx="380.0" cy="1140.0" r="2.0" stroke="#b20000" stroke-width="4.0" fill="#b20000"/>
</g>
<g id="SUM0" class="Output">
<circle cx="1136.0" cy="120.0" r="9.0" stroke="#000000" stroke-width="4.0" fill="none" class="adder_SUM0"/>
<circle cx="1136.0" cy="120.0" r="15.0" stroke="#000000" stroke-width="4.0" fill="none" class="SUM0"/>
<text text-anchor="start" x="1165.0" y="129.0" fill="#000000" style="font-size:24px"><tspan style="font-style:italic;">SUM0</tspan></text>
<circle cx="1120.0" cy="120.0" r="2.0" stroke="#0000b2" stroke-width="4.0" fill="#0000b2"/>
</g>
<g id="SUM1" class="Output">
<circle cx="1136.0" cy="160.0" r="9.0" stroke="#000000" stroke-width="4.0" fill="none" class="adder_SUM1"/>
<circle cx="1136.0" cy="160.0" r="15.0" stroke="#000000" stroke-width="4.0" fill="none" class="SUM1"/>
<text text-anchor="start" x="1165.0" y="169.0" fill="#000000" style="font-size:24px"><tspan style="font-style:italic;">SUM1</tspan></text>
<circle cx="1120.0" cy="160.0" r="2.0" stroke="#0000b2" stroke-width="4.0" fill="#0000b2"/>
</g>
<g id="SUM2" class="Output">
<circle cx="1136.0" cy="200.0" r="9.0" stroke="#000000" stroke-width="4.0" fill="none" class="adder_SUM2"/>
<circle cx="1136.0" cy="200.0" r="15.0" stroke="#000000" stroke-width="4.0" fill="none" class="SUM2"/>
<text text-anchor="start" x="1165.0" y="209.0" fill="#000000" style="font-size:24px"><tspan style="font-style:italic;">SUM2</tspan></text>
<circle cx="1120.0" cy="200.0" r="2.0" stroke="#0000b2" stroke-width="4.0" fill="#0000b2"/>
</g>
<g id="SUM3" class="Output">
<circle cx="1136.0" cy="240.0" r="9.0" stroke="#000000" stroke-width="4.0" fill="none" class="adder_SUM3"/>
<circle cx="1136.0" cy="240.0" r="15.0" stroke="#000000" stroke-width="4.0" fill="none" class="SUM3"/>
<text text-anchor="start" x="1165.0" y="249.0" fill="#000000" style="font-size:24px"><tspan style="font-style:italic;">SUM3</tspan></text>
<circle cx="1120.0" cy="240.0" r="2.0" stroke="#0000b2" stroke-width="4.0" fill="#0000b2"/>
</g>
<g id="SUM4" class="Output">
<circle cx="1136.0" cy="280.0" r="9.0" stroke="#000000" stroke-width="4.0" fill="none" class="adder_SUM4"/>
<circle cx="1136.0" cy="280.0" r="15.0" stroke="#000000" stroke-width="4.0" fill="none" class="SUM4"/>
<text text-anchor="start" x="1165.0" y="289.0" fill="#000000" style="font-size:24px"><tspan style="font-style:italic;">SUM4</tspan></text>
<circle cx="1120.0" cy="280.0" r="2.0" stroke="#0000b2" stroke-width="4.0" fill="#0000b2"/>
</g>
<g id="SUM5" class="Output">
<circle cx="1136.0" cy="320.0" r="9.0" stroke="#000000" stroke-width="4.0" fill="none" class="adder_SUM5"/>
<circle cx="1136.0" cy="320.0" r="15.0" stroke="#000000" stroke-width="4.0" fill="none" class="SUM5"/>
<text text-anchor="start" x="1165.0" y="329.0" fill="#000000" style="font-size:24px"><tspan style="font-style:italic;">SUM5</tspan></text>
<circle cx="1120.0" cy="320.0" r="2.0" stroke="#0000b2" stroke-width="4.0" fill="#0000b2"/>
</g>
<g id="SUM6" class="Output">
<circle cx="1136.0" cy="360.0" r="9.0" stroke="#000000" stroke-width="4.0" fill="none" class="adder_SUM6"/>
<circle cx="1136.0" cy="360.0" r="15.0" stroke="#000000" stroke-width="4.0" fill="none" class="SUM6"/>
<text text-anchor="start" x="1165.0" y="369.0" fill="#000000" style="font-size:24px"><tspan style="font-style:italic;">SUM6</tspan></text>
<circle cx="1120.0" cy="360.0" r="2.0" stroke="#0000b2" stroke-width="4.0" fill="#0000b2"/>
</g>
<g id="SUM7" class="Output">
<circle cx="1136.0" cy="400.0" r="9.0" stroke="#000000" stroke-width="4.0" fill="none" class="adder_SUM7"/>
<circle cx="1136.0" cy="400.0" r="15.0" stroke="#000000" stroke-width="4.0" fill="none" class="SUM7"/>
<text text-anchor="start" x="1165.0" y="409.0" fill="#000000" style="font-size:24px"><tspan style="font-style:italic;">SUM7</tspan></text>
<circle cx="1120.0" cy="400.0" r="2.0" stroke="#0000b2" stroke-width="4.0" fill="#0000b2"/>
</g>
<g class="Output" id="CO">
<circle cx="1136.0" cy="480.0" r="9.0" stroke="#000000" stroke-width="4.0" fill="none" class="adder_CO"/>
<circle cx="1136.0" cy="480.0" r="15.0" stroke="#000000" stroke-width="4.0" fill="none" class="CO"/>
<text text-anchor="start" x="1165.0" y="489.0" fill="#000000" style="font-size:24px"><tspan style="font-style:italic;">CO</tspan></text>
<circle cx="1120.0" cy="480.0" r="2.0" stroke="#0000b2" stroke-width="4.0" fill="#0000b2"/>
</g>
<g class="ADDER8" pointer-events="visible">
<path d="M 781,106 L 919,106 L 919,454 L 781,454 Z" stroke="#ffffb4" stroke-width="0.0" fill="#ffffb4" fill-opacity="0.7843137254901961"/>
<path d="M 781,106 L 919,106 L 919,454 L 781,454 Z" stroke="#000000" stroke-width="4.0" fill="none"/>
<text text-anchor="start" x="784.0" y="126.75" fill="#808080" style="font-size:18px">A0</text>
<text text-anchor="start" x="784.0" y="146.75" fill="#808080" style="font-size:18px">A1</text>
<text text-anchor="start" x="784.0" y="166.75" fill="#808080" style="font-size:18px">A2</text>
<text text-anchor="start" x="784.0" y="186.75" fill="#808080" style="font-size:18px">A3</text>
<text text-anchor="start" x="784.0" y="206.75" fill="#808080" style="font-size:18px">A4</text>
<text text-anchor="start" x="784.0" y="226.75" fill="#808080" style="font-size:18px">A5</text>
<text text-anchor="start" x="784.0" y="246.75" fill="#808080" style="font-size:18px">A6</text>
<text text-anchor="start" x="784.0" y="266.75" fill="#808080" style="font-size:18px">A7</text>
<text text-anchor="start" x="784.0" y="286.75" fill="#808080" style="font-size:18px">B0</text>
<text text-anchor="start" x="784.0" y="306.75" fill="#808080" style="font-size:18px">B1</text>
<text text-anchor="start" x="784.0" y="326.75" fill="#808080" style="font-size:18px">B2</text>
<text text-anchor="start" x="784.0" y="346.75" fill="#808080" style="font-size:18px">B3</text>
<text text-anchor="start" x="784.0" y="366.75" fill="#808080" style="font-size:18px">B4</text>
<text text-anchor="start" x="784.0" y="386.75" fill="#808080" style="font-size:18px">B5</text>
<text text-anchor="start" x="784.0" y="406.75" fill="#808080" style="font-size:18px">B6</text>
<text text-anchor="start" x="784.0" y="426.75" fill="#808080" style="font-size:18px">B7</text>
<text text-anchor="start" x="784.0" y="446.75" fill="#808080" style="font-size:18px">CI</text>
<text text-anchor="end" x="916.0" y="126.75" fill="#808080" style="font-size:18px">SUM0</text>
<text text-anchor="end" x="916.0" y="146.75" fill="#808080" style="font-size:18px">SUM1</text>
<text text-anchor="end" x="916.0" y="166.75" fill="#808080" style="font-size:18px">SUM2</text>
<text text-anchor="end" x="916.0" y="186.75" fill="#808080" style="font-size:18px">SUM3</text>
<text text-anchor="end" x="916.0" y="206.75" fill="#808080" style="font-size:18px">SUM4</text>
<text text-anchor="end" x="916.0" y="226.75" fill="#808080" style="font-size:18px">SUM5</text>
<text text-anchor="end" x="916.0" y="246.75" fill="#808080" style="font-size:18px">SUM6</text>
<text text-anchor="end" x="916.0" y="266.75" fill="#808080" style="font-size:18px">SUM7</text>
<text text-anchor="end" x="916.0" y="286.75" fill="#808080" style="font-size:18px">CO</text>
<text text-anchor="middle" x="850.0" y="471.5" fill="#808080" style="font-size:18px">ADDER8</text>
<circle cx="780.0" cy="120.0" r="2.0" stroke="#0000b2" stroke-width="4.0" fill="#0000b2"/>
<circle cx="780.0" cy="140.0" r="2.0" stroke="#0000b2" stroke-width="4.0" fill="#0000b2"/>
<circle cx="780.0" cy="160.0" r="2.0" stroke="#0000b2" stroke-width="4.0" fill="#0000b2"/>
<circle cx="780.0" cy="180.0" r="2.0" stroke="#0000b2" stroke-width="4.0" fill="#0000b2"/>
<circle cx="780.0" cy="200.0" r="2.0" stroke="#0000b2" stroke-width="4.0" fill="#0000b2"/>
<circle cx="780.0" cy="220.0" r="2.0" stroke="#0000b2" stroke-width="4.0" fill="#0000b2"/>
<circle cx="780.0" cy="240.0" r="2.0" stroke="#0000b2" stroke-width="4.0" fill="#0000b2"/>
<circle cx="780.0" cy="260.0" r="2.0" stroke="#0000b2" stroke-width="4.0" fill="#0000b2"/>
<circle cx="780.0" cy="280.0" r="2.0" stroke="#0000b2" stroke-width="4.0" fill="#0000b2"/>
<circle cx="780.0" cy="300.0" r="2.0" stroke="#0000b2" stroke-width="4.0" fill="#0000b2"/>
<circle cx="780.0" cy="320.0" r="2.0" stroke="#0000b2" stroke-width="4.0" fill="#0000b2"/>
<circle cx="780.0" cy="340.0" r="2.0" stroke="#0000b2" stroke-width="4.0" fill="#0000b2"/>
<circle cx="780.0" cy="360.0" r="2.0" stroke="#0000b2" stroke-width="4.0" fill="#0000b2"/>
<circle cx="780.0" cy="380.0" r="2.0" stroke="#0000b2" stroke-width="4.0" fill="#0000b2"/>
<circle cx="780.0" cy="400.0" r="2.0" stroke="#0000b2" stroke-width="4.0" fill="#0000b2"/>
<circle cx="780.0" cy="420.0" r="2.0" stroke="#0000b2" stroke-width="4.0" fill="#0000b2"/>
<circle cx="780.0" cy="440.0" r="2.0" stroke="#0000b2" stroke-width="4.0" fill="#0000b2"/>
<circle cx="920.0" cy="120.0" r="2.0" stroke="#b20000" stroke-width="4.0" fill="#b20000"/>
<circle cx="920.0" cy="140.0" r="2.0" stroke="#b20000" stroke-width="4.0" fill="#b20000"/>
<circle cx="920.0" cy="160.0" r="2.0" stroke="#b20000" stroke-width="4.0" fill="#b20000"/>
<circle cx="920.0" cy="180.0" r="2.0" stroke="#b20000" stroke-width="4.0" fill="#b20000"/>
<circle cx="920.0" cy="200.0" r="2.0" stroke="#b20000" stroke-width="4.0" fill="#b20000"/>
<circle cx="920.0" cy="220.0" r="2.0" stroke="#b20000" stroke-width="4.0" fill="#b20000"/>
<circle cx="920.0" cy="240.0" r="2.0" stroke="#b20000" stroke-width="4.0" fill="#b20000"/>
<circle cx="920.0" cy="260.0" r="2.0" stroke="#b20000" stroke-width="4.0" fill="#b20000"/>
<circle cx="920.0" cy="280.0" r="2.0" stroke="#b20000" stroke-width="4.0" fill="#b20000"/>
</g>
</g>
</svg>