<svg xmlns:svg="http://www.w3.org/2000/svg" xmlns="http://www.w3.org/2000/svg" width="800px" viewBox="241 223 592 114">
<g stroke-linecap="square">
<path d="M 340,240 L 480,240" stroke="#0000b2" stroke-width="4.0" fill="none" class="OSC"/>
<path d="M 600,260 L 600,320 L 660,320" stroke="#0000b2" stroke-width="4.0" fill="none" class="and_OUT"/>
<path d="M 700,320 L 740,320" stroke="#0000b2" stroke-width="4.0" fill="none" class="not1_OUT"/>
<path d="M 560,260 L 600,260 L 740,260" stroke="#0000b2" stroke-width="4.0" fill="none" class="and_OUT"/>
<path d="M 440,280 L 480,280" stroke="#0000b2" stroke-width="4.0" fill="none" class="not0_OUT"/>
<path d="M 340,280 L 400,280" stroke="#0000b2" stroke-width="4.0" fill="none" class="HLT"/>
<g>
<circle cx="600.0" cy="260.0" r="4.0" stroke="#0000b2" stroke-width="4.0" fill="#0000b2" class="and_OUT"/>
</g>
<g class="Input" id="OSC" pointer-events="visible">
<path d="M 309,225 L 339,225 L 339,255 L 309,255 Z" stroke="#000000" stroke-width="4.0" fill="none"/>
<circle cx="324.0" cy="240.0" r="9.0" stroke="#000000" stroke-width="4.0" fill="none" class="OSC"/>
<text text-anchor="end" x="295.0" y="249.0" fill="#000000" style="font-size:24px"><tspan style="font-style:italic;">OSC</tspan></text>
<circle cx="340.0" cy="240.0" r="2.0" stroke="#b20000" stroke-width="4.0" fill="#b20000"/>
</g>
<g class="Input" id="HLT" pointer-events="visible">
<path d="M 309,265 L 339,265 L 339,295 L 309,295 Z" stroke="#000000" stroke-width="4.0" fill="none"/>
<circle cx="324.0" cy="280.0" r="9.0" stroke="#000000" stroke-width="4.0" fill="none" class="HLT"/>
<text text-anchor="end" x="295.0" y="289.0" fill="#000000" style="font-size:24px"><tspan style="font-style:italic;">HLT</tspan></text>
<circle cx="340.0" cy="280.0" r="2.0" stroke="#b20000" stroke-width="4.0" fill="#b20000"/>
</g>
<g class="NOT" pointer-events="visible">
<path d="M 401,268 L 419,280 L 401,292 Z" stroke="#000000" stroke-width="4.0" fill="none"/>
<circle cx="430.0" cy="280.0" r="9.0" stroke="#000000" stroke-width="4.0" fill="none"/>
<circle cx="400.0" cy="280.0" r="2.0" stroke="#0000b2" stroke-width="4.0" fill="#0000b2"/>
<circle cx="440.0" cy="280.0" r="2.0" stroke="#b20000" stroke-width="4.0" fill="#b20000"/>
</g>
<g class="AND" pointer-events="visible">
<path d="M 530,290 L 481,290 L 481,230 L 530,230 C 540,230 560,240 559,260 C 559,280 540,290 530,290 Z" stroke="#000000" stroke-width="4.0" fill="none"/>
<circle cx="480.0" cy="240.0" r="2.0" stroke="#0000b2" stroke-width="4.0" fill="#0000b2"/>
<circle cx="480.0" cy="280.0" r="2.0" stroke="#0000b2" stroke-width="4.0" fill="#0000b2"/>
<circle cx="560.0" cy="260.0" r="2.0" stroke="#b20000" stroke-width="4.0" fill="#b20000"/>
</g>
<g class="Output" id="CLK">
<circle cx="756.0" cy="260.0" r="9.0" stroke="#000000" stroke-width="4.0" fill="none" class="and_OUT"/>
<circle cx="756.0" cy="260.0" r="15.0" stroke="#000000" stroke-width="4.0" fill="none"/>
<text text-anchor="start" x="785.0" y="269.0" fill="#000000" style="font-size:24px"><tspan style="font-style:italic;">CLK</tspan></text>
<circle cx="740.0" cy="260.0" r="2.0" stroke="#0000b2" stroke-width="4.0" fill="#0000b2"/>
</g>
<g class="NOT" pointer-events="visible">
<path d="M 661,308 L 679,320 L 661,332 Z" stroke="#000000" stroke-width="4.0" fill="none"/>
<circle cx="690.0" cy="320.0" r="9.0" stroke="#000000" stroke-width="4.0" fill="none"/>
<circle cx="660.0" cy="320.0" r="2.0" stroke="#0000b2" stroke-width="4.0" fill="#0000b2"/>
<circle cx="700.0" cy="320.0" r="2.0" stroke="#b20000" stroke-width="4.0" fill="#b20000"/>
</g>
<g class="Output" id="CLK">
<circle cx="756.0" cy="320.0" r="9.0" stroke="#000000" stroke-width="4.0" fill="none" class="not1_OUT"/>
<circle cx="756.0" cy="320.0" r="15.0" stroke="#000000" stroke-width="4.0" fill="none"/>
<text text-anchor="start" x="785.0" y="329.0" fill="#000000" style="font-size:24px"><tspan style="font-style:italic;"><tspan style="text-decoration:overline;">CLK</tspan></tspan></text>
<circle cx="740.0" cy="320.0" r="2.0" stroke="#0000b2" stroke-width="4.0" fill="#0000b2"/>
</g>
</g>
</svg>