<svg xmlns:svg="http://www.w3.org/2000/svg" xmlns="http://www.w3.org/2000/svg" width="1200px" viewBox="25 243 941 334">
<g stroke-linecap="square">
<path d="M 280,320 L 300,320" stroke="#0000b2" stroke-width="4.0" fill="none" class="not1_OUT"/>
<path d="M 160,320 L 200,320 L 240,320" stroke="#0000b2" stroke-width="4.0" fill="none" class="LOAD"/>
<path d="M 680,320 L 780,320" stroke="#0000b2" stroke-width="4.0" fill="none" class="or1_OUT"/>
<path d="M 880,320 L 900,320" stroke="#0000b2" stroke-width="4.0" fill="none" class="jk_Q"/>
<path d="M 460,480 L 480,480" stroke="#0000b2" stroke-width="4.0" fill="none" class="not3_OUT"/>
<path d="M 180,260 L 180,480 L 420,480" stroke="#0000b2" stroke-width="4.0" fill="none" class="D"/>
<path d="M 160,260 L 180,260 L 480,260" stroke="#0000b2" stroke-width="4.0" fill="none" class="D"/>
<path d="M 680,420 L 700,420 L 700,340 L 780,340" stroke="#0000b2" stroke-width="4.0" fill="none" class="or2_OUT"/>
<path d="M 160,360 L 300,360" stroke="#0000b2" stroke-width="4.0" fill="none" class="ENABLE"/>
<path d="M 160,520 L 720,520 L 720,360 L 780,360" stroke="#0000b2" stroke-width="4.0" fill="none" class="CLK"/>
<path d="M 560,460 L 580,460 L 580,440 L 600,440 L 604,440" stroke="#0000b2" stroke-width="4.0" fill="none" class="and3_OUT"/>
<path d="M 160,560 L 180,560" stroke="#0000b2" stroke-width="4.0" fill="none" class="CLR"/>
<path d="M 220,560 L 740,560 L 740,400 L 780,400" stroke="#0000b2" stroke-width="4.0" fill="none" class="not2_OUT"/>
<path d="M 400,340 L 400,400 L 600,400 L 604,400" stroke="#0000b2" stroke-width="4.0" fill="none" class="and2_OUT"/>
<path d="M 380,340 L 400,340 L 600,340 L 604,340" stroke="#0000b2" stroke-width="4.0" fill="none" class="and2_OUT"/>
<path d="M 560,280 L 580,280 L 580,300 L 600,300 L 604,300" stroke="#0000b2" stroke-width="4.0" fill="none" class="and1_OUT"/>
<path d="M 760,380 L 780,380" stroke="#0000b2" stroke-width="4.0" fill="none" class="active"/>
<path d="M 480,300 L 200,300 L 200,320 L 200,440 L 480,440" stroke="#0000b2" stroke-width="4.0" fill="none" class="LOAD"/>
<g>
<circle cx="200.0" cy="320.0" r="4.0" stroke="#0000b2" stroke-width="4.0" fill="#0000b2" class="LOAD"/>
<circle cx="180.0" cy="260.0" r="4.0" stroke="#0000b2" stroke-width="4.0" fill="#0000b2" class="D"/>
<circle cx="400.0" cy="340.0" r="4.0" stroke="#0000b2" stroke-width="4.0" fill="#0000b2" class="and2_OUT"/>
</g>
<g class="AND" pointer-events="visible">
<path d="M 530,490 L 481,490 L 481,430 L 530,430 C 540,430 560,440 559,460 C 559,480 540,490 530,490 Z" stroke="#000000" stroke-width="4.0" fill="none"/>
<circle cx="480.0" cy="440.0" r="2.0" stroke="#0000b2" stroke-width="4.0" fill="#0000b2"/>
<circle cx="480.0" cy="480.0" r="2.0" stroke="#0000b2" stroke-width="4.0" fill="#0000b2"/>
<circle cx="560.0" cy="460.0" r="2.0" stroke="#b20000" stroke-width="4.0" fill="#b20000"/>
</g>
<g class="AND" pointer-events="visible">
<path d="M 530,310 L 481,310 L 481,250 L 530,250 C 540,250 560,260 559,280 C 559,300 540,310 530,310 Z" stroke="#000000" stroke-width="4.0" fill="none"/>
<circle cx="480.0" cy="260.0" r="2.0" stroke="#0000b2" stroke-width="4.0" fill="#0000b2"/>
<circle cx="480.0" cy="300.0" r="2.0" stroke="#0000b2" stroke-width="4.0" fill="#0000b2"/>
<circle cx="560.0" cy="280.0" r="2.0" stroke="#b20000" stroke-width="4.0" fill="#b20000"/>
</g>
<g class="OR" pointer-events="visible">
<path d="M 630,450 L 600,450 C 610,434 610,406 600,390 L 620,390 C 650,390 670,400 680,420 C 670,440 650,450 630,450 Z" stroke="#000000" stroke-width="4.0" fill="none"/>
<circle cx="600.0" cy="400.0" r="2.0" stroke="#0000b2" stroke-width="4.0" fill="#0000b2"/>
<circle cx="600.0" cy="440.0" r="2.0" stroke="#0000b2" stroke-width="4.0" fill="#0000b2"/>
<circle cx="680.0" cy="420.0" r="2.0" stroke="#b20000" stroke-width="4.0" fill="#b20000"/>
</g>
<g class="OR" pointer-events="visible">
<path d="M 630,350 L 600,350 C 610,334 610,306 600,290 L 620,290 C 650,290 670,300 680,320 C 670,340 650,350 630,350 Z" stroke="#000000" stroke-width="4.0" fill="none"/>
<circle cx="600.0" cy="300.0" r="2.0" stroke="#0000b2" stroke-width="4.0" fill="#0000b2"/>
<circle cx="600.0" cy="340.0" r="2.0" stroke="#0000b2" stroke-width="4.0" fill="#0000b2"/>
<circle cx="680.0" cy="320.0" r="2.0" stroke="#b20000" stroke-width="4.0" fill="#b20000"/>
</g>
<g class="JKFF" pointer-events="visible">
<path d="M 781,306 L 879,306 L 879,414 L 781,414 Z" stroke="#ffffb4" stroke-width="0.0" fill="#ffffb4" fill-opacity="0.7843137254901961"/>
<path d="M 781,306 L 879,306 L 879,414 L 781,414 Z" stroke="#000000" stroke-width="4.0" fill="none"/>
<text text-anchor="start" x="784.0" y="326.75" fill="#808080" style="font-size:18px">J</text>
<text text-anchor="start" x="784.0" y="346.75" fill="#808080" style="font-size:18px">K</text>
<text text-anchor="start" x="784.0" y="366.75" fill="#808080" style="font-size:18px">CLK</text>
<text text-anchor="start" x="784.0" y="386.75" fill="#808080" style="font-size:18px">PRE_</text>
<text text-anchor="start" x="784.0" y="406.75" fill="#808080" style="font-size:18px">CLR_</text>
<text text-anchor="end" x="876.0" y="326.75" fill="#808080" style="font-size:18px">Q</text>
<text text-anchor="end" x="876.0" y="346.75" fill="#808080" style="font-size:18px">~Q</text>
<text text-anchor="middle" x="830.0" y="431.5" fill="#808080" style="font-size:18px">JKFF</text>
<circle cx="780.0" cy="320.0" r="2.0" stroke="#0000b2" stroke-width="4.0" fill="#0000b2"/>
<circle cx="780.0" cy="340.0" r="2.0" stroke="#0000b2" stroke-width="4.0" fill="#0000b2"/>
<circle cx="780.0" cy="360.0" r="2.0" stroke="#0000b2" stroke-width="4.0" fill="#0000b2"/>
<circle cx="780.0" cy="380.0" r="2.0" stroke="#0000b2" stroke-width="4.0" fill="#0000b2"/>
<circle cx="780.0" cy="400.0" r="2.0" stroke="#0000b2" stroke-width="4.0" fill="#0000b2"/>
<circle cx="880.0" cy="320.0" r="2.0" stroke="#b20000" stroke-width="4.0" fill="#b20000"/>
<circle cx="880.0" cy="340.0" r="2.0" stroke="#b20000" stroke-width="4.0" fill="#b20000"/>
</g>
<g>
<text text-anchor="end" x="757.0" y="389.0" fill="#000000" style="font-size:24px">1</text>
<circle cx="760.0" cy="380.0" r="2.0" stroke="#b20000" stroke-width="4.0" fill="#b20000"/>
</g>
<g class="Input" id="ENABLE" pointer-events="visible">
<path d="M 129,345 L 159,345 L 159,375 L 129,375 Z" stroke="#000000" stroke-width="4.0" fill="none"/>
<circle cx="144.0" cy="360.0" r="9.0" stroke="#000000" stroke-width="4.0" fill="none" class="ENABLE"/>
<text text-anchor="end" x="115.0" y="369.0" fill="#000000" style="font-size:24px"><tspan style="font-style:italic;">ENABLE</tspan></text>
<circle cx="160.0" cy="360.0" r="2.0" stroke="#b20000" stroke-width="4.0" fill="#b20000"/>
</g>
<g class="Input" id="D" pointer-events="visible">
<path d="M 129,245 L 159,245 L 159,275 L 129,275 Z" stroke="#000000" stroke-width="4.0" fill="none"/>
<circle cx="144.0" cy="260.0" r="9.0" stroke="#000000" stroke-width="4.0" fill="none" class="D"/>
<text text-anchor="end" x="115.0" y="269.0" fill="#000000" style="font-size:24px"><tspan style="font-style:italic;">D</tspan></text>
<circle cx="160.0" cy="260.0" r="2.0" stroke="#b20000" stroke-width="4.0" fill="#b20000"/>
</g>
<g class="Input" id="LOAD" pointer-events="visible">
<path d="M 129,305 L 159,305 L 159,335 L 129,335 Z" stroke="#000000" stroke-width="4.0" fill="none"/>
<circle cx="144.0" cy="320.0" r="9.0" stroke="#000000" stroke-width="4.0" fill="none" class="LOAD"/>
<text text-anchor="end" x="115.0" y="329.0" fill="#000000" style="font-size:24px"><tspan style="font-style:italic;">LOAD</tspan></text>
<circle cx="160.0" cy="320.0" r="2.0" stroke="#b20000" stroke-width="4.0" fill="#b20000"/>
</g>
<g class="AND" pointer-events="visible">
<path d="M 350,370 L 301,370 L 301,310 L 350,310 C 360,310 380,320 379,340 C 379,360 360,370 350,370 Z" stroke="#000000" stroke-width="4.0" fill="none"/>
<circle cx="300.0" cy="320.0" r="2.0" stroke="#0000b2" stroke-width="4.0" fill="#0000b2"/>
<circle cx="300.0" cy="360.0" r="2.0" stroke="#0000b2" stroke-width="4.0" fill="#0000b2"/>
<circle cx="380.0" cy="340.0" r="2.0" stroke="#b20000" stroke-width="4.0" fill="#b20000"/>
</g>
<g class="NOT" pointer-events="visible">
<path d="M 241,308 L 259,320 L 241,332 Z" stroke="#000000" stroke-width="4.0" fill="none"/>
<circle cx="270.0" cy="320.0" r="9.0" stroke="#000000" stroke-width="4.0" fill="none"/>
<circle cx="240.0" cy="320.0" r="2.0" stroke="#0000b2" stroke-width="4.0" fill="#0000b2"/>
<circle cx="280.0" cy="320.0" r="2.0" stroke="#b20000" stroke-width="4.0" fill="#b20000"/>
</g>
<g class="NOT" pointer-events="visible">
<path d="M 181,548 L 199,560 L 181,572 Z" stroke="#000000" stroke-width="4.0" fill="none"/>
<circle cx="210.0" cy="560.0" r="9.0" stroke="#000000" stroke-width="4.0" fill="none"/>
<circle cx="180.0" cy="560.0" r="2.0" stroke="#0000b2" stroke-width="4.0" fill="#0000b2"/>
<circle cx="220.0" cy="560.0" r="2.0" stroke="#b20000" stroke-width="4.0" fill="#b20000"/>
</g>
<g class="Output">
<circle cx="916.0" cy="320.0" r="9.0" stroke="#000000" stroke-width="4.0" fill="none" class="jk_Q"/>
<circle cx="916.0" cy="320.0" r="15.0" stroke="#000000" stroke-width="4.0" fill="none"/>
<text text-anchor="start" x="945.0" y="329.0" fill="#000000" style="font-size:24px"><tspan style="font-style:italic;">Q</tspan></text>
<circle cx="900.0" cy="320.0" r="2.0" stroke="#0000b2" stroke-width="4.0" fill="#0000b2"/>
</g>
<g class="Input" id="CLK" pointer-events="visible">
<path d="M 129,505 L 159,505 L 159,535 L 129,535 Z" stroke="#000000" stroke-width="4.0" fill="none"/>
<circle cx="144.0" cy="520.0" r="9.0" stroke="#000000" stroke-width="4.0" fill="none" class="CLK"/>
<text text-anchor="end" x="115.0" y="529.0" fill="#000000" style="font-size:24px"><tspan style="font-style:italic;">CLK</tspan></text>
<circle cx="160.0" cy="520.0" r="2.0" stroke="#b20000" stroke-width="4.0" fill="#b20000"/>
</g>
<g class="Input" id="CLR" pointer-events="visible">
<path d="M 129,545 L 159,545 L 159,575 L 129,575 Z" stroke="#000000" stroke-width="4.0" fill="none"/>
<circle cx="144.0" cy="560.0" r="9.0" stroke="#000000" stroke-width="4.0" fill="none" class="CLR"/>
<text text-anchor="end" x="115.0" y="569.0" fill="#000000" style="font-size:24px"><tspan style="font-style:italic;">CLR</tspan></text>
<circle cx="160.0" cy="560.0" r="2.0" stroke="#b20000" stroke-width="4.0" fill="#b20000"/>
</g>
<g class="NOT" pointer-events="visible">
<path d="M 421,468 L 439,480 L 421,492 Z" stroke="#000000" stroke-width="4.0" fill="none"/>
<circle cx="450.0" cy="480.0" r="9.0" stroke="#000000" stroke-width="4.0" fill="none"/>
<circle cx="420.0" cy="480.0" r="2.0" stroke="#0000b2" stroke-width="4.0" fill="#0000b2"/>
<circle cx="460.0" cy="480.0" r="2.0" stroke="#b20000" stroke-width="4.0" fill="#b20000"/>
</g>
</g>
</svg>