<svg xmlns:svg="http://www.w3.org/2000/svg" xmlns="http://www.w3.org/2000/svg" width="1000px" viewBox="245 234 787 303">
<g stroke-linecap="square">
<path d="M 340,260 L 340,240 L 460,240 L 620,240 L 780,240 L 940,240 L 940,360" stroke="#0000b2" stroke-width="4.0" fill="none" class="A0"/>
<path d="M 340,340 L 340,320 L 420,320 L 500,320 L 580,320 L 660,320 L 660,360" stroke="#0000b2" stroke-width="4.0" fill="none" class="A2"/>
<path d="M 320,260 L 340,260 L 360,260" stroke="#0000b2" stroke-width="4.0" fill="none" class="A0"/>
<path d="M 400,260 L 540,260 L 700,260 L 860,260 L 1020,260 L 1020,360" stroke="#0000b2" stroke-width="4.0" fill="none" class="not0_OUT"/>
<path d="M 320,340 L 340,340 L 360,340" stroke="#0000b2" stroke-width="4.0" fill="none" class="A2"/>
<path d="M 400,340 L 740,340 L 820,340 L 900,340 L 980,340 L 980,360" stroke="#0000b2" stroke-width="4.0" fill="none" class="not2_OUT"/>
<path d="M 340,300 L 340,280 L 440,280 L 520,280 L 760,280 L 840,280 L 840,360" stroke="#0000b2" stroke-width="4.0" fill="none" class="A1"/>
<path d="M 320,300 L 340,300 L 360,300" stroke="#0000b2" stroke-width="4.0" fill="none" class="A1"/>
<path d="M 400,300 L 600,300 L 680,300 L 920,300 L 1000,300 L 1000,360" stroke="#0000b2" stroke-width="4.0" fill="none" class="not1_OUT"/>
<path d="M 900,340 L 900,360" stroke="#0000b2" stroke-width="4.0" fill="none" class="not2_OUT"/>
<path d="M 580,320 L 580,360" stroke="#0000b2" stroke-width="4.0" fill="none" class="A2"/>
<path d="M 520,440 L 520,460" stroke="#0000b2" stroke-width="4.0" fill="none" class="and6_OUT"/>
<path d="M 520,280 L 520,360" stroke="#0000b2" stroke-width="4.0" fill="none" class="A1"/>
<path d="M 840,440 L 840,460" stroke="#0000b2" stroke-width="4.0" fill="none" class="and2_OUT"/>
<path d="M 460,240 L 460,360" stroke="#0000b2" stroke-width="4.0" fill="none" class="A0"/>
<path d="M 780,240 L 780,360" stroke="#0000b2" stroke-width="4.0" fill="none" class="A0"/>
<path d="M 600,440 L 600,460" stroke="#0000b2" stroke-width="4.0" fill="none" class="and5_OUT"/>
<path d="M 600,300 L 600,360" stroke="#0000b2" stroke-width="4.0" fill="none" class="not1_OUT"/>
<path d="M 920,440 L 920,460" stroke="#0000b2" stroke-width="4.0" fill="none" class="and1_OUT"/>
<path d="M 920,300 L 920,360" stroke="#0000b2" stroke-width="4.0" fill="none" class="not1_OUT"/>
<path d="M 860,260 L 860,360" stroke="#0000b2" stroke-width="4.0" fill="none" class="not0_OUT"/>
<path d="M 540,260 L 540,360" stroke="#0000b2" stroke-width="4.0" fill="none" class="not0_OUT"/>
<path d="M 420,320 L 420,360" stroke="#0000b2" stroke-width="4.0" fill="none" class="A2"/>
<path d="M 740,340 L 740,360" stroke="#0000b2" stroke-width="4.0" fill="none" class="not2_OUT"/>
<path d="M 680,440 L 680,460" stroke="#0000b2" stroke-width="4.0" fill="none" class="and4_OUT"/>
<path d="M 680,300 L 680,360" stroke="#0000b2" stroke-width="4.0" fill="none" class="not1_OUT"/>
<path d="M 1000,440 L 1000,460" stroke="#0000b2" stroke-width="4.0" fill="none" class="and0_OUT"/>
<path d="M 620,240 L 620,360" stroke="#0000b2" stroke-width="4.0" fill="none" class="A0"/>
<path d="M 500,320 L 500,360" stroke="#0000b2" stroke-width="4.0" fill="none" class="A2"/>
<path d="M 820,340 L 820,360" stroke="#0000b2" stroke-width="4.0" fill="none" class="not2_OUT"/>
<path d="M 760,440 L 760,460" stroke="#0000b2" stroke-width="4.0" fill="none" class="and3_OUT"/>
<path d="M 760,280 L 760,360" stroke="#0000b2" stroke-width="4.0" fill="none" class="A1"/>
<path d="M 440,440 L 440,460" stroke="#0000b2" stroke-width="4.0" fill="none" class="and7_OUT"/>
<path d="M 440,280 L 440,360" stroke="#0000b2" stroke-width="4.0" fill="none" class="A1"/>
<path d="M 700,260 L 700,360" stroke="#0000b2" stroke-width="4.0" fill="none" class="not0_OUT"/>
<g>
<circle cx="460.0" cy="240.0" r="4.0" stroke="#0000b2" stroke-width="4.0" fill="#0000b2" class="A0"/>
<circle cx="620.0" cy="240.0" r="4.0" stroke="#0000b2" stroke-width="4.0" fill="#0000b2" class="A0"/>
<circle cx="780.0" cy="240.0" r="4.0" stroke="#0000b2" stroke-width="4.0" fill="#0000b2" class="A0"/>
<circle cx="420.0" cy="320.0" r="4.0" stroke="#0000b2" stroke-width="4.0" fill="#0000b2" class="A2"/>
<circle cx="500.0" cy="320.0" r="4.0" stroke="#0000b2" stroke-width="4.0" fill="#0000b2" class="A2"/>
<circle cx="580.0" cy="320.0" r="4.0" stroke="#0000b2" stroke-width="4.0" fill="#0000b2" class="A2"/>
<circle cx="340.0" cy="260.0" r="4.0" stroke="#0000b2" stroke-width="4.0" fill="#0000b2" class="A0"/>
<circle cx="540.0" cy="260.0" r="4.0" stroke="#0000b2" stroke-width="4.0" fill="#0000b2" class="not0_OUT"/>
<circle cx="860.0" cy="260.0" r="4.0" stroke="#0000b2" stroke-width="4.0" fill="#0000b2" class="not0_OUT"/>
<circle cx="700.0" cy="260.0" r="4.0" stroke="#0000b2" stroke-width="4.0" fill="#0000b2" class="not0_OUT"/>
<circle cx="340.0" cy="340.0" r="4.0" stroke="#0000b2" stroke-width="4.0" fill="#0000b2" class="A2"/>
<circle cx="740.0" cy="340.0" r="4.0" stroke="#0000b2" stroke-width="4.0" fill="#0000b2" class="not2_OUT"/>
<circle cx="820.0" cy="340.0" r="4.0" stroke="#0000b2" stroke-width="4.0" fill="#0000b2" class="not2_OUT"/>
<circle cx="900.0" cy="340.0" r="4.0" stroke="#0000b2" stroke-width="4.0" fill="#0000b2" class="not2_OUT"/>
<circle cx="440.0" cy="280.0" r="4.0" stroke="#0000b2" stroke-width="4.0" fill="#0000b2" class="A1"/>
<circle cx="520.0" cy="280.0" r="4.0" stroke="#0000b2" stroke-width="4.0" fill="#0000b2" class="A1"/>
<circle cx="760.0" cy="280.0" r="4.0" stroke="#0000b2" stroke-width="4.0" fill="#0000b2" class="A1"/>
<circle cx="340.0" cy="300.0" r="4.0" stroke="#0000b2" stroke-width="4.0" fill="#0000b2" class="A1"/>
<circle cx="600.0" cy="300.0" r="4.0" stroke="#0000b2" stroke-width="4.0" fill="#0000b2" class="not1_OUT"/>
<circle cx="680.0" cy="300.0" r="4.0" stroke="#0000b2" stroke-width="4.0" fill="#0000b2" class="not1_OUT"/>
<circle cx="920.0" cy="300.0" r="4.0" stroke="#0000b2" stroke-width="4.0" fill="#0000b2" class="not1_OUT"/>
</g>
<g class="Output" id="Y0">
<circle cx="1000.0" cy="476.0" r="9.0" stroke="#000000" stroke-width="4.0" fill="none" class="and0_OUT"/>
<circle cx="1000.0" cy="476.0" r="15.0" stroke="#000000" stroke-width="4.0" fill="none" class="Y0"/>
<text text-anchor="end" x="1000.0" y="514.0" fill="#000000" style="font-size:24px" transform="rotate(-90,1000.0,505.0)"><tspan style="font-style:italic;">Y0</tspan></text>
<circle cx="1000.0" cy="460.0" r="2.0" stroke="#0000b2" stroke-width="4.0" fill="#0000b2"/>
</g>
<g class="Output" id="Y1">
<circle cx="920.0" cy="476.0" r="9.0" stroke="#000000" stroke-width="4.0" fill="none" class="and1_OUT"/>
<circle cx="920.0" cy="476.0" r="15.0" stroke="#000000" stroke-width="4.0" fill="none" class="Y1"/>
<text text-anchor="end" x="920.0" y="514.0" fill="#000000" style="font-size:24px" transform="rotate(-90,920.0,505.0)"><tspan style="font-style:italic;">Y1</tspan></text>
<circle cx="920.0" cy="460.0" r="2.0" stroke="#0000b2" stroke-width="4.0" fill="#0000b2"/>
</g>
<g class="Output" id="Y2">
<circle cx="840.0" cy="476.0" r="9.0" stroke="#000000" stroke-width="4.0" fill="none" class="and2_OUT"/>
<circle cx="840.0" cy="476.0" r="15.0" stroke="#000000" stroke-width="4.0" fill="none" class="Y2"/>
<text text-anchor="end" x="840.0" y="514.0" fill="#000000" style="font-size:24px" transform="rotate(-90,840.0,505.0)"><tspan style="font-style:italic;">Y2</tspan></text>
<circle cx="840.0" cy="460.0" r="2.0" stroke="#0000b2" stroke-width="4.0" fill="#0000b2"/>
</g>
<g class="Output" id="Y3">
<circle cx="760.0" cy="476.0" r="9.0" stroke="#000000" stroke-width="4.0" fill="none" class="and3_OUT"/>
<circle cx="760.0" cy="476.0" r="15.0" stroke="#000000" stroke-width="4.0" fill="none" class="Y3"/>
<text text-anchor="end" x="760.0" y="514.0" fill="#000000" style="font-size:24px" transform="rotate(-90,760.0,505.0)"><tspan style="font-style:italic;">Y3</tspan></text>
<circle cx="760.0" cy="460.0" r="2.0" stroke="#0000b2" stroke-width="4.0" fill="#0000b2"/>
</g>
<g class="Output" id="Y4">
<circle cx="680.0" cy="476.0" r="9.0" stroke="#000000" stroke-width="4.0" fill="none" class="and4_OUT"/>
<circle cx="680.0" cy="476.0" r="15.0" stroke="#000000" stroke-width="4.0" fill="none" class="Y4"/>
<text text-anchor="end" x="680.0" y="514.0" fill="#000000" style="font-size:24px" transform="rotate(-90,680.0,505.0)"><tspan style="font-style:italic;">Y4</tspan></text>
<circle cx="680.0" cy="460.0" r="2.0" stroke="#0000b2" stroke-width="4.0" fill="#0000b2"/>
</g>
<g class="Output" id="Y5">
<circle cx="600.0" cy="476.0" r="9.0" stroke="#000000" stroke-width="4.0" fill="none" class="and5_OUT"/>
<circle cx="600.0" cy="476.0" r="15.0" stroke="#000000" stroke-width="4.0" fill="none" class="Y5"/>
<text text-anchor="end" x="600.0" y="514.0" fill="#000000" style="font-size:24px" transform="rotate(-90,600.0,505.0)"><tspan style="font-style:italic;">Y5</tspan></text>
<circle cx="600.0" cy="460.0" r="2.0" stroke="#0000b2" stroke-width="4.0" fill="#0000b2"/>
</g>
<g class="Output" id="Y6">
<circle cx="520.0" cy="476.0" r="9.0" stroke="#000000" stroke-width="4.0" fill="none" class="and6_OUT"/>
<circle cx="520.0" cy="476.0" r="15.0" stroke="#000000" stroke-width="4.0" fill="none" class="Y6"/>
<text text-anchor="end" x="520.0" y="514.0" fill="#000000" style="font-size:24px" transform="rotate(-90,520.0,505.0)"><tspan style="font-style:italic;">Y6</tspan></text>
<circle cx="520.0" cy="460.0" r="2.0" stroke="#0000b2" stroke-width="4.0" fill="#0000b2"/>
</g>
<g class="Output" id="Y7">
<circle cx="440.0" cy="476.0" r="9.0" stroke="#000000" stroke-width="4.0" fill="none" class="and7_OUT"/>
<circle cx="440.0" cy="476.0" r="15.0" stroke="#000000" stroke-width="4.0" fill="none" class="Y7"/>
<text text-anchor="end" x="440.0" y="514.0" fill="#000000" style="font-size:24px" transform="rotate(-90,440.0,505.0)"><tspan style="font-style:italic;">Y7</tspan></text>
<circle cx="440.0" cy="460.0" r="2.0" stroke="#0000b2" stroke-width="4.0" fill="#0000b2"/>
</g>
<g class="AND3" pointer-events="visible">
<path d="M 970,410 L 970,361 L 1030,361 L 1030,410 C 1030,420 1020,440 1000,439 C 980,439 970,420 970,410 Z" stroke="#000000" stroke-width="4.0" fill="none"/>
<circle cx="1020.0" cy="360.0" r="2.0" stroke="#0000b2" stroke-width="4.0" fill="#0000b2"/>
<circle cx="1000.0" cy="360.0" r="2.0" stroke="#0000b2" stroke-width="4.0" fill="#0000b2"/>
<circle cx="980.0" cy="360.0" r="2.0" stroke="#0000b2" stroke-width="4.0" fill="#0000b2"/>
<circle cx="1000.0" cy="440.0" r="2.0" stroke="#b20000" stroke-width="4.0" fill="#b20000"/>
</g>
<g>
<path d="M 361,248 L 379,260 L 361,272 Z" stroke="#000000" stroke-width="4.0" fill="none"/>
<circle cx="390.0" cy="260.0" r="9.0" stroke="#000000" stroke-width="4.0" fill="none"/>
<circle cx="360.0" cy="260.0" r="2.0" stroke="#0000b2" stroke-width="4.0" fill="#0000b2"/>
<circle cx="400.0" cy="260.0" r="2.0" stroke="#b20000" stroke-width="4.0" fill="#b20000"/>
</g>
<g class="Input" id="A0" pointer-events="visible">
<path d="M 289,245 L 319,245 L 319,275 L 289,275 Z" stroke="#000000" stroke-width="4.0" fill="none"/>
<circle cx="304.0" cy="260.0" r="9.0" stroke="#000000" stroke-width="4.0" fill="none" class="A0"/>
<text text-anchor="end" x="275.0" y="269.0" fill="#000000" style="font-size:24px"><tspan style="font-style:italic;">A0</tspan></text>
<circle cx="320.0" cy="260.0" r="2.0" stroke="#b20000" stroke-width="4.0" fill="#b20000"/>
</g>
<g>
<path d="M 361,288 L 379,300 L 361,312 Z" stroke="#000000" stroke-width="4.0" fill="none"/>
<circle cx="390.0" cy="300.0" r="9.0" stroke="#000000" stroke-width="4.0" fill="none"/>
<circle cx="360.0" cy="300.0" r="2.0" stroke="#0000b2" stroke-width="4.0" fill="#0000b2"/>
<circle cx="400.0" cy="300.0" r="2.0" stroke="#b20000" stroke-width="4.0" fill="#b20000"/>
</g>
<g class="Input" id="A1" pointer-events="visible">
<path d="M 289,285 L 319,285 L 319,315 L 289,315 Z" stroke="#000000" stroke-width="4.0" fill="none"/>
<circle cx="304.0" cy="300.0" r="9.0" stroke="#000000" stroke-width="4.0" fill="none" class="A1"/>
<text text-anchor="end" x="275.0" y="309.0" fill="#000000" style="font-size:24px"><tspan style="font-style:italic;">A1</tspan></text>
<circle cx="320.0" cy="300.0" r="2.0" stroke="#b20000" stroke-width="4.0" fill="#b20000"/>
</g>
<g>
<path d="M 361,328 L 379,340 L 361,352 Z" stroke="#000000" stroke-width="4.0" fill="none"/>
<circle cx="390.0" cy="340.0" r="9.0" stroke="#000000" stroke-width="4.0" fill="none"/>
<circle cx="360.0" cy="340.0" r="2.0" stroke="#0000b2" stroke-width="4.0" fill="#0000b2"/>
<circle cx="400.0" cy="340.0" r="2.0" stroke="#b20000" stroke-width="4.0" fill="#b20000"/>
</g>
<g class="Input" id="A2" pointer-events="visible">
<path d="M 289,325 L 319,325 L 319,355 L 289,355 Z" stroke="#000000" stroke-width="4.0" fill="none"/>
<circle cx="304.0" cy="340.0" r="9.0" stroke="#000000" stroke-width="4.0" fill="none" class="A2"/>
<text text-anchor="end" x="275.0" y="349.0" fill="#000000" style="font-size:24px"><tspan style="font-style:italic;">A2</tspan></text>
<circle cx="320.0" cy="340.0" r="2.0" stroke="#b20000" stroke-width="4.0" fill="#b20000"/>
</g>
<g class="AND3" pointer-events="visible">
<path d="M 890,410 L 890,361 L 950,361 L 950,410 C 950,420 940,440 920,439 C 900,439 890,420 890,410 Z" stroke="#000000" stroke-width="4.0" fill="none"/>
<circle cx="940.0" cy="360.0" r="2.0" stroke="#0000b2" stroke-width="4.0" fill="#0000b2"/>
<circle cx="920.0" cy="360.0" r="2.0" stroke="#0000b2" stroke-width="4.0" fill="#0000b2"/>
<circle cx="900.0" cy="360.0" r="2.0" stroke="#0000b2" stroke-width="4.0" fill="#0000b2"/>
<circle cx="920.0" cy="440.0" r="2.0" stroke="#b20000" stroke-width="4.0" fill="#b20000"/>
</g>
<g class="AND3" pointer-events="visible">
<path d="M 810,410 L 810,361 L 870,361 L 870,410 C 870,420 860,440 840,439 C 820,439 810,420 810,410 Z" stroke="#000000" stroke-width="4.0" fill="none"/>
<circle cx="860.0" cy="360.0" r="2.0" stroke="#0000b2" stroke-width="4.0" fill="#0000b2"/>
<circle cx="840.0" cy="360.0" r="2.0" stroke="#0000b2" stroke-width="4.0" fill="#0000b2"/>
<circle cx="820.0" cy="360.0" r="2.0" stroke="#0000b2" stroke-width="4.0" fill="#0000b2"/>
<circle cx="840.0" cy="440.0" r="2.0" stroke="#b20000" stroke-width="4.0" fill="#b20000"/>
</g>
<g class="AND3" pointer-events="visible">
<path d="M 730,410 L 730,361 L 790,361 L 790,410 C 790,420 780,440 760,439 C 740,439 730,420 730,410 Z" stroke="#000000" stroke-width="4.0" fill="none"/>
<circle cx="780.0" cy="360.0" r="2.0" stroke="#0000b2" stroke-width="4.0" fill="#0000b2"/>
<circle cx="760.0" cy="360.0" r="2.0" stroke="#0000b2" stroke-width="4.0" fill="#0000b2"/>
<circle cx="740.0" cy="360.0" r="2.0" stroke="#0000b2" stroke-width="4.0" fill="#0000b2"/>
<circle cx="760.0" cy="440.0" r="2.0" stroke="#b20000" stroke-width="4.0" fill="#b20000"/>
</g>
<g class="AND3" pointer-events="visible">
<path d="M 650,410 L 650,361 L 710,361 L 710,410 C 710,420 700,440 680,439 C 660,439 650,420 650,410 Z" stroke="#000000" stroke-width="4.0" fill="none"/>
<circle cx="700.0" cy="360.0" r="2.0" stroke="#0000b2" stroke-width="4.0" fill="#0000b2"/>
<circle cx="680.0" cy="360.0" r="2.0" stroke="#0000b2" stroke-width="4.0" fill="#0000b2"/>
<circle cx="660.0" cy="360.0" r="2.0" stroke="#0000b2" stroke-width="4.0" fill="#0000b2"/>
<circle cx="680.0" cy="440.0" r="2.0" stroke="#b20000" stroke-width="4.0" fill="#b20000"/>
</g>
<g class="AND3" pointer-events="visible">
<path d="M 570,410 L 570,361 L 630,361 L 630,410 C 630,420 620,440 600,439 C 580,439 570,420 570,410 Z" stroke="#000000" stroke-width="4.0" fill="none"/>
<circle cx="620.0" cy="360.0" r="2.0" stroke="#0000b2" stroke-width="4.0" fill="#0000b2"/>
<circle cx="600.0" cy="360.0" r="2.0" stroke="#0000b2" stroke-width="4.0" fill="#0000b2"/>
<circle cx="580.0" cy="360.0" r="2.0" stroke="#0000b2" stroke-width="4.0" fill="#0000b2"/>
<circle cx="600.0" cy="440.0" r="2.0" stroke="#b20000" stroke-width="4.0" fill="#b20000"/>
</g>
<g class="AND3" pointer-events="visible">
<path d="M 490,410 L 490,361 L 550,361 L 550,410 C 550,420 540,440 520,439 C 500,439 490,420 490,410 Z" stroke="#000000" stroke-width="4.0" fill="none"/>
<circle cx="540.0" cy="360.0" r="2.0" stroke="#0000b2" stroke-width="4.0" fill="#0000b2"/>
<circle cx="520.0" cy="360.0" r="2.0" stroke="#0000b2" stroke-width="4.0" fill="#0000b2"/>
<circle cx="500.0" cy="360.0" r="2.0" stroke="#0000b2" stroke-width="4.0" fill="#0000b2"/>
<circle cx="520.0" cy="440.0" r="2.0" stroke="#b20000" stroke-width="4.0" fill="#b20000"/>
</g>
<g class="AND3" pointer-events="visible">
<path d="M 410,410 L 410,361 L 470,361 L 470,410 C 470,420 460,440 440,439 C 420,439 410,420 410,410 Z" stroke="#000000" stroke-width="4.0" fill="none"/>
<circle cx="460.0" cy="360.0" r="2.0" stroke="#0000b2" stroke-width="4.0" fill="#0000b2"/>
<circle cx="440.0" cy="360.0" r="2.0" stroke="#0000b2" stroke-width="4.0" fill="#0000b2"/>
<circle cx="420.0" cy="360.0" r="2.0" stroke="#0000b2" stroke-width="4.0" fill="#0000b2"/>
<circle cx="440.0" cy="440.0" r="2.0" stroke="#b20000" stroke-width="4.0" fill="#b20000"/>
</g>
</g>
</svg>