<svg xmlns:svg="http://www.w3.org/2000/svg" xmlns="http://www.w3.org/2000/svg" width="800px" viewBox="212 203 426 115">
<g stroke-linecap="square">
<path d="M 280,240 L 360,240 L 380,240" stroke="#0000b2" stroke-width="4.0" fill="none" class="D"/>
<path d="M 420,240 L 440,240" stroke="#0000b2" stroke-width="4.0" fill="none" class="not_OUT"/>
<path d="M 500,240 L 540,240 L 540,220 L 560,220" stroke="#0000b2" stroke-width="4.0" fill="none" class="latch_Q"/>
<path d="M 360,240 L 360,260 L 440,260" stroke="#0000b2" stroke-width="4.0" fill="none" class="D"/>
<path d="M 500,260 L 560,260" stroke="#0000b2" stroke-width="4.0" fill="none" class="latch_~Q"/>
<path d="M 280,280 L 440,280" stroke="#0000b2" stroke-width="4.0" fill="none" class="W"/>
<g>
<circle cx="360.0" cy="240.0" r="4.0" stroke="#0000b2" stroke-width="4.0" fill="#0000b2" class="D"/>
</g>
<g class="Input" id="W" pointer-events="visible">
<path d="M 249,265 L 279,265 L 279,295 L 249,295 Z" stroke="#000000" stroke-width="4.0" fill="none"/>
<circle cx="264.0" cy="280.0" r="9.0" stroke="#000000" stroke-width="4.0" fill="none" class="W"/>
<text text-anchor="end" x="235.0" y="289.0" fill="#000000" style="font-size:24px"><tspan style="font-style:italic;">W</tspan></text>
<circle cx="280.0" cy="280.0" r="2.0" stroke="#b20000" stroke-width="4.0" fill="#b20000"/>
</g>
<g class="GATEDSRLATCH" pointer-events="visible">
<path d="M 441,226 L 499,226 L 499,294 L 441,294 Z" stroke="#ffffb4" stroke-width="0.0" fill="#ffffb4" fill-opacity="0.7843137254901961"/>
<path d="M 441,226 L 499,226 L 499,294 L 441,294 Z" stroke="#000000" stroke-width="4.0" fill="none"/>
<text text-anchor="start" x="444.0" y="246.75" fill="#808080" style="font-size:18px">R</text>
<text text-anchor="start" x="444.0" y="266.75" fill="#808080" style="font-size:18px">S</text>
<text text-anchor="start" x="444.0" y="286.75" fill="#808080" style="font-size:18px">W</text>
<text text-anchor="end" x="496.0" y="246.75" fill="#808080" style="font-size:18px">Q</text>
<text text-anchor="end" x="496.0" y="266.75" fill="#808080" style="font-size:18px">~Q</text>
<text text-anchor="middle" x="470.0" y="311.5" fill="#808080" style="font-size:18px">GATEDSRLATCH</text>
<circle cx="440.0" cy="240.0" r="2.0" stroke="#0000b2" stroke-width="4.0" fill="#0000b2"/>
<circle cx="440.0" cy="260.0" r="2.0" stroke="#0000b2" stroke-width="4.0" fill="#0000b2"/>
<circle cx="440.0" cy="280.0" r="2.0" stroke="#0000b2" stroke-width="4.0" fill="#0000b2"/>
<circle cx="500.0" cy="240.0" r="2.0" stroke="#b20000" stroke-width="4.0" fill="#b20000"/>
<circle cx="500.0" cy="260.0" r="2.0" stroke="#b20000" stroke-width="4.0" fill="#b20000"/>
</g>
<g class="Input" id="D" pointer-events="visible">
<path d="M 249,225 L 279,225 L 279,255 L 249,255 Z" stroke="#000000" stroke-width="4.0" fill="none"/>
<circle cx="264.0" cy="240.0" r="9.0" stroke="#000000" stroke-width="4.0" fill="none" class="D"/>
<text text-anchor="end" x="235.0" y="249.0" fill="#000000" style="font-size:24px"><tspan style="font-style:italic;">D</tspan></text>
<circle cx="280.0" cy="240.0" r="2.0" stroke="#b20000" stroke-width="4.0" fill="#b20000"/>
</g>
<g>
<path d="M 381,228 L 399,240 L 381,252 Z" stroke="#000000" stroke-width="4.0" fill="none"/>
<circle cx="410.0" cy="240.0" r="9.0" stroke="#000000" stroke-width="4.0" fill="none"/>
<circle cx="380.0" cy="240.0" r="2.0" stroke="#0000b2" stroke-width="4.0" fill="#0000b2"/>
<circle cx="420.0" cy="240.0" r="2.0" stroke="#b20000" stroke-width="4.0" fill="#b20000"/>
</g>
<g class="Output" id="Q">
<circle cx="576.0" cy="220.0" r="9.0" stroke="#000000" stroke-width="4.0" fill="none" class="latch_Q"/>
<circle cx="576.0" cy="220.0" r="15.0" stroke="#000000" stroke-width="4.0" fill="none" class="Q"/>
<text text-anchor="start" x="605.0" y="229.0" fill="#000000" style="font-size:24px"><tspan style="font-style:italic;">Q</tspan></text>
<circle cx="560.0" cy="220.0" r="2.0" stroke="#0000b2" stroke-width="4.0" fill="#0000b2"/>
</g>
<g class="Output" id="~Q">
<circle cx="576.0" cy="260.0" r="9.0" stroke="#000000" stroke-width="4.0" fill="none" class="latch_~Q"/>
<circle cx="576.0" cy="260.0" r="15.0" stroke="#000000" stroke-width="4.0" fill="none" class="~Q"/>
<text text-anchor="start" x="605.0" y="269.0" fill="#000000" style="font-size:24px">~Q</text>
<circle cx="560.0" cy="260.0" r="2.0" stroke="#0000b2" stroke-width="4.0" fill="#0000b2"/>
</g>
</g>
</svg>