<svg xmlns:svg="http://www.w3.org/2000/svg" xmlns="http://www.w3.org/2000/svg" width="800px" viewBox="232 283 486 154">
<g stroke-linecap="square">
<path d="M 440,320 L 500,320 L 500,340 L 520,340" stroke="#0000b2" stroke-width="4.0" fill="none" class="and1_OUT"/>
<path d="M 440,400 L 500,400 L 500,360 L 520,360" stroke="#0000b2" stroke-width="4.0" fill="none" class="and2_OUT"/>
<path d="M 580,340 L 620,340 L 620,320 L 640,320" stroke="#0000b2" stroke-width="4.0" fill="none" class="latch_Q"/>
<path d="M 300,420 L 360,420" stroke="#0000b2" stroke-width="4.0" fill="none" class="S"/>
<path d="M 300,360 L 340,360 L 340,340 L 360,340" stroke="#0000b2" stroke-width="4.0" fill="none" class="W"/>
<path d="M 580,360 L 620,360 L 620,380 L 640,380" stroke="#0000b2" stroke-width="4.0" fill="none" class="latch_~Q"/>
<path d="M 340,360 L 340,380 L 360,380" stroke="#0000b2" stroke-width="4.0" fill="none" class="W"/>
<path d="M 300,300 L 360,300" stroke="#0000b2" stroke-width="4.0" fill="none" class="R"/>
<g>
<circle cx="340.0" cy="360.0" r="4.0" stroke="#0000b2" stroke-width="4.0" fill="#0000b2" class="W"/>
</g>
<g class="SRLATCH" pointer-events="visible">
<path d="M 521,326 L 579,326 L 579,374 L 521,374 Z" stroke="#ffffb4" stroke-width="0.0" fill="#ffffb4" fill-opacity="0.7843137254901961"/>
<path d="M 521,326 L 579,326 L 579,374 L 521,374 Z" stroke="#000000" stroke-width="4.0" fill="none"/>
<text text-anchor="start" x="524.0" y="346.75" fill="#808080" style="font-size:18px">R</text>
<text text-anchor="start" x="524.0" y="366.75" fill="#808080" style="font-size:18px">S</text>
<text text-anchor="end" x="576.0" y="346.75" fill="#808080" style="font-size:18px">Q</text>
<text text-anchor="end" x="576.0" y="366.75" fill="#808080" style="font-size:18px">~Q</text>
<text text-anchor="middle" x="550.0" y="391.5" fill="#808080" style="font-size:18px">SRLATCH</text>
<circle cx="520.0" cy="340.0" r="2.0" stroke="#0000b2" stroke-width="4.0" fill="#0000b2"/>
<circle cx="520.0" cy="360.0" r="2.0" stroke="#0000b2" stroke-width="4.0" fill="#0000b2"/>
<circle cx="580.0" cy="340.0" r="2.0" stroke="#b20000" stroke-width="4.0" fill="#b20000"/>
<circle cx="580.0" cy="360.0" r="2.0" stroke="#b20000" stroke-width="4.0" fill="#b20000"/>
</g>
<g class="AND" pointer-events="visible">
<path d="M 410,350 L 361,350 L 361,290 L 410,290 C 420,290 440,300 439,320 C 439,340 420,350 410,350 Z" stroke="#000000" stroke-width="4.0" fill="none"/>
<circle cx="360.0" cy="300.0" r="2.0" stroke="#0000b2" stroke-width="4.0" fill="#0000b2"/>
<circle cx="360.0" cy="340.0" r="2.0" stroke="#0000b2" stroke-width="4.0" fill="#0000b2"/>
<circle cx="440.0" cy="320.0" r="2.0" stroke="#b20000" stroke-width="4.0" fill="#b20000"/>
</g>
<g class="AND" pointer-events="visible">
<path d="M 410,430 L 361,430 L 361,370 L 410,370 C 420,370 440,380 439,400 C 439,420 420,430 410,430 Z" stroke="#000000" stroke-width="4.0" fill="none"/>
<circle cx="360.0" cy="380.0" r="2.0" stroke="#0000b2" stroke-width="4.0" fill="#0000b2"/>
<circle cx="360.0" cy="420.0" r="2.0" stroke="#0000b2" stroke-width="4.0" fill="#0000b2"/>
<circle cx="440.0" cy="400.0" r="2.0" stroke="#b20000" stroke-width="4.0" fill="#b20000"/>
</g>
<g class="Input" id="W" pointer-events="visible">
<path d="M 269,345 L 299,345 L 299,375 L 269,375 Z" stroke="#000000" stroke-width="4.0" fill="none"/>
<circle cx="284.0" cy="360.0" r="9.0" stroke="#000000" stroke-width="4.0" fill="none" class="W"/>
<text text-anchor="end" x="255.0" y="369.0" fill="#000000" style="font-size:24px"><tspan style="font-style:italic;">W</tspan></text>
<circle cx="300.0" cy="360.0" r="2.0" stroke="#b20000" stroke-width="4.0" fill="#b20000"/>
</g>
<g class="Input" id="R" pointer-events="visible">
<path d="M 269,285 L 299,285 L 299,315 L 269,315 Z" stroke="#000000" stroke-width="4.0" fill="none"/>
<circle cx="284.0" cy="300.0" r="9.0" stroke="#000000" stroke-width="4.0" fill="none" class="R"/>
<text text-anchor="end" x="255.0" y="309.0" fill="#000000" style="font-size:24px"><tspan style="font-style:italic;">R</tspan></text>
<circle cx="300.0" cy="300.0" r="2.0" stroke="#b20000" stroke-width="4.0" fill="#b20000"/>
</g>
<g class="Input" id="S" pointer-events="visible">
<path d="M 269,405 L 299,405 L 299,435 L 269,435 Z" stroke="#000000" stroke-width="4.0" fill="none"/>
<circle cx="284.0" cy="420.0" r="9.0" stroke="#000000" stroke-width="4.0" fill="none" class="S"/>
<text text-anchor="end" x="255.0" y="429.0" fill="#000000" style="font-size:24px"><tspan style="font-style:italic;">S</tspan></text>
<circle cx="300.0" cy="420.0" r="2.0" stroke="#b20000" stroke-width="4.0" fill="#b20000"/>
</g>
<g class="Output" id="Q">
<circle cx="656.0" cy="320.0" r="9.0" stroke="#000000" stroke-width="4.0" fill="none" class="latch_Q"/>
<circle cx="656.0" cy="320.0" r="15.0" stroke="#000000" stroke-width="4.0" fill="none" class="Q"/>
<text text-anchor="start" x="685.0" y="329.0" fill="#000000" style="font-size:24px"><tspan style="font-style:italic;">Q</tspan></text>
<circle cx="640.0" cy="320.0" r="2.0" stroke="#0000b2" stroke-width="4.0" fill="#0000b2"/>
</g>
<g class="Output" id="~Q">
<circle cx="656.0" cy="380.0" r="9.0" stroke="#000000" stroke-width="4.0" fill="none" class="latch_~Q"/>
<circle cx="656.0" cy="380.0" r="15.0" stroke="#000000" stroke-width="4.0" fill="none" class="~Q"/>
<text text-anchor="start" x="685.0" y="389.0" fill="#000000" style="font-size:24px">~Q</text>
<circle cx="640.0" cy="380.0" r="2.0" stroke="#0000b2" stroke-width="4.0" fill="#0000b2"/>
</g>
</g>
</svg>