<svg xmlns:svg="http://www.w3.org/2000/svg" xmlns="http://www.w3.org/2000/svg" width="1200px" viewBox="134 100 1162 401">
<g stroke-linecap="square">
<path d="M 220,320 L 280,320" stroke="#0000b2" stroke-width="4.0" fill="none" class="E"/>
<path d="M 220,260 L 260,260 L 260,240 L 280,240" stroke="#0000b2" stroke-width="4.0" fill="none" class="SEL"/>
<path d="M 260,260 L 260,280 L 280,280" stroke="#0000b2" stroke-width="4.0" fill="none" class="SEL"/>
<path d="M 220,200 L 280,200" stroke="#0000b2" stroke-width="4.0" fill="none" class="W"/>
<path d="M 360,300 L 440,300 L 560,300 L 680,300 L 800,300 L 920,300 L 1040,300 L 1160,300 L 1280,300 L 1280,340" stroke="#0000b2" stroke-width="4.0" fill="none" class="and1_OUT"/>
<path d="M 360,220 L 400,220 L 520,220 L 640,220 L 760,220 L 880,220 L 1000,220 L 1120,220 L 1240,220 L 1240,340" stroke="#0000b2" stroke-width="4.0" fill="none" class="and0_OUT"/>
<path d="M 640,220 L 640,340" stroke="#0000b2" stroke-width="4.0" fill="none" class="and0_OUT"/>
<path d="M 900,180 L 900,340" stroke="#0000b2" stroke-width="4.0" fill="none" class="D3"/>
<path d="M 900,400 L 900,420" stroke="#0000b2" stroke-width="4.0" fill="none" class="memory3_O"/>
<path d="M 1160,300 L 1160,340" stroke="#0000b2" stroke-width="4.0" fill="none" class="and1_OUT"/>
<path d="M 520,220 L 520,340" stroke="#0000b2" stroke-width="4.0" fill="none" class="and0_OUT"/>
<path d="M 780,180 L 780,340" stroke="#0000b2" stroke-width="4.0" fill="none" class="D4"/>
<path d="M 780,400 L 780,420" stroke="#0000b2" stroke-width="4.0" fill="none" class="memory4_O"/>
<path d="M 1040,300 L 1040,340" stroke="#0000b2" stroke-width="4.0" fill="none" class="and1_OUT"/>
<path d="M 400,220 L 400,340" stroke="#0000b2" stroke-width="4.0" fill="none" class="and0_OUT"/>
<path d="M 660,180 L 660,340" stroke="#0000b2" stroke-width="4.0" fill="none" class="D5"/>
<path d="M 660,400 L 660,420" stroke="#0000b2" stroke-width="4.0" fill="none" class="memory5_O"/>
<path d="M 920,300 L 920,340" stroke="#0000b2" stroke-width="4.0" fill="none" class="and1_OUT"/>
<path d="M 540,180 L 540,340" stroke="#0000b2" stroke-width="4.0" fill="none" class="D6"/>
<path d="M 540,400 L 540,420" stroke="#0000b2" stroke-width="4.0" fill="none" class="memory6_O"/>
<path d="M 800,300 L 800,340" stroke="#0000b2" stroke-width="4.0" fill="none" class="and1_OUT"/>
<path d="M 1120,220 L 1120,340" stroke="#0000b2" stroke-width="4.0" fill="none" class="and0_OUT"/>
<path d="M 420,180 L 420,340" stroke="#0000b2" stroke-width="4.0" fill="none" class="D7"/>
<path d="M 420,400 L 420,420" stroke="#0000b2" stroke-width="4.0" fill="none" class="memory7_O"/>
<path d="M 680,300 L 680,340" stroke="#0000b2" stroke-width="4.0" fill="none" class="and1_OUT"/>
<path d="M 1000,220 L 1000,340" stroke="#0000b2" stroke-width="4.0" fill="none" class="and0_OUT"/>
<path d="M 1260,180 L 1260,340" stroke="#0000b2" stroke-width="4.0" fill="none" class="D0"/>
<path d="M 1260,400 L 1260,420" stroke="#0000b2" stroke-width="4.0" fill="none" class="memory0_O"/>
<path d="M 560,300 L 560,340" stroke="#0000b2" stroke-width="4.0" fill="none" class="and1_OUT"/>
<path d="M 880,220 L 880,340" stroke="#0000b2" stroke-width="4.0" fill="none" class="and0_OUT"/>
<path d="M 1140,180 L 1140,340" stroke="#0000b2" stroke-width="4.0" fill="none" class="D1"/>
<path d="M 1140,400 L 1140,420" stroke="#0000b2" stroke-width="4.0" fill="none" class="memory1_O"/>
<path d="M 760,220 L 760,340" stroke="#0000b2" stroke-width="4.0" fill="none" class="and0_OUT"/>
<path d="M 440,300 L 440,340" stroke="#0000b2" stroke-width="4.0" fill="none" class="and1_OUT"/>
<path d="M 1020,180 L 1020,340" stroke="#0000b2" stroke-width="4.0" fill="none" class="D2"/>
<path d="M 1020,400 L 1020,420" stroke="#0000b2" stroke-width="4.0" fill="none" class="memory2_O"/>
<g>
<circle cx="260.0" cy="260.0" r="4.0" stroke="#0000b2" stroke-width="4.0" fill="#0000b2" class="SEL"/>
<circle cx="440.0" cy="300.0" r="4.0" stroke="#0000b2" stroke-width="4.0" fill="#0000b2" class="and1_OUT"/>
<circle cx="680.0" cy="300.0" r="4.0" stroke="#0000b2" stroke-width="4.0" fill="#0000b2" class="and1_OUT"/>
<circle cx="800.0" cy="300.0" r="4.0" stroke="#0000b2" stroke-width="4.0" fill="#0000b2" class="and1_OUT"/>
<circle cx="920.0" cy="300.0" r="4.0" stroke="#0000b2" stroke-width="4.0" fill="#0000b2" class="and1_OUT"/>
<circle cx="1040.0" cy="300.0" r="4.0" stroke="#0000b2" stroke-width="4.0" fill="#0000b2" class="and1_OUT"/>
<circle cx="1160.0" cy="300.0" r="4.0" stroke="#0000b2" stroke-width="4.0" fill="#0000b2" class="and1_OUT"/>
<circle cx="560.0" cy="300.0" r="4.0" stroke="#0000b2" stroke-width="4.0" fill="#0000b2" class="and1_OUT"/>
<circle cx="400.0" cy="220.0" r="4.0" stroke="#0000b2" stroke-width="4.0" fill="#0000b2" class="and0_OUT"/>
<circle cx="520.0" cy="220.0" r="4.0" stroke="#0000b2" stroke-width="4.0" fill="#0000b2" class="and0_OUT"/>
<circle cx="640.0" cy="220.0" r="4.0" stroke="#0000b2" stroke-width="4.0" fill="#0000b2" class="and0_OUT"/>
<circle cx="760.0" cy="220.0" r="4.0" stroke="#0000b2" stroke-width="4.0" fill="#0000b2" class="and0_OUT"/>
<circle cx="880.0" cy="220.0" r="4.0" stroke="#0000b2" stroke-width="4.0" fill="#0000b2" class="and0_OUT"/>
<circle cx="1000.0" cy="220.0" r="4.0" stroke="#0000b2" stroke-width="4.0" fill="#0000b2" class="and0_OUT"/>
<circle cx="1120.0" cy="220.0" r="4.0" stroke="#0000b2" stroke-width="4.0" fill="#0000b2" class="and0_OUT"/>
</g>
<g class="AND" pointer-events="visible">
<path d="M 330,250 L 281,250 L 281,190 L 330,190 C 340,190 360,200 359,220 C 359,240 340,250 330,250 Z" stroke="#000000" stroke-width="4.0" fill="none"/>
<circle cx="280.0" cy="200.0" r="2.0" stroke="#0000b2" stroke-width="4.0" fill="#0000b2"/>
<circle cx="280.0" cy="240.0" r="2.0" stroke="#0000b2" stroke-width="4.0" fill="#0000b2"/>
<circle cx="360.0" cy="220.0" r="2.0" stroke="#b20000" stroke-width="4.0" fill="#b20000"/>
</g>
<g class="AND" pointer-events="visible">
<path d="M 330,330 L 281,330 L 281,270 L 330,270 C 340,270 360,280 359,300 C 359,320 340,330 330,330 Z" stroke="#000000" stroke-width="4.0" fill="none"/>
<circle cx="280.0" cy="280.0" r="2.0" stroke="#0000b2" stroke-width="4.0" fill="#0000b2"/>
<circle cx="280.0" cy="320.0" r="2.0" stroke="#0000b2" stroke-width="4.0" fill="#0000b2"/>
<circle cx="360.0" cy="300.0" r="2.0" stroke="#b20000" stroke-width="4.0" fill="#b20000"/>
</g>
<g class="MEMORY1" pointer-events="visible">
<path d="M 454,341 L 454,399 L 386,399 L 386,341 Z" stroke="#ffffb4" stroke-width="0.0" fill="#ffffb4" fill-opacity="0.7843137254901961"/>
<path d="M 454,341 L 454,399 L 386,399 L 386,341 Z" stroke="#000000" stroke-width="4.0" fill="none"/>
<text text-anchor="end" x="440.0" y="350.75" fill="#808080" style="font-size:18px" transform="rotate(-90,440.0,344.0)">E</text>
<text text-anchor="end" x="420.0" y="350.75" fill="#808080" style="font-size:18px" transform="rotate(-90,420.0,344.0)">D</text>
<text text-anchor="end" x="400.0" y="350.75" fill="#808080" style="font-size:18px" transform="rotate(-90,400.0,344.0)">W</text>
<text text-anchor="start" x="420.0" y="402.75" fill="#808080" style="font-size:18px" transform="rotate(-90,420.0,396.0)">O</text>
<text text-anchor="middle" x="382.0" y="370.0" fill="#808080" style="font-size:18px" transform="rotate(-90,382.0,370.0)">MEMORY1</text>
<circle cx="440.0" cy="340.0" r="2.0" stroke="#0000b2" stroke-width="4.0" fill="#0000b2"/>
<circle cx="420.0" cy="340.0" r="2.0" stroke="#0000b2" stroke-width="4.0" fill="#0000b2"/>
<circle cx="400.0" cy="340.0" r="2.0" stroke="#0000b2" stroke-width="4.0" fill="#0000b2"/>
<circle cx="420.0" cy="400.0" r="2.0" stroke="#b20000" stroke-width="4.0" fill="#b20000"/>
</g>
<g class="MEMORY1" pointer-events="visible">
<path d="M 574,341 L 574,399 L 506,399 L 506,341 Z" stroke="#ffffb4" stroke-width="0.0" fill="#ffffb4" fill-opacity="0.7843137254901961"/>
<path d="M 574,341 L 574,399 L 506,399 L 506,341 Z" stroke="#000000" stroke-width="4.0" fill="none"/>
<text text-anchor="end" x="560.0" y="350.75" fill="#808080" style="font-size:18px" transform="rotate(-90,560.0,344.0)">E</text>
<text text-anchor="end" x="540.0" y="350.75" fill="#808080" style="font-size:18px" transform="rotate(-90,540.0,344.0)">D</text>
<text text-anchor="end" x="520.0" y="350.75" fill="#808080" style="font-size:18px" transform="rotate(-90,520.0,344.0)">W</text>
<text text-anchor="start" x="540.0" y="402.75" fill="#808080" style="font-size:18px" transform="rotate(-90,540.0,396.0)">O</text>
<text text-anchor="middle" x="502.0" y="370.0" fill="#808080" style="font-size:18px" transform="rotate(-90,502.0,370.0)">MEMORY1</text>
<circle cx="560.0" cy="340.0" r="2.0" stroke="#0000b2" stroke-width="4.0" fill="#0000b2"/>
<circle cx="540.0" cy="340.0" r="2.0" stroke="#0000b2" stroke-width="4.0" fill="#0000b2"/>
<circle cx="520.0" cy="340.0" r="2.0" stroke="#0000b2" stroke-width="4.0" fill="#0000b2"/>
<circle cx="540.0" cy="400.0" r="2.0" stroke="#b20000" stroke-width="4.0" fill="#b20000"/>
</g>
<g class="MEMORY1" pointer-events="visible">
<path d="M 694,341 L 694,399 L 626,399 L 626,341 Z" stroke="#ffffb4" stroke-width="0.0" fill="#ffffb4" fill-opacity="0.7843137254901961"/>
<path d="M 694,341 L 694,399 L 626,399 L 626,341 Z" stroke="#000000" stroke-width="4.0" fill="none"/>
<text text-anchor="end" x="680.0" y="350.75" fill="#808080" style="font-size:18px" transform="rotate(-90,680.0,344.0)">E</text>
<text text-anchor="end" x="660.0" y="350.75" fill="#808080" style="font-size:18px" transform="rotate(-90,660.0,344.0)">D</text>
<text text-anchor="end" x="640.0" y="350.75" fill="#808080" style="font-size:18px" transform="rotate(-90,640.0,344.0)">W</text>
<text text-anchor="start" x="660.0" y="402.75" fill="#808080" style="font-size:18px" transform="rotate(-90,660.0,396.0)">O</text>
<text text-anchor="middle" x="622.0" y="370.0" fill="#808080" style="font-size:18px" transform="rotate(-90,622.0,370.0)">MEMORY1</text>
<circle cx="680.0" cy="340.0" r="2.0" stroke="#0000b2" stroke-width="4.0" fill="#0000b2"/>
<circle cx="660.0" cy="340.0" r="2.0" stroke="#0000b2" stroke-width="4.0" fill="#0000b2"/>
<circle cx="640.0" cy="340.0" r="2.0" stroke="#0000b2" stroke-width="4.0" fill="#0000b2"/>
<circle cx="660.0" cy="400.0" r="2.0" stroke="#b20000" stroke-width="4.0" fill="#b20000"/>
</g>
<g class="MEMORY1" pointer-events="visible">
<path d="M 814,341 L 814,399 L 746,399 L 746,341 Z" stroke="#ffffb4" stroke-width="0.0" fill="#ffffb4" fill-opacity="0.7843137254901961"/>
<path d="M 814,341 L 814,399 L 746,399 L 746,341 Z" stroke="#000000" stroke-width="4.0" fill="none"/>
<text text-anchor="end" x="800.0" y="350.75" fill="#808080" style="font-size:18px" transform="rotate(-90,800.0,344.0)">E</text>
<text text-anchor="end" x="780.0" y="350.75" fill="#808080" style="font-size:18px" transform="rotate(-90,780.0,344.0)">D</text>
<text text-anchor="end" x="760.0" y="350.75" fill="#808080" style="font-size:18px" transform="rotate(-90,760.0,344.0)">W</text>
<text text-anchor="start" x="780.0" y="402.75" fill="#808080" style="font-size:18px" transform="rotate(-90,780.0,396.0)">O</text>
<text text-anchor="middle" x="742.0" y="370.0" fill="#808080" style="font-size:18px" transform="rotate(-90,742.0,370.0)">MEMORY1</text>
<circle cx="800.0" cy="340.0" r="2.0" stroke="#0000b2" stroke-width="4.0" fill="#0000b2"/>
<circle cx="780.0" cy="340.0" r="2.0" stroke="#0000b2" stroke-width="4.0" fill="#0000b2"/>
<circle cx="760.0" cy="340.0" r="2.0" stroke="#0000b2" stroke-width="4.0" fill="#0000b2"/>
<circle cx="780.0" cy="400.0" r="2.0" stroke="#b20000" stroke-width="4.0" fill="#b20000"/>
</g>
<g class="MEMORY1" pointer-events="visible">
<path d="M 934,341 L 934,399 L 866,399 L 866,341 Z" stroke="#ffffb4" stroke-width="0.0" fill="#ffffb4" fill-opacity="0.7843137254901961"/>
<path d="M 934,341 L 934,399 L 866,399 L 866,341 Z" stroke="#000000" stroke-width="4.0" fill="none"/>
<text text-anchor="end" x="920.0" y="350.75" fill="#808080" style="font-size:18px" transform="rotate(-90,920.0,344.0)">E</text>
<text text-anchor="end" x="900.0" y="350.75" fill="#808080" style="font-size:18px" transform="rotate(-90,900.0,344.0)">D</text>
<text text-anchor="end" x="880.0" y="350.75" fill="#808080" style="font-size:18px" transform="rotate(-90,880.0,344.0)">W</text>
<text text-anchor="start" x="900.0" y="402.75" fill="#808080" style="font-size:18px" transform="rotate(-90,900.0,396.0)">O</text>
<text text-anchor="middle" x="862.0" y="370.0" fill="#808080" style="font-size:18px" transform="rotate(-90,862.0,370.0)">MEMORY1</text>
<circle cx="920.0" cy="340.0" r="2.0" stroke="#0000b2" stroke-width="4.0" fill="#0000b2"/>
<circle cx="900.0" cy="340.0" r="2.0" stroke="#0000b2" stroke-width="4.0" fill="#0000b2"/>
<circle cx="880.0" cy="340.0" r="2.0" stroke="#0000b2" stroke-width="4.0" fill="#0000b2"/>
<circle cx="900.0" cy="400.0" r="2.0" stroke="#b20000" stroke-width="4.0" fill="#b20000"/>
</g>
<g class="MEMORY1" pointer-events="visible">
<path d="M 1054,341 L 1054,399 L 986,399 L 986,341 Z" stroke="#ffffb4" stroke-width="0.0" fill="#ffffb4" fill-opacity="0.7843137254901961"/>
<path d="M 1054,341 L 1054,399 L 986,399 L 986,341 Z" stroke="#000000" stroke-width="4.0" fill="none"/>
<text text-anchor="end" x="1040.0" y="350.75" fill="#808080" style="font-size:18px" transform="rotate(-90,1040.0,344.0)">E</text>
<text text-anchor="end" x="1020.0" y="350.75" fill="#808080" style="font-size:18px" transform="rotate(-90,1020.0,344.0)">D</text>
<text text-anchor="end" x="1000.0" y="350.75" fill="#808080" style="font-size:18px" transform="rotate(-90,1000.0,344.0)">W</text>
<text text-anchor="start" x="1020.0" y="402.75" fill="#808080" style="font-size:18px" transform="rotate(-90,1020.0,396.0)">O</text>
<text text-anchor="middle" x="982.0" y="370.0" fill="#808080" style="font-size:18px" transform="rotate(-90,982.0,370.0)">MEMORY1</text>
<circle cx="1040.0" cy="340.0" r="2.0" stroke="#0000b2" stroke-width="4.0" fill="#0000b2"/>
<circle cx="1020.0" cy="340.0" r="2.0" stroke="#0000b2" stroke-width="4.0" fill="#0000b2"/>
<circle cx="1000.0" cy="340.0" r="2.0" stroke="#0000b2" stroke-width="4.0" fill="#0000b2"/>
<circle cx="1020.0" cy="400.0" r="2.0" stroke="#b20000" stroke-width="4.0" fill="#b20000"/>
</g>
<g class="MEMORY1" pointer-events="visible">
<path d="M 1174,341 L 1174,399 L 1106,399 L 1106,341 Z" stroke="#ffffb4" stroke-width="0.0" fill="#ffffb4" fill-opacity="0.7843137254901961"/>
<path d="M 1174,341 L 1174,399 L 1106,399 L 1106,341 Z" stroke="#000000" stroke-width="4.0" fill="none"/>
<text text-anchor="end" x="1160.0" y="350.75" fill="#808080" style="font-size:18px" transform="rotate(-90,1160.0,344.0)">E</text>
<text text-anchor="end" x="1140.0" y="350.75" fill="#808080" style="font-size:18px" transform="rotate(-90,1140.0,344.0)">D</text>
<text text-anchor="end" x="1120.0" y="350.75" fill="#808080" style="font-size:18px" transform="rotate(-90,1120.0,344.0)">W</text>
<text text-anchor="start" x="1140.0" y="402.75" fill="#808080" style="font-size:18px" transform="rotate(-90,1140.0,396.0)">O</text>
<text text-anchor="middle" x="1102.0" y="370.0" fill="#808080" style="font-size:18px" transform="rotate(-90,1102.0,370.0)">MEMORY1</text>
<circle cx="1160.0" cy="340.0" r="2.0" stroke="#0000b2" stroke-width="4.0" fill="#0000b2"/>
<circle cx="1140.0" cy="340.0" r="2.0" stroke="#0000b2" stroke-width="4.0" fill="#0000b2"/>
<circle cx="1120.0" cy="340.0" r="2.0" stroke="#0000b2" stroke-width="4.0" fill="#0000b2"/>
<circle cx="1140.0" cy="400.0" r="2.0" stroke="#b20000" stroke-width="4.0" fill="#b20000"/>
</g>
<g class="MEMORY1" pointer-events="visible">
<path d="M 1294,341 L 1294,399 L 1226,399 L 1226,341 Z" stroke="#ffffb4" stroke-width="0.0" fill="#ffffb4" fill-opacity="0.7843137254901961"/>
<path d="M 1294,341 L 1294,399 L 1226,399 L 1226,341 Z" stroke="#000000" stroke-width="4.0" fill="none"/>
<text text-anchor="end" x="1280.0" y="350.75" fill="#808080" style="font-size:18px" transform="rotate(-90,1280.0,344.0)">E</text>
<text text-anchor="end" x="1260.0" y="350.75" fill="#808080" style="font-size:18px" transform="rotate(-90,1260.0,344.0)">D</text>
<text text-anchor="end" x="1240.0" y="350.75" fill="#808080" style="font-size:18px" transform="rotate(-90,1240.0,344.0)">W</text>
<text text-anchor="start" x="1260.0" y="402.75" fill="#808080" style="font-size:18px" transform="rotate(-90,1260.0,396.0)">O</text>
<text text-anchor="middle" x="1222.0" y="370.0" fill="#808080" style="font-size:18px" transform="rotate(-90,1222.0,370.0)">MEMORY1</text>
<circle cx="1280.0" cy="340.0" r="2.0" stroke="#0000b2" stroke-width="4.0" fill="#0000b2"/>
<circle cx="1260.0" cy="340.0" r="2.0" stroke="#0000b2" stroke-width="4.0" fill="#0000b2"/>
<circle cx="1240.0" cy="340.0" r="2.0" stroke="#0000b2" stroke-width="4.0" fill="#0000b2"/>
<circle cx="1260.0" cy="400.0" r="2.0" stroke="#b20000" stroke-width="4.0" fill="#b20000"/>
</g>
<g class="Input" id="D0" pointer-events="visible">
<path d="M 1275,149 L 1275,179 L 1245,179 L 1245,149 Z" stroke="#000000" stroke-width="4.0" fill="none"/>
<circle cx="1260.0" cy="164.0" r="9.0" stroke="#000000" stroke-width="4.0" fill="none" class="D0"/>
<text text-anchor="start" x="1260.0" y="144.0" fill="#000000" style="font-size:24px" transform="rotate(-90,1260.0,135.0)"><tspan style="font-style:italic;">D0</tspan></text>
<circle cx="1260.0" cy="180.0" r="2.0" stroke="#b20000" stroke-width="4.0" fill="#b20000"/>
</g>
<g class="Input" id="D1" pointer-events="visible">
<path d="M 1155,149 L 1155,179 L 1125,179 L 1125,149 Z" stroke="#000000" stroke-width="4.0" fill="none"/>
<circle cx="1140.0" cy="164.0" r="9.0" stroke="#000000" stroke-width="4.0" fill="none" class="D1"/>
<text text-anchor="start" x="1140.0" y="144.0" fill="#000000" style="font-size:24px" transform="rotate(-90,1140.0,135.0)"><tspan style="font-style:italic;">D1</tspan></text>
<circle cx="1140.0" cy="180.0" r="2.0" stroke="#b20000" stroke-width="4.0" fill="#b20000"/>
</g>
<g class="Input" id="D2" pointer-events="visible">
<path d="M 1035,149 L 1035,179 L 1005,179 L 1005,149 Z" stroke="#000000" stroke-width="4.0" fill="none"/>
<circle cx="1020.0" cy="164.0" r="9.0" stroke="#000000" stroke-width="4.0" fill="none" class="D2"/>
<text text-anchor="start" x="1020.0" y="144.0" fill="#000000" style="font-size:24px" transform="rotate(-90,1020.0,135.0)"><tspan style="font-style:italic;">D2</tspan></text>
<circle cx="1020.0" cy="180.0" r="2.0" stroke="#b20000" stroke-width="4.0" fill="#b20000"/>
</g>
<g class="Input" id="D3" pointer-events="visible">
<path d="M 915,149 L 915,179 L 885,179 L 885,149 Z" stroke="#000000" stroke-width="4.0" fill="none"/>
<circle cx="900.0" cy="164.0" r="9.0" stroke="#000000" stroke-width="4.0" fill="none" class="D3"/>
<text text-anchor="start" x="900.0" y="144.0" fill="#000000" style="font-size:24px" transform="rotate(-90,900.0,135.0)"><tspan style="font-style:italic;">D3</tspan></text>
<circle cx="900.0" cy="180.0" r="2.0" stroke="#b20000" stroke-width="4.0" fill="#b20000"/>
</g>
<g class="Input" id="D4" pointer-events="visible">
<path d="M 795,149 L 795,179 L 765,179 L 765,149 Z" stroke="#000000" stroke-width="4.0" fill="none"/>
<circle cx="780.0" cy="164.0" r="9.0" stroke="#000000" stroke-width="4.0" fill="none" class="D4"/>
<text text-anchor="start" x="780.0" y="144.0" fill="#000000" style="font-size:24px" transform="rotate(-90,780.0,135.0)"><tspan style="font-style:italic;">D4</tspan></text>
<circle cx="780.0" cy="180.0" r="2.0" stroke="#b20000" stroke-width="4.0" fill="#b20000"/>
</g>
<g class="Input" id="D5" pointer-events="visible">
<path d="M 675,149 L 675,179 L 645,179 L 645,149 Z" stroke="#000000" stroke-width="4.0" fill="none"/>
<circle cx="660.0" cy="164.0" r="9.0" stroke="#000000" stroke-width="4.0" fill="none" class="D5"/>
<text text-anchor="start" x="660.0" y="144.0" fill="#000000" style="font-size:24px" transform="rotate(-90,660.0,135.0)"><tspan style="font-style:italic;">D5</tspan></text>
<circle cx="660.0" cy="180.0" r="2.0" stroke="#b20000" stroke-width="4.0" fill="#b20000"/>
</g>
<g class="Input" id="D6" pointer-events="visible">
<path d="M 555,149 L 555,179 L 525,179 L 525,149 Z" stroke="#000000" stroke-width="4.0" fill="none"/>
<circle cx="540.0" cy="164.0" r="9.0" stroke="#000000" stroke-width="4.0" fill="none" class="D6"/>
<text text-anchor="start" x="540.0" y="144.0" fill="#000000" style="font-size:24px" transform="rotate(-90,540.0,135.0)"><tspan style="font-style:italic;">D6</tspan></text>
<circle cx="540.0" cy="180.0" r="2.0" stroke="#b20000" stroke-width="4.0" fill="#b20000"/>
</g>
<g class="Input" id="D7" pointer-events="visible">
<path d="M 435,149 L 435,179 L 405,179 L 405,149 Z" stroke="#000000" stroke-width="4.0" fill="none"/>
<circle cx="420.0" cy="164.0" r="9.0" stroke="#000000" stroke-width="4.0" fill="none" class="D7"/>
<text text-anchor="start" x="420.0" y="144.0" fill="#000000" style="font-size:24px" transform="rotate(-90,420.0,135.0)"><tspan style="font-style:italic;">D7</tspan></text>
<circle cx="420.0" cy="180.0" r="2.0" stroke="#b20000" stroke-width="4.0" fill="#b20000"/>
</g>
<g class="Output" id="O0">
<circle cx="1260.0" cy="436.0" r="9.0" stroke="#000000" stroke-width="4.0" fill="none" class="memory0_O"/>
<circle cx="1260.0" cy="436.0" r="15.0" stroke="#000000" stroke-width="4.0" fill="none" class="O0"/>
<text text-anchor="end" x="1260.0" y="474.0" fill="#000000" style="font-size:24px" transform="rotate(-90,1260.0,465.0)"><tspan style="font-style:italic;">O0</tspan></text>
<circle cx="1260.0" cy="420.0" r="2.0" stroke="#0000b2" stroke-width="4.0" fill="#0000b2"/>
</g>
<g class="Output" id="O1">
<circle cx="1140.0" cy="436.0" r="9.0" stroke="#000000" stroke-width="4.0" fill="none" class="memory1_O"/>
<circle cx="1140.0" cy="436.0" r="15.0" stroke="#000000" stroke-width="4.0" fill="none" class="O1"/>
<text text-anchor="end" x="1140.0" y="474.0" fill="#000000" style="font-size:24px" transform="rotate(-90,1140.0,465.0)"><tspan style="font-style:italic;">O1</tspan></text>
<circle cx="1140.0" cy="420.0" r="2.0" stroke="#0000b2" stroke-width="4.0" fill="#0000b2"/>
</g>
<g class="Output" id="O2">
<circle cx="1020.0" cy="436.0" r="9.0" stroke="#000000" stroke-width="4.0" fill="none" class="memory2_O"/>
<circle cx="1020.0" cy="436.0" r="15.0" stroke="#000000" stroke-width="4.0" fill="none" class="O2"/>
<text text-anchor="end" x="1020.0" y="474.0" fill="#000000" style="font-size:24px" transform="rotate(-90,1020.0,465.0)"><tspan style="font-style:italic;">O2</tspan></text>
<circle cx="1020.0" cy="420.0" r="2.0" stroke="#0000b2" stroke-width="4.0" fill="#0000b2"/>
</g>
<g class="Output" id="O3">
<circle cx="900.0" cy="436.0" r="9.0" stroke="#000000" stroke-width="4.0" fill="none" class="memory3_O"/>
<circle cx="900.0" cy="436.0" r="15.0" stroke="#000000" stroke-width="4.0" fill="none" class="O3"/>
<text text-anchor="end" x="900.0" y="474.0" fill="#000000" style="font-size:24px" transform="rotate(-90,900.0,465.0)"><tspan style="font-style:italic;">O3</tspan></text>
<circle cx="900.0" cy="420.0" r="2.0" stroke="#0000b2" stroke-width="4.0" fill="#0000b2"/>
</g>
<g class="Output" id="O4">
<circle cx="780.0" cy="436.0" r="9.0" stroke="#000000" stroke-width="4.0" fill="none" class="memory4_O"/>
<circle cx="780.0" cy="436.0" r="15.0" stroke="#000000" stroke-width="4.0" fill="none" class="O4"/>
<text text-anchor="end" x="780.0" y="474.0" fill="#000000" style="font-size:24px" transform="rotate(-90,780.0,465.0)"><tspan style="font-style:italic;">O4</tspan></text>
<circle cx="780.0" cy="420.0" r="2.0" stroke="#0000b2" stroke-width="4.0" fill="#0000b2"/>
</g>
<g class="Output" id="O5">
<circle cx="660.0" cy="436.0" r="9.0" stroke="#000000" stroke-width="4.0" fill="none" class="memory5_O"/>
<circle cx="660.0" cy="436.0" r="15.0" stroke="#000000" stroke-width="4.0" fill="none" class="O5"/>
<text text-anchor="end" x="660.0" y="474.0" fill="#000000" style="font-size:24px" transform="rotate(-90,660.0,465.0)"><tspan style="font-style:italic;">O5</tspan></text>
<circle cx="660.0" cy="420.0" r="2.0" stroke="#0000b2" stroke-width="4.0" fill="#0000b2"/>
</g>
<g class="Output" id="O6">
<circle cx="540.0" cy="436.0" r="9.0" stroke="#000000" stroke-width="4.0" fill="none" class="memory6_O"/>
<circle cx="540.0" cy="436.0" r="15.0" stroke="#000000" stroke-width="4.0" fill="none" class="O6"/>
<text text-anchor="end" x="540.0" y="474.0" fill="#000000" style="font-size:24px" transform="rotate(-90,540.0,465.0)"><tspan style="font-style:italic;">O6</tspan></text>
<circle cx="540.0" cy="420.0" r="2.0" stroke="#0000b2" stroke-width="4.0" fill="#0000b2"/>
</g>
<g class="Output" id="O7">
<circle cx="420.0" cy="436.0" r="9.0" stroke="#000000" stroke-width="4.0" fill="none" class="memory7_O"/>
<circle cx="420.0" cy="436.0" r="15.0" stroke="#000000" stroke-width="4.0" fill="none" class="O7"/>
<text text-anchor="end" x="420.0" y="474.0" fill="#000000" style="font-size:24px" transform="rotate(-90,420.0,465.0)"><tspan style="font-style:italic;">O7</tspan></text>
<circle cx="420.0" cy="420.0" r="2.0" stroke="#0000b2" stroke-width="4.0" fill="#0000b2"/>
</g>
<g class="Input" id="W" pointer-events="visible">
<path d="M 189,185 L 219,185 L 219,215 L 189,215 Z" stroke="#000000" stroke-width="4.0" fill="none"/>
<circle cx="204.0" cy="200.0" r="9.0" stroke="#000000" stroke-width="4.0" fill="none" class="W"/>
<text text-anchor="end" x="175.0" y="209.0" fill="#000000" style="font-size:24px"><tspan style="font-style:italic;">W</tspan></text>
<circle cx="220.0" cy="200.0" r="2.0" stroke="#b20000" stroke-width="4.0" fill="#b20000"/>
</g>
<g class="Input" id="E" pointer-events="visible">
<path d="M 189,305 L 219,305 L 219,335 L 189,335 Z" stroke="#000000" stroke-width="4.0" fill="none"/>
<circle cx="204.0" cy="320.0" r="9.0" stroke="#000000" stroke-width="4.0" fill="none" class="E"/>
<text text-anchor="end" x="175.0" y="329.0" fill="#000000" style="font-size:24px"><tspan style="font-style:italic;">E</tspan></text>
<circle cx="220.0" cy="320.0" r="2.0" stroke="#b20000" stroke-width="4.0" fill="#b20000"/>
</g>
<g class="Input" id="SEL" pointer-events="visible">
<path d="M 189,245 L 219,245 L 219,275 L 189,275 Z" stroke="#000000" stroke-width="4.0" fill="none"/>
<circle cx="204.0" cy="260.0" r="9.0" stroke="#000000" stroke-width="4.0" fill="none" class="SEL"/>
<text text-anchor="end" x="175.0" y="269.0" fill="#000000" style="font-size:24px"><tspan style="font-style:italic;">SEL</tspan></text>
<circle cx="220.0" cy="260.0" r="2.0" stroke="#b20000" stroke-width="4.0" fill="#b20000"/>
</g>
</g>
</svg>