<svg xmlns:svg="http://www.w3.org/2000/svg" xmlns="http://www.w3.org/2000/svg" width="1300px" viewBox="415 67 1762 1270">
<g stroke-linecap="square">
<path d="M 2140,200 L 2153,200" stroke="#000000" stroke-width="4.0" fill="none"/>
<path d="M 2100,200 L 2113,200" stroke="#000000" stroke-width="4.0" fill="none"/>
<path d="M 2060,200 L 2073,200" stroke="#000000" stroke-width="4.0" fill="none"/>
<path d="M 2020,200 L 2033,200" stroke="#000000" stroke-width="4.0" fill="none"/>
<path d="M 1980,200 L 1993,200" stroke="#000000" stroke-width="4.0" fill="none"/>
<path d="M 1940,200 L 1953,200" stroke="#000000" stroke-width="4.0" fill="none"/>
<path d="M 1900,200 L 1913,200" stroke="#000000" stroke-width="4.0" fill="none"/>
<path d="M 1860,200 L 1873,200" stroke="#000000" stroke-width="4.0" fill="none"/>
<path d="M 540,320 L 580,320 L 580,280 L 1300,280" stroke="#0000b2" stroke-width="4.0" fill="none" class="A2"/>
<path d="M 1080,320 L 1300,320" stroke="#0000b2" stroke-width="4.0" fill="none" class="mux0_Y0"/>
<path d="M 1400,320 L 1620,320 L 2000,320 L 2000,220" stroke="#0000b2" stroke-width="4.0" fill="none" class="ram_O4"/>
<path d="M 540,960 L 860,960 L 860,560 L 980,560" stroke="#0000b2" stroke-width="4.0" fill="none" class="D4"/>
<path d="M 540,640 L 720,640 L 720,420 L 980,420" stroke="#0000b2" stroke-width="4.0" fill="none" class="DIPD5"/>
<path d="M 940,1160 L 940,640 L 980,640" stroke="#0000b2" stroke-width="4.0" fill="none" class="MODE"/>
<path d="M 540,1280 L 860,1280" stroke="#0000b2" stroke-width="4.0" fill="none" class="RI"/>
<path d="M 1400,260 L 1740,260 L 2120,260 L 2120,220" stroke="#0000b2" stroke-width="4.0" fill="none" class="ram_O1"/>
<path d="M 540,840 L 800,840 L 800,500 L 980,500" stroke="#0000b2" stroke-width="4.0" fill="none" class="D1"/>
<path d="M 540,520 L 660,520 L 660,360 L 980,360" stroke="#0000b2" stroke-width="4.0" fill="none" class="DIPD2"/>
<path d="M 540,1160 L 940,1160 L 1140,1160 L 1140,580 L 1180,580" stroke="#0000b2" stroke-width="4.0" fill="none" class="MODE"/>
<path d="M 1080,460 L 1300,460" stroke="#0000b2" stroke-width="4.0" fill="none" class="mux0_Y7"/>
<path d="M 540,1040 L 900,1040 L 900,600 L 980,600" stroke="#0000b2" stroke-width="4.0" fill="none" class="D6"/>
<path d="M 1080,400 L 1300,400" stroke="#0000b2" stroke-width="4.0" fill="none" class="mux0_Y4"/>
<path d="M 1860,200 L 1860,400 L 1900,400 L 1940,400 L 1980,400 L 2020,400 L 2060,400 L 2100,400 L 2140,400 L 2140,200" stroke="#0000b2" stroke-width="4.0" fill="none" class="RO"/>
<path d="M 540,720 L 760,720 L 760,460 L 980,460" stroke="#0000b2" stroke-width="4.0" fill="none" class="DIPD7"/>
<path d="M 1080,340 L 1300,340" stroke="#0000b2" stroke-width="4.0" fill="none" class="mux0_Y1"/>
<path d="M 1400,340 L 1580,340 L 1960,340 L 1960,220" stroke="#0000b2" stroke-width="4.0" fill="none" class="ram_O5"/>
<path d="M 540,280 L 560,280 L 560,260 L 1300,260" stroke="#0000b2" stroke-width="4.0" fill="none" class="A1"/>
<path d="M 1400,280 L 1700,280 L 2080,280 L 2080,220" stroke="#0000b2" stroke-width="4.0" fill="none" class="ram_O2"/>
<path d="M 540,920 L 840,920 L 840,540 L 980,540" stroke="#0000b2" stroke-width="4.0" fill="none" class="D3"/>
<path d="M 540,600 L 700,600 L 700,400 L 980,400" stroke="#0000b2" stroke-width="4.0" fill="none" class="DIPD4"/>
<path d="M 540,1240 L 860,1240" stroke="#0000b2" stroke-width="4.0" fill="none" class="CLK"/>
<path d="M 540,480 L 640,480 L 640,340 L 980,340" stroke="#0000b2" stroke-width="4.0" fill="none" class="DIPD1"/>
<path d="M 540,800 L 780,800 L 780,480 L 980,480" stroke="#0000b2" stroke-width="4.0" fill="none" class="D0"/>
<path d="M 1080,420 L 1300,420" stroke="#0000b2" stroke-width="4.0" fill="none" class="mux0_Y5"/>
<path d="M 540,360 L 600,360 L 600,300 L 1300,300" stroke="#0000b2" stroke-width="4.0" fill="none" class="A3"/>
<path d="M 1080,360 L 1300,360" stroke="#0000b2" stroke-width="4.0" fill="none" class="mux0_Y2"/>
<path d="M 1400,360 L 1540,360 L 1920,360 L 1920,220" stroke="#0000b2" stroke-width="4.0" fill="none" class="ram_O6"/>
<path d="M 540,1000 L 880,1000 L 880,580 L 980,580" stroke="#0000b2" stroke-width="4.0" fill="none" class="D5"/>
<path d="M 540,680 L 740,680 L 740,440 L 980,440" stroke="#0000b2" stroke-width="4.0" fill="none" class="DIPD6"/>
<path d="M 540,1320 L 1860,1320 L 1860,400" stroke="#0000b2" stroke-width="4.0" fill="none" class="RO"/>
<path d="M 940,1260 L 1120,1260 L 1120,560 L 1180,560" stroke="#0000b2" stroke-width="4.0" fill="none" class="and_OUT"/>
<path d="M 1400,300 L 1660,300 L 2040,300 L 2040,220" stroke="#0000b2" stroke-width="4.0" fill="none" class="ram_O3"/>
<path d="M 540,1200 L 1100,1200 L 1100,540 L 1180,540" stroke="#0000b2" stroke-width="4.0" fill="none" class="WRITE"/>
<path d="M 540,240 L 1300,240" stroke="#0000b2" stroke-width="4.0" fill="none" class="A0"/>
<path d="M 1400,240 L 1780,240 L 2160,240 L 2160,220" stroke="#0000b2" stroke-width="4.0" fill="none" class="ram_O0"/>
<path d="M 1240,560 L 1260,560 L 1260,480 L 1300,480" stroke="#0000b2" stroke-width="4.0" fill="none" class="mux1_Y"/>
<path d="M 540,560 L 680,560 L 680,380 L 980,380" stroke="#0000b2" stroke-width="4.0" fill="none" class="DIPD3"/>
<path d="M 540,880 L 820,880 L 820,520 L 980,520" stroke="#0000b2" stroke-width="4.0" fill="none" class="D2"/>
<path d="M 540,440 L 620,440 L 620,320 L 980,320" stroke="#0000b2" stroke-width="4.0" fill="none" class="DIPD0"/>
<path d="M 1080,440 L 1300,440" stroke="#0000b2" stroke-width="4.0" fill="none" class="mux0_Y6"/>
<path d="M 540,1080 L 920,1080 L 920,620 L 980,620" stroke="#0000b2" stroke-width="4.0" fill="none" class="D7"/>
<path d="M 1080,380 L 1300,380" stroke="#0000b2" stroke-width="4.0" fill="none" class="mux0_Y3"/>
<path d="M 1400,380 L 1500,380 L 1880,380 L 1880,220" stroke="#0000b2" stroke-width="4.0" fill="none" class="ram_O7"/>
<path d="M 1540,180 L 1540,360" stroke="#0000b2" stroke-width="4.0" fill="none" class="ram_O6"/>
<path d="M 1740,180 L 1740,260" stroke="#0000b2" stroke-width="4.0" fill="none" class="ram_O1"/>
<path d="M 2060,200 L 2060,400" stroke="#0000b2" stroke-width="4.0" fill="none" class="RO"/>
<path d="M 1620,180 L 1620,320" stroke="#0000b2" stroke-width="4.0" fill="none" class="ram_O4"/>
<path d="M 1940,200 L 1940,400" stroke="#0000b2" stroke-width="4.0" fill="none" class="RO"/>
<path d="M 1500,180 L 1500,380" stroke="#0000b2" stroke-width="4.0" fill="none" class="ram_O7"/>
<path d="M 1700,180 L 1700,280" stroke="#0000b2" stroke-width="4.0" fill="none" class="ram_O2"/>
<path d="M 2020,200 L 2020,400" stroke="#0000b2" stroke-width="4.0" fill="none" class="RO"/>
<path d="M 1580,180 L 1580,340" stroke="#0000b2" stroke-width="4.0" fill="none" class="ram_O5"/>
<path d="M 1900,200 L 1900,400" stroke="#0000b2" stroke-width="4.0" fill="none" class="RO"/>
<path d="M 1780,180 L 1780,240" stroke="#0000b2" stroke-width="4.0" fill="none" class="ram_O0"/>
<path d="M 2100,200 L 2100,400" stroke="#0000b2" stroke-width="4.0" fill="none" class="RO"/>
<path d="M 1660,180 L 1660,300" stroke="#0000b2" stroke-width="4.0" fill="none" class="ram_O3"/>
<path d="M 1980,200 L 1980,400" stroke="#0000b2" stroke-width="4.0" fill="none" class="RO"/>
<g>
<circle cx="1620.0" cy="320.0" r="4.0" stroke="#0000b2" stroke-width="4.0" fill="#0000b2" class="ram_O4"/>
<circle cx="1740.0" cy="260.0" r="4.0" stroke="#0000b2" stroke-width="4.0" fill="#0000b2" class="ram_O1"/>
<circle cx="940.0" cy="1160.0" r="4.0" stroke="#0000b2" stroke-width="4.0" fill="#0000b2" class="MODE"/>
<circle cx="1860.0" cy="400.0" r="4.0" stroke="#0000b2" stroke-width="4.0" fill="#0000b2" class="RO"/>
<circle cx="1900.0" cy="400.0" r="4.0" stroke="#0000b2" stroke-width="4.0" fill="#0000b2" class="RO"/>
<circle cx="2060.0" cy="400.0" r="4.0" stroke="#0000b2" stroke-width="4.0" fill="#0000b2" class="RO"/>
<circle cx="2100.0" cy="400.0" r="4.0" stroke="#0000b2" stroke-width="4.0" fill="#0000b2" class="RO"/>
<circle cx="2020.0" cy="400.0" r="4.0" stroke="#0000b2" stroke-width="4.0" fill="#0000b2" class="RO"/>
<circle cx="1980.0" cy="400.0" r="4.0" stroke="#0000b2" stroke-width="4.0" fill="#0000b2" class="RO"/>
<circle cx="1940.0" cy="400.0" r="4.0" stroke="#0000b2" stroke-width="4.0" fill="#0000b2" class="RO"/>
<circle cx="1580.0" cy="340.0" r="4.0" stroke="#0000b2" stroke-width="4.0" fill="#0000b2" class="ram_O5"/>
<circle cx="1700.0" cy="280.0" r="4.0" stroke="#0000b2" stroke-width="4.0" fill="#0000b2" class="ram_O2"/>
<circle cx="1540.0" cy="360.0" r="4.0" stroke="#0000b2" stroke-width="4.0" fill="#0000b2" class="ram_O6"/>
<circle cx="1660.0" cy="300.0" r="4.0" stroke="#0000b2" stroke-width="4.0" fill="#0000b2" class="ram_O3"/>
<circle cx="1780.0" cy="240.0" r="4.0" stroke="#0000b2" stroke-width="4.0" fill="#0000b2" class="ram_O0"/>
<circle cx="1500.0" cy="380.0" r="4.0" stroke="#0000b2" stroke-width="4.0" fill="#0000b2" class="ram_O7"/>
</g>
<g class="Input" id="A0" pointer-events="visible">
<path d="M 509,225 L 539,225 L 539,255 L 509,255 Z" stroke="#000000" stroke-width="4.0" fill="none"/>
<circle cx="524.0" cy="240.0" r="9.0" stroke="#000000" stroke-width="4.0" fill="none" class="A0"/>
<text text-anchor="end" x="495.0" y="249.0" fill="#000000" style="font-size:24px"><tspan style="font-style:italic;">A0</tspan></text>
<circle cx="540.0" cy="240.0" r="2.0" stroke="#b20000" stroke-width="4.0" fill="#b20000"/>
</g>
<g class="Input" id="A1" pointer-events="visible">
<path d="M 509,265 L 539,265 L 539,295 L 509,295 Z" stroke="#000000" stroke-width="4.0" fill="none"/>
<circle cx="524.0" cy="280.0" r="9.0" stroke="#000000" stroke-width="4.0" fill="none" class="A1"/>
<text text-anchor="end" x="495.0" y="289.0" fill="#000000" style="font-size:24px"><tspan style="font-style:italic;">A1</tspan></text>
<circle cx="540.0" cy="280.0" r="2.0" stroke="#b20000" stroke-width="4.0" fill="#b20000"/>
</g>
<g class="Input" id="A2" pointer-events="visible">
<path d="M 509,305 L 539,305 L 539,335 L 509,335 Z" stroke="#000000" stroke-width="4.0" fill="none"/>
<circle cx="524.0" cy="320.0" r="9.0" stroke="#000000" stroke-width="4.0" fill="none" class="A2"/>
<text text-anchor="end" x="495.0" y="329.0" fill="#000000" style="font-size:24px"><tspan style="font-style:italic;">A2</tspan></text>
<circle cx="540.0" cy="320.0" r="2.0" stroke="#b20000" stroke-width="4.0" fill="#b20000"/>
</g>
<g class="Input" id="A3" pointer-events="visible">
<path d="M 509,345 L 539,345 L 539,375 L 509,375 Z" stroke="#000000" stroke-width="4.0" fill="none"/>
<circle cx="524.0" cy="360.0" r="9.0" stroke="#000000" stroke-width="4.0" fill="none" class="A3"/>
<text text-anchor="end" x="495.0" y="369.0" fill="#000000" style="font-size:24px"><tspan style="font-style:italic;">A3</tspan></text>
<circle cx="540.0" cy="360.0" r="2.0" stroke="#b20000" stroke-width="4.0" fill="#b20000"/>
</g>
<g class="Input" id="DIPD0" pointer-events="visible">
<path d="M 509,425 L 539,425 L 539,455 L 509,455 Z" stroke="#000000" stroke-width="4.0" fill="none"/>
<circle cx="524.0" cy="440.0" r="9.0" stroke="#000000" stroke-width="4.0" fill="none" class="DIPD0"/>
<text text-anchor="end" x="495.0" y="449.0" fill="#000000" style="font-size:24px"><tspan style="font-style:italic;">DIPD0</tspan></text>
<circle cx="540.0" cy="440.0" r="2.0" stroke="#b20000" stroke-width="4.0" fill="#b20000"/>
</g>
<g class="Input" id="DIPD1" pointer-events="visible">
<path d="M 509,465 L 539,465 L 539,495 L 509,495 Z" stroke="#000000" stroke-width="4.0" fill="none"/>
<circle cx="524.0" cy="480.0" r="9.0" stroke="#000000" stroke-width="4.0" fill="none" class="DIPD1"/>
<text text-anchor="end" x="495.0" y="489.0" fill="#000000" style="font-size:24px"><tspan style="font-style:italic;">DIPD1</tspan></text>
<circle cx="540.0" cy="480.0" r="2.0" stroke="#b20000" stroke-width="4.0" fill="#b20000"/>
</g>
<g class="Input" id="DIPD2" pointer-events="visible">
<path d="M 509,505 L 539,505 L 539,535 L 509,535 Z" stroke="#000000" stroke-width="4.0" fill="none"/>
<circle cx="524.0" cy="520.0" r="9.0" stroke="#000000" stroke-width="4.0" fill="none" class="DIPD2"/>
<text text-anchor="end" x="495.0" y="529.0" fill="#000000" style="font-size:24px"><tspan style="font-style:italic;">DIPD2</tspan></text>
<circle cx="540.0" cy="520.0" r="2.0" stroke="#b20000" stroke-width="4.0" fill="#b20000"/>
</g>
<g class="Input" id="DIPD3" pointer-events="visible">
<path d="M 509,545 L 539,545 L 539,575 L 509,575 Z" stroke="#000000" stroke-width="4.0" fill="none"/>
<circle cx="524.0" cy="560.0" r="9.0" stroke="#000000" stroke-width="4.0" fill="none" class="DIPD3"/>
<text text-anchor="end" x="495.0" y="569.0" fill="#000000" style="font-size:24px"><tspan style="font-style:italic;">DIPD3</tspan></text>
<circle cx="540.0" cy="560.0" r="2.0" stroke="#b20000" stroke-width="4.0" fill="#b20000"/>
</g>
<g class="Input" id="DIPD4" pointer-events="visible">
<path d="M 509,585 L 539,585 L 539,615 L 509,615 Z" stroke="#000000" stroke-width="4.0" fill="none"/>
<circle cx="524.0" cy="600.0" r="9.0" stroke="#000000" stroke-width="4.0" fill="none" class="DIPD4"/>
<text text-anchor="end" x="495.0" y="609.0" fill="#000000" style="font-size:24px"><tspan style="font-style:italic;">DIPD4</tspan></text>
<circle cx="540.0" cy="600.0" r="2.0" stroke="#b20000" stroke-width="4.0" fill="#b20000"/>
</g>
<g class="Input" id="DIPD5" pointer-events="visible">
<path d="M 509,625 L 539,625 L 539,655 L 509,655 Z" stroke="#000000" stroke-width="4.0" fill="none"/>
<circle cx="524.0" cy="640.0" r="9.0" stroke="#000000" stroke-width="4.0" fill="none" class="DIPD5"/>
<text text-anchor="end" x="495.0" y="649.0" fill="#000000" style="font-size:24px"><tspan style="font-style:italic;">DIPD5</tspan></text>
<circle cx="540.0" cy="640.0" r="2.0" stroke="#b20000" stroke-width="4.0" fill="#b20000"/>
</g>
<g class="Input" id="DIPD6" pointer-events="visible">
<path d="M 509,665 L 539,665 L 539,695 L 509,695 Z" stroke="#000000" stroke-width="4.0" fill="none"/>
<circle cx="524.0" cy="680.0" r="9.0" stroke="#000000" stroke-width="4.0" fill="none" class="DIPD6"/>
<text text-anchor="end" x="495.0" y="689.0" fill="#000000" style="font-size:24px"><tspan style="font-style:italic;">DIPD6</tspan></text>
<circle cx="540.0" cy="680.0" r="2.0" stroke="#b20000" stroke-width="4.0" fill="#b20000"/>
</g>
<g class="Input" id="DIPD7" pointer-events="visible">
<path d="M 509,705 L 539,705 L 539,735 L 509,735 Z" stroke="#000000" stroke-width="4.0" fill="none"/>
<circle cx="524.0" cy="720.0" r="9.0" stroke="#000000" stroke-width="4.0" fill="none" class="DIPD7"/>
<text text-anchor="end" x="495.0" y="729.0" fill="#000000" style="font-size:24px"><tspan style="font-style:italic;">DIPD7</tspan></text>
<circle cx="540.0" cy="720.0" r="2.0" stroke="#b20000" stroke-width="4.0" fill="#b20000"/>
</g>
<g class="Input" id="D0" pointer-events="visible">
<path d="M 509,785 L 539,785 L 539,815 L 509,815 Z" stroke="#000000" stroke-width="4.0" fill="none"/>
<circle cx="524.0" cy="800.0" r="9.0" stroke="#000000" stroke-width="4.0" fill="none" class="D0"/>
<text text-anchor="end" x="495.0" y="809.0" fill="#000000" style="font-size:24px"><tspan style="font-style:italic;">D0</tspan></text>
<circle cx="540.0" cy="800.0" r="2.0" stroke="#b20000" stroke-width="4.0" fill="#b20000"/>
</g>
<g class="Input" id="D1" pointer-events="visible">
<path d="M 509,825 L 539,825 L 539,855 L 509,855 Z" stroke="#000000" stroke-width="4.0" fill="none"/>
<circle cx="524.0" cy="840.0" r="9.0" stroke="#000000" stroke-width="4.0" fill="none" class="D1"/>
<text text-anchor="end" x="495.0" y="849.0" fill="#000000" style="font-size:24px"><tspan style="font-style:italic;">D1</tspan></text>
<circle cx="540.0" cy="840.0" r="2.0" stroke="#b20000" stroke-width="4.0" fill="#b20000"/>
</g>
<g class="Input" id="D2" pointer-events="visible">
<path d="M 509,865 L 539,865 L 539,895 L 509,895 Z" stroke="#000000" stroke-width="4.0" fill="none"/>
<circle cx="524.0" cy="880.0" r="9.0" stroke="#000000" stroke-width="4.0" fill="none" class="D2"/>
<text text-anchor="end" x="495.0" y="889.0" fill="#000000" style="font-size:24px"><tspan style="font-style:italic;">D2</tspan></text>
<circle cx="540.0" cy="880.0" r="2.0" stroke="#b20000" stroke-width="4.0" fill="#b20000"/>
</g>
<g class="Input" id="D3" pointer-events="visible">
<path d="M 509,905 L 539,905 L 539,935 L 509,935 Z" stroke="#000000" stroke-width="4.0" fill="none"/>
<circle cx="524.0" cy="920.0" r="9.0" stroke="#000000" stroke-width="4.0" fill="none" class="D3"/>
<text text-anchor="end" x="495.0" y="929.0" fill="#000000" style="font-size:24px"><tspan style="font-style:italic;">D3</tspan></text>
<circle cx="540.0" cy="920.0" r="2.0" stroke="#b20000" stroke-width="4.0" fill="#b20000"/>
</g>
<g class="Input" id="D4" pointer-events="visible">
<path d="M 509,945 L 539,945 L 539,975 L 509,975 Z" stroke="#000000" stroke-width="4.0" fill="none"/>
<circle cx="524.0" cy="960.0" r="9.0" stroke="#000000" stroke-width="4.0" fill="none" class="D4"/>
<text text-anchor="end" x="495.0" y="969.0" fill="#000000" style="font-size:24px"><tspan style="font-style:italic;">D4</tspan></text>
<circle cx="540.0" cy="960.0" r="2.0" stroke="#b20000" stroke-width="4.0" fill="#b20000"/>
</g>
<g class="Input" id="D5" pointer-events="visible">
<path d="M 509,985 L 539,985 L 539,1015 L 509,1015 Z" stroke="#000000" stroke-width="4.0" fill="none"/>
<circle cx="524.0" cy="1000.0" r="9.0" stroke="#000000" stroke-width="4.0" fill="none" class="D5"/>
<text text-anchor="end" x="495.0" y="1009.0" fill="#000000" style="font-size:24px"><tspan style="font-style:italic;">D5</tspan></text>
<circle cx="540.0" cy="1000.0" r="2.0" stroke="#b20000" stroke-width="4.0" fill="#b20000"/>
</g>
<g class="Input" id="D6" pointer-events="visible">
<path d="M 509,1025 L 539,1025 L 539,1055 L 509,1055 Z" stroke="#000000" stroke-width="4.0" fill="none"/>
<circle cx="524.0" cy="1040.0" r="9.0" stroke="#000000" stroke-width="4.0" fill="none" class="D6"/>
<text text-anchor="end" x="495.0" y="1049.0" fill="#000000" style="font-size:24px"><tspan style="font-style:italic;">D6</tspan></text>
<circle cx="540.0" cy="1040.0" r="2.0" stroke="#b20000" stroke-width="4.0" fill="#b20000"/>
</g>
<g class="Input" id="D7" pointer-events="visible">
<path d="M 509,1065 L 539,1065 L 539,1095 L 509,1095 Z" stroke="#000000" stroke-width="4.0" fill="none"/>
<circle cx="524.0" cy="1080.0" r="9.0" stroke="#000000" stroke-width="4.0" fill="none" class="D7"/>
<text text-anchor="end" x="495.0" y="1089.0" fill="#000000" style="font-size:24px"><tspan style="font-style:italic;">D7</tspan></text>
<circle cx="540.0" cy="1080.0" r="2.0" stroke="#b20000" stroke-width="4.0" fill="#b20000"/>
</g>
<g class="Input" id="WRITE" pointer-events="visible">
<path d="M 509,1185 L 539,1185 L 539,1215 L 509,1215 Z" stroke="#000000" stroke-width="4.0" fill="none"/>
<circle cx="524.0" cy="1200.0" r="9.0" stroke="#000000" stroke-width="4.0" fill="none" class="WRITE"/>
<text text-anchor="end" x="495.0" y="1209.0" fill="#000000" style="font-size:24px"><tspan style="font-style:italic;">WRITE</tspan></text>
<circle cx="540.0" cy="1200.0" r="2.0" stroke="#b20000" stroke-width="4.0" fill="#b20000"/>
</g>
<g class="Input" id="CLK" pointer-events="visible">
<path d="M 509,1225 L 539,1225 L 539,1255 L 509,1255 Z" stroke="#000000" stroke-width="4.0" fill="none"/>
<circle cx="524.0" cy="1240.0" r="9.0" stroke="#000000" stroke-width="4.0" fill="none" class="CLK"/>
<text text-anchor="end" x="495.0" y="1249.0" fill="#000000" style="font-size:24px"><tspan style="font-style:italic;">CLK</tspan></text>
<circle cx="540.0" cy="1240.0" r="2.0" stroke="#b20000" stroke-width="4.0" fill="#b20000"/>
</g>
<g class="Input" id="RI" pointer-events="visible">
<path d="M 509,1265 L 539,1265 L 539,1295 L 509,1295 Z" stroke="#000000" stroke-width="4.0" fill="none"/>
<circle cx="524.0" cy="1280.0" r="9.0" stroke="#000000" stroke-width="4.0" fill="none" class="RI"/>
<text text-anchor="end" x="495.0" y="1289.0" fill="#000000" style="font-size:24px"><tspan style="font-style:italic;">RI</tspan></text>
<circle cx="540.0" cy="1280.0" r="2.0" stroke="#b20000" stroke-width="4.0" fill="#b20000"/>
</g>
<g class="Input" id="MODE" pointer-events="visible">
<path d="M 509,1145 L 539,1145 L 539,1175 L 509,1175 Z" stroke="#000000" stroke-width="4.0" fill="none"/>
<circle cx="524.0" cy="1160.0" r="9.0" stroke="#000000" stroke-width="4.0" fill="none" class="MODE"/>
<text text-anchor="end" x="495.0" y="1169.0" fill="#000000" style="font-size:24px"><tspan style="font-style:italic;">MODE</tspan></text>
<circle cx="540.0" cy="1160.0" r="2.0" stroke="#b20000" stroke-width="4.0" fill="#b20000"/>
</g>
<g class="Input" id="RO" pointer-events="visible">
<path d="M 509,1305 L 539,1305 L 539,1335 L 509,1335 Z" stroke="#000000" stroke-width="4.0" fill="none"/>
<circle cx="524.0" cy="1320.0" r="9.0" stroke="#000000" stroke-width="4.0" fill="none" class="RO"/>
<text text-anchor="end" x="495.0" y="1329.0" fill="#000000" style="font-size:24px"><tspan style="font-style:italic;">RO</tspan></text>
<circle cx="540.0" cy="1320.0" r="2.0" stroke="#b20000" stroke-width="4.0" fill="#b20000"/>
</g>
<g class="RAM" pointer-events="visible">
<path d="M 1301,226 L 1399,226 L 1399,514 L 1301,514 Z" stroke="#ffffb4" stroke-width="0.0" fill="#ffffb4" fill-opacity="0.7843137254901961"/>
<path d="M 1301,226 L 1399,226 L 1399,514 L 1301,514 Z" stroke="#000000" stroke-width="4.0" fill="none"/>
<text text-anchor="start" x="1304.0" y="246.75" fill="#808080" style="font-size:18px">A0</text>
<text text-anchor="start" x="1304.0" y="266.75" fill="#808080" style="font-size:18px">A1</text>
<text text-anchor="start" x="1304.0" y="286.75" fill="#808080" style="font-size:18px">A2</text>
<text text-anchor="start" x="1304.0" y="306.75" fill="#808080" style="font-size:18px">A3</text>
<text text-anchor="start" x="1304.0" y="326.75" fill="#808080" style="font-size:18px">D0</text>
<text text-anchor="start" x="1304.0" y="346.75" fill="#808080" style="font-size:18px">D1</text>
<text text-anchor="start" x="1304.0" y="366.75" fill="#808080" style="font-size:18px">D2</text>
<text text-anchor="start" x="1304.0" y="386.75" fill="#808080" style="font-size:18px">D3</text>
<text text-anchor="start" x="1304.0" y="406.75" fill="#808080" style="font-size:18px">D4</text>
<text text-anchor="start" x="1304.0" y="426.75" fill="#808080" style="font-size:18px">D5</text>
<text text-anchor="start" x="1304.0" y="446.75" fill="#808080" style="font-size:18px">D6</text>
<text text-anchor="start" x="1304.0" y="466.75" fill="#808080" style="font-size:18px">D7</text>
<text text-anchor="start" x="1304.0" y="486.75" fill="#808080" style="font-size:18px">W</text>
<text text-anchor="start" x="1304.0" y="506.75" fill="#808080" style="font-size:18px">E</text>
<text text-anchor="end" x="1396.0" y="246.75" fill="#808080" style="font-size:18px">OUT0</text>
<text text-anchor="end" x="1396.0" y="266.75" fill="#808080" style="font-size:18px">OUT1</text>
<text text-anchor="end" x="1396.0" y="286.75" fill="#808080" style="font-size:18px">OUT2</text>
<text text-anchor="end" x="1396.0" y="306.75" fill="#808080" style="font-size:18px">OUT3</text>
<text text-anchor="end" x="1396.0" y="326.75" fill="#808080" style="font-size:18px">OUT4</text>
<text text-anchor="end" x="1396.0" y="346.75" fill="#808080" style="font-size:18px">OUT5</text>
<text text-anchor="end" x="1396.0" y="366.75" fill="#808080" style="font-size:18px">OUT6</text>
<text text-anchor="end" x="1396.0" y="386.75" fill="#808080" style="font-size:18px">OUT7</text>
<text text-anchor="middle" x="1350.0" y="531.5" fill="#808080" style="font-size:18px">RAM</text>
<circle cx="1300.0" cy="240.0" r="2.0" stroke="#0000b2" stroke-width="4.0" fill="#0000b2"/>
<circle cx="1300.0" cy="260.0" r="2.0" stroke="#0000b2" stroke-width="4.0" fill="#0000b2"/>
<circle cx="1300.0" cy="280.0" r="2.0" stroke="#0000b2" stroke-width="4.0" fill="#0000b2"/>
<circle cx="1300.0" cy="300.0" r="2.0" stroke="#0000b2" stroke-width="4.0" fill="#0000b2"/>
<circle cx="1300.0" cy="320.0" r="2.0" stroke="#0000b2" stroke-width="4.0" fill="#0000b2"/>
<circle cx="1300.0" cy="340.0" r="2.0" stroke="#0000b2" stroke-width="4.0" fill="#0000b2"/>
<circle cx="1300.0" cy="360.0" r="2.0" stroke="#0000b2" stroke-width="4.0" fill="#0000b2"/>
<circle cx="1300.0" cy="380.0" r="2.0" stroke="#0000b2" stroke-width="4.0" fill="#0000b2"/>
<circle cx="1300.0" cy="400.0" r="2.0" stroke="#0000b2" stroke-width="4.0" fill="#0000b2"/>
<circle cx="1300.0" cy="420.0" r="2.0" stroke="#0000b2" stroke-width="4.0" fill="#0000b2"/>
<circle cx="1300.0" cy="440.0" r="2.0" stroke="#0000b2" stroke-width="4.0" fill="#0000b2"/>
<circle cx="1300.0" cy="460.0" r="2.0" stroke="#0000b2" stroke-width="4.0" fill="#0000b2"/>
<circle cx="1300.0" cy="480.0" r="2.0" stroke="#0000b2" stroke-width="4.0" fill="#0000b2"/>
<circle cx="1300.0" cy="500.0" r="2.0" stroke="#0000b2" stroke-width="4.0" fill="#0000b2"/>
<circle cx="1400.0" cy="240.0" r="2.0" stroke="#b20000" stroke-width="4.0" fill="#b20000"/>
<circle cx="1400.0" cy="260.0" r="2.0" stroke="#b20000" stroke-width="4.0" fill="#b20000"/>
<circle cx="1400.0" cy="280.0" r="2.0" stroke="#b20000" stroke-width="4.0" fill="#b20000"/>
<circle cx="1400.0" cy="300.0" r="2.0" stroke="#b20000" stroke-width="4.0" fill="#b20000"/>
<circle cx="1400.0" cy="320.0" r="2.0" stroke="#b20000" stroke-width="4.0" fill="#b20000"/>
<circle cx="1400.0" cy="340.0" r="2.0" stroke="#b20000" stroke-width="4.0" fill="#b20000"/>
<circle cx="1400.0" cy="360.0" r="2.0" stroke="#b20000" stroke-width="4.0" fill="#b20000"/>
<circle cx="1400.0" cy="380.0" r="2.0" stroke="#b20000" stroke-width="4.0" fill="#b20000"/>
</g>
<g class="MUX8" pointer-events="visible">
<path d="M 981,306 L 1079,306 L 1079,654 L 981,654 Z" stroke="#ffffb4" stroke-width="0.0" fill="#ffffb4" fill-opacity="0.7843137254901961"/>
<path d="M 981,306 L 1079,306 L 1079,654 L 981,654 Z" stroke="#000000" stroke-width="4.0" fill="none"/>
<text text-anchor="start" x="984.0" y="326.75" fill="#808080" style="font-size:18px">A0</text>
<text text-anchor="start" x="984.0" y="346.75" fill="#808080" style="font-size:18px">A1</text>
<text text-anchor="start" x="984.0" y="366.75" fill="#808080" style="font-size:18px">A2</text>
<text text-anchor="start" x="984.0" y="386.75" fill="#808080" style="font-size:18px">A3</text>
<text text-anchor="start" x="984.0" y="406.75" fill="#808080" style="font-size:18px">A4</text>
<text text-anchor="start" x="984.0" y="426.75" fill="#808080" style="font-size:18px">A5</text>
<text text-anchor="start" x="984.0" y="446.75" fill="#808080" style="font-size:18px">A6</text>
<text text-anchor="start" x="984.0" y="466.75" fill="#808080" style="font-size:18px">A7</text>
<text text-anchor="start" x="984.0" y="486.75" fill="#808080" style="font-size:18px">B0</text>
<text text-anchor="start" x="984.0" y="506.75" fill="#808080" style="font-size:18px">B1</text>
<text text-anchor="start" x="984.0" y="526.75" fill="#808080" style="font-size:18px">B2</text>
<text text-anchor="start" x="984.0" y="546.75" fill="#808080" style="font-size:18px">B3</text>
<text text-anchor="start" x="984.0" y="566.75" fill="#808080" style="font-size:18px">B4</text>
<text text-anchor="start" x="984.0" y="586.75" fill="#808080" style="font-size:18px">B5</text>
<text text-anchor="start" x="984.0" y="606.75" fill="#808080" style="font-size:18px">B6</text>
<text text-anchor="start" x="984.0" y="626.75" fill="#808080" style="font-size:18px">B7</text>
<text text-anchor="start" x="984.0" y="646.75" fill="#808080" style="font-size:18px">SEL</text>
<text text-anchor="end" x="1076.0" y="326.75" fill="#808080" style="font-size:18px">Y0</text>
<text text-anchor="end" x="1076.0" y="346.75" fill="#808080" style="font-size:18px">Y1</text>
<text text-anchor="end" x="1076.0" y="366.75" fill="#808080" style="font-size:18px">Y2</text>
<text text-anchor="end" x="1076.0" y="386.75" fill="#808080" style="font-size:18px">Y3</text>
<text text-anchor="end" x="1076.0" y="406.75" fill="#808080" style="font-size:18px">Y4</text>
<text text-anchor="end" x="1076.0" y="426.75" fill="#808080" style="font-size:18px">Y5</text>
<text text-anchor="end" x="1076.0" y="446.75" fill="#808080" style="font-size:18px">Y6</text>
<text text-anchor="end" x="1076.0" y="466.75" fill="#808080" style="font-size:18px">Y7</text>
<text text-anchor="middle" x="1030.0" y="671.5" fill="#808080" style="font-size:18px">MUX8</text>
<circle cx="980.0" cy="320.0" r="2.0" stroke="#0000b2" stroke-width="4.0" fill="#0000b2"/>
<circle cx="980.0" cy="340.0" r="2.0" stroke="#0000b2" stroke-width="4.0" fill="#0000b2"/>
<circle cx="980.0" cy="360.0" r="2.0" stroke="#0000b2" stroke-width="4.0" fill="#0000b2"/>
<circle cx="980.0" cy="380.0" r="2.0" stroke="#0000b2" stroke-width="4.0" fill="#0000b2"/>
<circle cx="980.0" cy="400.0" r="2.0" stroke="#0000b2" stroke-width="4.0" fill="#0000b2"/>
<circle cx="980.0" cy="420.0" r="2.0" stroke="#0000b2" stroke-width="4.0" fill="#0000b2"/>
<circle cx="980.0" cy="440.0" r="2.0" stroke="#0000b2" stroke-width="4.0" fill="#0000b2"/>
<circle cx="980.0" cy="460.0" r="2.0" stroke="#0000b2" stroke-width="4.0" fill="#0000b2"/>
<circle cx="980.0" cy="480.0" r="2.0" stroke="#0000b2" stroke-width="4.0" fill="#0000b2"/>
<circle cx="980.0" cy="500.0" r="2.0" stroke="#0000b2" stroke-width="4.0" fill="#0000b2"/>
<circle cx="980.0" cy="520.0" r="2.0" stroke="#0000b2" stroke-width="4.0" fill="#0000b2"/>
<circle cx="980.0" cy="540.0" r="2.0" stroke="#0000b2" stroke-width="4.0" fill="#0000b2"/>
<circle cx="980.0" cy="560.0" r="2.0" stroke="#0000b2" stroke-width="4.0" fill="#0000b2"/>
<circle cx="980.0" cy="580.0" r="2.0" stroke="#0000b2" stroke-width="4.0" fill="#0000b2"/>
<circle cx="980.0" cy="600.0" r="2.0" stroke="#0000b2" stroke-width="4.0" fill="#0000b2"/>
<circle cx="980.0" cy="620.0" r="2.0" stroke="#0000b2" stroke-width="4.0" fill="#0000b2"/>
<circle cx="980.0" cy="640.0" r="2.0" stroke="#0000b2" stroke-width="4.0" fill="#0000b2"/>
<circle cx="1080.0" cy="320.0" r="2.0" stroke="#b20000" stroke-width="4.0" fill="#b20000"/>
<circle cx="1080.0" cy="340.0" r="2.0" stroke="#b20000" stroke-width="4.0" fill="#b20000"/>
<circle cx="1080.0" cy="360.0" r="2.0" stroke="#b20000" stroke-width="4.0" fill="#b20000"/>
<circle cx="1080.0" cy="380.0" r="2.0" stroke="#b20000" stroke-width="4.0" fill="#b20000"/>
<circle cx="1080.0" cy="400.0" r="2.0" stroke="#b20000" stroke-width="4.0" fill="#b20000"/>
<circle cx="1080.0" cy="420.0" r="2.0" stroke="#b20000" stroke-width="4.0" fill="#b20000"/>
<circle cx="1080.0" cy="440.0" r="2.0" stroke="#b20000" stroke-width="4.0" fill="#b20000"/>
<circle cx="1080.0" cy="460.0" r="2.0" stroke="#b20000" stroke-width="4.0" fill="#b20000"/>
</g>
<g class="MUX" pointer-events="visible">
<path d="M 1181,526 L 1239,526 L 1239,594 L 1181,594 Z" stroke="#ffffb4" stroke-width="0.0" fill="#ffffb4" fill-opacity="0.7843137254901961"/>
<path d="M 1181,526 L 1239,526 L 1239,594 L 1181,594 Z" stroke="#000000" stroke-width="4.0" fill="none"/>
<text text-anchor="start" x="1184.0" y="546.75" fill="#808080" style="font-size:18px">A</text>
<text text-anchor="start" x="1184.0" y="566.75" fill="#808080" style="font-size:18px">B</text>
<text text-anchor="start" x="1184.0" y="586.75" fill="#808080" style="font-size:18px">SEL</text>
<text text-anchor="end" x="1236.0" y="566.75" fill="#808080" style="font-size:18px">Y</text>
<text text-anchor="middle" x="1210.0" y="611.5" fill="#808080" style="font-size:18px">MUX</text>
<circle cx="1180.0" cy="540.0" r="2.0" stroke="#0000b2" stroke-width="4.0" fill="#0000b2"/>
<circle cx="1180.0" cy="560.0" r="2.0" stroke="#0000b2" stroke-width="4.0" fill="#0000b2"/>
<circle cx="1180.0" cy="580.0" r="2.0" stroke="#0000b2" stroke-width="4.0" fill="#0000b2"/>
<circle cx="1240.0" cy="560.0" r="2.0" stroke="#b20000" stroke-width="4.0" fill="#b20000"/>
</g>
<g>
<path d="M 910,1290 L 861,1290 L 861,1230 L 910,1230 C 920,1230 940,1240 939,1260 C 939,1280 920,1290 910,1290 Z" stroke="#000000" stroke-width="4.0" fill="none"/>
<circle cx="860.0" cy="1240.0" r="2.0" stroke="#0000b2" stroke-width="4.0" fill="#0000b2"/>
<circle cx="860.0" cy="1280.0" r="2.0" stroke="#0000b2" stroke-width="4.0" fill="#0000b2"/>
<circle cx="940.0" cy="1260.0" r="2.0" stroke="#b20000" stroke-width="4.0" fill="#b20000"/>
</g>
<g class="Output" id="RAM7">
<circle cx="1500.0" cy="164.0" r="9.0" stroke="#000000" stroke-width="4.0" fill="none" class="ram_O7"/>
<circle cx="1500.0" cy="164.0" r="15.0" stroke="#000000" stroke-width="4.0" fill="none" class=""/>
<text text-anchor="start" x="1500.0" y="144.0" fill="#000000" style="font-size:24px" transform="rotate(-90,1500.0,135.0)"><tspan style="font-style:italic;">RAM7</tspan></text>
<circle cx="1500.0" cy="180.0" r="2.0" stroke="#0000b2" stroke-width="4.0" fill="#0000b2"/>
</g>
<g class="Output" id="RAM6">
<circle cx="1540.0" cy="164.0" r="9.0" stroke="#000000" stroke-width="4.0" fill="none" class="ram_O6"/>
<circle cx="1540.0" cy="164.0" r="15.0" stroke="#000000" stroke-width="4.0" fill="none"/>
<text text-anchor="start" x="1540.0" y="144.0" fill="#000000" style="font-size:24px" transform="rotate(-90,1540.0,135.0)"><tspan style="font-style:italic;">RAM6</tspan></text>
<circle cx="1540.0" cy="180.0" r="2.0" stroke="#0000b2" stroke-width="4.0" fill="#0000b2"/>
</g>
<g class="Output" id="RAM5">
<circle cx="1580.0" cy="164.0" r="9.0" stroke="#000000" stroke-width="4.0" fill="none" class="ram_O5"/>
<circle cx="1580.0" cy="164.0" r="15.0" stroke="#000000" stroke-width="4.0" fill="none"/>
<text text-anchor="start" x="1580.0" y="144.0" fill="#000000" style="font-size:24px" transform="rotate(-90,1580.0,135.0)"><tspan style="font-style:italic;">RAM5</tspan></text>
<circle cx="1580.0" cy="180.0" r="2.0" stroke="#0000b2" stroke-width="4.0" fill="#0000b2"/>
</g>
<g class="Output" id="RAM4">
<circle cx="1620.0" cy="164.0" r="9.0" stroke="#000000" stroke-width="4.0" fill="none" class="ram_O4"/>
<circle cx="1620.0" cy="164.0" r="15.0" stroke="#000000" stroke-width="4.0" fill="none"/>
<text text-anchor="start" x="1620.0" y="144.0" fill="#000000" style="font-size:24px" transform="rotate(-90,1620.0,135.0)"><tspan style="font-style:italic;">RAM4</tspan></text>
<circle cx="1620.0" cy="180.0" r="2.0" stroke="#0000b2" stroke-width="4.0" fill="#0000b2"/>
</g>
<g class="Output" id="RAM3">
<circle cx="1660.0" cy="164.0" r="9.0" stroke="#000000" stroke-width="4.0" fill="none" class="ram_O3"/>
<circle cx="1660.0" cy="164.0" r="15.0" stroke="#000000" stroke-width="4.0" fill="none"/>
<text text-anchor="start" x="1660.0" y="144.0" fill="#000000" style="font-size:24px" transform="rotate(-90,1660.0,135.0)"><tspan style="font-style:italic;">RAM3</tspan></text>
<circle cx="1660.0" cy="180.0" r="2.0" stroke="#0000b2" stroke-width="4.0" fill="#0000b2"/>
</g>
<g class="Output" id="RAM2">
<circle cx="1700.0" cy="164.0" r="9.0" stroke="#000000" stroke-width="4.0" fill="none" class="ram_O2"/>
<circle cx="1700.0" cy="164.0" r="15.0" stroke="#000000" stroke-width="4.0" fill="none"/>
<text text-anchor="start" x="1700.0" y="144.0" fill="#000000" style="font-size:24px" transform="rotate(-90,1700.0,135.0)"><tspan style="font-style:italic;">RAM2</tspan></text>
<circle cx="1700.0" cy="180.0" r="2.0" stroke="#0000b2" stroke-width="4.0" fill="#0000b2"/>
</g>
<g class="Output" id="RAM1">
<circle cx="1740.0" cy="164.0" r="9.0" stroke="#000000" stroke-width="4.0" fill="none" class="ram_O1"/>
<circle cx="1740.0" cy="164.0" r="15.0" stroke="#000000" stroke-width="4.0" fill="none"/>
<text text-anchor="start" x="1740.0" y="144.0" fill="#000000" style="font-size:24px" transform="rotate(-90,1740.0,135.0)"><tspan style="font-style:italic;">RAM1</tspan></text>
<circle cx="1740.0" cy="180.0" r="2.0" stroke="#0000b2" stroke-width="4.0" fill="#0000b2"/>
</g>
<g class="Output" id="RAM0">
<circle cx="1780.0" cy="164.0" r="9.0" stroke="#000000" stroke-width="4.0" fill="none" class="ram_O0"/>
<circle cx="1780.0" cy="164.0" r="15.0" stroke="#000000" stroke-width="4.0" fill="none"/>
<text text-anchor="start" x="1780.0" y="144.0" fill="#000000" style="font-size:24px" transform="rotate(-90,1780.0,135.0)"><tspan style="font-style:italic;">RAM0</tspan></text>
<circle cx="1780.0" cy="180.0" r="2.0" stroke="#0000b2" stroke-width="4.0" fill="#0000b2"/>
</g>
<g>
<text text-anchor="end" x="1297.0" y="509.0" fill="#000000" style="font-size:24px">1</text>
<circle cx="1300.0" cy="500.0" r="2.0" stroke="#b20000" stroke-width="4.0" fill="#b20000"/>
</g>
<g>
<path d="M 2148,219 L 2160,181 L 2172,219 Z" stroke="#000000" stroke-width="4.0" fill="none"/>
<circle cx="2160.0" cy="220.0" r="2.0" stroke="#0000b2" stroke-width="4.0" fill="#0000b2"/>
<circle cx="2140.0" cy="200.0" r="2.0" stroke="#0000b2" stroke-width="4.0" fill="#0000b2"/>
<circle cx="2160.0" cy="180.0" r="2.0" stroke="#b20000" stroke-width="4.0" fill="#b20000"/>
</g>
<g>
<path d="M 2108,219 L 2120,181 L 2132,219 Z" stroke="#000000" stroke-width="4.0" fill="none"/>
<circle cx="2120.0" cy="220.0" r="2.0" stroke="#0000b2" stroke-width="4.0" fill="#0000b2"/>
<circle cx="2100.0" cy="200.0" r="2.0" stroke="#0000b2" stroke-width="4.0" fill="#0000b2"/>
<circle cx="2120.0" cy="180.0" r="2.0" stroke="#b20000" stroke-width="4.0" fill="#b20000"/>
</g>
<g>
<path d="M 2068,219 L 2080,181 L 2092,219 Z" stroke="#000000" stroke-width="4.0" fill="none"/>
<circle cx="2080.0" cy="220.0" r="2.0" stroke="#0000b2" stroke-width="4.0" fill="#0000b2"/>
<circle cx="2060.0" cy="200.0" r="2.0" stroke="#0000b2" stroke-width="4.0" fill="#0000b2"/>
<circle cx="2080.0" cy="180.0" r="2.0" stroke="#b20000" stroke-width="4.0" fill="#b20000"/>
</g>
<g>
<path d="M 2028,219 L 2040,181 L 2052,219 Z" stroke="#000000" stroke-width="4.0" fill="none"/>
<circle cx="2040.0" cy="220.0" r="2.0" stroke="#0000b2" stroke-width="4.0" fill="#0000b2"/>
<circle cx="2020.0" cy="200.0" r="2.0" stroke="#0000b2" stroke-width="4.0" fill="#0000b2"/>
<circle cx="2040.0" cy="180.0" r="2.0" stroke="#b20000" stroke-width="4.0" fill="#b20000"/>
</g>
<g>
<path d="M 1988,219 L 2000,181 L 2012,219 Z" stroke="#000000" stroke-width="4.0" fill="none"/>
<circle cx="2000.0" cy="220.0" r="2.0" stroke="#0000b2" stroke-width="4.0" fill="#0000b2"/>
<circle cx="1980.0" cy="200.0" r="2.0" stroke="#0000b2" stroke-width="4.0" fill="#0000b2"/>
<circle cx="2000.0" cy="180.0" r="2.0" stroke="#b20000" stroke-width="4.0" fill="#b20000"/>
</g>
<g>
<path d="M 1948,219 L 1960,181 L 1972,219 Z" stroke="#000000" stroke-width="4.0" fill="none"/>
<circle cx="1960.0" cy="220.0" r="2.0" stroke="#0000b2" stroke-width="4.0" fill="#0000b2"/>
<circle cx="1940.0" cy="200.0" r="2.0" stroke="#0000b2" stroke-width="4.0" fill="#0000b2"/>
<circle cx="1960.0" cy="180.0" r="2.0" stroke="#b20000" stroke-width="4.0" fill="#b20000"/>
</g>
<g>
<path d="M 1908,219 L 1920,181 L 1932,219 Z" stroke="#000000" stroke-width="4.0" fill="none"/>
<circle cx="1920.0" cy="220.0" r="2.0" stroke="#0000b2" stroke-width="4.0" fill="#0000b2"/>
<circle cx="1900.0" cy="200.0" r="2.0" stroke="#0000b2" stroke-width="4.0" fill="#0000b2"/>
<circle cx="1920.0" cy="180.0" r="2.0" stroke="#b20000" stroke-width="4.0" fill="#b20000"/>
</g>
<g>
<path d="M 1868,219 L 1880,181 L 1892,219 Z" stroke="#000000" stroke-width="4.0" fill="none"/>
<circle cx="1880.0" cy="220.0" r="2.0" stroke="#0000b2" stroke-width="4.0" fill="#0000b2"/>
<circle cx="1860.0" cy="200.0" r="2.0" stroke="#0000b2" stroke-width="4.0" fill="#0000b2"/>
<circle cx="1880.0" cy="180.0" r="2.0" stroke="#b20000" stroke-width="4.0" fill="#b20000"/>
</g>
<g class="Output" id="OUT0">
<circle cx="2160.0" cy="164.0" r="9.0" stroke="#000000" stroke-width="4.0" fill="none" class="tri8_OUT0"/>
<circle cx="2160.0" cy="164.0" r="15.0" stroke="#000000" stroke-width="4.0" fill="none"/>
<text text-anchor="start" x="2160.0" y="144.0" fill="#000000" style="font-size:24px" transform="rotate(-90,2160.0,135.0)"><tspan style="font-style:italic;">OUT0</tspan></text>
<circle cx="2160.0" cy="180.0" r="2.0" stroke="#0000b2" stroke-width="4.0" fill="#0000b2"/>
</g>
<g class="Output" id="OUT1">
<circle cx="2120.0" cy="164.0" r="9.0" stroke="#000000" stroke-width="4.0" fill="none" class="tri8_OUT1"/>
<circle cx="2120.0" cy="164.0" r="15.0" stroke="#000000" stroke-width="4.0" fill="none"/>
<text text-anchor="start" x="2120.0" y="144.0" fill="#000000" style="font-size:24px" transform="rotate(-90,2120.0,135.0)"><tspan style="font-style:italic;">OUT1</tspan></text>
<circle cx="2120.0" cy="180.0" r="2.0" stroke="#0000b2" stroke-width="4.0" fill="#0000b2"/>
</g>
<g class="Output" id="OUT2">
<circle cx="2080.0" cy="164.0" r="9.0" stroke="#000000" stroke-width="4.0" fill="none" class="tri8_OUT2"/>
<circle cx="2080.0" cy="164.0" r="15.0" stroke="#000000" stroke-width="4.0" fill="none"/>
<text text-anchor="start" x="2080.0" y="144.0" fill="#000000" style="font-size:24px" transform="rotate(-90,2080.0,135.0)"><tspan style="font-style:italic;">OUT2</tspan></text>
<circle cx="2080.0" cy="180.0" r="2.0" stroke="#0000b2" stroke-width="4.0" fill="#0000b2"/>
</g>
<g class="Output" id="OUT3">
<circle cx="2040.0" cy="164.0" r="9.0" stroke="#000000" stroke-width="4.0" fill="none" class="tri8_OUT3"/>
<circle cx="2040.0" cy="164.0" r="15.0" stroke="#000000" stroke-width="4.0" fill="none"/>
<text text-anchor="start" x="2040.0" y="144.0" fill="#000000" style="font-size:24px" transform="rotate(-90,2040.0,135.0)"><tspan style="font-style:italic;">OUT3</tspan></text>
<circle cx="2040.0" cy="180.0" r="2.0" stroke="#0000b2" stroke-width="4.0" fill="#0000b2"/>
</g>
<g class="Output" id="OUT4">
<circle cx="2000.0" cy="164.0" r="9.0" stroke="#000000" stroke-width="4.0" fill="none" class="tri8_OUT4"/>
<circle cx="2000.0" cy="164.0" r="15.0" stroke="#000000" stroke-width="4.0" fill="none"/>
<text text-anchor="start" x="2000.0" y="144.0" fill="#000000" style="font-size:24px" transform="rotate(-90,2000.0,135.0)"><tspan style="font-style:italic;">OUT4</tspan></text>
<circle cx="2000.0" cy="180.0" r="2.0" stroke="#0000b2" stroke-width="4.0" fill="#0000b2"/>
</g>
<g class="Output" id="OUT5">
<circle cx="1960.0" cy="164.0" r="9.0" stroke="#000000" stroke-width="4.0" fill="none" class="tri8_OUT5"/>
<circle cx="1960.0" cy="164.0" r="15.0" stroke="#000000" stroke-width="4.0" fill="none"/>
<text text-anchor="start" x="1960.0" y="144.0" fill="#000000" style="font-size:24px" transform="rotate(-90,1960.0,135.0)"><tspan style="font-style:italic;">OUT5</tspan></text>
<circle cx="1960.0" cy="180.0" r="2.0" stroke="#0000b2" stroke-width="4.0" fill="#0000b2"/>
</g>
<g class="Output" id="OUT6">
<circle cx="1920.0" cy="164.0" r="9.0" stroke="#000000" stroke-width="4.0" fill="none" class="tri8_OUT6"/>
<circle cx="1920.0" cy="164.0" r="15.0" stroke="#000000" stroke-width="4.0" fill="none"/>
<text text-anchor="start" x="1920.0" y="144.0" fill="#000000" style="font-size:24px" transform="rotate(-90,1920.0,135.0)"><tspan style="font-style:italic;">OUT6</tspan></text>
<circle cx="1920.0" cy="180.0" r="2.0" stroke="#0000b2" stroke-width="4.0" fill="#0000b2"/>
</g>
<g class="Output" id="OUT7">
<circle cx="1880.0" cy="164.0" r="9.0" stroke="#000000" stroke-width="4.0" fill="none" class="tri8_OUT7"/>
<circle cx="1880.0" cy="164.0" r="15.0" stroke="#000000" stroke-width="4.0" fill="none"/>
<text text-anchor="start" x="1880.0" y="144.0" fill="#000000" style="font-size:24px" transform="rotate(-90,1880.0,135.0)"><tspan style="font-style:italic;">OUT7</tspan></text>
<circle cx="1880.0" cy="180.0" r="2.0" stroke="#0000b2" stroke-width="4.0" fill="#0000b2"/>
</g>
</g>
</svg>