<svg xmlns:svg="http://www.w3.org/2000/svg" xmlns="http://www.w3.org/2000/svg" width="800px" viewBox="252 -62 374 279">
<g stroke-linecap="square">
<path d="M 520,120 L 520,133" stroke="#000000" stroke-width="4.0" fill="none"/>
<path d="M 320,80 L 360,80 L 360,0 L 500,0 L 500,20" stroke="#0000b2" stroke-width="4.0" fill="none" class="E"/>
<path d="M 320,200 L 380,200 L 380,160" stroke="#0000b2" stroke-width="4.0" fill="none" class="W"/>
<path d="M 320,140 L 400,140" stroke="#0000b2" stroke-width="4.0" fill="none" class="D"/>
<path d="M 460,140 L 500,140" stroke="#0000b2" stroke-width="4.0" fill="none" class="latch_Q"/>
<path d="M 540,140 L 560,140" stroke="#0000b2" stroke-width="4.0" fill="none" class="tri_OUT"/>
<path d="M 520,100 L 520,120" stroke="#0000b2" stroke-width="4.0" fill="none" class="and_OUT"/>
<path d="M 540,0 L 540,20" stroke="#0000b2" stroke-width="4.0" fill="none" class="and_OUT"/>
<path d="M 400,160 L 380,160 L 380,-60 L 540,-60 L 540,-40" stroke="#0000b2" stroke-width="4.0" fill="none" class="W"/>
<g>
<circle cx="380.0" cy="160.0" r="4.0" stroke="#0000b2" stroke-width="4.0" fill="#0000b2" class="W"/>
</g>
<g class="Input" id="D" pointer-events="visible">
<path d="M 289,125 L 319,125 L 319,155 L 289,155 Z" stroke="#000000" stroke-width="4.0" fill="none"/>
<circle cx="304.0" cy="140.0" r="9.0" stroke="#000000" stroke-width="4.0" fill="none" class="D"/>
<text text-anchor="end" x="275.0" y="149.0" fill="#000000" style="font-size:24px"><tspan style="font-style:italic;">D</tspan></text>
<circle cx="320.0" cy="140.0" r="2.0" stroke="#b20000" stroke-width="4.0" fill="#b20000"/>
</g>
<g class="Input" id="W" pointer-events="visible">
<path d="M 289,185 L 319,185 L 319,215 L 289,215 Z" stroke="#000000" stroke-width="4.0" fill="none"/>
<circle cx="304.0" cy="200.0" r="9.0" stroke="#000000" stroke-width="4.0" fill="none" class="W"/>
<text text-anchor="end" x="275.0" y="209.0" fill="#000000" style="font-size:24px"><tspan style="font-style:italic;">W</tspan></text>
<circle cx="320.0" cy="200.0" r="2.0" stroke="#b20000" stroke-width="4.0" fill="#b20000"/>
</g>
<g class="Input" id="E" pointer-events="visible">
<path d="M 289,65 L 319,65 L 319,95 L 289,95 Z" stroke="#000000" stroke-width="4.0" fill="none"/>
<circle cx="304.0" cy="80.0" r="9.0" stroke="#000000" stroke-width="4.0" fill="none" class="E"/>
<text text-anchor="end" x="275.0" y="89.0" fill="#000000" style="font-size:24px"><tspan style="font-style:italic;">E</tspan></text>
<circle cx="320.0" cy="80.0" r="2.0" stroke="#b20000" stroke-width="4.0" fill="#b20000"/>
</g>
<g class="NOT" pointer-events="visible">
<path d="M 552,-39 L 540,-21 L 528,-39 Z" stroke="#000000" stroke-width="4.0" fill="none"/>
<circle cx="540.0" cy="-10.0" r="9.0" stroke="#000000" stroke-width="4.0" fill="none"/>
<circle cx="540.0" cy="-40.0" r="2.0" stroke="#0000b2" stroke-width="4.0" fill="#0000b2"/>
<circle cx="540.0" cy="0.0" r="2.0" stroke="#b20000" stroke-width="4.0" fill="#b20000"/>
</g>
<g class="DLATCH" pointer-events="visible">
<path d="M 401,126 L 459,126 L 459,174 L 401,174 Z" stroke="#ffffb4" stroke-width="0.0" fill="#ffffb4" fill-opacity="0.7843137254901961"/>
<path d="M 401,126 L 459,126 L 459,174 L 401,174 Z" stroke="#000000" stroke-width="4.0" fill="none"/>
<text text-anchor="start" x="404.0" y="146.75" fill="#808080" style="font-size:18px">D</text>
<text text-anchor="start" x="404.0" y="166.75" fill="#808080" style="font-size:18px">W</text>
<text text-anchor="end" x="456.0" y="146.75" fill="#808080" style="font-size:18px">Q</text>
<text text-anchor="end" x="456.0" y="166.75" fill="#808080" style="font-size:18px">~Q</text>
<text text-anchor="middle" x="430.0" y="191.5" fill="#808080" style="font-size:18px">DLATCH</text>
<circle cx="400.0" cy="140.0" r="2.0" stroke="#0000b2" stroke-width="4.0" fill="#0000b2"/>
<circle cx="400.0" cy="160.0" r="2.0" stroke="#0000b2" stroke-width="4.0" fill="#0000b2"/>
<circle cx="460.0" cy="140.0" r="2.0" stroke="#b20000" stroke-width="4.0" fill="#b20000"/>
<circle cx="460.0" cy="160.0" r="2.0" stroke="#b20000" stroke-width="4.0" fill="#b20000"/>
</g>
<g class="AND" pointer-events="visible">
<path d="M 490,70 L 490,21 L 550,21 L 550,70 C 550,80 540,100 520,99 C 500,99 490,80 490,70 Z" stroke="#000000" stroke-width="4.0" fill="none"/>
<circle cx="540.0" cy="20.0" r="2.0" stroke="#0000b2" stroke-width="4.0" fill="#0000b2"/>
<circle cx="500.0" cy="20.0" r="2.0" stroke="#0000b2" stroke-width="4.0" fill="#0000b2"/>
<circle cx="520.0" cy="100.0" r="2.0" stroke="#b20000" stroke-width="4.0" fill="#b20000"/>
</g>
<g>
<path d="M 501,128 L 539,140 L 501,152 Z" stroke="#000000" stroke-width="4.0" fill="none"/>
<circle cx="500.0" cy="140.0" r="2.0" stroke="#0000b2" stroke-width="4.0" fill="#0000b2"/>
<circle cx="520.0" cy="120.0" r="2.0" stroke="#0000b2" stroke-width="4.0" fill="#0000b2"/>
<circle cx="540.0" cy="140.0" r="2.0" stroke="#b20000" stroke-width="4.0" fill="#b20000"/>
</g>
<g class="Output" id="O">
<circle cx="576.0" cy="140.0" r="9.0" stroke="#000000" stroke-width="4.0" fill="none" class="tri_OUT"/>
<circle cx="576.0" cy="140.0" r="15.0" stroke="#000000" stroke-width="4.0" fill="none" class="O"/>
<text text-anchor="start" x="605.0" y="149.0" fill="#000000" style="font-size:24px"><tspan style="font-style:italic;">O</tspan></text>
<circle cx="560.0" cy="140.0" r="2.0" stroke="#0000b2" stroke-width="4.0" fill="#0000b2"/>
</g>
</g>
</svg>