<svg xmlns:svg="http://www.w3.org/2000/svg" xmlns="http://www.w3.org/2000/svg" width="700px" viewBox="277 183 446 269">
<g stroke-linecap="square">
<path d="M 640,260 L 660,260" stroke="#008e00" stroke-width="4.0" fill="none" class="or1_OUT"/>
<path d="M 340,280 L 440,280" stroke="#008e00" stroke-width="4.0" fill="none" class="B"/>
<path d="M 340,200 L 440,200" stroke="#008e00" stroke-width="4.0" fill="none" class="A"/>
<path d="M 520,220 L 540,220 L 540,240 L 560,240" stroke="#008e00" stroke-width="4.0" fill="none" class="and1_OUT"/>
<path d="M 520,300 L 540,300 L 540,280 L 560,280" stroke="#008e00" stroke-width="4.0" fill="none" class="and2_OUT"/>
<path d="M 380,240 L 360,240 L 360,320 L 440,320" stroke="#008e00" stroke-width="4.0" fill="none" class="SEL"/>
<path d="M 360,320 L 360,360" stroke="#008e00" stroke-width="4.0" fill="none" class="SEL"/>
<path d="M 420,240 L 440,240" stroke="#66ff66" stroke-width="4.0" fill="none" class="not_OUT"/>
<path d="M 560,240 L 564,240" stroke="#0000b2" stroke-width="4.0" fill="none"/>
<path d="M 560,280 L 564,280" stroke="#0000b2" stroke-width="4.0" fill="none"/>
<g>
<circle cx="360.0" cy="320.0" r="4.0" stroke="#008e00" stroke-width="4.0" fill="#008e00" class="SEL"/>
</g>
<g class="Input" id="A" pointer-events="visible">
<path d="M 309,185 L 339,185 L 339,215 L 309,215 Z" stroke="#000000" stroke-width="4.0" fill="none" class=""/>
<circle cx="324.0" cy="200.0" r="9.0" stroke="#008e00" stroke-width="4.0" fill="#008e00" class="A"/>
<text text-anchor="end" x="295.0" y="209.0" fill="#000000" style="font-size:24px"><tspan style="font-style:italic;">A</tspan></text>
<circle cx="340.0" cy="200.0" r="2.0" stroke="#b20000" stroke-width="4.0" fill="#b20000"/>
</g>
<g class="Input" id="B" pointer-events="visible">
<path d="M 309,265 L 339,265 L 339,295 L 309,295 Z" stroke="#000000" stroke-width="4.0" fill="none" class=""/>
<circle cx="324.0" cy="280.0" r="9.0" stroke="#008e00" stroke-width="4.0" fill="#008e00" class="B"/>
<text text-anchor="end" x="295.0" y="289.0" fill="#000000" style="font-size:24px"><tspan style="font-style:italic;">B</tspan></text>
<circle cx="340.0" cy="280.0" r="2.0" stroke="#b20000" stroke-width="4.0" fill="#b20000"/>
</g>
<g class="Input" id="SEL" pointer-events="visible">
<path d="M 345,391 L 345,361 L 375,361 L 375,391 Z" stroke="#000000" stroke-width="4.0" fill="none" class=""/>
<circle cx="360.0" cy="376.0" r="9.0" stroke="#008e00" stroke-width="4.0" fill="#008e00" class="SEL"/>
<text text-anchor="end" x="360.0" y="414.0" fill="#000000" style="font-size:24px" transform="rotate(-90,360.0,405.0)"><tspan style="font-style:italic;">SEL</tspan></text>
<circle cx="360.0" cy="360.0" r="2.0" stroke="#b20000" stroke-width="4.0" fill="#b20000"/>
</g>
<g class="AND" pointer-events="visible">
<path d="M 490,250 L 441,250 L 441,190 L 490,190 C 500,190 520,200 519,220 C 519,240 500,250 490,250 Z" stroke="#000000" stroke-width="4.0" fill="none"/>
<circle cx="440.0" cy="200.0" r="2.0" stroke="#0000b2" stroke-width="4.0" fill="#0000b2"/>
<circle cx="440.0" cy="240.0" r="2.0" stroke="#0000b2" stroke-width="4.0" fill="#0000b2"/>
<circle cx="520.0" cy="220.0" r="2.0" stroke="#b20000" stroke-width="4.0" fill="#b20000"/>
</g>
<g class="AND" pointer-events="visible">
<path d="M 490,330 L 441,330 L 441,270 L 490,270 C 500,270 520,280 519,300 C 519,320 500,330 490,330 Z" stroke="#000000" stroke-width="4.0" fill="none"/>
<circle cx="440.0" cy="280.0" r="2.0" stroke="#0000b2" stroke-width="4.0" fill="#0000b2"/>
<circle cx="440.0" cy="320.0" r="2.0" stroke="#0000b2" stroke-width="4.0" fill="#0000b2"/>
<circle cx="520.0" cy="300.0" r="2.0" stroke="#b20000" stroke-width="4.0" fill="#b20000"/>
</g>
<g class="OR" pointer-events="visible">
<path d="M 590,290 L 560,290 C 570,274 570,246 560,230 L 580,230 C 610,230 630,240 640,260 C 630,280 610,290 590,290 Z" stroke="#000000" stroke-width="4.0" fill="none"/>
<circle cx="560.0" cy="240.0" r="2.0" stroke="#0000b2" stroke-width="4.0" fill="#0000b2"/>
<circle cx="560.0" cy="280.0" r="2.0" stroke="#0000b2" stroke-width="4.0" fill="#0000b2"/>
<circle cx="640.0" cy="260.0" r="2.0" stroke="#b20000" stroke-width="4.0" fill="#b20000"/>
</g>
<g class="NOT" pointer-events="visible">
<path d="M 381,228 L 399,240 L 381,252 Z" stroke="#000000" stroke-width="4.0" fill="none"/>
<circle cx="410.0" cy="240.0" r="9.0" stroke="#000000" stroke-width="4.0" fill="none"/>
<circle cx="380.0" cy="240.0" r="2.0" stroke="#0000b2" stroke-width="4.0" fill="#0000b2"/>
<circle cx="420.0" cy="240.0" r="2.0" stroke="#b20000" stroke-width="4.0" fill="#b20000"/>
</g>
<g class="Output" id="Y">
<circle cx="676.0" cy="260.0" r="9.0" stroke="#008e00" stroke-width="4.0" fill="#008e00" class="or_OUT"/>
<circle cx="676.0" cy="260.0" r="15.0" stroke="#000000" stroke-width="4.0" fill="none"/>
<text text-anchor="start" x="705.0" y="269.0" fill="#000000" style="font-size:24px"><tspan style="font-style:italic;">Y</tspan></text>
<circle cx="660.0" cy="260.0" r="2.0" stroke="#0000b2" stroke-width="4.0" fill="#0000b2"/>
</g>
</g>
</svg>