<svg xmlns:svg="http://www.w3.org/2000/svg" xmlns="http://www.w3.org/2000/svg" width="750px" viewBox="248 24 789 853">
<g stroke-linecap="square">
<path d="M 340,260 L 400,260 L 400,200 L 620,200" stroke="#0000b2" stroke-width="4.0" fill="none" class="A3"/>
<path d="M 340,580 L 480,580 L 480,260 L 620,260" stroke="#0000b2" stroke-width="4.0" fill="none" class="B2"/>
<path d="M 680,200 L 900,200 L 900,100" stroke="#0000b2" stroke-width="4.0" fill="none" class="mux0_Y3"/>
<path d="M 340,140 L 620,140" stroke="#0000b2" stroke-width="4.0" fill="none" class="A0"/>
<path d="M 680,140 L 1020,140 L 1020,100" stroke="#0000b2" stroke-width="4.0" fill="none" class="mux0_Y0"/>
<path d="M 340,780 L 580,780 L 580,520 L 620,520" stroke="#0000b2" stroke-width="4.0" fill="none" class="B7"/>
<path d="M 680,400 L 820,400 L 820,100" stroke="#0000b2" stroke-width="4.0" fill="none" class="mux1_Y1"/>
<path d="M 340,340 L 400,340 L 400,400 L 620,400" stroke="#0000b2" stroke-width="4.0" fill="none" class="A5"/>
<path d="M 340,660 L 520,660 L 520,460 L 620,460" stroke="#0000b2" stroke-width="4.0" fill="none" class="B4"/>
<path d="M 340,220 L 380,220 L 380,180 L 620,180" stroke="#0000b2" stroke-width="4.0" fill="none" class="A2"/>
<path d="M 340,540 L 460,540 L 460,240 L 620,240" stroke="#0000b2" stroke-width="4.0" fill="none" class="B1"/>
<path d="M 340,860 L 600,860 L 600,540" stroke="#0000b2" stroke-width="4.0" fill="none" class="SEL"/>
<path d="M 680,160 L 980,160 L 980,100" stroke="#0000b2" stroke-width="4.0" fill="none" class="mux0_Y1"/>
<path d="M 340,420 L 360,420 L 360,440 L 620,440" stroke="#0000b2" stroke-width="4.0" fill="none" class="A7"/>
<path d="M 680,420 L 780,420 L 780,100" stroke="#0000b2" stroke-width="4.0" fill="none" class="mux1_Y2"/>
<path d="M 340,740 L 560,740 L 560,500 L 620,500" stroke="#0000b2" stroke-width="4.0" fill="none" class="B6"/>
<path d="M 340,300 L 420,300 L 420,380 L 620,380" stroke="#0000b2" stroke-width="4.0" fill="none" class="A4"/>
<path d="M 340,620 L 500,620 L 500,280 L 620,280" stroke="#0000b2" stroke-width="4.0" fill="none" class="B3"/>
<path d="M 340,180 L 360,180 L 360,160 L 620,160" stroke="#0000b2" stroke-width="4.0" fill="none" class="A1"/>
<path d="M 680,180 L 940,180 L 940,100" stroke="#0000b2" stroke-width="4.0" fill="none" class="mux0_Y2"/>
<path d="M 340,500 L 440,500 L 440,220 L 620,220" stroke="#0000b2" stroke-width="4.0" fill="none" class="B0"/>
<path d="M 680,440 L 740,440 L 740,100" stroke="#0000b2" stroke-width="4.0" fill="none" class="mux1_Y3"/>
<path d="M 340,380 L 380,380 L 380,420 L 620,420" stroke="#0000b2" stroke-width="4.0" fill="none" class="A6"/>
<path d="M 680,380 L 860,380 L 860,100" stroke="#0000b2" stroke-width="4.0" fill="none" class="mux1_Y0"/>
<path d="M 340,700 L 540,700 L 540,480 L 620,480" stroke="#0000b2" stroke-width="4.0" fill="none" class="B5"/>
<path d="M 620,540 L 600,540 L 600,300 L 620,300" stroke="#0000b2" stroke-width="4.0" fill="none" class="SEL"/>
<g>
<circle cx="600.0" cy="540.0" r="4.0" stroke="#0000b2" stroke-width="4.0" fill="#0000b2" class="SEL"/>
</g>
<g class="Input" id="A0" pointer-events="visible">
<path d="M 309,125 L 339,125 L 339,155 L 309,155 Z" stroke="#000000" stroke-width="4.0" fill="none"/>
<circle cx="324.0" cy="140.0" r="9.0" stroke="#000000" stroke-width="4.0" fill="none" class="A0"/>
<text text-anchor="end" x="295.0" y="149.0" fill="#000000" style="font-size:24px"><tspan style="font-style:italic;">A0</tspan></text>
<circle cx="340.0" cy="140.0" r="2.0" stroke="#b20000" stroke-width="4.0" fill="#b20000"/>
</g>
<g class="Input" id="A1" pointer-events="visible">
<path d="M 309,165 L 339,165 L 339,195 L 309,195 Z" stroke="#000000" stroke-width="4.0" fill="none"/>
<circle cx="324.0" cy="180.0" r="9.0" stroke="#000000" stroke-width="4.0" fill="none" class="A1"/>
<text text-anchor="end" x="295.0" y="189.0" fill="#000000" style="font-size:24px"><tspan style="font-style:italic;">A1</tspan></text>
<circle cx="340.0" cy="180.0" r="2.0" stroke="#b20000" stroke-width="4.0" fill="#b20000"/>
</g>
<g class="Input" id="A2" pointer-events="visible">
<path d="M 309,205 L 339,205 L 339,235 L 309,235 Z" stroke="#000000" stroke-width="4.0" fill="none"/>
<circle cx="324.0" cy="220.0" r="9.0" stroke="#000000" stroke-width="4.0" fill="none" class="A2"/>
<text text-anchor="end" x="295.0" y="229.0" fill="#000000" style="font-size:24px"><tspan style="font-style:italic;">A2</tspan></text>
<circle cx="340.0" cy="220.0" r="2.0" stroke="#b20000" stroke-width="4.0" fill="#b20000"/>
</g>
<g class="Input" id="A3" pointer-events="visible">
<path d="M 309,245 L 339,245 L 339,275 L 309,275 Z" stroke="#000000" stroke-width="4.0" fill="none"/>
<circle cx="324.0" cy="260.0" r="9.0" stroke="#000000" stroke-width="4.0" fill="none" class="A3"/>
<text text-anchor="end" x="295.0" y="269.0" fill="#000000" style="font-size:24px"><tspan style="font-style:italic;">A3</tspan></text>
<circle cx="340.0" cy="260.0" r="2.0" stroke="#b20000" stroke-width="4.0" fill="#b20000"/>
</g>
<g class="Input" id="A4" pointer-events="visible">
<path d="M 309,285 L 339,285 L 339,315 L 309,315 Z" stroke="#000000" stroke-width="4.0" fill="none"/>
<circle cx="324.0" cy="300.0" r="9.0" stroke="#000000" stroke-width="4.0" fill="none" class="A4"/>
<text text-anchor="end" x="295.0" y="309.0" fill="#000000" style="font-size:24px"><tspan style="font-style:italic;">A4</tspan></text>
<circle cx="340.0" cy="300.0" r="2.0" stroke="#b20000" stroke-width="4.0" fill="#b20000"/>
</g>
<g class="Input" id="A5" pointer-events="visible">
<path d="M 309,325 L 339,325 L 339,355 L 309,355 Z" stroke="#000000" stroke-width="4.0" fill="none"/>
<circle cx="324.0" cy="340.0" r="9.0" stroke="#000000" stroke-width="4.0" fill="none" class="A5"/>
<text text-anchor="end" x="295.0" y="349.0" fill="#000000" style="font-size:24px"><tspan style="font-style:italic;">A5</tspan></text>
<circle cx="340.0" cy="340.0" r="2.0" stroke="#b20000" stroke-width="4.0" fill="#b20000"/>
</g>
<g class="Input" id="A6" pointer-events="visible">
<path d="M 309,365 L 339,365 L 339,395 L 309,395 Z" stroke="#000000" stroke-width="4.0" fill="none"/>
<circle cx="324.0" cy="380.0" r="9.0" stroke="#000000" stroke-width="4.0" fill="none" class="A6"/>
<text text-anchor="end" x="295.0" y="389.0" fill="#000000" style="font-size:24px"><tspan style="font-style:italic;">A6</tspan></text>
<circle cx="340.0" cy="380.0" r="2.0" stroke="#b20000" stroke-width="4.0" fill="#b20000"/>
</g>
<g class="Input" id="A7" pointer-events="visible">
<path d="M 309,405 L 339,405 L 339,435 L 309,435 Z" stroke="#000000" stroke-width="4.0" fill="none"/>
<circle cx="324.0" cy="420.0" r="9.0" stroke="#000000" stroke-width="4.0" fill="none" class="A7"/>
<text text-anchor="end" x="295.0" y="429.0" fill="#000000" style="font-size:24px"><tspan style="font-style:italic;">A7</tspan></text>
<circle cx="340.0" cy="420.0" r="2.0" stroke="#b20000" stroke-width="4.0" fill="#b20000"/>
</g>
<g class="Input" id="B0" pointer-events="visible">
<path d="M 309,485 L 339,485 L 339,515 L 309,515 Z" stroke="#000000" stroke-width="4.0" fill="none"/>
<circle cx="324.0" cy="500.0" r="9.0" stroke="#000000" stroke-width="4.0" fill="none" class="B0"/>
<text text-anchor="end" x="295.0" y="509.0" fill="#000000" style="font-size:24px"><tspan style="font-style:italic;">B0</tspan></text>
<circle cx="340.0" cy="500.0" r="2.0" stroke="#b20000" stroke-width="4.0" fill="#b20000"/>
</g>
<g class="Input" id="B1" pointer-events="visible">
<path d="M 309,525 L 339,525 L 339,555 L 309,555 Z" stroke="#000000" stroke-width="4.0" fill="none"/>
<circle cx="324.0" cy="540.0" r="9.0" stroke="#000000" stroke-width="4.0" fill="none" class="B1"/>
<text text-anchor="end" x="295.0" y="549.0" fill="#000000" style="font-size:24px"><tspan style="font-style:italic;">B1</tspan></text>
<circle cx="340.0" cy="540.0" r="2.0" stroke="#b20000" stroke-width="4.0" fill="#b20000"/>
</g>
<g class="Input" id="B2" pointer-events="visible">
<path d="M 309,565 L 339,565 L 339,595 L 309,595 Z" stroke="#000000" stroke-width="4.0" fill="none"/>
<circle cx="324.0" cy="580.0" r="9.0" stroke="#000000" stroke-width="4.0" fill="none" class="B2"/>
<text text-anchor="end" x="295.0" y="589.0" fill="#000000" style="font-size:24px"><tspan style="font-style:italic;">B2</tspan></text>
<circle cx="340.0" cy="580.0" r="2.0" stroke="#b20000" stroke-width="4.0" fill="#b20000"/>
</g>
<g class="Input" id="B3" pointer-events="visible">
<path d="M 309,605 L 339,605 L 339,635 L 309,635 Z" stroke="#000000" stroke-width="4.0" fill="none"/>
<circle cx="324.0" cy="620.0" r="9.0" stroke="#000000" stroke-width="4.0" fill="none" class="B3"/>
<text text-anchor="end" x="295.0" y="629.0" fill="#000000" style="font-size:24px"><tspan style="font-style:italic;">B3</tspan></text>
<circle cx="340.0" cy="620.0" r="2.0" stroke="#b20000" stroke-width="4.0" fill="#b20000"/>
</g>
<g class="Input" id="B4" pointer-events="visible">
<path d="M 309,645 L 339,645 L 339,675 L 309,675 Z" stroke="#000000" stroke-width="4.0" fill="none"/>
<circle cx="324.0" cy="660.0" r="9.0" stroke="#000000" stroke-width="4.0" fill="none" class="B4"/>
<text text-anchor="end" x="295.0" y="669.0" fill="#000000" style="font-size:24px"><tspan style="font-style:italic;">B4</tspan></text>
<circle cx="340.0" cy="660.0" r="2.0" stroke="#b20000" stroke-width="4.0" fill="#b20000"/>
</g>
<g class="Input" id="B5" pointer-events="visible">
<path d="M 309,685 L 339,685 L 339,715 L 309,715 Z" stroke="#000000" stroke-width="4.0" fill="none"/>
<circle cx="324.0" cy="700.0" r="9.0" stroke="#000000" stroke-width="4.0" fill="none" class="B5"/>
<text text-anchor="end" x="295.0" y="709.0" fill="#000000" style="font-size:24px"><tspan style="font-style:italic;">B5</tspan></text>
<circle cx="340.0" cy="700.0" r="2.0" stroke="#b20000" stroke-width="4.0" fill="#b20000"/>
</g>
<g class="Input" id="B6" pointer-events="visible">
<path d="M 309,725 L 339,725 L 339,755 L 309,755 Z" stroke="#000000" stroke-width="4.0" fill="none"/>
<circle cx="324.0" cy="740.0" r="9.0" stroke="#000000" stroke-width="4.0" fill="none" class="B6"/>
<text text-anchor="end" x="295.0" y="749.0" fill="#000000" style="font-size:24px"><tspan style="font-style:italic;">B6</tspan></text>
<circle cx="340.0" cy="740.0" r="2.0" stroke="#b20000" stroke-width="4.0" fill="#b20000"/>
</g>
<g class="Input" id="B7" pointer-events="visible">
<path d="M 309,765 L 339,765 L 339,795 L 309,795 Z" stroke="#000000" stroke-width="4.0" fill="none"/>
<circle cx="324.0" cy="780.0" r="9.0" stroke="#000000" stroke-width="4.0" fill="none" class="B7"/>
<text text-anchor="end" x="295.0" y="789.0" fill="#000000" style="font-size:24px"><tspan style="font-style:italic;">B7</tspan></text>
<circle cx="340.0" cy="780.0" r="2.0" stroke="#b20000" stroke-width="4.0" fill="#b20000"/>
</g>
<g class="Input" id="SEL" pointer-events="visible">
<path d="M 309,845 L 339,845 L 339,875 L 309,875 Z" stroke="#000000" stroke-width="4.0" fill="none"/>
<circle cx="324.0" cy="860.0" r="9.0" stroke="#000000" stroke-width="4.0" fill="none" class="SEL"/>
<text text-anchor="end" x="295.0" y="869.0" fill="#000000" style="font-size:24px"><tspan style="font-style:italic;">SEL</tspan></text>
<circle cx="340.0" cy="860.0" r="2.0" stroke="#b20000" stroke-width="4.0" fill="#b20000"/>
</g>
<g class="MUX4" pointer-events="visible">
<path d="M 621,126 L 679,126 L 679,314 L 621,314 Z" stroke="#ffffb4" stroke-width="0.0" fill="#ffffb4" fill-opacity="0.7843137254901961"/>
<path d="M 621,126 L 679,126 L 679,314 L 621,314 Z" stroke="#000000" stroke-width="4.0" fill="none"/>
<text text-anchor="start" x="624.0" y="146.75" fill="#808080" style="font-size:18px">A0</text>
<text text-anchor="start" x="624.0" y="166.75" fill="#808080" style="font-size:18px">A1</text>
<text text-anchor="start" x="624.0" y="186.75" fill="#808080" style="font-size:18px">A2</text>
<text text-anchor="start" x="624.0" y="206.75" fill="#808080" style="font-size:18px">A3</text>
<text text-anchor="start" x="624.0" y="226.75" fill="#808080" style="font-size:18px">B0</text>
<text text-anchor="start" x="624.0" y="246.75" fill="#808080" style="font-size:18px">B1</text>
<text text-anchor="start" x="624.0" y="266.75" fill="#808080" style="font-size:18px">B2</text>
<text text-anchor="start" x="624.0" y="286.75" fill="#808080" style="font-size:18px">B3</text>
<text text-anchor="start" x="624.0" y="306.75" fill="#808080" style="font-size:18px">SEL</text>
<text text-anchor="end" x="676.0" y="146.75" fill="#808080" style="font-size:18px">Y0</text>
<text text-anchor="end" x="676.0" y="166.75" fill="#808080" style="font-size:18px">Y1</text>
<text text-anchor="end" x="676.0" y="186.75" fill="#808080" style="font-size:18px">Y2</text>
<text text-anchor="end" x="676.0" y="206.75" fill="#808080" style="font-size:18px">Y3</text>
<text text-anchor="middle" x="650.0" y="331.5" fill="#808080" style="font-size:18px">MUX4</text>
<circle cx="620.0" cy="140.0" r="2.0" stroke="#0000b2" stroke-width="4.0" fill="#0000b2"/>
<circle cx="620.0" cy="160.0" r="2.0" stroke="#0000b2" stroke-width="4.0" fill="#0000b2"/>
<circle cx="620.0" cy="180.0" r="2.0" stroke="#0000b2" stroke-width="4.0" fill="#0000b2"/>
<circle cx="620.0" cy="200.0" r="2.0" stroke="#0000b2" stroke-width="4.0" fill="#0000b2"/>
<circle cx="620.0" cy="220.0" r="2.0" stroke="#0000b2" stroke-width="4.0" fill="#0000b2"/>
<circle cx="620.0" cy="240.0" r="2.0" stroke="#0000b2" stroke-width="4.0" fill="#0000b2"/>
<circle cx="620.0" cy="260.0" r="2.0" stroke="#0000b2" stroke-width="4.0" fill="#0000b2"/>
<circle cx="620.0" cy="280.0" r="2.0" stroke="#0000b2" stroke-width="4.0" fill="#0000b2"/>
<circle cx="620.0" cy="300.0" r="2.0" stroke="#0000b2" stroke-width="4.0" fill="#0000b2"/>
<circle cx="680.0" cy="140.0" r="2.0" stroke="#b20000" stroke-width="4.0" fill="#b20000"/>
<circle cx="680.0" cy="160.0" r="2.0" stroke="#b20000" stroke-width="4.0" fill="#b20000"/>
<circle cx="680.0" cy="180.0" r="2.0" stroke="#b20000" stroke-width="4.0" fill="#b20000"/>
<circle cx="680.0" cy="200.0" r="2.0" stroke="#b20000" stroke-width="4.0" fill="#b20000"/>
</g>
<g class="MUX4" pointer-events="visible">
<path d="M 621,366 L 679,366 L 679,554 L 621,554 Z" stroke="#ffffb4" stroke-width="0.0" fill="#ffffb4" fill-opacity="0.7843137254901961"/>
<path d="M 621,366 L 679,366 L 679,554 L 621,554 Z" stroke="#000000" stroke-width="4.0" fill="none"/>
<text text-anchor="start" x="624.0" y="386.75" fill="#808080" style="font-size:18px">A0</text>
<text text-anchor="start" x="624.0" y="406.75" fill="#808080" style="font-size:18px">A1</text>
<text text-anchor="start" x="624.0" y="426.75" fill="#808080" style="font-size:18px">A2</text>
<text text-anchor="start" x="624.0" y="446.75" fill="#808080" style="font-size:18px">A3</text>
<text text-anchor="start" x="624.0" y="466.75" fill="#808080" style="font-size:18px">B0</text>
<text text-anchor="start" x="624.0" y="486.75" fill="#808080" style="font-size:18px">B1</text>
<text text-anchor="start" x="624.0" y="506.75" fill="#808080" style="font-size:18px">B2</text>
<text text-anchor="start" x="624.0" y="526.75" fill="#808080" style="font-size:18px">B3</text>
<text text-anchor="start" x="624.0" y="546.75" fill="#808080" style="font-size:18px">SEL</text>
<text text-anchor="end" x="676.0" y="386.75" fill="#808080" style="font-size:18px">Y0</text>
<text text-anchor="end" x="676.0" y="406.75" fill="#808080" style="font-size:18px">Y1</text>
<text text-anchor="end" x="676.0" y="426.75" fill="#808080" style="font-size:18px">Y2</text>
<text text-anchor="end" x="676.0" y="446.75" fill="#808080" style="font-size:18px">Y3</text>
<text text-anchor="middle" x="650.0" y="571.5" fill="#808080" style="font-size:18px">MUX4</text>
<circle cx="620.0" cy="380.0" r="2.0" stroke="#0000b2" stroke-width="4.0" fill="#0000b2"/>
<circle cx="620.0" cy="400.0" r="2.0" stroke="#0000b2" stroke-width="4.0" fill="#0000b2"/>
<circle cx="620.0" cy="420.0" r="2.0" stroke="#0000b2" stroke-width="4.0" fill="#0000b2"/>
<circle cx="620.0" cy="440.0" r="2.0" stroke="#0000b2" stroke-width="4.0" fill="#0000b2"/>
<circle cx="620.0" cy="460.0" r="2.0" stroke="#0000b2" stroke-width="4.0" fill="#0000b2"/>
<circle cx="620.0" cy="480.0" r="2.0" stroke="#0000b2" stroke-width="4.0" fill="#0000b2"/>
<circle cx="620.0" cy="500.0" r="2.0" stroke="#0000b2" stroke-width="4.0" fill="#0000b2"/>
<circle cx="620.0" cy="520.0" r="2.0" stroke="#0000b2" stroke-width="4.0" fill="#0000b2"/>
<circle cx="620.0" cy="540.0" r="2.0" stroke="#0000b2" stroke-width="4.0" fill="#0000b2"/>
<circle cx="680.0" cy="380.0" r="2.0" stroke="#b20000" stroke-width="4.0" fill="#b20000"/>
<circle cx="680.0" cy="400.0" r="2.0" stroke="#b20000" stroke-width="4.0" fill="#b20000"/>
<circle cx="680.0" cy="420.0" r="2.0" stroke="#b20000" stroke-width="4.0" fill="#b20000"/>
<circle cx="680.0" cy="440.0" r="2.0" stroke="#b20000" stroke-width="4.0" fill="#b20000"/>
</g>
<g class="Output" id="Y6">
<circle cx="780.0" cy="84.0" r="9.0" stroke="#000000" stroke-width="4.0" fill="none" class="mux1_Y2"/>
<circle cx="780.0" cy="84.0" r="15.0" stroke="#000000" stroke-width="4.0" fill="none"/>
<text text-anchor="start" x="780.0" y="64.0" fill="#000000" style="font-size:24px" transform="rotate(-90,780.0,55.0)"><tspan style="font-style:italic;">Y6</tspan></text>
<circle cx="780.0" cy="100.0" r="2.0" stroke="#0000b2" stroke-width="4.0" fill="#0000b2"/>
</g>
<g class="Output" id="Y5">
<circle cx="820.0" cy="84.0" r="9.0" stroke="#000000" stroke-width="4.0" fill="none" class="mux1_Y1"/>
<circle cx="820.0" cy="84.0" r="15.0" stroke="#000000" stroke-width="4.0" fill="none"/>
<text text-anchor="start" x="820.0" y="64.0" fill="#000000" style="font-size:24px" transform="rotate(-90,820.0,55.0)"><tspan style="font-style:italic;">Y5</tspan></text>
<circle cx="820.0" cy="100.0" r="2.0" stroke="#0000b2" stroke-width="4.0" fill="#0000b2"/>
</g>
<g class="Output" id="Y4">
<circle cx="860.0" cy="84.0" r="9.0" stroke="#000000" stroke-width="4.0" fill="none" class="mux1_Y0"/>
<circle cx="860.0" cy="84.0" r="15.0" stroke="#000000" stroke-width="4.0" fill="none"/>
<text text-anchor="start" x="860.0" y="64.0" fill="#000000" style="font-size:24px" transform="rotate(-90,860.0,55.0)"><tspan style="font-style:italic;">Y4</tspan></text>
<circle cx="860.0" cy="100.0" r="2.0" stroke="#0000b2" stroke-width="4.0" fill="#0000b2"/>
</g>
<g class="Output" id="Y3">
<circle cx="900.0" cy="84.0" r="9.0" stroke="#000000" stroke-width="4.0" fill="none" class="mux0_Y3"/>
<circle cx="900.0" cy="84.0" r="15.0" stroke="#000000" stroke-width="4.0" fill="none"/>
<text text-anchor="start" x="900.0" y="64.0" fill="#000000" style="font-size:24px" transform="rotate(-90,900.0,55.0)"><tspan style="font-style:italic;">Y3</tspan></text>
<circle cx="900.0" cy="100.0" r="2.0" stroke="#0000b2" stroke-width="4.0" fill="#0000b2"/>
</g>
<g class="Output" id="Y2">
<circle cx="940.0" cy="84.0" r="9.0" stroke="#000000" stroke-width="4.0" fill="none" class="mux0_Y2"/>
<circle cx="940.0" cy="84.0" r="15.0" stroke="#000000" stroke-width="4.0" fill="none"/>
<text text-anchor="start" x="940.0" y="64.0" fill="#000000" style="font-size:24px" transform="rotate(-90,940.0,55.0)"><tspan style="font-style:italic;">Y2</tspan></text>
<circle cx="940.0" cy="100.0" r="2.0" stroke="#0000b2" stroke-width="4.0" fill="#0000b2"/>
</g>
<g class="Output" id="Y1">
<circle cx="980.0" cy="84.0" r="9.0" stroke="#000000" stroke-width="4.0" fill="none" class="mux0_Y1"/>
<circle cx="980.0" cy="84.0" r="15.0" stroke="#000000" stroke-width="4.0" fill="none"/>
<text text-anchor="start" x="980.0" y="64.0" fill="#000000" style="font-size:24px" transform="rotate(-90,980.0,55.0)"><tspan style="font-style:italic;">Y1</tspan></text>
<circle cx="980.0" cy="100.0" r="2.0" stroke="#0000b2" stroke-width="4.0" fill="#0000b2"/>
</g>
<g class="Output" id="Y0">
<circle cx="1020.0" cy="84.0" r="9.0" stroke="#000000" stroke-width="4.0" fill="none" class="mux0_Y0"/>
<circle cx="1020.0" cy="84.0" r="15.0" stroke="#000000" stroke-width="4.0" fill="none"/>
<text text-anchor="start" x="1020.0" y="64.0" fill="#000000" style="font-size:24px" transform="rotate(-90,1020.0,55.0)"><tspan style="font-style:italic;">Y0</tspan></text>
<circle cx="1020.0" cy="100.0" r="2.0" stroke="#0000b2" stroke-width="4.0" fill="#0000b2"/>
</g>
<g class="Output" id="Y7">
<circle cx="740.0" cy="84.0" r="9.0" stroke="#000000" stroke-width="4.0" fill="none" class="mux1_Y3"/>
<circle cx="740.0" cy="84.0" r="15.0" stroke="#000000" stroke-width="4.0" fill="none"/>
<text text-anchor="start" x="740.0" y="64.0" fill="#000000" style="font-size:24px" transform="rotate(-90,740.0,55.0)"><tspan style="font-style:italic;">Y7</tspan></text>
<circle cx="740.0" cy="100.0" r="2.0" stroke="#0000b2" stroke-width="4.0" fill="#0000b2"/>
</g>
</g>
</svg>