<svg xmlns:svg="http://www.w3.org/2000/svg" xmlns="http://www.w3.org/2000/svg" width="600px" viewBox="496 183 402 114">
<g stroke-linecap="square">
<path d="M 780,240 L 800,240" stroke="#0000b2" stroke-width="4.0" fill="none" class="or1_OUT"/>
<path d="M 560,240 L 580,240 L 584,240" stroke="#0000b2" stroke-width="4.0" fill="none" class="B"/>
<path d="M 560,200 L 580,200 L 584,200" stroke="#0000b2" stroke-width="4.0" fill="none" class="A"/>
<path d="M 560,280 L 680,280 L 680,260 L 700,260 L 704,260" stroke="#0000b2" stroke-width="4.0" fill="none" class="C"/>
<path d="M 660,220 L 700,220 L 704,220" stroke="#0000b2" stroke-width="4.0" fill="none" class="or0_OUT"/>
<g>
</g>
<g class="OR" pointer-events="visible">
<path d="M 610,250 L 580,250 C 590,234 590,206 580,190 L 600,190 C 630,190 650,200 660,220 C 650,240 630,250 610,250 Z" stroke="#000000" stroke-width="4.0" fill="none"/>
<circle cx="580.0" cy="200.0" r="2.0" stroke="#0000b2" stroke-width="4.0" fill="#0000b2"/>
<circle cx="580.0" cy="240.0" r="2.0" stroke="#0000b2" stroke-width="4.0" fill="#0000b2"/>
<circle cx="660.0" cy="220.0" r="2.0" stroke="#b20000" stroke-width="4.0" fill="#b20000"/>
</g>
<g class="OR" pointer-events="visible">
<path d="M 730,270 L 700,270 C 710,254 710,226 700,210 L 720,210 C 750,210 770,220 780,240 C 770,260 750,270 730,270 Z" stroke="#000000" stroke-width="4.0" fill="none"/>
<circle cx="700.0" cy="220.0" r="2.0" stroke="#0000b2" stroke-width="4.0" fill="#0000b2"/>
<circle cx="700.0" cy="260.0" r="2.0" stroke="#0000b2" stroke-width="4.0" fill="#0000b2"/>
<circle cx="780.0" cy="240.0" r="2.0" stroke="#b20000" stroke-width="4.0" fill="#b20000"/>
</g>
<g class="Output" id="OUT">
<circle cx="816.0" cy="240.0" r="9.0" stroke="#000000" stroke-width="4.0" fill="none" class="or1_OUT"/>
<circle cx="816.0" cy="240.0" r="15.0" stroke="#000000" stroke-width="4.0" fill="none"/>
<text text-anchor="start" x="845.0" y="249.0" fill="#000000" style="font-size:24px"><tspan style="font-style:italic;">OUT</tspan></text>
<circle cx="800.0" cy="240.0" r="2.0" stroke="#0000b2" stroke-width="4.0" fill="#0000b2"/>
</g>
<g class="Input" id="A" pointer-events="visible">
<path d="M 529,185 L 559,185 L 559,215 L 529,215 Z" stroke="#000000" stroke-width="4.0" fill="none"/>
<circle cx="544.0" cy="200.0" r="9.0" stroke="#000000" stroke-width="4.0" fill="none" class="A"/>
<text text-anchor="end" x="515.0" y="209.0" fill="#000000" style="font-size:24px"><tspan style="font-style:italic;">A</tspan></text>
<circle cx="560.0" cy="200.0" r="2.0" stroke="#b20000" stroke-width="4.0" fill="#b20000"/>
</g>
<g class="Input" id="B" pointer-events="visible">
<path d="M 529,225 L 559,225 L 559,255 L 529,255 Z" stroke="#000000" stroke-width="4.0" fill="none"/>
<circle cx="544.0" cy="240.0" r="9.0" stroke="#000000" stroke-width="4.0" fill="none" class="B"/>
<text text-anchor="end" x="515.0" y="249.0" fill="#000000" style="font-size:24px"><tspan style="font-style:italic;">B</tspan></text>
<circle cx="560.0" cy="240.0" r="2.0" stroke="#b20000" stroke-width="4.0" fill="#b20000"/>
</g>
<g class="Input" id="C" pointer-events="visible">
<path d="M 529,265 L 559,265 L 559,295 L 529,295 Z" stroke="#000000" stroke-width="4.0" fill="none"/>
<circle cx="544.0" cy="280.0" r="9.0" stroke="#000000" stroke-width="4.0" fill="none" class="C"/>
<text text-anchor="end" x="515.0" y="289.0" fill="#000000" style="font-size:24px"><tspan style="font-style:italic;">C</tspan></text>
<circle cx="560.0" cy="280.0" r="2.0" stroke="#b20000" stroke-width="4.0" fill="#b20000"/>
</g>
</g>
</svg>