<svg xmlns:svg="http://www.w3.org/2000/svg" xmlns="http://www.w3.org/2000/svg" width="750px" viewBox="326 143 507 415">
<g stroke-linecap="square">
<path d="M 680,480 L 720,480" stroke="#0000b2" stroke-width="4.0" fill="none" class="register1_OUT"/>
<path d="M 440,320 L 560,320" stroke="#0000b2" stroke-width="4.0" fill="none" class="D0"/>
<path d="M 440,160 L 540,160 L 540,300 L 560,300" stroke="#0000b2" stroke-width="4.0" fill="none" class="LOAD"/>
<path d="M 500,380 L 500,520 L 560,520" stroke="#0000b2" stroke-width="4.0" fill="none" class="CLR"/>
<path d="M 440,200 L 520,200 L 520,360 L 560,360" stroke="#0000b2" stroke-width="4.0" fill="none" class="CLK"/>
<path d="M 440,460 L 560,460" stroke="#0000b2" stroke-width="4.0" fill="none" class="D1"/>
<path d="M 440,240 L 500,240 L 500,380 L 560,380" stroke="#0000b2" stroke-width="4.0" fill="none" class="CLR"/>
<path d="M 680,340 L 720,340" stroke="#0000b2" stroke-width="4.0" fill="none" class="register0_OUT"/>
<path d="M 520,360 L 520,500 L 560,500" stroke="#0000b2" stroke-width="4.0" fill="none" class="CLK"/>
<path d="M 540,300 L 540,440 L 560,440" stroke="#0000b2" stroke-width="4.0" fill="none" class="LOAD"/>
<g>
<circle cx="520.0" cy="360.0" r="4.0" stroke="#0000b2" stroke-width="4.0" fill="#0000b2" class="CLK"/>
<circle cx="540.0" cy="300.0" r="4.0" stroke="#0000b2" stroke-width="4.0" fill="#0000b2" class="LOAD"/>
<circle cx="500.0" cy="380.0" r="4.0" stroke="#0000b2" stroke-width="4.0" fill="#0000b2" class="CLR"/>
</g>
<g class="Input" id="D0" pointer-events="visible">
<path d="M 409,305 L 439,305 L 439,335 L 409,335 Z" stroke="#000000" stroke-width="4.0" fill="none"/>
<circle cx="424.0" cy="320.0" r="9.0" stroke="#000000" stroke-width="4.0" fill="none" class="D0"/>
<text text-anchor="end" x="395.0" y="329.0" fill="#000000" style="font-size:24px"><tspan style="font-style:italic;">D0</tspan></text>
<circle cx="440.0" cy="320.0" r="2.0" stroke="#b20000" stroke-width="4.0" fill="#b20000"/>
</g>
<g class="Input" id="D1" pointer-events="visible">
<path d="M 409,445 L 439,445 L 439,475 L 409,475 Z" stroke="#000000" stroke-width="4.0" fill="none"/>
<circle cx="424.0" cy="460.0" r="9.0" stroke="#000000" stroke-width="4.0" fill="none" class="D1"/>
<text text-anchor="end" x="395.0" y="469.0" fill="#000000" style="font-size:24px"><tspan style="font-style:italic;">D1</tspan></text>
<circle cx="440.0" cy="460.0" r="2.0" stroke="#b20000" stroke-width="4.0" fill="#b20000"/>
</g>
<g class="Input" id="LOAD" pointer-events="visible">
<path d="M 409,145 L 439,145 L 439,175 L 409,175 Z" stroke="#000000" stroke-width="4.0" fill="none"/>
<circle cx="424.0" cy="160.0" r="9.0" stroke="#000000" stroke-width="4.0" fill="none" class="LOAD"/>
<text text-anchor="end" x="395.0" y="169.0" fill="#000000" style="font-size:24px"><tspan style="font-style:italic;">LOAD</tspan></text>
<circle cx="440.0" cy="160.0" r="2.0" stroke="#b20000" stroke-width="4.0" fill="#b20000"/>
</g>
<g class="Input" id="CLK" pointer-events="visible">
<path d="M 409,185 L 439,185 L 439,215 L 409,215 Z" stroke="#000000" stroke-width="4.0" fill="none"/>
<circle cx="424.0" cy="200.0" r="9.0" stroke="#000000" stroke-width="4.0" fill="none" class="CLK"/>
<text text-anchor="end" x="395.0" y="209.0" fill="#000000" style="font-size:24px"><tspan style="font-style:italic;">CLK</tspan></text>
<circle cx="440.0" cy="200.0" r="2.0" stroke="#b20000" stroke-width="4.0" fill="#b20000"/>
</g>
<g class="Input" id="CLR" pointer-events="visible">
<path d="M 409,225 L 439,225 L 439,255 L 409,255 Z" stroke="#000000" stroke-width="4.0" fill="none"/>
<circle cx="424.0" cy="240.0" r="9.0" stroke="#000000" stroke-width="4.0" fill="none" class="CLR"/>
<text text-anchor="end" x="395.0" y="249.0" fill="#000000" style="font-size:24px"><tspan style="font-style:italic;">CLR</tspan></text>
<circle cx="440.0" cy="240.0" r="2.0" stroke="#b20000" stroke-width="4.0" fill="#b20000"/>
</g>
<g class="Input" id="OUT0" pointer-events="visible">
<circle cx="736.0" cy="340.0" r="9.0" stroke="#000000" stroke-width="4.0" fill="none" class="register0_OUT"/>
<circle cx="736.0" cy="340.0" r="15.0" stroke="#000000" stroke-width="4.0" fill="none" class="OUT0"/>
<text text-anchor="start" x="765.0" y="349.0" fill="#000000" style="font-size:24px"><tspan style="font-style:italic;">OUT0</tspan></text>
<circle cx="720.0" cy="340.0" r="2.0" stroke="#0000b2" stroke-width="4.0" fill="#0000b2"/>
</g>
<g class="Input" id="OUT1" pointer-events="visible">
<circle cx="736.0" cy="480.0" r="9.0" stroke="#000000" stroke-width="4.0" fill="none" class="register1_OUT"/>
<circle cx="736.0" cy="480.0" r="15.0" stroke="#000000" stroke-width="4.0" fill="none" class="OUT1"/>
<text text-anchor="start" x="765.0" y="489.0" fill="#000000" style="font-size:24px"><tspan style="font-style:italic;">OUT1</tspan></text>
<circle cx="720.0" cy="480.0" r="2.0" stroke="#0000b2" stroke-width="4.0" fill="#0000b2"/>
</g>
<g class="REGISTER1" pointer-events="visible">
<path d="M 561,286 L 679,286 L 679,394 L 561,394 Z" stroke="#ffffb4" stroke-width="0.0" fill="#ffffb4" fill-opacity="0.7843137254901961"/>
<path d="M 561,286 L 679,286 L 679,394 L 561,394 Z" stroke="#000000" stroke-width="4.0" fill="none"/>
<text text-anchor="start" x="564.0" y="306.75" fill="#808080" style="font-size:18px">LOAD</text>
<text text-anchor="start" x="564.0" y="326.75" fill="#808080" style="font-size:18px">D</text>
<text text-anchor="start" x="564.0" y="366.75" fill="#808080" style="font-size:18px">CLK</text>
<text text-anchor="start" x="564.0" y="386.75" fill="#808080" style="font-size:18px">CLR</text>
<text text-anchor="end" x="676.0" y="346.75" fill="#808080" style="font-size:18px">OUT</text>
<text text-anchor="middle" x="620.0" y="411.5" fill="#808080" style="font-size:18px">REGISTER1</text>
<circle cx="560.0" cy="300.0" r="2.0" stroke="#0000b2" stroke-width="4.0" fill="#0000b2"/>
<circle cx="560.0" cy="320.0" r="2.0" stroke="#0000b2" stroke-width="4.0" fill="#0000b2"/>
<circle cx="560.0" cy="360.0" r="2.0" stroke="#0000b2" stroke-width="4.0" fill="#0000b2"/>
<circle cx="560.0" cy="380.0" r="2.0" stroke="#0000b2" stroke-width="4.0" fill="#0000b2"/>
<circle cx="680.0" cy="340.0" r="2.0" stroke="#b20000" stroke-width="4.0" fill="#b20000"/>
</g>
<g class="REGISTER1" pointer-events="visible">
<path d="M 561,426 L 679,426 L 679,534 L 561,534 Z" stroke="#ffffb4" stroke-width="0.0" fill="#ffffb4" fill-opacity="0.7843137254901961"/>
<path d="M 561,426 L 679,426 L 679,534 L 561,534 Z" stroke="#000000" stroke-width="4.0" fill="none"/>
<text text-anchor="start" x="564.0" y="446.75" fill="#808080" style="font-size:18px">LOAD</text>
<text text-anchor="start" x="564.0" y="466.75" fill="#808080" style="font-size:18px">D</text>
<text text-anchor="start" x="564.0" y="506.75" fill="#808080" style="font-size:18px">CLK</text>
<text text-anchor="start" x="564.0" y="526.75" fill="#808080" style="font-size:18px">CLR</text>
<text text-anchor="end" x="676.0" y="486.75" fill="#808080" style="font-size:18px">OUT</text>
<text text-anchor="middle" x="620.0" y="551.5" fill="#808080" style="font-size:18px">REGISTER1</text>
<circle cx="560.0" cy="440.0" r="2.0" stroke="#0000b2" stroke-width="4.0" fill="#0000b2"/>
<circle cx="560.0" cy="460.0" r="2.0" stroke="#0000b2" stroke-width="4.0" fill="#0000b2"/>
<circle cx="560.0" cy="500.0" r="2.0" stroke="#0000b2" stroke-width="4.0" fill="#0000b2"/>
<circle cx="560.0" cy="520.0" r="2.0" stroke="#0000b2" stroke-width="4.0" fill="#0000b2"/>
<circle cx="680.0" cy="480.0" r="2.0" stroke="#b20000" stroke-width="4.0" fill="#b20000"/>
</g>
</g>
</svg>