<svg xmlns:svg="http://www.w3.org/2000/svg" xmlns="http://www.w3.org/2000/svg" width="900px" viewBox="-234 -202 752 259">
<g stroke-linecap="square">
<path d="M -120,0 L 220,0 L 220,-80 L 260,-80" stroke="#0000b2" stroke-width="4.0" fill="none" class="CLK"/>
<path d="M 200,-100 L 260,-100" stroke="#0000b2" stroke-width="4.0" fill="none" class="or_OUT"/>
<path d="M -120,-40 L 0,-40" stroke="#0000b2" stroke-width="4.0" fill="none" class="D"/>
<path d="M -120,-120 L -80,-120 L -60,-120" stroke="#0000b2" stroke-width="4.0" fill="none" class="LOAD"/>
<path d="M -20,-120 L 0,-120" stroke="#0000b2" stroke-width="4.0" fill="none" class="not1_OUT"/>
<path d="M -120,40 L -60,40" stroke="#0000b2" stroke-width="4.0" fill="none" class="CLR"/>
<path d="M -20,40 L 240,40 L 240,-120 L 260,-120" stroke="#0000b2" stroke-width="4.0" fill="none" class="not2_OUT"/>
<path d="M 80,-60 L 100,-60 L 100,-80 L 120,-80 L 124,-80" stroke="#0000b2" stroke-width="4.0" fill="none" class="and2_OUT"/>
<path d="M 380,-140 L 400,-140 L 420,-140" stroke="#0000b2" stroke-width="4.0" fill="none" class="dff_Q"/>
<path d="M 240,-140 L 260,-140" stroke="#0000b2" stroke-width="4.0" fill="none"/>
<path d="M 80,-140 L 100,-140 L 100,-120 L 120,-120 L 124,-120" stroke="#0000b2" stroke-width="4.0" fill="none" class="and1_OUT"/>
<path d="M -80,-120 L -80,-80 L 0,-80" stroke="#0000b2" stroke-width="4.0" fill="none" class="LOAD"/>
<path d="M 400,-140 L 400,-200 L -20,-200 L -20,-160 L 0,-160" stroke="#0000b2" stroke-width="4.0" fill="none" class="dff_Q"/>
<g>
<circle cx="-80.0" cy="-120.0" r="4.0" stroke="#0000b2" stroke-width="4.0" fill="#0000b2" class="LOAD"/>
<circle cx="400.0" cy="-140.0" r="4.0" stroke="#0000b2" stroke-width="4.0" fill="#0000b2" class="dff_Q"/>
</g>
<g class="OR" pointer-events="visible">
<path d="M 150,-70 L 120,-70 C 130,-86 130,-114 120,-130 L 140,-130 C 170,-130 190,-120 200,-100 C 190,-80 170,-70 150,-70 Z" stroke="#000000" stroke-width="4.0" fill="none"/>
<circle cx="120.0" cy="-120.0" r="2.0" stroke="#0000b2" stroke-width="4.0" fill="#0000b2"/>
<circle cx="120.0" cy="-80.0" r="2.0" stroke="#0000b2" stroke-width="4.0" fill="#0000b2"/>
<circle cx="200.0" cy="-100.0" r="2.0" stroke="#b20000" stroke-width="4.0" fill="#b20000"/>
</g>
<g>
<text text-anchor="end" x="237.0" y="-131.0" fill="#000000" style="font-size:24px">1</text>
<circle cx="240.0" cy="-140.0" r="2.0" stroke="#b20000" stroke-width="4.0" fill="#b20000"/>
</g>
<g class="Input" id="LOAD" pointer-events="visible">
<path d="M -151,-135 L -121,-135 L -121,-105 L -151,-105 Z" stroke="#000000" stroke-width="4.0" fill="none"/>
<circle cx="-136.0" cy="-120.0" r="9.0" stroke="#000000" stroke-width="4.0" fill="none" class="LOAD"/>
<text text-anchor="end" x="-165.0" y="-111.0" fill="#000000" style="font-size:24px"><tspan style="font-style:italic;">LOAD</tspan></text>
<circle cx="-120.0" cy="-120.0" r="2.0" stroke="#b20000" stroke-width="4.0" fill="#b20000"/>
</g>
<g class="Input" id="D" pointer-events="visible">
<path d="M -151,-55 L -121,-55 L -121,-25 L -151,-25 Z" stroke="#000000" stroke-width="4.0" fill="none"/>
<circle cx="-136.0" cy="-40.0" r="9.0" stroke="#000000" stroke-width="4.0" fill="none" class="D"/>
<text text-anchor="end" x="-165.0" y="-31.0" fill="#000000" style="font-size:24px"><tspan style="font-style:italic;">D</tspan></text>
<circle cx="-120.0" cy="-40.0" r="2.0" stroke="#b20000" stroke-width="4.0" fill="#b20000"/>
</g>
<g class="AND" pointer-events="visible">
<path d="M 50,-110 L 1,-110 L 1,-170 L 50,-170 C 60,-170 80,-160 79,-140 C 79,-120 60,-110 50,-110 Z" stroke="#000000" stroke-width="4.0" fill="none" class=""/>
<circle cx="0.0" cy="-160.0" r="2.0" stroke="#0000b2" stroke-width="4.0" fill="#0000b2"/>
<circle cx="0.0" cy="-120.0" r="2.0" stroke="#0000b2" stroke-width="4.0" fill="#0000b2"/>
<circle cx="80.0" cy="-140.0" r="2.0" stroke="#b20000" stroke-width="4.0" fill="#b20000"/>
</g>
<g class="AND" pointer-events="visible">
<path d="M 50,-30 L 1,-30 L 1,-90 L 50,-90 C 60,-90 80,-80 79,-60 C 79,-40 60,-30 50,-30 Z" stroke="#000000" stroke-width="4.0" fill="none"/>
<circle cx="0.0" cy="-80.0" r="2.0" stroke="#0000b2" stroke-width="4.0" fill="#0000b2"/>
<circle cx="0.0" cy="-40.0" r="2.0" stroke="#0000b2" stroke-width="4.0" fill="#0000b2"/>
<circle cx="80.0" cy="-60.0" r="2.0" stroke="#b20000" stroke-width="4.0" fill="#b20000"/>
</g>
<g class="NOT" pointer-events="visible">
<path d="M -59,-132 L -41,-120 L -59,-108 Z" stroke="#000000" stroke-width="4.0" fill="none"/>
<circle cx="-30.0" cy="-120.0" r="9.0" stroke="#000000" stroke-width="4.0" fill="none"/>
<circle cx="-60.0" cy="-120.0" r="2.0" stroke="#0000b2" stroke-width="4.0" fill="#0000b2"/>
<circle cx="-20.0" cy="-120.0" r="2.0" stroke="#b20000" stroke-width="4.0" fill="#b20000"/>
</g>
<g class="Output" id="OUT">
<circle cx="436.0" cy="-140.0" r="9.0" stroke="#000000" stroke-width="4.0" fill="none" class="dff_Q"/>
<circle cx="436.0" cy="-140.0" r="15.0" stroke="#000000" stroke-width="4.0" fill="none" class="OUT"/>
<text text-anchor="start" x="465.0" y="-131.0" fill="#000000" style="font-size:24px"><tspan style="font-style:italic;">OUT</tspan></text>
<circle cx="420.0" cy="-140.0" r="2.0" stroke="#0000b2" stroke-width="4.0" fill="#0000b2"/>
</g>
<g class="Input" id="CLK" pointer-events="visible">
<path d="M -151,-15 L -121,-15 L -121,15 L -151,15 Z" stroke="#000000" stroke-width="4.0" fill="none"/>
<circle cx="-136.0" cy="0.0" r="9.0" stroke="#000000" stroke-width="4.0" fill="none" class="CLK"/>
<text text-anchor="end" x="-165.0" y="9.0" fill="#000000" style="font-size:24px"><tspan style="font-style:italic;">CLK</tspan></text>
<circle cx="-120.0" cy="0.0" r="2.0" stroke="#b20000" stroke-width="4.0" fill="#b20000"/>
</g>
<g class="Input" id="CLR" pointer-events="visible">
<path d="M -151,25 L -121,25 L -121,55 L -151,55 Z" stroke="#000000" stroke-width="4.0" fill="none"/>
<circle cx="-136.0" cy="40.0" r="9.0" stroke="#000000" stroke-width="4.0" fill="none" class="CLR"/>
<text text-anchor="end" x="-165.0" y="49.0" fill="#000000" style="font-size:24px"><tspan style="font-style:italic;">CLR</tspan></text>
<circle cx="-120.0" cy="40.0" r="2.0" stroke="#b20000" stroke-width="4.0" fill="#b20000"/>
</g>
<g class="NOT" pointer-events="visible">
<path d="M -59,28 L -41,40 L -59,52 Z" stroke="#000000" stroke-width="4.0" fill="none"/>
<circle cx="-30.0" cy="40.0" r="9.0" stroke="#000000" stroke-width="4.0" fill="none"/>
<circle cx="-60.0" cy="40.0" r="2.0" stroke="#0000b2" stroke-width="4.0" fill="#0000b2"/>
<circle cx="-20.0" cy="40.0" r="2.0" stroke="#b20000" stroke-width="4.0" fill="#b20000"/>
</g>
<g class="DFF" pointer-events="visible">
<path d="M 261,-154 L 379,-154 L 379,-66 L 261,-66 Z" stroke="#ffffb4" stroke-width="0.0" fill="#ffffb4" fill-opacity="0.7843137254901961"/>
<path d="M 261,-154 L 379,-154 L 379,-66 L 261,-66 Z" stroke="#000000" stroke-width="4.0" fill="none"/>
<text text-anchor="start" x="264.0" y="-133.25" fill="#808080" style="font-size:18px">SET_</text>
<text text-anchor="start" x="264.0" y="-113.25" fill="#808080" style="font-size:18px">CLR_</text>
<text text-anchor="start" x="264.0" y="-93.25" fill="#808080" style="font-size:18px">D</text>
<text text-anchor="start" x="264.0" y="-73.25" fill="#808080" style="font-size:18px">CLK</text>
<text text-anchor="end" x="376.0" y="-133.25" fill="#808080" style="font-size:18px">Q</text>
<text text-anchor="end" x="376.0" y="-113.25" fill="#808080" style="font-size:18px">~Q</text>
<text text-anchor="middle" x="320.0" y="-48.5" fill="#808080" style="font-size:18px">DFF</text>
<circle cx="260.0" cy="-140.0" r="2.0" stroke="#0000b2" stroke-width="4.0" fill="#0000b2"/>
<circle cx="260.0" cy="-120.0" r="2.0" stroke="#0000b2" stroke-width="4.0" fill="#0000b2"/>
<circle cx="260.0" cy="-100.0" r="2.0" stroke="#0000b2" stroke-width="4.0" fill="#0000b2"/>
<circle cx="260.0" cy="-80.0" r="2.0" stroke="#0000b2" stroke-width="4.0" fill="#0000b2"/>
<circle cx="380.0" cy="-140.0" r="2.0" stroke="#b20000" stroke-width="4.0" fill="#b20000"/>
<circle cx="380.0" cy="-120.0" r="2.0" stroke="#b20000" stroke-width="4.0" fill="#b20000"/>
</g>
</g>
</svg>