<svg xmlns:svg="http://www.w3.org/2000/svg" xmlns="http://www.w3.org/2000/svg" width="750px" viewBox="366 163 587 474">
<g stroke-linecap="square">
<path d="M 760,320 L 800,320 L 800,360 L 840,360" stroke="#0000b2" stroke-width="4.0" fill="none" class="register0_OUT2"/>
<path d="M 760,480 L 840,480" stroke="#0000b2" stroke-width="4.0" fill="none" class="register1_OUT1"/>
<path d="M 580,300 L 580,480 L 620,480" stroke="#0000b2" stroke-width="4.0" fill="none" class="CLK"/>
<path d="M 480,420 L 520,420 L 520,380 L 620,380" stroke="#0000b2" stroke-width="4.0" fill="none" class="D2"/>
<path d="M 480,580 L 500,580 L 500,560 L 620,560" stroke="#0000b2" stroke-width="4.0" fill="none" class="D6"/>
<path d="M 480,260 L 560,260 L 560,320 L 620,320" stroke="#0000b2" stroke-width="4.0" fill="none" class="CLR"/>
<path d="M 760,520 L 780,520 L 780,560 L 840,560" stroke="#0000b2" stroke-width="4.0" fill="none" class="register1_OUT3"/>
<path d="M 760,300 L 820,300 L 820,320 L 840,320" stroke="#0000b2" stroke-width="4.0" fill="none" class="register0_OUT1"/>
<path d="M 480,620 L 520,620 L 520,580 L 620,580" stroke="#0000b2" stroke-width="4.0" fill="none" class="D7"/>
<path d="M 480,460 L 540,460 L 540,400 L 620,400" stroke="#0000b2" stroke-width="4.0" fill="none" class="D3"/>
<path d="M 760,460 L 780,460 L 780,440 L 840,440" stroke="#0000b2" stroke-width="4.0" fill="none" class="register1_OUT0"/>
<path d="M 600,280 L 600,460 L 620,460" stroke="#0000b2" stroke-width="4.0" fill="none" class="LOAD"/>
<path d="M 760,340 L 780,340 L 780,400 L 840,400" stroke="#0000b2" stroke-width="4.0" fill="none" class="register0_OUT3"/>
<path d="M 480,340 L 620,340" stroke="#0000b2" stroke-width="4.0" fill="none" class="D0"/>
<path d="M 480,500 L 500,500 L 500,520 L 620,520" stroke="#0000b2" stroke-width="4.0" fill="none" class="D4"/>
<path d="M 760,500 L 800,500 L 800,520 L 840,520" stroke="#0000b2" stroke-width="4.0" fill="none" class="register1_OUT2"/>
<path d="M 560,320 L 560,500 L 620,500" stroke="#0000b2" stroke-width="4.0" fill="none" class="CLR"/>
<path d="M 480,180 L 600,180 L 600,280 L 620,280" stroke="#0000b2" stroke-width="4.0" fill="none" class="LOAD"/>
<path d="M 760,280 L 840,280" stroke="#0000b2" stroke-width="4.0" fill="none" class="register0_OUT0"/>
<path d="M 480,220 L 580,220 L 580,300 L 620,300" stroke="#0000b2" stroke-width="4.0" fill="none" class="CLK"/>
<path d="M 480,380 L 500,380 L 500,360 L 620,360" stroke="#0000b2" stroke-width="4.0" fill="none" class="D1"/>
<path d="M 480,540 L 620,540" stroke="#0000b2" stroke-width="4.0" fill="none" class="D5"/>
<g>
<circle cx="560.0" cy="320.0" r="4.0" stroke="#0000b2" stroke-width="4.0" fill="#0000b2" class="CLR"/>
<circle cx="580.0" cy="300.0" r="4.0" stroke="#0000b2" stroke-width="4.0" fill="#0000b2" class="CLK"/>
<circle cx="600.0" cy="280.0" r="4.0" stroke="#0000b2" stroke-width="4.0" fill="#0000b2" class="LOAD"/>
</g>
<g class="Input" id="LOAD" pointer-events="visible">
<path d="M 449,165 L 479,165 L 479,195 L 449,195 Z" stroke="#000000" stroke-width="4.0" fill="none"/>
<circle cx="464.0" cy="180.0" r="9.0" stroke="#000000" stroke-width="4.0" fill="none" class="LOAD"/>
<text text-anchor="end" x="435.0" y="189.0" fill="#000000" style="font-size:24px"><tspan style="font-style:italic;">LOAD</tspan></text>
<circle cx="480.0" cy="180.0" r="2.0" stroke="#b20000" stroke-width="4.0" fill="#b20000"/>
</g>
<g class="Input" id="CLK" pointer-events="visible">
<path d="M 449,205 L 479,205 L 479,235 L 449,235 Z" stroke="#000000" stroke-width="4.0" fill="none"/>
<circle cx="464.0" cy="220.0" r="9.0" stroke="#000000" stroke-width="4.0" fill="none" class="CLK"/>
<text text-anchor="end" x="435.0" y="229.0" fill="#000000" style="font-size:24px"><tspan style="font-style:italic;">CLK</tspan></text>
<circle cx="480.0" cy="220.0" r="2.0" stroke="#b20000" stroke-width="4.0" fill="#b20000"/>
</g>
<g class="Input" id="CLR" pointer-events="visible">
<path d="M 449,245 L 479,245 L 479,275 L 449,275 Z" stroke="#000000" stroke-width="4.0" fill="none"/>
<circle cx="464.0" cy="260.0" r="9.0" stroke="#000000" stroke-width="4.0" fill="none" class="CLR"/>
<text text-anchor="end" x="435.0" y="269.0" fill="#000000" style="font-size:24px"><tspan style="font-style:italic;">CLR</tspan></text>
<circle cx="480.0" cy="260.0" r="2.0" stroke="#b20000" stroke-width="4.0" fill="#b20000"/>
</g>
<g class="Input" id="D0" pointer-events="visible">
<path d="M 449,325 L 479,325 L 479,355 L 449,355 Z" stroke="#000000" stroke-width="4.0" fill="none"/>
<circle cx="464.0" cy="340.0" r="9.0" stroke="#000000" stroke-width="4.0" fill="none" class="D0"/>
<text text-anchor="end" x="435.0" y="349.0" fill="#000000" style="font-size:24px"><tspan style="font-style:italic;">D0</tspan></text>
<circle cx="480.0" cy="340.0" r="2.0" stroke="#b20000" stroke-width="4.0" fill="#b20000"/>
</g>
<g class="Input" id="D1" pointer-events="visible">
<path d="M 449,365 L 479,365 L 479,395 L 449,395 Z" stroke="#000000" stroke-width="4.0" fill="none"/>
<circle cx="464.0" cy="380.0" r="9.0" stroke="#000000" stroke-width="4.0" fill="none" class="D1"/>
<text text-anchor="end" x="435.0" y="389.0" fill="#000000" style="font-size:24px"><tspan style="font-style:italic;">D1</tspan></text>
<circle cx="480.0" cy="380.0" r="2.0" stroke="#b20000" stroke-width="4.0" fill="#b20000"/>
</g>
<g class="Input" id="D2" pointer-events="visible">
<path d="M 449,405 L 479,405 L 479,435 L 449,435 Z" stroke="#000000" stroke-width="4.0" fill="none"/>
<circle cx="464.0" cy="420.0" r="9.0" stroke="#000000" stroke-width="4.0" fill="none" class="D2"/>
<text text-anchor="end" x="435.0" y="429.0" fill="#000000" style="font-size:24px"><tspan style="font-style:italic;">D2</tspan></text>
<circle cx="480.0" cy="420.0" r="2.0" stroke="#b20000" stroke-width="4.0" fill="#b20000"/>
</g>
<g class="Input" id="D3" pointer-events="visible">
<path d="M 449,445 L 479,445 L 479,475 L 449,475 Z" stroke="#000000" stroke-width="4.0" fill="none"/>
<circle cx="464.0" cy="460.0" r="9.0" stroke="#000000" stroke-width="4.0" fill="none" class="D3"/>
<text text-anchor="end" x="435.0" y="469.0" fill="#000000" style="font-size:24px"><tspan style="font-style:italic;">D3</tspan></text>
<circle cx="480.0" cy="460.0" r="2.0" stroke="#b20000" stroke-width="4.0" fill="#b20000"/>
</g>
<g class="Input" id="D4" pointer-events="visible">
<path d="M 449,485 L 479,485 L 479,515 L 449,515 Z" stroke="#000000" stroke-width="4.0" fill="none"/>
<circle cx="464.0" cy="500.0" r="9.0" stroke="#000000" stroke-width="4.0" fill="none" class="D4"/>
<text text-anchor="end" x="435.0" y="509.0" fill="#000000" style="font-size:24px"><tspan style="font-style:italic;">D4</tspan></text>
<circle cx="480.0" cy="500.0" r="2.0" stroke="#b20000" stroke-width="4.0" fill="#b20000"/>
</g>
<g class="Input" id="D5" pointer-events="visible">
<path d="M 449,525 L 479,525 L 479,555 L 449,555 Z" stroke="#000000" stroke-width="4.0" fill="none"/>
<circle cx="464.0" cy="540.0" r="9.0" stroke="#000000" stroke-width="4.0" fill="none" class="D5"/>
<text text-anchor="end" x="435.0" y="549.0" fill="#000000" style="font-size:24px"><tspan style="font-style:italic;">D5</tspan></text>
<circle cx="480.0" cy="540.0" r="2.0" stroke="#b20000" stroke-width="4.0" fill="#b20000"/>
</g>
<g class="Input" id="D6" pointer-events="visible">
<path d="M 449,565 L 479,565 L 479,595 L 449,595 Z" stroke="#000000" stroke-width="4.0" fill="none"/>
<circle cx="464.0" cy="580.0" r="9.0" stroke="#000000" stroke-width="4.0" fill="none" class="D6"/>
<text text-anchor="end" x="435.0" y="589.0" fill="#000000" style="font-size:24px"><tspan style="font-style:italic;">D6</tspan></text>
<circle cx="480.0" cy="580.0" r="2.0" stroke="#b20000" stroke-width="4.0" fill="#b20000"/>
</g>
<g class="Input" id="D7" pointer-events="visible">
<path d="M 449,605 L 479,605 L 479,635 L 449,635 Z" stroke="#000000" stroke-width="4.0" fill="none"/>
<circle cx="464.0" cy="620.0" r="9.0" stroke="#000000" stroke-width="4.0" fill="none" class="D7"/>
<text text-anchor="end" x="435.0" y="629.0" fill="#000000" style="font-size:24px"><tspan style="font-style:italic;">D7</tspan></text>
<circle cx="480.0" cy="620.0" r="2.0" stroke="#b20000" stroke-width="4.0" fill="#b20000"/>
</g>
<g class="Output" id="OUT0">
<circle cx="856.0" cy="280.0" r="9.0" stroke="#000000" stroke-width="4.0" fill="none" class="register0_OUT0"/>
<circle cx="856.0" cy="280.0" r="15.0" stroke="#000000" stroke-width="4.0" fill="none" class="OUT0"/>
<text text-anchor="start" x="885.0" y="289.0" fill="#000000" style="font-size:24px"><tspan style="font-style:italic;">OUT0</tspan></text>
<circle cx="840.0" cy="280.0" r="2.0" stroke="#0000b2" stroke-width="4.0" fill="#0000b2"/>
</g>
<g class="Output" id="OUT1">
<circle cx="856.0" cy="320.0" r="9.0" stroke="#000000" stroke-width="4.0" fill="none" class="register0_OUT1"/>
<circle cx="856.0" cy="320.0" r="15.0" stroke="#000000" stroke-width="4.0" fill="none" class="OUT1"/>
<text text-anchor="start" x="885.0" y="329.0" fill="#000000" style="font-size:24px"><tspan style="font-style:italic;">OUT1</tspan></text>
<circle cx="840.0" cy="320.0" r="2.0" stroke="#0000b2" stroke-width="4.0" fill="#0000b2"/>
</g>
<g class="Output" id="OUT2">
<circle cx="856.0" cy="360.0" r="9.0" stroke="#000000" stroke-width="4.0" fill="none" class="register0_OUT2"/>
<circle cx="856.0" cy="360.0" r="15.0" stroke="#000000" stroke-width="4.0" fill="none" class="OUT2"/>
<text text-anchor="start" x="885.0" y="369.0" fill="#000000" style="font-size:24px"><tspan style="font-style:italic;">OUT2</tspan></text>
<circle cx="840.0" cy="360.0" r="2.0" stroke="#0000b2" stroke-width="4.0" fill="#0000b2"/>
</g>
<g class="Output" id="OUT3">
<circle cx="856.0" cy="400.0" r="9.0" stroke="#000000" stroke-width="4.0" fill="none" class="register0_OUT3"/>
<circle cx="856.0" cy="400.0" r="15.0" stroke="#000000" stroke-width="4.0" fill="none" class="OUT3"/>
<text text-anchor="start" x="885.0" y="409.0" fill="#000000" style="font-size:24px"><tspan style="font-style:italic;">OUT3</tspan></text>
<circle cx="840.0" cy="400.0" r="2.0" stroke="#0000b2" stroke-width="4.0" fill="#0000b2"/>
</g>
<g class="REGISTER4" pointer-events="visible">
<path d="M 621,266 L 759,266 L 759,414 L 621,414 Z" stroke="#ffffb4" stroke-width="0.0" fill="#ffffb4" fill-opacity="0.7843137254901961"/>
<path d="M 621,266 L 759,266 L 759,414 L 621,414 Z" stroke="#000000" stroke-width="4.0" fill="none"/>
<text text-anchor="start" x="624.0" y="286.75" fill="#808080" style="font-size:18px">LOAD</text>
<text text-anchor="start" x="624.0" y="306.75" fill="#808080" style="font-size:18px">CLK</text>
<text text-anchor="start" x="624.0" y="326.75" fill="#808080" style="font-size:18px">CLR</text>
<text text-anchor="start" x="624.0" y="346.75" fill="#808080" style="font-size:18px">D0</text>
<text text-anchor="start" x="624.0" y="366.75" fill="#808080" style="font-size:18px">D1</text>
<text text-anchor="start" x="624.0" y="386.75" fill="#808080" style="font-size:18px">D2</text>
<text text-anchor="start" x="624.0" y="406.75" fill="#808080" style="font-size:18px">D3</text>
<text text-anchor="end" x="756.0" y="286.75" fill="#808080" style="font-size:18px">OUT0</text>
<text text-anchor="end" x="756.0" y="306.75" fill="#808080" style="font-size:18px">OUT1</text>
<text text-anchor="end" x="756.0" y="326.75" fill="#808080" style="font-size:18px">OUT2</text>
<text text-anchor="end" x="756.0" y="346.75" fill="#808080" style="font-size:18px">OUT3</text>
<text text-anchor="middle" x="690.0" y="431.5" fill="#808080" style="font-size:18px">REGISTER4</text>
<circle cx="620.0" cy="280.0" r="2.0" stroke="#0000b2" stroke-width="4.0" fill="#0000b2"/>
<circle cx="620.0" cy="300.0" r="2.0" stroke="#0000b2" stroke-width="4.0" fill="#0000b2"/>
<circle cx="620.0" cy="320.0" r="2.0" stroke="#0000b2" stroke-width="4.0" fill="#0000b2"/>
<circle cx="620.0" cy="340.0" r="2.0" stroke="#0000b2" stroke-width="4.0" fill="#0000b2"/>
<circle cx="620.0" cy="360.0" r="2.0" stroke="#0000b2" stroke-width="4.0" fill="#0000b2"/>
<circle cx="620.0" cy="380.0" r="2.0" stroke="#0000b2" stroke-width="4.0" fill="#0000b2"/>
<circle cx="620.0" cy="400.0" r="2.0" stroke="#0000b2" stroke-width="4.0" fill="#0000b2"/>
<circle cx="760.0" cy="280.0" r="2.0" stroke="#b20000" stroke-width="4.0" fill="#b20000"/>
<circle cx="760.0" cy="300.0" r="2.0" stroke="#b20000" stroke-width="4.0" fill="#b20000"/>
<circle cx="760.0" cy="320.0" r="2.0" stroke="#b20000" stroke-width="4.0" fill="#b20000"/>
<circle cx="760.0" cy="340.0" r="2.0" stroke="#b20000" stroke-width="4.0" fill="#b20000"/>
</g>
<g class="REGISTER4" pointer-events="visible">
<path d="M 621,446 L 759,446 L 759,594 L 621,594 Z" stroke="#ffffb4" stroke-width="0.0" fill="#ffffb4" fill-opacity="0.7843137254901961"/>
<path d="M 621,446 L 759,446 L 759,594 L 621,594 Z" stroke="#000000" stroke-width="4.0" fill="none"/>
<text text-anchor="start" x="624.0" y="466.75" fill="#808080" style="font-size:18px">LOAD</text>
<text text-anchor="start" x="624.0" y="486.75" fill="#808080" style="font-size:18px">CLK</text>
<text text-anchor="start" x="624.0" y="506.75" fill="#808080" style="font-size:18px">CLR</text>
<text text-anchor="start" x="624.0" y="526.75" fill="#808080" style="font-size:18px">D0</text>
<text text-anchor="start" x="624.0" y="546.75" fill="#808080" style="font-size:18px">D1</text>
<text text-anchor="start" x="624.0" y="566.75" fill="#808080" style="font-size:18px">D2</text>
<text text-anchor="start" x="624.0" y="586.75" fill="#808080" style="font-size:18px">D3</text>
<text text-anchor="end" x="756.0" y="466.75" fill="#808080" style="font-size:18px">OUT0</text>
<text text-anchor="end" x="756.0" y="486.75" fill="#808080" style="font-size:18px">OUT1</text>
<text text-anchor="end" x="756.0" y="506.75" fill="#808080" style="font-size:18px">OUT2</text>
<text text-anchor="end" x="756.0" y="526.75" fill="#808080" style="font-size:18px">OUT3</text>
<text text-anchor="middle" x="690.0" y="611.5" fill="#808080" style="font-size:18px">REGISTER4</text>
<circle cx="620.0" cy="460.0" r="2.0" stroke="#0000b2" stroke-width="4.0" fill="#0000b2"/>
<circle cx="620.0" cy="480.0" r="2.0" stroke="#0000b2" stroke-width="4.0" fill="#0000b2"/>
<circle cx="620.0" cy="500.0" r="2.0" stroke="#0000b2" stroke-width="4.0" fill="#0000b2"/>
<circle cx="620.0" cy="520.0" r="2.0" stroke="#0000b2" stroke-width="4.0" fill="#0000b2"/>
<circle cx="620.0" cy="540.0" r="2.0" stroke="#0000b2" stroke-width="4.0" fill="#0000b2"/>
<circle cx="620.0" cy="560.0" r="2.0" stroke="#0000b2" stroke-width="4.0" fill="#0000b2"/>
<circle cx="620.0" cy="580.0" r="2.0" stroke="#0000b2" stroke-width="4.0" fill="#0000b2"/>
<circle cx="760.0" cy="460.0" r="2.0" stroke="#b20000" stroke-width="4.0" fill="#b20000"/>
<circle cx="760.0" cy="480.0" r="2.0" stroke="#b20000" stroke-width="4.0" fill="#b20000"/>
<circle cx="760.0" cy="500.0" r="2.0" stroke="#b20000" stroke-width="4.0" fill="#b20000"/>
<circle cx="760.0" cy="520.0" r="2.0" stroke="#b20000" stroke-width="4.0" fill="#b20000"/>
</g>
<g class="Output" id="OUT4">
<circle cx="856.0" cy="440.0" r="9.0" stroke="#000000" stroke-width="4.0" fill="none" class="register1_OUT0"/>
<circle cx="856.0" cy="440.0" r="15.0" stroke="#000000" stroke-width="4.0" fill="none" class="OUT4"/>
<text text-anchor="start" x="885.0" y="449.0" fill="#000000" style="font-size:24px"><tspan style="font-style:italic;">OUT4</tspan></text>
<circle cx="840.0" cy="440.0" r="2.0" stroke="#0000b2" stroke-width="4.0" fill="#0000b2"/>
</g>
<g class="Output" id="OUT5">
<circle cx="856.0" cy="480.0" r="9.0" stroke="#000000" stroke-width="4.0" fill="none" class="register1_OUT1"/>
<circle cx="856.0" cy="480.0" r="15.0" stroke="#000000" stroke-width="4.0" fill="none" class="OUT5"/>
<text text-anchor="start" x="885.0" y="489.0" fill="#000000" style="font-size:24px"><tspan style="font-style:italic;">OUT5</tspan></text>
<circle cx="840.0" cy="480.0" r="2.0" stroke="#0000b2" stroke-width="4.0" fill="#0000b2"/>
</g>
<g class="Output" id="OUT6">
<circle cx="856.0" cy="520.0" r="9.0" stroke="#000000" stroke-width="4.0" fill="none" class="register1_OUT2"/>
<circle cx="856.0" cy="520.0" r="15.0" stroke="#000000" stroke-width="4.0" fill="none" class="OUT6"/>
<text text-anchor="start" x="885.0" y="529.0" fill="#000000" style="font-size:24px"><tspan style="font-style:italic;">OUT6</tspan></text>
<circle cx="840.0" cy="520.0" r="2.0" stroke="#0000b2" stroke-width="4.0" fill="#0000b2"/>
</g>
<g class="Output" id="OUT7">
<circle cx="856.0" cy="560.0" r="9.0" stroke="#000000" stroke-width="4.0" fill="none" class="register1_OUT3"/>
<circle cx="856.0" cy="560.0" r="15.0" stroke="#000000" stroke-width="4.0" fill="none"/>
<text text-anchor="start" x="885.0" y="569.0" fill="#000000" style="font-size:24px"><tspan style="font-style:italic;">OUT7</tspan></text>
<circle cx="840.0" cy="560.0" r="2.0" stroke="#0000b2" stroke-width="4.0" fill="#0000b2"/>
</g>
</g>
</svg>