<svg xmlns:svg="http://www.w3.org/2000/svg" xmlns="http://www.w3.org/2000/svg" width="1200px" viewBox="187 -104 1150 661">
<g stroke-linecap="square">
<path d="M 1020,80 L 1033,80" stroke="#000000" stroke-width="4.0" fill="none"/>
<path d="M 1060,80 L 1073,80" stroke="#000000" stroke-width="4.0" fill="none"/>
<path d="M 1100,80 L 1113,80" stroke="#000000" stroke-width="4.0" fill="none"/>
<path d="M 1140,80 L 1153,80" stroke="#000000" stroke-width="4.0" fill="none"/>
<path d="M 1180,80 L 1193,80" stroke="#000000" stroke-width="4.0" fill="none"/>
<path d="M 1220,80 L 1233,80" stroke="#000000" stroke-width="4.0" fill="none"/>
<path d="M 1260,80 L 1273,80" stroke="#000000" stroke-width="4.0" fill="none"/>
<path d="M 1300,80 L 1313,80" stroke="#000000" stroke-width="4.0" fill="none"/>
<path d="M 280,160 L 460,160" stroke="#0000b2" stroke-width="4.0" fill="none" class="CLR"/>
<path d="M 620,160 L 860,160 L 1240,160 L 1240,100" stroke="#0000b2" stroke-width="4.0" fill="none" class="register_OUT2"/>
<path d="M 280,420 L 380,420 L 380,260 L 460,260" stroke="#0000b2" stroke-width="4.0" fill="none" class="D4"/>
<path d="M 280,260 L 300,260 L 300,180 L 460,180" stroke="#0000b2" stroke-width="4.0" fill="none" class="D0"/>
<path d="M 620,260 L 660,260 L 1040,260 L 1040,100" stroke="#0000b2" stroke-width="4.0" fill="none" class="register_OUT7"/>
<path d="M 620,200 L 780,200 L 1160,200 L 1160,100" stroke="#0000b2" stroke-width="4.0" fill="none" class="register_OUT4"/>
<path d="M 280,40 L 1020,40 L 1060,40 L 1100,40 L 1140,40 L 1180,40 L 1220,40 L 1260,40 L 1300,40 L 1300,80" stroke="#0000b2" stroke-width="4.0" fill="none" class="AO"/>
<path d="M 280,300 L 320,300 L 320,200 L 460,200" stroke="#0000b2" stroke-width="4.0" fill="none" class="D1"/>
<path d="M 280,460 L 400,460 L 400,280 L 460,280" stroke="#0000b2" stroke-width="4.0" fill="none" class="D5"/>
<path d="M 620,140 L 900,140 L 1280,140 L 1280,100" stroke="#0000b2" stroke-width="4.0" fill="none" class="register_OUT1"/>
<path d="M 620,240 L 700,240 L 1080,240 L 1080,100" stroke="#0000b2" stroke-width="4.0" fill="none" class="register_OUT6"/>
<path d="M 280,80 L 320,80 L 320,120 L 460,120" stroke="#0000b2" stroke-width="4.0" fill="none" class="AI"/>
<path d="M 280,500 L 420,500 L 420,300 L 460,300" stroke="#0000b2" stroke-width="4.0" fill="none" class="D6"/>
<path d="M 280,340 L 340,340 L 340,220 L 460,220" stroke="#0000b2" stroke-width="4.0" fill="none" class="D2"/>
<path d="M 620,180 L 820,180 L 1200,180 L 1200,100" stroke="#0000b2" stroke-width="4.0" fill="none" class="register_OUT3"/>
<path d="M 280,120 L 300,120 L 300,140 L 460,140" stroke="#0000b2" stroke-width="4.0" fill="none" class="CLK"/>
<path d="M 620,120 L 940,120 L 1320,120 L 1320,100" stroke="#0000b2" stroke-width="4.0" fill="none" class="register_OUT0"/>
<path d="M 280,540 L 440,540 L 440,320 L 460,320" stroke="#0000b2" stroke-width="4.0" fill="none" class="D7"/>
<path d="M 280,380 L 360,380 L 360,240 L 460,240" stroke="#0000b2" stroke-width="4.0" fill="none" class="D3"/>
<path d="M 620,220 L 740,220 L 1120,220 L 1120,100" stroke="#0000b2" stroke-width="4.0" fill="none" class="register_OUT5"/>
<path d="M 1280,20 L 1280,60" stroke="#0000b2" stroke-width="4.0" fill="none" class="tri_OUT1"/>
<path d="M 900,20 L 900,140" stroke="#0000b2" stroke-width="4.0" fill="none" class="register_OUT1"/>
<path d="M 1220,40 L 1220,80" stroke="#0000b2" stroke-width="4.0" fill="none" class="AO"/>
<path d="M 1160,20 L 1160,60" stroke="#0000b2" stroke-width="4.0" fill="none" class="tri_OUT4"/>
<path d="M 780,20 L 780,200" stroke="#0000b2" stroke-width="4.0" fill="none" class="register_OUT4"/>
<path d="M 1100,40 L 1100,80" stroke="#0000b2" stroke-width="4.0" fill="none" class="AO"/>
<path d="M 1040,20 L 1040,60" stroke="#0000b2" stroke-width="4.0" fill="none" class="tri_OUT7"/>
<path d="M 660,20 L 660,260" stroke="#0000b2" stroke-width="4.0" fill="none" class="register_OUT7"/>
<path d="M 1240,20 L 1240,60" stroke="#0000b2" stroke-width="4.0" fill="none" class="tri_OUT2"/>
<path d="M 1180,40 L 1180,80" stroke="#0000b2" stroke-width="4.0" fill="none" class="AO"/>
<path d="M 860,20 L 860,160" stroke="#0000b2" stroke-width="4.0" fill="none" class="register_OUT2"/>
<path d="M 1120,20 L 1120,60" stroke="#0000b2" stroke-width="4.0" fill="none" class="tri_OUT5"/>
<path d="M 1060,40 L 1060,80" stroke="#0000b2" stroke-width="4.0" fill="none" class="AO"/>
<path d="M 740,20 L 740,220" stroke="#0000b2" stroke-width="4.0" fill="none" class="register_OUT5"/>
<path d="M 1320,20 L 1320,60" stroke="#0000b2" stroke-width="4.0" fill="none" class="tri_OUT0"/>
<path d="M 1260,40 L 1260,80" stroke="#0000b2" stroke-width="4.0" fill="none" class="AO"/>
<path d="M 940,20 L 940,120" stroke="#0000b2" stroke-width="4.0" fill="none" class="register_OUT0"/>
<path d="M 1200,20 L 1200,60" stroke="#0000b2" stroke-width="4.0" fill="none" class="tri_OUT3"/>
<path d="M 1140,40 L 1140,80" stroke="#0000b2" stroke-width="4.0" fill="none" class="AO"/>
<path d="M 820,20 L 820,180" stroke="#0000b2" stroke-width="4.0" fill="none" class="register_OUT3"/>
<path d="M 1080,20 L 1080,60" stroke="#0000b2" stroke-width="4.0" fill="none" class="tri_OUT6"/>
<path d="M 1020,40 L 1020,80" stroke="#0000b2" stroke-width="4.0" fill="none" class="AO"/>
<path d="M 700,20 L 700,240" stroke="#0000b2" stroke-width="4.0" fill="none" class="register_OUT6"/>
<g>
<circle cx="860.0" cy="160.0" r="4.0" stroke="#0000b2" stroke-width="4.0" fill="#0000b2" class="register_OUT2"/>
<circle cx="660.0" cy="260.0" r="4.0" stroke="#0000b2" stroke-width="4.0" fill="#0000b2" class="register_OUT7"/>
<circle cx="780.0" cy="200.0" r="4.0" stroke="#0000b2" stroke-width="4.0" fill="#0000b2" class="register_OUT4"/>
<circle cx="1020.0" cy="40.0" r="4.0" stroke="#0000b2" stroke-width="4.0" fill="#0000b2" class="AO"/>
<circle cx="1060.0" cy="40.0" r="4.0" stroke="#0000b2" stroke-width="4.0" fill="#0000b2" class="AO"/>
<circle cx="1100.0" cy="40.0" r="4.0" stroke="#0000b2" stroke-width="4.0" fill="#0000b2" class="AO"/>
<circle cx="1180.0" cy="40.0" r="4.0" stroke="#0000b2" stroke-width="4.0" fill="#0000b2" class="AO"/>
<circle cx="1220.0" cy="40.0" r="4.0" stroke="#0000b2" stroke-width="4.0" fill="#0000b2" class="AO"/>
<circle cx="1140.0" cy="40.0" r="4.0" stroke="#0000b2" stroke-width="4.0" fill="#0000b2" class="AO"/>
<circle cx="1260.0" cy="40.0" r="4.0" stroke="#0000b2" stroke-width="4.0" fill="#0000b2" class="AO"/>
<circle cx="900.0" cy="140.0" r="4.0" stroke="#0000b2" stroke-width="4.0" fill="#0000b2" class="register_OUT1"/>
<circle cx="700.0" cy="240.0" r="4.0" stroke="#0000b2" stroke-width="4.0" fill="#0000b2" class="register_OUT6"/>
<circle cx="820.0" cy="180.0" r="4.0" stroke="#0000b2" stroke-width="4.0" fill="#0000b2" class="register_OUT3"/>
<circle cx="940.0" cy="120.0" r="4.0" stroke="#0000b2" stroke-width="4.0" fill="#0000b2" class="register_OUT0"/>
<circle cx="740.0" cy="220.0" r="4.0" stroke="#0000b2" stroke-width="4.0" fill="#0000b2" class="register_OUT5"/>
</g>
<g class="Input" id="D0" pointer-events="visible">
<path d="M 249,245 L 279,245 L 279,275 L 249,275 Z" stroke="#000000" stroke-width="4.0" fill="none"/>
<circle cx="264.0" cy="260.0" r="9.0" stroke="#000000" stroke-width="4.0" fill="none" class="D0"/>
<text text-anchor="end" x="235.0" y="269.0" fill="#000000" style="font-size:24px"><tspan style="font-style:italic;">D0</tspan></text>
<circle cx="280.0" cy="260.0" r="2.0" stroke="#b20000" stroke-width="4.0" fill="#b20000"/>
</g>
<g class="Input" id="D1" pointer-events="visible">
<path d="M 249,285 L 279,285 L 279,315 L 249,315 Z" stroke="#000000" stroke-width="4.0" fill="none"/>
<circle cx="264.0" cy="300.0" r="9.0" stroke="#000000" stroke-width="4.0" fill="none" class="D1"/>
<text text-anchor="end" x="235.0" y="309.0" fill="#000000" style="font-size:24px"><tspan style="font-style:italic;">D1</tspan></text>
<circle cx="280.0" cy="300.0" r="2.0" stroke="#b20000" stroke-width="4.0" fill="#b20000"/>
</g>
<g class="Input" id="D2" pointer-events="visible">
<path d="M 249,325 L 279,325 L 279,355 L 249,355 Z" stroke="#000000" stroke-width="4.0" fill="none"/>
<circle cx="264.0" cy="340.0" r="9.0" stroke="#000000" stroke-width="4.0" fill="none" class="D2"/>
<text text-anchor="end" x="235.0" y="349.0" fill="#000000" style="font-size:24px"><tspan style="font-style:italic;">D2</tspan></text>
<circle cx="280.0" cy="340.0" r="2.0" stroke="#b20000" stroke-width="4.0" fill="#b20000"/>
</g>
<g class="Input" id="D3" pointer-events="visible">
<path d="M 249,365 L 279,365 L 279,395 L 249,395 Z" stroke="#000000" stroke-width="4.0" fill="none"/>
<circle cx="264.0" cy="380.0" r="9.0" stroke="#000000" stroke-width="4.0" fill="none" class="D3"/>
<text text-anchor="end" x="235.0" y="389.0" fill="#000000" style="font-size:24px"><tspan style="font-style:italic;">D3</tspan></text>
<circle cx="280.0" cy="380.0" r="2.0" stroke="#b20000" stroke-width="4.0" fill="#b20000"/>
</g>
<g class="Input" id="D4" pointer-events="visible">
<path d="M 249,405 L 279,405 L 279,435 L 249,435 Z" stroke="#000000" stroke-width="4.0" fill="none"/>
<circle cx="264.0" cy="420.0" r="9.0" stroke="#000000" stroke-width="4.0" fill="none" class="D4"/>
<text text-anchor="end" x="235.0" y="429.0" fill="#000000" style="font-size:24px"><tspan style="font-style:italic;">D4</tspan></text>
<circle cx="280.0" cy="420.0" r="2.0" stroke="#b20000" stroke-width="4.0" fill="#b20000"/>
</g>
<g class="Input" id="D5" pointer-events="visible">
<path d="M 249,445 L 279,445 L 279,475 L 249,475 Z" stroke="#000000" stroke-width="4.0" fill="none"/>
<circle cx="264.0" cy="460.0" r="9.0" stroke="#000000" stroke-width="4.0" fill="none" class="D5"/>
<text text-anchor="end" x="235.0" y="469.0" fill="#000000" style="font-size:24px"><tspan style="font-style:italic;">D5</tspan></text>
<circle cx="280.0" cy="460.0" r="2.0" stroke="#b20000" stroke-width="4.0" fill="#b20000"/>
</g>
<g class="Input" id="D6" pointer-events="visible">
<path d="M 249,485 L 279,485 L 279,515 L 249,515 Z" stroke="#000000" stroke-width="4.0" fill="none"/>
<circle cx="264.0" cy="500.0" r="9.0" stroke="#000000" stroke-width="4.0" fill="none" class="D6"/>
<text text-anchor="end" x="235.0" y="509.0" fill="#000000" style="font-size:24px"><tspan style="font-style:italic;">D6</tspan></text>
<circle cx="280.0" cy="500.0" r="2.0" stroke="#b20000" stroke-width="4.0" fill="#b20000"/>
</g>
<g class="Input" id="D7" pointer-events="visible">
<path d="M 249,525 L 279,525 L 279,555 L 249,555 Z" stroke="#000000" stroke-width="4.0" fill="none"/>
<circle cx="264.0" cy="540.0" r="9.0" stroke="#000000" stroke-width="4.0" fill="none" class="D7"/>
<text text-anchor="end" x="235.0" y="549.0" fill="#000000" style="font-size:24px"><tspan style="font-style:italic;">D7</tspan></text>
<circle cx="280.0" cy="540.0" r="2.0" stroke="#b20000" stroke-width="4.0" fill="#b20000"/>
</g>
<g class="Input" id="AI" pointer-events="visible">
<path d="M 249,65 L 279,65 L 279,95 L 249,95 Z" stroke="#000000" stroke-width="4.0" fill="none"/>
<circle cx="264.0" cy="80.0" r="9.0" stroke="#000000" stroke-width="4.0" fill="none" class="AI"/>
<text text-anchor="end" x="235.0" y="89.0" fill="#000000" style="font-size:24px"><tspan style="font-style:italic;">AI</tspan></text>
<circle cx="280.0" cy="80.0" r="2.0" stroke="#b20000" stroke-width="4.0" fill="#b20000"/>
</g>
<g class="Input" id="AO" pointer-events="visible">
<path d="M 249,25 L 279,25 L 279,55 L 249,55 Z" stroke="#000000" stroke-width="4.0" fill="none"/>
<circle cx="264.0" cy="40.0" r="9.0" stroke="#000000" stroke-width="4.0" fill="none" class="AO"/>
<text text-anchor="end" x="235.0" y="49.0" fill="#000000" style="font-size:24px"><tspan style="font-style:italic;">AO</tspan></text>
<circle cx="280.0" cy="40.0" r="2.0" stroke="#b20000" stroke-width="4.0" fill="#b20000"/>
</g>
<g class="Input" id="CLK" pointer-events="visible">
<path d="M 249,105 L 279,105 L 279,135 L 249,135 Z" stroke="#000000" stroke-width="4.0" fill="none"/>
<circle cx="264.0" cy="120.0" r="9.0" stroke="#000000" stroke-width="4.0" fill="none" class="CLK"/>
<text text-anchor="end" x="235.0" y="129.0" fill="#000000" style="font-size:24px"><tspan style="font-style:italic;">CLK</tspan></text>
<circle cx="280.0" cy="120.0" r="2.0" stroke="#b20000" stroke-width="4.0" fill="#b20000"/>
</g>
<g class="Input" id="CLR" pointer-events="visible">
<path d="M 249,145 L 279,145 L 279,175 L 249,175 Z" stroke="#000000" stroke-width="4.0" fill="none"/>
<circle cx="264.0" cy="160.0" r="9.0" stroke="#000000" stroke-width="4.0" fill="none" class="CLR"/>
<text text-anchor="end" x="235.0" y="169.0" fill="#000000" style="font-size:24px"><tspan style="font-style:italic;">CLR</tspan></text>
<circle cx="280.0" cy="160.0" r="2.0" stroke="#b20000" stroke-width="4.0" fill="#b20000"/>
</g>
<g class="REGISTER8" pointer-events="visible">
<path d="M 461,106 L 619,106 L 619,334 L 461,334 Z" stroke="#ffffb4" stroke-width="0.0" fill="#ffffb4" fill-opacity="0.7843137254901961"/>
<path d="M 461,106 L 619,106 L 619,334 L 461,334 Z" stroke="#000000" stroke-width="4.0" fill="none"/>
<text text-anchor="start" x="464.0" y="126.75" fill="#808080" style="font-size:18px">LOAD</text>
<text text-anchor="start" x="464.0" y="146.75" fill="#808080" style="font-size:18px">CLK</text>
<text text-anchor="start" x="464.0" y="166.75" fill="#808080" style="font-size:18px">CLR</text>
<text text-anchor="start" x="464.0" y="186.75" fill="#808080" style="font-size:18px">D0</text>
<text text-anchor="start" x="464.0" y="206.75" fill="#808080" style="font-size:18px">D1</text>
<text text-anchor="start" x="464.0" y="226.75" fill="#808080" style="font-size:18px">D2</text>
<text text-anchor="start" x="464.0" y="246.75" fill="#808080" style="font-size:18px">D3</text>
<text text-anchor="start" x="464.0" y="266.75" fill="#808080" style="font-size:18px">D4</text>
<text text-anchor="start" x="464.0" y="286.75" fill="#808080" style="font-size:18px">D5</text>
<text text-anchor="start" x="464.0" y="306.75" fill="#808080" style="font-size:18px">D6</text>
<text text-anchor="start" x="464.0" y="326.75" fill="#808080" style="font-size:18px">D7</text>
<text text-anchor="end" x="616.0" y="126.75" fill="#808080" style="font-size:18px">OUT0</text>
<text text-anchor="end" x="616.0" y="146.75" fill="#808080" style="font-size:18px">OUT1</text>
<text text-anchor="end" x="616.0" y="166.75" fill="#808080" style="font-size:18px">OUT2</text>
<text text-anchor="end" x="616.0" y="186.75" fill="#808080" style="font-size:18px">OUT3</text>
<text text-anchor="end" x="616.0" y="206.75" fill="#808080" style="font-size:18px">OUT4</text>
<text text-anchor="end" x="616.0" y="226.75" fill="#808080" style="font-size:18px">OUT5</text>
<text text-anchor="end" x="616.0" y="246.75" fill="#808080" style="font-size:18px">OUT6</text>
<text text-anchor="end" x="616.0" y="266.75" fill="#808080" style="font-size:18px">OUT7</text>
<text text-anchor="middle" x="540.0" y="351.5" fill="#808080" style="font-size:18px">REGISTER8</text>
<circle cx="460.0" cy="120.0" r="2.0" stroke="#0000b2" stroke-width="4.0" fill="#0000b2"/>
<circle cx="460.0" cy="140.0" r="2.0" stroke="#0000b2" stroke-width="4.0" fill="#0000b2"/>
<circle cx="460.0" cy="160.0" r="2.0" stroke="#0000b2" stroke-width="4.0" fill="#0000b2"/>
<circle cx="460.0" cy="180.0" r="2.0" stroke="#0000b2" stroke-width="4.0" fill="#0000b2"/>
<circle cx="460.0" cy="200.0" r="2.0" stroke="#0000b2" stroke-width="4.0" fill="#0000b2"/>
<circle cx="460.0" cy="220.0" r="2.0" stroke="#0000b2" stroke-width="4.0" fill="#0000b2"/>
<circle cx="460.0" cy="240.0" r="2.0" stroke="#0000b2" stroke-width="4.0" fill="#0000b2"/>
<circle cx="460.0" cy="260.0" r="2.0" stroke="#0000b2" stroke-width="4.0" fill="#0000b2"/>
<circle cx="460.0" cy="280.0" r="2.0" stroke="#0000b2" stroke-width="4.0" fill="#0000b2"/>
<circle cx="460.0" cy="300.0" r="2.0" stroke="#0000b2" stroke-width="4.0" fill="#0000b2"/>
<circle cx="460.0" cy="320.0" r="2.0" stroke="#0000b2" stroke-width="4.0" fill="#0000b2"/>
<circle cx="620.0" cy="120.0" r="2.0" stroke="#b20000" stroke-width="4.0" fill="#b20000"/>
<circle cx="620.0" cy="140.0" r="2.0" stroke="#b20000" stroke-width="4.0" fill="#b20000"/>
<circle cx="620.0" cy="160.0" r="2.0" stroke="#b20000" stroke-width="4.0" fill="#b20000"/>
<circle cx="620.0" cy="180.0" r="2.0" stroke="#b20000" stroke-width="4.0" fill="#b20000"/>
<circle cx="620.0" cy="200.0" r="2.0" stroke="#b20000" stroke-width="4.0" fill="#b20000"/>
<circle cx="620.0" cy="220.0" r="2.0" stroke="#b20000" stroke-width="4.0" fill="#b20000"/>
<circle cx="620.0" cy="240.0" r="2.0" stroke="#b20000" stroke-width="4.0" fill="#b20000"/>
<circle cx="620.0" cy="260.0" r="2.0" stroke="#b20000" stroke-width="4.0" fill="#b20000"/>
</g>
<g>
<circle cx="660.0" cy="4.0" r="9.0" stroke="#000000" stroke-width="4.0" fill="none" class="register_OUT7"/>
<circle cx="660.0" cy="4.0" r="15.0" stroke="#000000" stroke-width="4.0" fill="none"/>
<text text-anchor="start" x="660.0" y="-16.0" fill="#000000" style="font-size:24px" transform="rotate(-90,660.0,-25.0)"><tspan style="font-style:italic;">REGA7</tspan></text>
<circle cx="660.0" cy="20.0" r="2.0" stroke="#0000b2" stroke-width="4.0" fill="#0000b2"/>
</g>
<g>
<circle cx="700.0" cy="4.0" r="9.0" stroke="#000000" stroke-width="4.0" fill="none" class="register_OUT6"/>
<circle cx="700.0" cy="4.0" r="15.0" stroke="#000000" stroke-width="4.0" fill="none"/>
<text text-anchor="start" x="700.0" y="-16.0" fill="#000000" style="font-size:24px" transform="rotate(-90,700.0,-25.0)"><tspan style="font-style:italic;">REGA6</tspan></text>
<circle cx="700.0" cy="20.0" r="2.0" stroke="#0000b2" stroke-width="4.0" fill="#0000b2"/>
</g>
<g>
<circle cx="740.0" cy="4.0" r="9.0" stroke="#000000" stroke-width="4.0" fill="none" class="register_OUT5"/>
<circle cx="740.0" cy="4.0" r="15.0" stroke="#000000" stroke-width="4.0" fill="none"/>
<text text-anchor="start" x="740.0" y="-16.0" fill="#000000" style="font-size:24px" transform="rotate(-90,740.0,-25.0)"><tspan style="font-style:italic;">REGA5</tspan></text>
<circle cx="740.0" cy="20.0" r="2.0" stroke="#0000b2" stroke-width="4.0" fill="#0000b2"/>
</g>
<g>
<circle cx="780.0" cy="4.0" r="9.0" stroke="#000000" stroke-width="4.0" fill="none" class="register_OUT4"/>
<circle cx="780.0" cy="4.0" r="15.0" stroke="#000000" stroke-width="4.0" fill="none"/>
<text text-anchor="start" x="780.0" y="-16.0" fill="#000000" style="font-size:24px" transform="rotate(-90,780.0,-25.0)"><tspan style="font-style:italic;">REGA4</tspan></text>
<circle cx="780.0" cy="20.0" r="2.0" stroke="#0000b2" stroke-width="4.0" fill="#0000b2"/>
</g>
<g>
<circle cx="820.0" cy="4.0" r="9.0" stroke="#000000" stroke-width="4.0" fill="none" class="register_OUT3"/>
<circle cx="820.0" cy="4.0" r="15.0" stroke="#000000" stroke-width="4.0" fill="none"/>
<text text-anchor="start" x="820.0" y="-16.0" fill="#000000" style="font-size:24px" transform="rotate(-90,820.0,-25.0)"><tspan style="font-style:italic;">REGA3</tspan></text>
<circle cx="820.0" cy="20.0" r="2.0" stroke="#0000b2" stroke-width="4.0" fill="#0000b2"/>
</g>
<g>
<circle cx="860.0" cy="4.0" r="9.0" stroke="#000000" stroke-width="4.0" fill="none" class="register_OUT2"/>
<circle cx="860.0" cy="4.0" r="15.0" stroke="#000000" stroke-width="4.0" fill="none"/>
<text text-anchor="start" x="860.0" y="-16.0" fill="#000000" style="font-size:24px" transform="rotate(-90,860.0,-25.0)"><tspan style="font-style:italic;">REGA2</tspan></text>
<circle cx="860.0" cy="20.0" r="2.0" stroke="#0000b2" stroke-width="4.0" fill="#0000b2"/>
</g>
<g>
<circle cx="900.0" cy="4.0" r="9.0" stroke="#000000" stroke-width="4.0" fill="none" class="register_OUT1"/>
<circle cx="900.0" cy="4.0" r="15.0" stroke="#000000" stroke-width="4.0" fill="none"/>
<text text-anchor="start" x="900.0" y="-16.0" fill="#000000" style="font-size:24px" transform="rotate(-90,900.0,-25.0)"><tspan style="font-style:italic;">REGA1</tspan></text>
<circle cx="900.0" cy="20.0" r="2.0" stroke="#0000b2" stroke-width="4.0" fill="#0000b2"/>
</g>
<g>
<circle cx="940.0" cy="4.0" r="9.0" stroke="#000000" stroke-width="4.0" fill="none" class="register_OUT0"/>
<circle cx="940.0" cy="4.0" r="15.0" stroke="#000000" stroke-width="4.0" fill="none"/>
<text text-anchor="start" x="940.0" y="-16.0" fill="#000000" style="font-size:24px" transform="rotate(-90,940.0,-25.0)"><tspan style="font-style:italic;">REGA0</tspan></text>
<circle cx="940.0" cy="20.0" r="2.0" stroke="#0000b2" stroke-width="4.0" fill="#0000b2"/>
</g>
<g>
<circle cx="1040.0" cy="4.0" r="9.0" stroke="#000000" stroke-width="4.0" fill="none" class="tri_OUT7"/>
<circle cx="1040.0" cy="4.0" r="15.0" stroke="#000000" stroke-width="4.0" fill="none"/>
<text text-anchor="start" x="1040.0" y="-16.0" fill="#000000" style="font-size:24px" transform="rotate(-90,1040.0,-25.0)"><tspan style="font-style:italic;">OUT7</tspan></text>
<circle cx="1040.0" cy="20.0" r="2.0" stroke="#0000b2" stroke-width="4.0" fill="#0000b2"/>
</g>
<g>
<circle cx="1080.0" cy="4.0" r="9.0" stroke="#000000" stroke-width="4.0" fill="none" class="tri_OUT6"/>
<circle cx="1080.0" cy="4.0" r="15.0" stroke="#000000" stroke-width="4.0" fill="none"/>
<text text-anchor="start" x="1080.0" y="-16.0" fill="#000000" style="font-size:24px" transform="rotate(-90,1080.0,-25.0)"><tspan style="font-style:italic;">OUT6</tspan></text>
<circle cx="1080.0" cy="20.0" r="2.0" stroke="#0000b2" stroke-width="4.0" fill="#0000b2"/>
</g>
<g>
<circle cx="1120.0" cy="4.0" r="9.0" stroke="#000000" stroke-width="4.0" fill="none" class="tri_OUT5"/>
<circle cx="1120.0" cy="4.0" r="15.0" stroke="#000000" stroke-width="4.0" fill="none"/>
<text text-anchor="start" x="1120.0" y="-16.0" fill="#000000" style="font-size:24px" transform="rotate(-90,1120.0,-25.0)"><tspan style="font-style:italic;">OUT5</tspan></text>
<circle cx="1120.0" cy="20.0" r="2.0" stroke="#0000b2" stroke-width="4.0" fill="#0000b2"/>
</g>
<g>
<circle cx="1160.0" cy="4.0" r="9.0" stroke="#000000" stroke-width="4.0" fill="none" class="tri_OUT4"/>
<circle cx="1160.0" cy="4.0" r="15.0" stroke="#000000" stroke-width="4.0" fill="none"/>
<text text-anchor="start" x="1160.0" y="-16.0" fill="#000000" style="font-size:24px" transform="rotate(-90,1160.0,-25.0)"><tspan style="font-style:italic;">OUT4</tspan></text>
<circle cx="1160.0" cy="20.0" r="2.0" stroke="#0000b2" stroke-width="4.0" fill="#0000b2"/>
</g>
<g>
<circle cx="1200.0" cy="4.0" r="9.0" stroke="#000000" stroke-width="4.0" fill="none" class="tri_OUT3"/>
<circle cx="1200.0" cy="4.0" r="15.0" stroke="#000000" stroke-width="4.0" fill="none"/>
<text text-anchor="start" x="1200.0" y="-16.0" fill="#000000" style="font-size:24px" transform="rotate(-90,1200.0,-25.0)"><tspan style="font-style:italic;">OUT3</tspan></text>
<circle cx="1200.0" cy="20.0" r="2.0" stroke="#0000b2" stroke-width="4.0" fill="#0000b2"/>
</g>
<g>
<circle cx="1240.0" cy="4.0" r="9.0" stroke="#000000" stroke-width="4.0" fill="none" class="tri_OUT2"/>
<circle cx="1240.0" cy="4.0" r="15.0" stroke="#000000" stroke-width="4.0" fill="none"/>
<text text-anchor="start" x="1240.0" y="-16.0" fill="#000000" style="font-size:24px" transform="rotate(-90,1240.0,-25.0)"><tspan style="font-style:italic;">OUT2</tspan></text>
<circle cx="1240.0" cy="20.0" r="2.0" stroke="#0000b2" stroke-width="4.0" fill="#0000b2"/>
</g>
<g>
<circle cx="1280.0" cy="4.0" r="9.0" stroke="#000000" stroke-width="4.0" fill="none" class="tri_OUT1"/>
<circle cx="1280.0" cy="4.0" r="15.0" stroke="#000000" stroke-width="4.0" fill="none"/>
<text text-anchor="start" x="1280.0" y="-16.0" fill="#000000" style="font-size:24px" transform="rotate(-90,1280.0,-25.0)"><tspan style="font-style:italic;">OUT1</tspan></text>
<circle cx="1280.0" cy="20.0" r="2.0" stroke="#0000b2" stroke-width="4.0" fill="#0000b2"/>
</g>
<g>
<circle cx="1320.0" cy="4.0" r="9.0" stroke="#000000" stroke-width="4.0" fill="none" class="tri_OUT0"/>
<circle cx="1320.0" cy="4.0" r="15.0" stroke="#000000" stroke-width="4.0" fill="none"/>
<text text-anchor="start" x="1320.0" y="-16.0" fill="#000000" style="font-size:24px" transform="rotate(-90,1320.0,-25.0)"><tspan style="font-style:italic;">OUT0</tspan></text>
<circle cx="1320.0" cy="20.0" r="2.0" stroke="#0000b2" stroke-width="4.0" fill="#0000b2"/>
</g>
<g>
<path d="M 1028,99 L 1040,61 L 1052,99 Z" stroke="#000000" stroke-width="4.0" fill="none"/>
<circle cx="1040.0" cy="100.0" r="2.0" stroke="#0000b2" stroke-width="4.0" fill="#0000b2"/>
<circle cx="1020.0" cy="80.0" r="2.0" stroke="#0000b2" stroke-width="4.0" fill="#0000b2"/>
<circle cx="1040.0" cy="60.0" r="2.0" stroke="#b20000" stroke-width="4.0" fill="#b20000"/>
</g>
<g>
<path d="M 1068,99 L 1080,61 L 1092,99 Z" stroke="#000000" stroke-width="4.0" fill="none"/>
<circle cx="1080.0" cy="100.0" r="2.0" stroke="#0000b2" stroke-width="4.0" fill="#0000b2"/>
<circle cx="1060.0" cy="80.0" r="2.0" stroke="#0000b2" stroke-width="4.0" fill="#0000b2"/>
<circle cx="1080.0" cy="60.0" r="2.0" stroke="#b20000" stroke-width="4.0" fill="#b20000"/>
</g>
<g>
<path d="M 1108,99 L 1120,61 L 1132,99 Z" stroke="#000000" stroke-width="4.0" fill="none"/>
<circle cx="1120.0" cy="100.0" r="2.0" stroke="#0000b2" stroke-width="4.0" fill="#0000b2"/>
<circle cx="1100.0" cy="80.0" r="2.0" stroke="#0000b2" stroke-width="4.0" fill="#0000b2"/>
<circle cx="1120.0" cy="60.0" r="2.0" stroke="#b20000" stroke-width="4.0" fill="#b20000"/>
</g>
<g>
<path d="M 1148,99 L 1160,61 L 1172,99 Z" stroke="#000000" stroke-width="4.0" fill="none"/>
<circle cx="1160.0" cy="100.0" r="2.0" stroke="#0000b2" stroke-width="4.0" fill="#0000b2"/>
<circle cx="1140.0" cy="80.0" r="2.0" stroke="#0000b2" stroke-width="4.0" fill="#0000b2"/>
<circle cx="1160.0" cy="60.0" r="2.0" stroke="#b20000" stroke-width="4.0" fill="#b20000"/>
</g>
<g>
<path d="M 1188,99 L 1200,61 L 1212,99 Z" stroke="#000000" stroke-width="4.0" fill="none"/>
<circle cx="1200.0" cy="100.0" r="2.0" stroke="#0000b2" stroke-width="4.0" fill="#0000b2"/>
<circle cx="1180.0" cy="80.0" r="2.0" stroke="#0000b2" stroke-width="4.0" fill="#0000b2"/>
<circle cx="1200.0" cy="60.0" r="2.0" stroke="#b20000" stroke-width="4.0" fill="#b20000"/>
</g>
<g>
<path d="M 1228,99 L 1240,61 L 1252,99 Z" stroke="#000000" stroke-width="4.0" fill="none"/>
<circle cx="1240.0" cy="100.0" r="2.0" stroke="#0000b2" stroke-width="4.0" fill="#0000b2"/>
<circle cx="1220.0" cy="80.0" r="2.0" stroke="#0000b2" stroke-width="4.0" fill="#0000b2"/>
<circle cx="1240.0" cy="60.0" r="2.0" stroke="#b20000" stroke-width="4.0" fill="#b20000"/>
</g>
<g>
<path d="M 1268,99 L 1280,61 L 1292,99 Z" stroke="#000000" stroke-width="4.0" fill="none"/>
<circle cx="1280.0" cy="100.0" r="2.0" stroke="#0000b2" stroke-width="4.0" fill="#0000b2"/>
<circle cx="1260.0" cy="80.0" r="2.0" stroke="#0000b2" stroke-width="4.0" fill="#0000b2"/>
<circle cx="1280.0" cy="60.0" r="2.0" stroke="#b20000" stroke-width="4.0" fill="#b20000"/>
</g>
<g>
<path d="M 1308,99 L 1320,61 L 1332,99 Z" stroke="#000000" stroke-width="4.0" fill="none"/>
<circle cx="1320.0" cy="100.0" r="2.0" stroke="#0000b2" stroke-width="4.0" fill="#0000b2"/>
<circle cx="1300.0" cy="80.0" r="2.0" stroke="#0000b2" stroke-width="4.0" fill="#0000b2"/>
<circle cx="1320.0" cy="60.0" r="2.0" stroke="#b20000" stroke-width="4.0" fill="#b20000"/>
</g>
</g>
</svg>