<svg xmlns:svg="http://www.w3.org/2000/svg" xmlns="http://www.w3.org/2000/svg" width="700px" viewBox="238 223 488 194">
<g stroke-linecap="square">
<path d="M 300,240 L 440,240 L 444,240" stroke="#0000b2" stroke-width="4.0" fill="none" class="R"/>
<path d="M 300,400 L 440,400 L 444,400" stroke="#0000b2" stroke-width="4.0" fill="none" class="S"/>
<path d="M 540,260 L 600,260 L 640,260" stroke="#0000b2" stroke-width="4.0" fill="none" class="nor1_OUT"/>
<path d="M 540,380 L 580,380 L 640,380" stroke="#0000b2" stroke-width="4.0" fill="none" class="nor2_OUT"/>
<path d="M 580,380 L 580,320 L 400,320 L 400,280 L 440,280 L 444,280" stroke="#0000b2" stroke-width="4.0" fill="none" class="nor2_OUT"/>
<path d="M 600,260 L 600,340 L 400,340 L 400,360 L 440,360 L 444,360" stroke="#0000b2" stroke-width="4.0" fill="none" class="nor1_OUT"/>
<g>
<circle cx="600.0" cy="260.0" r="4.0" stroke="#0000b2" stroke-width="4.0" fill="#0000b2" class="nor1_OUT"/>
<circle cx="580.0" cy="380.0" r="4.0" stroke="#0000b2" stroke-width="4.0" fill="#0000b2" class="nor2_OUT"/>
</g>
<g class="Input" id="R" pointer-events="visible">
<path d="M 269,225 L 299,225 L 299,255 L 269,255 Z" stroke="#000000" stroke-width="4.0" fill="none"/>
<circle cx="284.0" cy="240.0" r="9.0" stroke="#000000" stroke-width="4.0" fill="none" class="R"/>
<text text-anchor="end" x="255.0" y="249.0" fill="#000000" style="font-size:24px"><tspan style="font-style:italic;">R</tspan></text>
<circle cx="300.0" cy="240.0" r="2.0" stroke="#b20000" stroke-width="4.0" fill="#b20000"/>
</g>
<g class="Input" id="S" pointer-events="visible">
<path d="M 269,385 L 299,385 L 299,415 L 269,415 Z" stroke="#000000" stroke-width="4.0" fill="none"/>
<circle cx="284.0" cy="400.0" r="9.0" stroke="#000000" stroke-width="4.0" fill="none" class="S"/>
<text text-anchor="end" x="255.0" y="409.0" fill="#000000" style="font-size:24px"><tspan style="font-style:italic;">S</tspan></text>
<circle cx="300.0" cy="400.0" r="2.0" stroke="#b20000" stroke-width="4.0" fill="#b20000"/>
</g>
<g class="NOR" pointer-events="visible">
<path d="M 470,290 L 440,290 C 450,274 450,246 440,230 L 460,230 C 490,230 510,240 520,260 C 510,280 490,290 470,290 Z" stroke="#000000" stroke-width="4.0" fill="none"/>
<circle cx="530.0" cy="260.0" r="9.0" stroke="#000000" stroke-width="4.0" fill="none"/>
<circle cx="440.0" cy="240.0" r="2.0" stroke="#0000b2" stroke-width="4.0" fill="#0000b2"/>
<circle cx="440.0" cy="280.0" r="2.0" stroke="#0000b2" stroke-width="4.0" fill="#0000b2"/>
<circle cx="540.0" cy="260.0" r="2.0" stroke="#b20000" stroke-width="4.0" fill="#b20000"/>
</g>
<g class="NOR" pointer-events="visible">
<path d="M 470,410 L 440,410 C 450,394 450,366 440,350 L 460,350 C 490,350 510,360 520,380 C 510,400 490,410 470,410 Z" stroke="#000000" stroke-width="4.0" fill="none"/>
<circle cx="530.0" cy="380.0" r="9.0" stroke="#000000" stroke-width="4.0" fill="none"/>
<circle cx="440.0" cy="360.0" r="2.0" stroke="#0000b2" stroke-width="4.0" fill="#0000b2"/>
<circle cx="440.0" cy="400.0" r="2.0" stroke="#0000b2" stroke-width="4.0" fill="#0000b2"/>
<circle cx="540.0" cy="380.0" r="2.0" stroke="#b20000" stroke-width="4.0" fill="#b20000"/>
</g>
<g class="Output" id="Q">
<circle cx="656.0" cy="260.0" r="9.0" stroke="#000000" stroke-width="4.0" fill="none" class="nor1_OUT"/>
<circle cx="656.0" cy="260.0" r="15.0" stroke="#000000" stroke-width="4.0" fill="none" class="Q"/>
<text text-anchor="start" x="685.0" y="269.0" fill="#000000" style="font-size:24px"><tspan style="font-style:italic;">Q</tspan></text>
<circle cx="640.0" cy="260.0" r="2.0" stroke="#0000b2" stroke-width="4.0" fill="#0000b2"/>
</g>
<g class="Output" id="~Q">
<circle cx="656.0" cy="380.0" r="9.0" stroke="#000000" stroke-width="4.0" fill="none" class="nor2_OUT"/>
<circle cx="656.0" cy="380.0" r="15.0" stroke="#000000" stroke-width="4.0" fill="none" class="~Q"/>
<text text-anchor="start" x="685.0" y="389.0" fill="#000000" style="font-size:24px"><tspan style="font-style:italic;">~Q</tspan></text>
<circle cx="640.0" cy="380.0" r="2.0" stroke="#0000b2" stroke-width="4.0" fill="#0000b2"/>
</g>
</g>
</svg>