<svg xmlns:svg="http://www.w3.org/2000/svg" xmlns="http://www.w3.org/2000/svg" width="800px" viewBox="301 63 1045 894">
<g stroke-linecap="square">
<path d="M 1120,100 L 1120,113" stroke="#000000" stroke-width="4.0" fill="none"/>
<path d="M 1120,140 L 1120,153" stroke="#000000" stroke-width="4.0" fill="none"/>
<path d="M 1120,180 L 1120,193" stroke="#000000" stroke-width="4.0" fill="none"/>
<path d="M 1120,220 L 1120,233" stroke="#000000" stroke-width="4.0" fill="none"/>
<path d="M 1120,260 L 1120,273" stroke="#000000" stroke-width="4.0" fill="none"/>
<path d="M 1120,300 L 1120,313" stroke="#000000" stroke-width="4.0" fill="none"/>
<path d="M 1120,340 L 1120,353" stroke="#000000" stroke-width="4.0" fill="none"/>
<path d="M 1120,380 L 1120,393" stroke="#000000" stroke-width="4.0" fill="none"/>
<path d="M 380,320 L 420,320 L 420,360 L 580,360" stroke="#0000b2" stroke-width="4.0" fill="none" class="A5"/>
<path d="M 720,320 L 840,320 L 980,320 L 980,240 L 1100,240" stroke="#0000b2" stroke-width="4.0" fill="none" class="alu_SUM3"/>
<path d="M 1140,320 L 1200,320" stroke="#0000b2" stroke-width="4.0" fill="none" class="tri_OUT5"/>
<path d="M 380,640 L 500,640 L 500,520 L 580,520" stroke="#0000b2" stroke-width="4.0" fill="none" class="B5"/>
<path d="M 1080,220 L 1080,260 L 1120,260" stroke="#0000b2" stroke-width="4.0" fill="none" class="EO"/>
<path d="M 720,260 L 900,260 L 920,260 L 920,120 L 1100,120" stroke="#0000b2" stroke-width="4.0" fill="none" class="alu_SUM0"/>
<path d="M 800,360 L 800,580 L 920,580" stroke="#0000b2" stroke-width="4.0" fill="none" class="alu_SUM5"/>
<path d="M 780,600 L 780,900 L 1200,900" stroke="#0000b2" stroke-width="4.0" fill="none" class="alu_SUM6"/>
<path d="M 380,520 L 440,520 L 440,460 L 580,460" stroke="#0000b2" stroke-width="4.0" fill="none" class="B2"/>
<path d="M 840,320 L 840,520 L 920,520" stroke="#0000b2" stroke-width="4.0" fill="none" class="alu_SUM3"/>
<path d="M 1140,200 L 1200,200" stroke="#0000b2" stroke-width="4.0" fill="none" class="tri_OUT2"/>
<path d="M 380,200 L 480,200 L 480,300 L 580,300" stroke="#0000b2" stroke-width="4.0" fill="none" class="A2"/>
<path d="M 1080,100 L 1080,140 L 1120,140" stroke="#0000b2" stroke-width="4.0" fill="none" class="EO"/>
<path d="M 900,260 L 900,460 L 920,460" stroke="#0000b2" stroke-width="4.0" fill="none" class="alu_SUM0"/>
<path d="M 840,520 L 840,780 L 1200,780" stroke="#0000b2" stroke-width="4.0" fill="none" class="alu_SUM3"/>
<path d="M 1140,400 L 1200,400" stroke="#0000b2" stroke-width="4.0" fill="none" class="tri_OUT7"/>
<path d="M 380,400 L 580,400" stroke="#0000b2" stroke-width="4.0" fill="none" class="A7"/>
<path d="M 720,400 L 760,400 L 1100,400" stroke="#0000b2" stroke-width="4.0" fill="none" class="alu_SUM7"/>
<path d="M 380,720 L 540,720 L 540,560 L 580,560" stroke="#0000b2" stroke-width="4.0" fill="none" class="B7"/>
<path d="M 380,80 L 1080,80 L 1080,100 L 1120,100" stroke="#0000b2" stroke-width="4.0" fill="none" class="EO"/>
<path d="M 720,340 L 820,340 L 1000,340 L 1000,280 L 1100,280" stroke="#0000b2" stroke-width="4.0" fill="none" class="alu_SUM4"/>
<path d="M 900,460 L 900,660 L 1200,660" stroke="#0000b2" stroke-width="4.0" fill="none" class="alu_SUM0"/>
<path d="M 380,600 L 480,600 L 480,500 L 580,500" stroke="#0000b2" stroke-width="4.0" fill="none" class="B4"/>
<path d="M 780,380 L 780,600 L 920,600" stroke="#0000b2" stroke-width="4.0" fill="none" class="alu_SUM6"/>
<path d="M 1140,280 L 1200,280" stroke="#0000b2" stroke-width="4.0" fill="none" class="tri_OUT4"/>
<path d="M 380,280 L 440,280 L 440,340 L 580,340" stroke="#0000b2" stroke-width="4.0" fill="none" class="A4"/>
<path d="M 720,280 L 880,280 L 940,280 L 940,160 L 1100,160" stroke="#0000b2" stroke-width="4.0" fill="none" class="alu_SUM1"/>
<path d="M 1060,540 L 1200,540" stroke="#0000b2" stroke-width="4.0" fill="none" class="isZero_OUT"/>
<path d="M 1080,180 L 1080,220 L 1120,220" stroke="#0000b2" stroke-width="4.0" fill="none" class="EO"/>
<path d="M 800,580 L 800,860 L 1200,860" stroke="#0000b2" stroke-width="4.0" fill="none" class="alu_SUM5"/>
<path d="M 380,480 L 420,480 L 420,440 L 580,440" stroke="#0000b2" stroke-width="4.0" fill="none" class="B1"/>
<path d="M 880,280 L 880,480 L 920,480" stroke="#0000b2" stroke-width="4.0" fill="none" class="alu_SUM1"/>
<path d="M 1140,160 L 1200,160" stroke="#0000b2" stroke-width="4.0" fill="none" class="tri_OUT1"/>
<path d="M 380,160 L 500,160 L 500,280 L 580,280" stroke="#0000b2" stroke-width="4.0" fill="none" class="A1"/>
<path d="M 720,420 L 1100,420 L 1100,500 L 1200,500" stroke="#0000b2" stroke-width="4.0" fill="none" class="alu_CO"/>
<path d="M 860,500 L 860,740 L 1200,740" stroke="#0000b2" stroke-width="4.0" fill="none" class="alu_SUM2"/>
<path d="M 1140,360 L 1200,360" stroke="#0000b2" stroke-width="4.0" fill="none" class="tri_OUT6"/>
<path d="M 380,360 L 400,360 L 400,380 L 580,380" stroke="#0000b2" stroke-width="4.0" fill="none" class="A6"/>
<path d="M 720,360 L 800,360 L 1040,360 L 1040,320 L 1100,320" stroke="#0000b2" stroke-width="4.0" fill="none" class="alu_SUM5"/>
<path d="M 380,680 L 520,680 L 520,540 L 580,540" stroke="#0000b2" stroke-width="4.0" fill="none" class="B6"/>
<path d="M 760,400 L 760,620 L 920,620" stroke="#0000b2" stroke-width="4.0" fill="none" class="alu_SUM7"/>
<path d="M 1080,260 L 1080,300 L 1120,300" stroke="#0000b2" stroke-width="4.0" fill="none" class="EO"/>
<path d="M 720,300 L 860,300 L 960,300 L 960,200 L 1100,200" stroke="#0000b2" stroke-width="4.0" fill="none" class="alu_SUM2"/>
<path d="M 760,620 L 760,940 L 1200,940" stroke="#0000b2" stroke-width="4.0" fill="none" class="alu_SUM7"/>
<path d="M 820,340 L 820,560 L 920,560" stroke="#0000b2" stroke-width="4.0" fill="none" class="alu_SUM4"/>
<path d="M 380,560 L 460,560 L 460,480 L 580,480" stroke="#0000b2" stroke-width="4.0" fill="none" class="B3"/>
<path d="M 1140,240 L 1200,240" stroke="#0000b2" stroke-width="4.0" fill="none" class="tri_OUT3"/>
<path d="M 380,240 L 460,240 L 460,320 L 580,320" stroke="#0000b2" stroke-width="4.0" fill="none" class="A3"/>
<path d="M 860,300 L 860,500 L 920,500" stroke="#0000b2" stroke-width="4.0" fill="none" class="alu_SUM2"/>
<path d="M 1080,140 L 1080,180 L 1120,180" stroke="#0000b2" stroke-width="4.0" fill="none" class="EO"/>
<path d="M 820,560 L 820,820 L 1200,820" stroke="#0000b2" stroke-width="4.0" fill="none" class="alu_SUM4"/>
<path d="M 1140,120 L 1200,120" stroke="#0000b2" stroke-width="4.0" fill="none" class="tri_OUT0"/>
<path d="M 380,120 L 520,120 L 520,260 L 580,260" stroke="#0000b2" stroke-width="4.0" fill="none" class="A0"/>
<path d="M 380,440 L 400,440 L 400,420 L 580,420" stroke="#0000b2" stroke-width="4.0" fill="none" class="B0"/>
<path d="M 380,760 L 560,760 L 560,580 L 580,580" stroke="#0000b2" stroke-width="4.0" fill="none" class="SU"/>
<path d="M 720,380 L 780,380 L 1060,380 L 1060,360 L 1100,360" stroke="#0000b2" stroke-width="4.0" fill="none" class="alu_SUM6"/>
<path d="M 880,480 L 880,700 L 1200,700" stroke="#0000b2" stroke-width="4.0" fill="none" class="alu_SUM1"/>
<path d="M 1120,340 L 1080,340 L 1080,380 L 1120,380" stroke="#0000b2" stroke-width="4.0" fill="none" class="EO"/>
<path d="M 1080,300 L 1080,340" stroke="#0000b2" stroke-width="4.0" fill="none" class="EO"/>
<g>
<circle cx="840.0" cy="320.0" r="4.0" stroke="#0000b2" stroke-width="4.0" fill="#0000b2" class="alu_SUM3"/>
<circle cx="1080.0" cy="260.0" r="4.0" stroke="#0000b2" stroke-width="4.0" fill="#0000b2" class="EO"/>
<circle cx="900.0" cy="260.0" r="4.0" stroke="#0000b2" stroke-width="4.0" fill="#0000b2" class="alu_SUM0"/>
<circle cx="800.0" cy="580.0" r="4.0" stroke="#0000b2" stroke-width="4.0" fill="#0000b2" class="alu_SUM5"/>
<circle cx="840.0" cy="520.0" r="4.0" stroke="#0000b2" stroke-width="4.0" fill="#0000b2" class="alu_SUM3"/>
<circle cx="1080.0" cy="140.0" r="4.0" stroke="#0000b2" stroke-width="4.0" fill="#0000b2" class="EO"/>
<circle cx="900.0" cy="460.0" r="4.0" stroke="#0000b2" stroke-width="4.0" fill="#0000b2" class="alu_SUM0"/>
<circle cx="760.0" cy="400.0" r="4.0" stroke="#0000b2" stroke-width="4.0" fill="#0000b2" class="alu_SUM7"/>
<circle cx="1080.0" cy="340.0" r="4.0" stroke="#0000b2" stroke-width="4.0" fill="#0000b2" class="EO"/>
<circle cx="820.0" cy="340.0" r="4.0" stroke="#0000b2" stroke-width="4.0" fill="#0000b2" class="alu_SUM4"/>
<circle cx="780.0" cy="600.0" r="4.0" stroke="#0000b2" stroke-width="4.0" fill="#0000b2" class="alu_SUM6"/>
<circle cx="880.0" cy="280.0" r="4.0" stroke="#0000b2" stroke-width="4.0" fill="#0000b2" class="alu_SUM1"/>
<circle cx="1080.0" cy="220.0" r="4.0" stroke="#0000b2" stroke-width="4.0" fill="#0000b2" class="EO"/>
<circle cx="880.0" cy="480.0" r="4.0" stroke="#0000b2" stroke-width="4.0" fill="#0000b2" class="alu_SUM1"/>
<circle cx="1080.0" cy="100.0" r="4.0" stroke="#0000b2" stroke-width="4.0" fill="#0000b2" class="EO"/>
<circle cx="800.0" cy="360.0" r="4.0" stroke="#0000b2" stroke-width="4.0" fill="#0000b2" class="alu_SUM5"/>
<circle cx="760.0" cy="620.0" r="4.0" stroke="#0000b2" stroke-width="4.0" fill="#0000b2" class="alu_SUM7"/>
<circle cx="1080.0" cy="300.0" r="4.0" stroke="#0000b2" stroke-width="4.0" fill="#0000b2" class="EO"/>
<circle cx="860.0" cy="300.0" r="4.0" stroke="#0000b2" stroke-width="4.0" fill="#0000b2" class="alu_SUM2"/>
<circle cx="820.0" cy="560.0" r="4.0" stroke="#0000b2" stroke-width="4.0" fill="#0000b2" class="alu_SUM4"/>
<circle cx="860.0" cy="500.0" r="4.0" stroke="#0000b2" stroke-width="4.0" fill="#0000b2" class="alu_SUM2"/>
<circle cx="1080.0" cy="180.0" r="4.0" stroke="#0000b2" stroke-width="4.0" fill="#0000b2" class="EO"/>
<circle cx="780.0" cy="380.0" r="4.0" stroke="#0000b2" stroke-width="4.0" fill="#0000b2" class="alu_SUM6"/>
</g>
<g class="ALU" pointer-events="visible">
<path d="M 581,246 L 719,246 L 719,594 L 581,594 Z" stroke="#ffffb4" stroke-width="0.0" fill="#ffffb4" fill-opacity="0.7843137254901961"/>
<path d="M 581,246 L 719,246 L 719,594 L 581,594 Z" stroke="#000000" stroke-width="4.0" fill="none"/>
<text text-anchor="start" x="584.0" y="266.75" fill="#808080" style="font-size:18px">A0</text>
<text text-anchor="start" x="584.0" y="286.75" fill="#808080" style="font-size:18px">A1</text>
<text text-anchor="start" x="584.0" y="306.75" fill="#808080" style="font-size:18px">A2</text>
<text text-anchor="start" x="584.0" y="326.75" fill="#808080" style="font-size:18px">A3</text>
<text text-anchor="start" x="584.0" y="346.75" fill="#808080" style="font-size:18px">A4</text>
<text text-anchor="start" x="584.0" y="366.75" fill="#808080" style="font-size:18px">A5</text>
<text text-anchor="start" x="584.0" y="386.75" fill="#808080" style="font-size:18px">A6</text>
<text text-anchor="start" x="584.0" y="406.75" fill="#808080" style="font-size:18px">A7</text>
<text text-anchor="start" x="584.0" y="426.75" fill="#808080" style="font-size:18px">B0</text>
<text text-anchor="start" x="584.0" y="446.75" fill="#808080" style="font-size:18px">B1</text>
<text text-anchor="start" x="584.0" y="466.75" fill="#808080" style="font-size:18px">B2</text>
<text text-anchor="start" x="584.0" y="486.75" fill="#808080" style="font-size:18px">B3</text>
<text text-anchor="start" x="584.0" y="506.75" fill="#808080" style="font-size:18px">B4</text>
<text text-anchor="start" x="584.0" y="526.75" fill="#808080" style="font-size:18px">B5</text>
<text text-anchor="start" x="584.0" y="546.75" fill="#808080" style="font-size:18px">B6</text>
<text text-anchor="start" x="584.0" y="566.75" fill="#808080" style="font-size:18px">B7</text>
<text text-anchor="start" x="584.0" y="586.75" fill="#808080" style="font-size:18px">SU</text>
<text text-anchor="end" x="716.0" y="266.75" fill="#808080" style="font-size:18px">SUM0</text>
<text text-anchor="end" x="716.0" y="286.75" fill="#808080" style="font-size:18px">SUM1</text>
<text text-anchor="end" x="716.0" y="306.75" fill="#808080" style="font-size:18px">SUM2</text>
<text text-anchor="end" x="716.0" y="326.75" fill="#808080" style="font-size:18px">SUM3</text>
<text text-anchor="end" x="716.0" y="346.75" fill="#808080" style="font-size:18px">SUM4</text>
<text text-anchor="end" x="716.0" y="366.75" fill="#808080" style="font-size:18px">SUM5</text>
<text text-anchor="end" x="716.0" y="386.75" fill="#808080" style="font-size:18px">SUM6</text>
<text text-anchor="end" x="716.0" y="406.75" fill="#808080" style="font-size:18px">SUM7</text>
<text text-anchor="end" x="716.0" y="426.75" fill="#808080" style="font-size:18px">CO</text>
<text text-anchor="middle" x="650.0" y="611.5" fill="#808080" style="font-size:18px">ALU</text>
<circle cx="580.0" cy="260.0" r="2.0" stroke="#0000b2" stroke-width="4.0" fill="#0000b2"/>
<circle cx="580.0" cy="280.0" r="2.0" stroke="#0000b2" stroke-width="4.0" fill="#0000b2"/>
<circle cx="580.0" cy="300.0" r="2.0" stroke="#0000b2" stroke-width="4.0" fill="#0000b2"/>
<circle cx="580.0" cy="320.0" r="2.0" stroke="#0000b2" stroke-width="4.0" fill="#0000b2"/>
<circle cx="580.0" cy="340.0" r="2.0" stroke="#0000b2" stroke-width="4.0" fill="#0000b2"/>
<circle cx="580.0" cy="360.0" r="2.0" stroke="#0000b2" stroke-width="4.0" fill="#0000b2"/>
<circle cx="580.0" cy="380.0" r="2.0" stroke="#0000b2" stroke-width="4.0" fill="#0000b2"/>
<circle cx="580.0" cy="400.0" r="2.0" stroke="#0000b2" stroke-width="4.0" fill="#0000b2"/>
<circle cx="580.0" cy="420.0" r="2.0" stroke="#0000b2" stroke-width="4.0" fill="#0000b2"/>
<circle cx="580.0" cy="440.0" r="2.0" stroke="#0000b2" stroke-width="4.0" fill="#0000b2"/>
<circle cx="580.0" cy="460.0" r="2.0" stroke="#0000b2" stroke-width="4.0" fill="#0000b2"/>
<circle cx="580.0" cy="480.0" r="2.0" stroke="#0000b2" stroke-width="4.0" fill="#0000b2"/>
<circle cx="580.0" cy="500.0" r="2.0" stroke="#0000b2" stroke-width="4.0" fill="#0000b2"/>
<circle cx="580.0" cy="520.0" r="2.0" stroke="#0000b2" stroke-width="4.0" fill="#0000b2"/>
<circle cx="580.0" cy="540.0" r="2.0" stroke="#0000b2" stroke-width="4.0" fill="#0000b2"/>
<circle cx="580.0" cy="560.0" r="2.0" stroke="#0000b2" stroke-width="4.0" fill="#0000b2"/>
<circle cx="580.0" cy="580.0" r="2.0" stroke="#0000b2" stroke-width="4.0" fill="#0000b2"/>
<circle cx="720.0" cy="260.0" r="2.0" stroke="#b20000" stroke-width="4.0" fill="#b20000"/>
<circle cx="720.0" cy="280.0" r="2.0" stroke="#b20000" stroke-width="4.0" fill="#b20000"/>
<circle cx="720.0" cy="300.0" r="2.0" stroke="#b20000" stroke-width="4.0" fill="#b20000"/>
<circle cx="720.0" cy="320.0" r="2.0" stroke="#b20000" stroke-width="4.0" fill="#b20000"/>
<circle cx="720.0" cy="340.0" r="2.0" stroke="#b20000" stroke-width="4.0" fill="#b20000"/>
<circle cx="720.0" cy="360.0" r="2.0" stroke="#b20000" stroke-width="4.0" fill="#b20000"/>
<circle cx="720.0" cy="380.0" r="2.0" stroke="#b20000" stroke-width="4.0" fill="#b20000"/>
<circle cx="720.0" cy="400.0" r="2.0" stroke="#b20000" stroke-width="4.0" fill="#b20000"/>
<circle cx="720.0" cy="420.0" r="2.0" stroke="#b20000" stroke-width="4.0" fill="#b20000"/>
</g>
<g class="Input" id="A0" pointer-events="visible">
<path d="M 349,105 L 379,105 L 379,135 L 349,135 Z" stroke="#000000" stroke-width="4.0" fill="none"/>
<circle cx="364.0" cy="120.0" r="9.0" stroke="#000000" stroke-width="4.0" fill="none" class="A0"/>
<text text-anchor="end" x="335.0" y="129.0" fill="#000000" style="font-size:24px"><tspan style="font-style:italic;">A0</tspan></text>
<circle cx="380.0" cy="120.0" r="2.0" stroke="#b20000" stroke-width="4.0" fill="#b20000"/>
</g>
<g class="Input" id="A1" pointer-events="visible">
<path d="M 349,145 L 379,145 L 379,175 L 349,175 Z" stroke="#000000" stroke-width="4.0" fill="none"/>
<circle cx="364.0" cy="160.0" r="9.0" stroke="#000000" stroke-width="4.0" fill="none" class="A1"/>
<text text-anchor="end" x="335.0" y="169.0" fill="#000000" style="font-size:24px"><tspan style="font-style:italic;">A1</tspan></text>
<circle cx="380.0" cy="160.0" r="2.0" stroke="#b20000" stroke-width="4.0" fill="#b20000"/>
</g>
<g class="Input" id="A2" pointer-events="visible">
<path d="M 349,185 L 379,185 L 379,215 L 349,215 Z" stroke="#000000" stroke-width="4.0" fill="none"/>
<circle cx="364.0" cy="200.0" r="9.0" stroke="#000000" stroke-width="4.0" fill="none" class="A2"/>
<text text-anchor="end" x="335.0" y="209.0" fill="#000000" style="font-size:24px"><tspan style="font-style:italic;">A2</tspan></text>
<circle cx="380.0" cy="200.0" r="2.0" stroke="#b20000" stroke-width="4.0" fill="#b20000"/>
</g>
<g class="Input" id="A3" pointer-events="visible">
<path d="M 349,225 L 379,225 L 379,255 L 349,255 Z" stroke="#000000" stroke-width="4.0" fill="none"/>
<circle cx="364.0" cy="240.0" r="9.0" stroke="#000000" stroke-width="4.0" fill="none" class="A3"/>
<text text-anchor="end" x="335.0" y="249.0" fill="#000000" style="font-size:24px"><tspan style="font-style:italic;">A3</tspan></text>
<circle cx="380.0" cy="240.0" r="2.0" stroke="#b20000" stroke-width="4.0" fill="#b20000"/>
</g>
<g class="Input" id="A4" pointer-events="visible">
<path d="M 349,265 L 379,265 L 379,295 L 349,295 Z" stroke="#000000" stroke-width="4.0" fill="none"/>
<circle cx="364.0" cy="280.0" r="9.0" stroke="#000000" stroke-width="4.0" fill="none" class="A4"/>
<text text-anchor="end" x="335.0" y="289.0" fill="#000000" style="font-size:24px"><tspan style="font-style:italic;">A4</tspan></text>
<circle cx="380.0" cy="280.0" r="2.0" stroke="#b20000" stroke-width="4.0" fill="#b20000"/>
</g>
<g class="Input" id="A5" pointer-events="visible">
<path d="M 349,305 L 379,305 L 379,335 L 349,335 Z" stroke="#000000" stroke-width="4.0" fill="none"/>
<circle cx="364.0" cy="320.0" r="9.0" stroke="#000000" stroke-width="4.0" fill="none" class="A5"/>
<text text-anchor="end" x="335.0" y="329.0" fill="#000000" style="font-size:24px"><tspan style="font-style:italic;">A5</tspan></text>
<circle cx="380.0" cy="320.0" r="2.0" stroke="#b20000" stroke-width="4.0" fill="#b20000"/>
</g>
<g class="Input" id="A6" pointer-events="visible">
<path d="M 349,345 L 379,345 L 379,375 L 349,375 Z" stroke="#000000" stroke-width="4.0" fill="none"/>
<circle cx="364.0" cy="360.0" r="9.0" stroke="#000000" stroke-width="4.0" fill="none" class="A6"/>
<text text-anchor="end" x="335.0" y="369.0" fill="#000000" style="font-size:24px"><tspan style="font-style:italic;">A6</tspan></text>
<circle cx="380.0" cy="360.0" r="2.0" stroke="#b20000" stroke-width="4.0" fill="#b20000"/>
</g>
<g class="Input" id="A7" pointer-events="visible">
<path d="M 349,385 L 379,385 L 379,415 L 349,415 Z" stroke="#000000" stroke-width="4.0" fill="none"/>
<circle cx="364.0" cy="400.0" r="9.0" stroke="#000000" stroke-width="4.0" fill="none" class="A7"/>
<text text-anchor="end" x="335.0" y="409.0" fill="#000000" style="font-size:24px"><tspan style="font-style:italic;">A7</tspan></text>
<circle cx="380.0" cy="400.0" r="2.0" stroke="#b20000" stroke-width="4.0" fill="#b20000"/>
</g>
<g class="Input" id="B0" pointer-events="visible">
<path d="M 349,425 L 379,425 L 379,455 L 349,455 Z" stroke="#000000" stroke-width="4.0" fill="none"/>
<circle cx="364.0" cy="440.0" r="9.0" stroke="#000000" stroke-width="4.0" fill="none" class="B0"/>
<text text-anchor="end" x="335.0" y="449.0" fill="#000000" style="font-size:24px"><tspan style="font-style:italic;">B0</tspan></text>
<circle cx="380.0" cy="440.0" r="2.0" stroke="#b20000" stroke-width="4.0" fill="#b20000"/>
</g>
<g class="Input" id="B1" pointer-events="visible">
<path d="M 349,465 L 379,465 L 379,495 L 349,495 Z" stroke="#000000" stroke-width="4.0" fill="none"/>
<circle cx="364.0" cy="480.0" r="9.0" stroke="#000000" stroke-width="4.0" fill="none" class="B1"/>
<text text-anchor="end" x="335.0" y="489.0" fill="#000000" style="font-size:24px"><tspan style="font-style:italic;">B1</tspan></text>
<circle cx="380.0" cy="480.0" r="2.0" stroke="#b20000" stroke-width="4.0" fill="#b20000"/>
</g>
<g class="Input" id="B2" pointer-events="visible">
<path d="M 349,505 L 379,505 L 379,535 L 349,535 Z" stroke="#000000" stroke-width="4.0" fill="none"/>
<circle cx="364.0" cy="520.0" r="9.0" stroke="#000000" stroke-width="4.0" fill="none" class="B2"/>
<text text-anchor="end" x="335.0" y="529.0" fill="#000000" style="font-size:24px"><tspan style="font-style:italic;">B2</tspan></text>
<circle cx="380.0" cy="520.0" r="2.0" stroke="#b20000" stroke-width="4.0" fill="#b20000"/>
</g>
<g class="Input" id="B3" pointer-events="visible">
<path d="M 349,545 L 379,545 L 379,575 L 349,575 Z" stroke="#000000" stroke-width="4.0" fill="none"/>
<circle cx="364.0" cy="560.0" r="9.0" stroke="#000000" stroke-width="4.0" fill="none" class="B3"/>
<text text-anchor="end" x="335.0" y="569.0" fill="#000000" style="font-size:24px"><tspan style="font-style:italic;">B3</tspan></text>
<circle cx="380.0" cy="560.0" r="2.0" stroke="#b20000" stroke-width="4.0" fill="#b20000"/>
</g>
<g class="Input" id="B4" pointer-events="visible">
<path d="M 349,585 L 379,585 L 379,615 L 349,615 Z" stroke="#000000" stroke-width="4.0" fill="none"/>
<circle cx="364.0" cy="600.0" r="9.0" stroke="#000000" stroke-width="4.0" fill="none" class="B4"/>
<text text-anchor="end" x="335.0" y="609.0" fill="#000000" style="font-size:24px"><tspan style="font-style:italic;">B4</tspan></text>
<circle cx="380.0" cy="600.0" r="2.0" stroke="#b20000" stroke-width="4.0" fill="#b20000"/>
</g>
<g class="Input" id="B5" pointer-events="visible">
<path d="M 349,625 L 379,625 L 379,655 L 349,655 Z" stroke="#000000" stroke-width="4.0" fill="none"/>
<circle cx="364.0" cy="640.0" r="9.0" stroke="#000000" stroke-width="4.0" fill="none" class="B5"/>
<text text-anchor="end" x="335.0" y="649.0" fill="#000000" style="font-size:24px"><tspan style="font-style:italic;">B5</tspan></text>
<circle cx="380.0" cy="640.0" r="2.0" stroke="#b20000" stroke-width="4.0" fill="#b20000"/>
</g>
<g class="Input" id="B6" pointer-events="visible">
<path d="M 349,665 L 379,665 L 379,695 L 349,695 Z" stroke="#000000" stroke-width="4.0" fill="none"/>
<circle cx="364.0" cy="680.0" r="9.0" stroke="#000000" stroke-width="4.0" fill="none" class="B6"/>
<text text-anchor="end" x="335.0" y="689.0" fill="#000000" style="font-size:24px"><tspan style="font-style:italic;">B6</tspan></text>
<circle cx="380.0" cy="680.0" r="2.0" stroke="#b20000" stroke-width="4.0" fill="#b20000"/>
</g>
<g class="Input" id="B7" pointer-events="visible">
<path d="M 349,705 L 379,705 L 379,735 L 349,735 Z" stroke="#000000" stroke-width="4.0" fill="none"/>
<circle cx="364.0" cy="720.0" r="9.0" stroke="#000000" stroke-width="4.0" fill="none" class="B7"/>
<text text-anchor="end" x="335.0" y="729.0" fill="#000000" style="font-size:24px"><tspan style="font-style:italic;">B7</tspan></text>
<circle cx="380.0" cy="720.0" r="2.0" stroke="#b20000" stroke-width="4.0" fill="#b20000"/>
</g>
<g class="Input" id="SU" pointer-events="visible">
<path d="M 349,745 L 379,745 L 379,775 L 349,775 Z" stroke="#000000" stroke-width="4.0" fill="none"/>
<circle cx="364.0" cy="760.0" r="9.0" stroke="#000000" stroke-width="4.0" fill="none" class="SU"/>
<text text-anchor="end" x="335.0" y="769.0" fill="#000000" style="font-size:24px"><tspan style="font-style:italic;">SU</tspan></text>
<circle cx="380.0" cy="760.0" r="2.0" stroke="#b20000" stroke-width="4.0" fill="#b20000"/>
</g>
<g>
<path d="M 1101,108 L 1139,120 L 1101,132 Z" stroke="#000000" stroke-width="4.0" fill="none"/>
<circle cx="1100.0" cy="120.0" r="2.0" stroke="#0000b2" stroke-width="4.0" fill="#0000b2"/>
<circle cx="1120.0" cy="100.0" r="2.0" stroke="#0000b2" stroke-width="4.0" fill="#0000b2"/>
<circle cx="1140.0" cy="120.0" r="2.0" stroke="#b20000" stroke-width="4.0" fill="#b20000"/>
</g>
<g>
<path d="M 1101,148 L 1139,160 L 1101,172 Z" stroke="#000000" stroke-width="4.0" fill="none"/>
<circle cx="1100.0" cy="160.0" r="2.0" stroke="#0000b2" stroke-width="4.0" fill="#0000b2"/>
<circle cx="1120.0" cy="140.0" r="2.0" stroke="#0000b2" stroke-width="4.0" fill="#0000b2"/>
<circle cx="1140.0" cy="160.0" r="2.0" stroke="#b20000" stroke-width="4.0" fill="#b20000"/>
</g>
<g>
<path d="M 1101,188 L 1139,200 L 1101,212 Z" stroke="#000000" stroke-width="4.0" fill="none"/>
<circle cx="1100.0" cy="200.0" r="2.0" stroke="#0000b2" stroke-width="4.0" fill="#0000b2"/>
<circle cx="1120.0" cy="180.0" r="2.0" stroke="#0000b2" stroke-width="4.0" fill="#0000b2"/>
<circle cx="1140.0" cy="200.0" r="2.0" stroke="#b20000" stroke-width="4.0" fill="#b20000"/>
</g>
<g>
<path d="M 1101,228 L 1139,240 L 1101,252 Z" stroke="#000000" stroke-width="4.0" fill="none"/>
<circle cx="1100.0" cy="240.0" r="2.0" stroke="#0000b2" stroke-width="4.0" fill="#0000b2"/>
<circle cx="1120.0" cy="220.0" r="2.0" stroke="#0000b2" stroke-width="4.0" fill="#0000b2"/>
<circle cx="1140.0" cy="240.0" r="2.0" stroke="#b20000" stroke-width="4.0" fill="#b20000"/>
</g>
<g>
<path d="M 1101,268 L 1139,280 L 1101,292 Z" stroke="#000000" stroke-width="4.0" fill="none"/>
<circle cx="1100.0" cy="280.0" r="2.0" stroke="#0000b2" stroke-width="4.0" fill="#0000b2"/>
<circle cx="1120.0" cy="260.0" r="2.0" stroke="#0000b2" stroke-width="4.0" fill="#0000b2"/>
<circle cx="1140.0" cy="280.0" r="2.0" stroke="#b20000" stroke-width="4.0" fill="#b20000"/>
</g>
<g>
<path d="M 1101,308 L 1139,320 L 1101,332 Z" stroke="#000000" stroke-width="4.0" fill="none"/>
<circle cx="1100.0" cy="320.0" r="2.0" stroke="#0000b2" stroke-width="4.0" fill="#0000b2"/>
<circle cx="1120.0" cy="300.0" r="2.0" stroke="#0000b2" stroke-width="4.0" fill="#0000b2"/>
<circle cx="1140.0" cy="320.0" r="2.0" stroke="#b20000" stroke-width="4.0" fill="#b20000"/>
</g>
<g>
<path d="M 1101,348 L 1139,360 L 1101,372 Z" stroke="#000000" stroke-width="4.0" fill="none"/>
<circle cx="1100.0" cy="360.0" r="2.0" stroke="#0000b2" stroke-width="4.0" fill="#0000b2"/>
<circle cx="1120.0" cy="340.0" r="2.0" stroke="#0000b2" stroke-width="4.0" fill="#0000b2"/>
<circle cx="1140.0" cy="360.0" r="2.0" stroke="#b20000" stroke-width="4.0" fill="#b20000"/>
</g>
<g>
<path d="M 1101,388 L 1139,400 L 1101,412 Z" stroke="#000000" stroke-width="4.0" fill="none"/>
<circle cx="1100.0" cy="400.0" r="2.0" stroke="#0000b2" stroke-width="4.0" fill="#0000b2"/>
<circle cx="1120.0" cy="380.0" r="2.0" stroke="#0000b2" stroke-width="4.0" fill="#0000b2"/>
<circle cx="1140.0" cy="400.0" r="2.0" stroke="#b20000" stroke-width="4.0" fill="#b20000"/>
</g>
<g class="Output" id="SUM7">
<circle cx="1216.0" cy="940.0" r="9.0" stroke="#000000" stroke-width="4.0" fill="none" class="alu_SUM7"/>
<circle cx="1216.0" cy="940.0" r="15.0" stroke="#000000" stroke-width="4.0" fill="none" class="SUM7"/>
<text text-anchor="start" x="1245.0" y="949.0" fill="#000000" style="font-size:24px"><tspan style="font-style:italic;">SUM7</tspan></text>
<circle cx="1200.0" cy="940.0" r="2.0" stroke="#0000b2" stroke-width="4.0" fill="#0000b2"/>
</g>
<g class="Output" id="SUM6">
<circle cx="1216.0" cy="900.0" r="9.0" stroke="#000000" stroke-width="4.0" fill="none" class="alu_SUM6"/>
<circle cx="1216.0" cy="900.0" r="15.0" stroke="#000000" stroke-width="4.0" fill="none" class="SUM6"/>
<text text-anchor="start" x="1245.0" y="909.0" fill="#000000" style="font-size:24px"><tspan style="font-style:italic;">SUM6</tspan></text>
<circle cx="1200.0" cy="900.0" r="2.0" stroke="#0000b2" stroke-width="4.0" fill="#0000b2"/>
</g>
<g class="Output" id="SUM5">
<circle cx="1216.0" cy="860.0" r="9.0" stroke="#000000" stroke-width="4.0" fill="none" class="alu_SUM5"/>
<circle cx="1216.0" cy="860.0" r="15.0" stroke="#000000" stroke-width="4.0" fill="none" class="SUM5"/>
<text text-anchor="start" x="1245.0" y="869.0" fill="#000000" style="font-size:24px"><tspan style="font-style:italic;">SUM5</tspan></text>
<circle cx="1200.0" cy="860.0" r="2.0" stroke="#0000b2" stroke-width="4.0" fill="#0000b2"/>
</g>
<g class="Output" id="SUM4">
<circle cx="1216.0" cy="820.0" r="9.0" stroke="#000000" stroke-width="4.0" fill="none" class="alu_SUM4"/>
<circle cx="1216.0" cy="820.0" r="15.0" stroke="#000000" stroke-width="4.0" fill="none" class="SUM4"/>
<text text-anchor="start" x="1245.0" y="829.0" fill="#000000" style="font-size:24px"><tspan style="font-style:italic;">SUM4</tspan></text>
<circle cx="1200.0" cy="820.0" r="2.0" stroke="#0000b2" stroke-width="4.0" fill="#0000b2"/>
</g>
<g class="Output" id="SUM3">
<circle cx="1216.0" cy="780.0" r="9.0" stroke="#000000" stroke-width="4.0" fill="none" class="alu_SUM3"/>
<circle cx="1216.0" cy="780.0" r="15.0" stroke="#000000" stroke-width="4.0" fill="none" class="SUM3"/>
<text text-anchor="start" x="1245.0" y="789.0" fill="#000000" style="font-size:24px"><tspan style="font-style:italic;">SUM3</tspan></text>
<circle cx="1200.0" cy="780.0" r="2.0" stroke="#0000b2" stroke-width="4.0" fill="#0000b2"/>
</g>
<g class="Output" id="SUM2">
<circle cx="1216.0" cy="740.0" r="9.0" stroke="#000000" stroke-width="4.0" fill="none" class="alu_SUM2"/>
<circle cx="1216.0" cy="740.0" r="15.0" stroke="#000000" stroke-width="4.0" fill="none" class="SUM2"/>
<text text-anchor="start" x="1245.0" y="749.0" fill="#000000" style="font-size:24px"><tspan style="font-style:italic;">SUM2</tspan></text>
<circle cx="1200.0" cy="740.0" r="2.0" stroke="#0000b2" stroke-width="4.0" fill="#0000b2"/>
</g>
<g class="Output" id="SUM1">
<circle cx="1216.0" cy="700.0" r="9.0" stroke="#000000" stroke-width="4.0" fill="none" class="alu_SUM1"/>
<circle cx="1216.0" cy="700.0" r="15.0" stroke="#000000" stroke-width="4.0" fill="none" class="SUM1"/>
<text text-anchor="start" x="1245.0" y="709.0" fill="#000000" style="font-size:24px"><tspan style="font-style:italic;">SUM1</tspan></text>
<circle cx="1200.0" cy="700.0" r="2.0" stroke="#0000b2" stroke-width="4.0" fill="#0000b2"/>
</g>
<g class="Output" id="SUM0">
<circle cx="1216.0" cy="660.0" r="9.0" stroke="#000000" stroke-width="4.0" fill="none" class="alu_SUM0"/>
<circle cx="1216.0" cy="660.0" r="15.0" stroke="#000000" stroke-width="4.0" fill="none" class="SUM0"/>
<text text-anchor="start" x="1245.0" y="669.0" fill="#000000" style="font-size:24px"><tspan style="font-style:italic;">SUM0</tspan></text>
<circle cx="1200.0" cy="660.0" r="2.0" stroke="#0000b2" stroke-width="4.0" fill="#0000b2"/>
</g>
<g class="Output" id="OUT7">
<circle cx="1216.0" cy="400.0" r="9.0" stroke="#000000" stroke-width="4.0" fill="none" class="tri_OUT7"/>
<circle cx="1216.0" cy="400.0" r="15.0" stroke="#000000" stroke-width="4.0" fill="none" class="OUT7"/>
<text text-anchor="start" x="1245.0" y="409.0" fill="#000000" style="font-size:24px"><tspan style="font-style:italic;">OUT7</tspan></text>
<circle cx="1200.0" cy="400.0" r="2.0" stroke="#0000b2" stroke-width="4.0" fill="#0000b2"/>
</g>
<g class="Input" id="EO" pointer-events="visible">
<path d="M 349,65 L 379,65 L 379,95 L 349,95 Z" stroke="#000000" stroke-width="4.0" fill="none"/>
<circle cx="364.0" cy="80.0" r="9.0" stroke="#000000" stroke-width="4.0" fill="none" class="EO"/>
<text text-anchor="end" x="335.0" y="89.0" fill="#000000" style="font-size:24px"><tspan style="font-style:italic;">EO</tspan></text>
<circle cx="380.0" cy="80.0" r="2.0" stroke="#b20000" stroke-width="4.0" fill="#b20000"/>
</g>
<g class="ISZERO" pointer-events="visible">
<path d="M 921,446 L 1059,446 L 1059,634 L 921,634 Z" stroke="#ffffb4" stroke-width="0.0" fill="#ffffb4" fill-opacity="0.7843137254901961"/>
<path d="M 921,446 L 1059,446 L 1059,634 L 921,634 Z" stroke="#000000" stroke-width="4.0" fill="none"/>
<text text-anchor="start" x="924.0" y="466.75" fill="#808080" style="font-size:18px">D0</text>
<text text-anchor="start" x="924.0" y="486.75" fill="#808080" style="font-size:18px">D1</text>
<text text-anchor="start" x="924.0" y="506.75" fill="#808080" style="font-size:18px">D2</text>
<text text-anchor="start" x="924.0" y="526.75" fill="#808080" style="font-size:18px">D3</text>
<text text-anchor="start" x="924.0" y="566.75" fill="#808080" style="font-size:18px">D4</text>
<text text-anchor="start" x="924.0" y="586.75" fill="#808080" style="font-size:18px">D5</text>
<text text-anchor="start" x="924.0" y="606.75" fill="#808080" style="font-size:18px">D6</text>
<text text-anchor="start" x="924.0" y="626.75" fill="#808080" style="font-size:18px">D7</text>
<text text-anchor="end" x="1056.0" y="546.75" fill="#808080" style="font-size:18px">OUT</text>
<text text-anchor="middle" x="990.0" y="651.5" fill="#808080" style="font-size:18px">ISZERO</text>
<circle cx="920.0" cy="460.0" r="2.0" stroke="#0000b2" stroke-width="4.0" fill="#0000b2"/>
<circle cx="920.0" cy="480.0" r="2.0" stroke="#0000b2" stroke-width="4.0" fill="#0000b2"/>
<circle cx="920.0" cy="500.0" r="2.0" stroke="#0000b2" stroke-width="4.0" fill="#0000b2"/>
<circle cx="920.0" cy="520.0" r="2.0" stroke="#0000b2" stroke-width="4.0" fill="#0000b2"/>
<circle cx="920.0" cy="560.0" r="2.0" stroke="#0000b2" stroke-width="4.0" fill="#0000b2"/>
<circle cx="920.0" cy="580.0" r="2.0" stroke="#0000b2" stroke-width="4.0" fill="#0000b2"/>
<circle cx="920.0" cy="600.0" r="2.0" stroke="#0000b2" stroke-width="4.0" fill="#0000b2"/>
<circle cx="920.0" cy="620.0" r="2.0" stroke="#0000b2" stroke-width="4.0" fill="#0000b2"/>
<circle cx="1060.0" cy="540.0" r="2.0" stroke="#b20000" stroke-width="4.0" fill="#b20000"/>
</g>
<g class="Output" id="OUT6">
<circle cx="1216.0" cy="360.0" r="9.0" stroke="#000000" stroke-width="4.0" fill="none" class="tri_OUT6"/>
<circle cx="1216.0" cy="360.0" r="15.0" stroke="#000000" stroke-width="4.0" fill="none" class="OUT6"/>
<text text-anchor="start" x="1245.0" y="369.0" fill="#000000" style="font-size:24px"><tspan style="font-style:italic;">OUT6</tspan></text>
<circle cx="1200.0" cy="360.0" r="2.0" stroke="#0000b2" stroke-width="4.0" fill="#0000b2"/>
</g>
<g class="Output" id="OUT5">
<circle cx="1216.0" cy="320.0" r="9.0" stroke="#000000" stroke-width="4.0" fill="none" class="tri_OUT5"/>
<circle cx="1216.0" cy="320.0" r="15.0" stroke="#000000" stroke-width="4.0" fill="none" class="OUT5"/>
<text text-anchor="start" x="1245.0" y="329.0" fill="#000000" style="font-size:24px"><tspan style="font-style:italic;">OUT5</tspan></text>
<circle cx="1200.0" cy="320.0" r="2.0" stroke="#0000b2" stroke-width="4.0" fill="#0000b2"/>
</g>
<g class="Output" id="OUT4">
<circle cx="1216.0" cy="280.0" r="9.0" stroke="#000000" stroke-width="4.0" fill="none" class="tri_OUT4"/>
<circle cx="1216.0" cy="280.0" r="15.0" stroke="#000000" stroke-width="4.0" fill="none" class="OUT4"/>
<text text-anchor="start" x="1245.0" y="289.0" fill="#000000" style="font-size:24px"><tspan style="font-style:italic;">OUT4</tspan></text>
<circle cx="1200.0" cy="280.0" r="2.0" stroke="#0000b2" stroke-width="4.0" fill="#0000b2"/>
</g>
<g class="Output" id="OUT3">
<circle cx="1216.0" cy="240.0" r="9.0" stroke="#000000" stroke-width="4.0" fill="none" class="tri_OUT3"/>
<circle cx="1216.0" cy="240.0" r="15.0" stroke="#000000" stroke-width="4.0" fill="none" class="OUT3"/>
<text text-anchor="start" x="1245.0" y="249.0" fill="#000000" style="font-size:24px"><tspan style="font-style:italic;">OUT3</tspan></text>
<circle cx="1200.0" cy="240.0" r="2.0" stroke="#0000b2" stroke-width="4.0" fill="#0000b2"/>
</g>
<g class="Output" id="OUT2">
<circle cx="1216.0" cy="200.0" r="9.0" stroke="#000000" stroke-width="4.0" fill="none" class="tri_OUT2"/>
<circle cx="1216.0" cy="200.0" r="15.0" stroke="#000000" stroke-width="4.0" fill="none" class="OUT2"/>
<text text-anchor="start" x="1245.0" y="209.0" fill="#000000" style="font-size:24px"><tspan style="font-style:italic;">OUT2</tspan></text>
<circle cx="1200.0" cy="200.0" r="2.0" stroke="#0000b2" stroke-width="4.0" fill="#0000b2"/>
</g>
<g class="Output" id="OUT1">
<circle cx="1216.0" cy="160.0" r="9.0" stroke="#000000" stroke-width="4.0" fill="none" class="tri_OUT1"/>
<circle cx="1216.0" cy="160.0" r="15.0" stroke="#000000" stroke-width="4.0" fill="none" class="OUT1"/>
<text text-anchor="start" x="1245.0" y="169.0" fill="#000000" style="font-size:24px"><tspan style="font-style:italic;">OUT1</tspan></text>
<circle cx="1200.0" cy="160.0" r="2.0" stroke="#0000b2" stroke-width="4.0" fill="#0000b2"/>
</g>
<g class="Output" id="OUT0">
<circle cx="1216.0" cy="120.0" r="9.0" stroke="#000000" stroke-width="4.0" fill="none" class="tri_OUT0"/>
<circle cx="1216.0" cy="120.0" r="15.0" stroke="#000000" stroke-width="4.0" fill="none" class="OUT0"/>
<text text-anchor="start" x="1245.0" y="129.0" fill="#000000" style="font-size:24px"><tspan style="font-style:italic;">OUT0</tspan></text>
<circle cx="1200.0" cy="120.0" r="2.0" stroke="#0000b2" stroke-width="4.0" fill="#0000b2"/>
</g>
<g class="Output" id="ISCARRY">
<circle cx="1216.0" cy="500.0" r="9.0" stroke="#000000" stroke-width="4.0" fill="none" class="alu_CO"/>
<circle cx="1216.0" cy="500.0" r="15.0" stroke="#000000" stroke-width="4.0" fill="none" class="ISCARRY"/>
<text text-anchor="start" x="1245.0" y="509.0" fill="#000000" style="font-size:24px"><tspan style="font-style:italic;">ISCARRY</tspan></text>
<circle cx="1200.0" cy="500.0" r="2.0" stroke="#0000b2" stroke-width="4.0" fill="#0000b2"/>
</g>
<g class="Output" id="ISZERO">
<circle cx="1216.0" cy="540.0" r="9.0" stroke="#000000" stroke-width="4.0" fill="none" class="isZero_OUT"/>
<circle cx="1216.0" cy="540.0" r="15.0" stroke="#000000" stroke-width="4.0" fill="none" class="ISZERO"/>
<text text-anchor="start" x="1245.0" y="549.0" fill="#000000" style="font-size:24px"><tspan style="font-style:italic;">ISZERO</tspan></text>
<circle cx="1200.0" cy="540.0" r="2.0" stroke="#0000b2" stroke-width="4.0" fill="#0000b2"/>
</g>
</g>
</svg>